<svg width="61" height="30" viewBox="0 0 61 30" fill="none" xmlns="http://www.w3.org/2000/svg">
<path d="M8.312 29.2C8.07733 29.2 7.88533 29.1147 7.736 28.944C7.58667 28.7947 7.512 28.6133 7.512 28.4V26.16C5.86933 25.968 4.49333 25.5627 3.384 24.944C2.296 24.304 1.47467 23.5467 0.92 22.672C0.365333 21.7973 0.0666667 20.8693 0.024 19.888C0.024 19.7173 0.0880001 19.568 0.216 19.44C0.365333 19.2907 0.536 19.216 0.728 19.216H4.76C5.05867 19.216 5.28267 19.2693 5.432 19.376C5.60267 19.4827 5.752 19.6213 5.88 19.792C6.05067 20.112 6.28533 20.4213 6.584 20.72C6.904 21.0187 7.30933 21.264 7.8 21.456C8.312 21.6267 8.94133 21.712 9.688 21.712C10.9253 21.712 11.8533 21.52 12.472 21.136C13.112 20.752 13.432 20.2293 13.432 19.568C13.432 19.0773 13.2613 18.6827 12.92 18.384C12.5787 18.0853 12.024 17.8187 11.256 17.584C10.5093 17.328 9.50667 17.072 8.248 16.816C6.62667 16.4747 5.24 16.0373 4.088 15.504C2.95733 14.9493 2.09333 14.2347 1.496 13.36C0.898667 12.464 0.6 11.3547 0.6 10.032C0.6 8.32533 1.208 6.87466 2.424 5.68C3.66133 4.48533 5.35733 3.73867 7.512 3.44V1.2C7.512 0.965333 7.58667 0.773333 7.736 0.623999C7.88533 0.474666 8.07733 0.4 8.312 0.4H10.968C11.1813 0.4 11.3627 0.474666 11.512 0.623999C11.6827 0.773333 11.768 0.965333 11.768 1.2V3.504C13.24 3.76 14.4773 4.21867 15.48 4.88C16.4827 5.54133 17.24 6.288 17.752 7.12C18.2853 7.952 18.5627 8.752 18.584 9.52C18.584 9.69067 18.52 9.85067 18.392 10C18.264 10.128 18.104 10.192 17.912 10.192H13.688C13.4533 10.192 13.2507 10.1493 13.08 10.064C12.9093 9.97867 12.76 9.84 12.632 9.648C12.504 9.17867 12.1627 8.77333 11.608 8.432C11.0533 8.06933 10.3493 7.888 9.496 7.888C8.55733 7.888 7.82133 8.05867 7.288 8.4C6.776 8.72 6.52 9.22133 6.52 9.904C6.52 10.3307 6.65867 10.704 6.936 11.024C7.23467 11.344 7.71467 11.6213 8.376 11.856C9.05867 12.0907 9.98667 12.336 11.16 12.592C13.1013 12.9547 14.6693 13.4133 15.864 13.968C17.0587 14.5013 17.9333 15.2053 18.488 16.08C19.0427 16.9333 19.32 18.0107 19.32 19.312C19.32 20.5707 19 21.68 18.36 22.64C17.7413 23.6 16.8667 24.3787 15.736 24.976C14.6053 25.5733 13.2827 25.968 11.768 26.16V28.4C11.768 28.6133 11.6827 28.7947 11.512 28.944C11.3627 29.1147 11.1813 29.2 10.968 29.2H8.312ZM30.615 26.352C28.6097 26.352 26.935 26.0427 25.591 25.424C24.247 24.784 23.223 23.9627 22.519 22.96C21.8363 21.936 21.4737 20.8373 21.431 19.664C21.431 19.472 21.495 19.312 21.623 19.184C21.751 19.056 21.911 18.992 22.103 18.992H26.391C26.6683 18.992 26.8817 19.0453 27.031 19.152C27.2017 19.2587 27.3297 19.408 27.415 19.6C27.607 20.0907 27.863 20.496 28.183 20.816C28.503 21.136 28.8657 21.3707 29.271 21.52C29.6763 21.6693 30.135 21.744 30.647 21.744C31.2443 21.744 31.799 21.616 32.311 21.36C32.823 21.104 33.2283 20.7307 33.527 20.24C33.847 19.728 34.007 19.12 34.007 18.416C34.007 17.776 33.8577 17.2213 33.559 16.752C33.2817 16.2827 32.887 15.9093 32.375 15.632C31.8843 15.3547 31.3083 15.216 30.647 15.216C30.135 15.216 29.719 15.28 29.399 15.408C29.079 15.5147 28.8123 15.6533 28.599 15.824C28.3857 15.9947 28.1937 16.144 28.023 16.272C27.8523 16.3787 27.6603 16.432 27.447 16.432H23.255C23.063 16.432 22.8923 16.368 22.743 16.24C22.615 16.0907 22.551 15.92 22.551 15.728L23.703 4.56C23.7457 4.24 23.863 4.00533 24.055 3.856C24.247 3.68533 24.4817 3.6 24.759 3.6H37.591C37.8257 3.6 38.0177 3.67467 38.167 3.824C38.3377 3.97333 38.423 4.16533 38.423 4.4V7.408C38.423 7.64267 38.3377 7.83467 38.167 7.984C38.0177 8.13333 37.8257 8.208 37.591 8.208H28.311L27.895 12.336C28.3643 12.0373 28.9083 11.7813 29.527 11.568C30.167 11.3547 31.0417 11.248 32.151 11.248C33.1537 11.248 34.1137 11.4293 35.031 11.792C35.9697 12.1333 36.8017 12.624 37.527 13.264C38.2737 13.904 38.8497 14.672 39.255 15.568C39.6817 16.4427 39.895 17.4347 39.895 18.544C39.895 20.0587 39.5217 21.4027 38.775 22.576C38.0497 23.7493 36.9937 24.6773 35.607 25.36C34.2203 26.0213 32.5563 26.352 30.615 26.352ZM51.4625 26.32C49.8198 26.32 48.4012 26.128 47.2065 25.744C46.0332 25.3387 45.0732 24.8267 44.3265 24.208C43.5798 23.568 43.0252 22.896 42.6625 22.192C42.2998 21.4667 42.1078 20.7733 42.0865 20.112C42.0865 19.92 42.1505 19.76 42.2785 19.632C42.4278 19.504 42.5985 19.44 42.7905 19.44H46.9825C47.2172 19.44 47.4092 19.4933 47.5585 19.6C47.7078 19.6853 47.8465 19.8347 47.9745 20.048C48.1452 20.4533 48.3905 20.784 48.7105 21.04C49.0518 21.296 49.4572 21.4773 49.9265 21.584C50.3958 21.6693 50.9078 21.712 51.4625 21.712C52.5505 21.712 53.3932 21.4667 53.9905 20.976C54.6092 20.464 54.9185 19.7707 54.9185 18.896C54.9185 17.9787 54.6305 17.328 54.0545 16.944C53.4785 16.5387 52.6572 16.336 51.5905 16.336H48.0385C47.8038 16.336 47.6118 16.2613 47.4625 16.112C47.3132 15.9627 47.2385 15.7707 47.2385 15.536V13.744C47.2385 13.488 47.2918 13.264 47.3985 13.072C47.5052 12.88 47.6225 12.7413 47.7505 12.656L52.9985 8.208H44.1025C43.8892 8.208 43.6972 8.13333 43.5265 7.984C43.3772 7.83467 43.3025 7.64267 43.3025 7.408V4.4C43.3025 4.16533 43.3772 3.97333 43.5265 3.824C43.6972 3.67467 43.8892 3.6 44.1025 3.6H58.8225C59.0572 3.6 59.2492 3.67467 59.3985 3.824C59.5692 3.97333 59.6545 4.16533 59.6545 4.4V7.12C59.6545 7.35467 59.6012 7.568 59.4945 7.76C59.3878 7.93067 59.2705 8.06933 59.1425 8.176L54.2785 12.688L54.5025 12.752C55.7398 12.9013 56.8278 13.2213 57.7665 13.712C58.7265 14.2027 59.4838 14.9067 60.0385 15.824C60.5932 16.72 60.8705 17.8613 60.8705 19.248C60.8705 20.6987 60.4545 21.9573 59.6225 23.024C58.8118 24.0693 57.7025 24.88 56.2945 25.456C54.8865 26.032 53.2758 26.32 51.4625 26.32Z" fill="#1C3554"/>
</svg>
