<svg width="53" height="23" viewBox="0 0 53 23" fill="none" xmlns="http://www.w3.org/2000/svg">
<path d="M8.15594 3.056C8.93994 3.168 9.63594 3.384 10.2439 3.704C10.8519 4.024 11.3639 4.392 11.7799 4.808C12.1959 5.224 12.5159 5.656 12.7399 6.104C12.9639 6.552 13.0839 6.952 13.0999 7.304C13.1159 7.448 13.0679 7.576 12.9559 7.688C12.8439 7.784 12.7159 7.832 12.5719 7.832H11.5879C11.4119 7.832 11.2679 7.8 11.1559 7.736C11.0599 7.672 10.9559 7.528 10.8439 7.304C10.7639 7.144 10.6279 6.944 10.4359 6.704C10.2599 6.448 10.0119 6.208 9.69194 5.984C9.38794 5.744 9.01194 5.544 8.56394 5.384C8.11594 5.208 7.59594 5.12 7.00394 5.12C6.55594 5.12 6.12394 5.176 5.70794 5.288C5.30794 5.384 4.94794 5.536 4.62794 5.744C4.30794 5.952 4.05194 6.216 3.85994 6.536C3.66794 6.84 3.57194 7.2 3.57194 7.616C3.57194 8.032 3.65994 8.384 3.83594 8.672C4.02794 8.96 4.32394 9.224 4.72394 9.464C5.13994 9.688 5.65994 9.896 6.28394 10.088C6.90794 10.28 7.66794 10.496 8.56394 10.736C9.47594 10.976 10.2439 11.24 10.8679 11.528C11.5079 11.816 12.0279 12.144 12.4279 12.512C12.8279 12.864 13.1159 13.28 13.2919 13.76C13.4839 14.224 13.5799 14.752 13.5799 15.344C13.5799 16 13.4519 16.608 13.1959 17.168C12.9399 17.728 12.5719 18.216 12.0919 18.632C11.6279 19.048 11.0599 19.392 10.3879 19.664C9.71594 19.936 8.97194 20.112 8.15594 20.192V21.752C8.15594 21.928 8.09194 22.08 7.96394 22.208C7.83594 22.336 7.68394 22.4 7.50794 22.4H6.52394C6.34794 22.4 6.19594 22.336 6.06794 22.208C5.93994 22.08 5.87594 21.928 5.87594 21.752V20.144C5.10794 20.032 4.41194 19.824 3.78794 19.52C3.16394 19.216 2.61994 18.864 2.15594 18.464C1.70794 18.064 1.35594 17.632 1.09994 17.168C0.843942 16.688 0.707942 16.224 0.691942 15.776C0.691942 15.632 0.739942 15.512 0.835942 15.416C0.947942 15.304 1.07594 15.248 1.21994 15.248H2.20394C2.36394 15.248 2.49994 15.28 2.61194 15.344C2.73994 15.408 2.85194 15.552 2.94794 15.776C3.04394 16 3.18794 16.248 3.37994 16.52C3.58794 16.776 3.85994 17.024 4.19594 17.264C4.53194 17.488 4.93994 17.68 5.41994 17.84C5.89994 18 6.46794 18.08 7.12394 18.08C7.68394 18.08 8.21194 18.016 8.70794 17.888C9.21994 17.76 9.66794 17.576 10.0519 17.336C10.4359 17.096 10.7399 16.808 10.9639 16.472C11.1879 16.136 11.2999 15.76 11.2999 15.344C11.2999 14.928 11.1719 14.576 10.9159 14.288C10.6599 13.984 10.2919 13.712 9.81194 13.472C9.33194 13.232 8.73994 13.016 8.03594 12.824C7.34794 12.616 6.56394 12.4 5.68394 12.176C4.88394 11.968 4.20394 11.72 3.64394 11.432C3.08394 11.128 2.62794 10.784 2.27594 10.4C1.92394 10.016 1.66794 9.592 1.50794 9.128C1.36394 8.664 1.29194 8.16 1.29194 7.616C1.29194 7.088 1.38794 6.568 1.57994 6.056C1.77194 5.544 2.05194 5.08 2.41994 4.664C2.80394 4.248 3.28394 3.896 3.85994 3.608C4.43594 3.32 5.10794 3.128 5.87594 3.032V1.448C5.87594 1.272 5.93994 1.12 6.06794 0.991999C6.19594 0.863999 6.34794 0.8 6.52394 0.8H7.50794C7.68394 0.8 7.83594 0.863999 7.96394 0.991999C8.09194 1.12 8.15594 1.272 8.15594 1.448V3.056ZM22.8513 19.352C22.8513 19.528 22.7873 19.68 22.6593 19.808C22.5313 19.936 22.3793 20 22.2033 20H21.2193C21.0433 20 20.8913 19.936 20.7633 19.808C20.6353 19.68 20.5713 19.528 20.5713 19.352V6.128L16.6833 9.08C16.5393 9.208 16.3793 9.256 16.2033 9.224C16.0273 9.192 15.8833 9.112 15.7713 8.984L15.1953 8.24C15.0833 8.096 15.0353 7.936 15.0513 7.76C15.0833 7.584 15.1713 7.44 15.3153 7.328L20.4513 3.392C20.5793 3.296 20.7073 3.24 20.8353 3.224C20.9633 3.208 21.0913 3.2 21.2193 3.2H22.2033C22.3793 3.2 22.5313 3.264 22.6593 3.392C22.7873 3.52 22.8513 3.672 22.8513 3.848V19.352ZM33.3368 11.168C33.8168 10.736 34.1768 10.296 34.4168 9.848C34.6568 9.4 34.7768 8.816 34.7768 8.096C34.7768 7.248 34.5288 6.544 34.0328 5.984C33.5368 5.408 32.7528 5.12 31.6808 5.12C31.1208 5.12 30.6408 5.2 30.2408 5.36C29.8568 5.52 29.5288 5.744 29.2568 6.032C29.0008 6.304 28.7928 6.624 28.6328 6.992C28.4888 7.344 28.3688 7.712 28.2728 8.096C28.2248 8.272 28.1368 8.408 28.0088 8.504C27.8968 8.6 27.7768 8.648 27.6488 8.648H26.5448C26.4008 8.648 26.2728 8.6 26.1608 8.504C26.0648 8.392 26.0168 8.264 26.0168 8.12C26.0328 7.528 26.1688 6.928 26.4248 6.32C26.6808 5.712 27.0488 5.16 27.5288 4.664C28.0088 4.168 28.5928 3.76 29.2808 3.44C29.9848 3.12 30.7848 2.96 31.6808 2.96C32.5608 2.96 33.3368 3.096 34.0088 3.368C34.6808 3.64 35.2408 4.008 35.6888 4.472C36.1368 4.936 36.4728 5.48 36.6968 6.104C36.9368 6.728 37.0568 7.392 37.0568 8.096C37.0568 8.608 37.0168 9.072 36.9368 9.488C36.8568 9.904 36.7208 10.304 36.5288 10.688C36.3528 11.056 36.1208 11.416 35.8328 11.768C35.5448 12.12 35.1928 12.48 34.7768 12.848L29.4248 17.84H36.7688C36.9448 17.84 37.0968 17.904 37.2248 18.032C37.3528 18.16 37.4168 18.312 37.4168 18.488V19.352C37.4168 19.528 37.3528 19.68 37.2248 19.808C37.0968 19.936 36.9448 20 36.7688 20H26.4248C26.2488 20 26.0968 19.936 25.9688 19.808C25.8408 19.68 25.7768 19.528 25.7768 19.352V18.488C25.7768 18.312 25.8168 18.16 25.8968 18.032C25.9768 17.904 26.1128 17.752 26.3048 17.576L33.3368 11.168ZM48.1216 20C47.9456 20 47.7936 19.936 47.6656 19.808C47.5376 19.68 47.4736 19.528 47.4736 19.352V16.04H39.9376C39.7616 16.04 39.6096 15.976 39.4816 15.848C39.3536 15.72 39.2896 15.568 39.2896 15.392V14.528C39.2896 14.416 39.3136 14.288 39.3616 14.144C39.4256 13.984 39.5136 13.84 39.6256 13.712L47.2096 3.776C47.3376 3.6 47.4736 3.464 47.6176 3.368C47.7776 3.256 47.9536 3.2 48.1456 3.2H49.1056C49.2816 3.2 49.4336 3.264 49.5616 3.392C49.6896 3.52 49.7536 3.672 49.7536 3.848V13.88H51.8176C51.9936 13.88 52.1456 13.944 52.2736 14.072C52.4016 14.2 52.4656 14.352 52.4656 14.528V15.392C52.4656 15.568 52.4016 15.72 52.2736 15.848C52.1456 15.976 51.9936 16.04 51.8176 16.04H49.7536V19.352C49.7536 19.528 49.6896 19.68 49.5616 19.808C49.4336 19.936 49.2816 20 49.1056 20H48.1216ZM47.4736 13.88V7.112L42.2656 13.88H47.4736Z" fill="#CCCCCC"/>
</svg>
