<svg width="156" height="28" viewBox="0 0 156 28" fill="none" xmlns="http://www.w3.org/2000/svg">
<path d="M40.43 19C40.3234 19 40.2274 18.9627 40.142 18.888C40.0674 18.8027 40.03 18.7067 40.03 18.6V10.984L37.838 12.664C37.742 12.7387 37.6407 12.7653 37.534 12.744C37.438 12.7227 37.3527 12.664 37.278 12.568L36.334 11.336C36.27 11.24 36.2434 11.1387 36.254 11.032C36.2754 10.9147 36.3394 10.824 36.446 10.76L40.126 7.912C40.19 7.86933 40.2487 7.84267 40.302 7.832C40.366 7.81067 40.4354 7.8 40.51 7.8H42.51C42.6274 7.8 42.7234 7.83733 42.798 7.912C42.8727 7.98667 42.91 8.08267 42.91 8.2V18.6C42.91 18.7067 42.8727 18.8027 42.798 18.888C42.7234 18.9627 42.6274 19 42.51 19H40.43ZM49.3752 19.16C48.6072 19.16 47.9405 19.0533 47.3752 18.84C46.8205 18.616 46.3565 18.312 45.9832 17.928C45.6098 17.544 45.3272 17.096 45.1352 16.584C44.9432 16.072 44.8312 15.5227 44.7992 14.936C44.7885 14.648 44.7778 14.3227 44.7672 13.96C44.7672 13.5867 44.7672 13.2133 44.7672 12.84C44.7778 12.456 44.7885 12.1147 44.7992 11.816C44.8312 11.2293 44.9432 10.6853 45.1352 10.184C45.3378 9.672 45.6258 9.22933 45.9992 8.856C46.3832 8.472 46.8525 8.17333 47.4072 7.96C47.9725 7.74667 48.6285 7.64 49.3752 7.64C50.1325 7.64 50.7885 7.74667 51.3432 7.96C51.9085 8.17333 52.3778 8.472 52.7512 8.856C53.1245 9.22933 53.4125 9.672 53.6152 10.184C53.8178 10.6853 53.9352 11.2293 53.9672 11.816C53.9778 12.1147 53.9832 12.456 53.9832 12.84C53.9938 13.2133 53.9938 13.5867 53.9832 13.96C53.9832 14.3227 53.9778 14.648 53.9672 14.936C53.9352 15.5227 53.8178 16.072 53.6152 16.584C53.4232 17.096 53.1405 17.544 52.7672 17.928C52.4045 18.312 51.9405 18.616 51.3752 18.84C50.8205 19.0533 50.1538 19.16 49.3752 19.16ZM49.3752 16.84C49.9298 16.84 50.3298 16.664 50.5752 16.312C50.8312 15.9493 50.9645 15.464 50.9752 14.856C50.9965 14.5467 51.0072 14.2213 51.0072 13.88C51.0178 13.5387 51.0178 13.1973 51.0072 12.856C51.0072 12.5147 50.9965 12.2 50.9752 11.912C50.9645 11.3253 50.8312 10.8507 50.5752 10.488C50.3298 10.1253 49.9298 9.93867 49.3752 9.928C48.8312 9.93867 48.4312 10.1253 48.1752 10.488C47.9298 10.8507 47.7965 11.3253 47.7752 11.912C47.7752 12.2 47.7698 12.5147 47.7592 12.856C47.7592 13.1973 47.7592 13.5387 47.7592 13.88C47.7698 14.2213 47.7752 14.5467 47.7752 14.856C47.7965 15.464 47.9352 15.9493 48.1912 16.312C48.4472 16.664 48.8418 16.84 49.3752 16.84ZM60.2502 19.16C59.4822 19.16 58.8155 19.0533 58.2502 18.84C57.6955 18.616 57.2315 18.312 56.8582 17.928C56.4848 17.544 56.2022 17.096 56.0102 16.584C55.8182 16.072 55.7062 15.5227 55.6742 14.936C55.6635 14.648 55.6528 14.3227 55.6422 13.96C55.6422 13.5867 55.6422 13.2133 55.6422 12.84C55.6528 12.456 55.6635 12.1147 55.6742 11.816C55.7062 11.2293 55.8182 10.6853 56.0102 10.184C56.2128 9.672 56.5008 9.22933 56.8742 8.856C57.2582 8.472 57.7275 8.17333 58.2822 7.96C58.8475 7.74667 59.5035 7.64 60.2502 7.64C61.0075 7.64 61.6635 7.74667 62.2182 7.96C62.7835 8.17333 63.2528 8.472 63.6262 8.856C63.9995 9.22933 64.2875 9.672 64.4902 10.184C64.6928 10.6853 64.8102 11.2293 64.8422 11.816C64.8528 12.1147 64.8582 12.456 64.8582 12.84C64.8688 13.2133 64.8688 13.5867 64.8582 13.96C64.8582 14.3227 64.8528 14.648 64.8422 14.936C64.8102 15.5227 64.6928 16.072 64.4902 16.584C64.2982 17.096 64.0155 17.544 63.6422 17.928C63.2795 18.312 62.8155 18.616 62.2502 18.84C61.6955 19.0533 61.0288 19.16 60.2502 19.16ZM60.2502 16.84C60.8048 16.84 61.2048 16.664 61.4502 16.312C61.7062 15.9493 61.8395 15.464 61.8502 14.856C61.8715 14.5467 61.8822 14.2213 61.8822 13.88C61.8928 13.5387 61.8928 13.1973 61.8822 12.856C61.8822 12.5147 61.8715 12.2 61.8502 11.912C61.8395 11.3253 61.7062 10.8507 61.4502 10.488C61.2048 10.1253 60.8048 9.93867 60.2502 9.928C59.7062 9.93867 59.3062 10.1253 59.0502 10.488C58.8048 10.8507 58.6715 11.3253 58.6502 11.912C58.6502 12.2 58.6448 12.5147 58.6342 12.856C58.6342 13.1973 58.6342 13.5387 58.6342 13.88C58.6448 14.2213 58.6502 14.5467 58.6502 14.856C58.6715 15.464 58.8102 15.9493 59.0662 16.312C59.3222 16.664 59.7168 16.84 60.2502 16.84ZM67.2212 19C67.1038 19 67.0078 18.9627 66.9332 18.888C66.8585 18.8027 66.8212 18.7067 66.8212 18.6V8.2C66.8212 8.08267 66.8585 7.98667 66.9332 7.912C67.0078 7.83733 67.1038 7.8 67.2212 7.8H69.2372C69.3545 7.8 69.4505 7.83733 69.5252 7.912C69.5998 7.98667 69.6372 8.08267 69.6372 8.2V11.752L72.5972 8.104C72.6398 8.04 72.7092 7.976 72.8052 7.912C72.9118 7.83733 73.0505 7.8 73.2212 7.8H75.5252C75.6212 7.8 75.7012 7.83733 75.7652 7.912C75.8292 7.976 75.8612 8.05067 75.8612 8.136C75.8612 8.21067 75.8452 8.27467 75.8132 8.328L71.9732 13.16L76.1012 18.472C76.1438 18.5147 76.1652 18.5787 76.1652 18.664C76.1652 18.7493 76.1332 18.8293 76.0692 18.904C76.0052 18.968 75.9252 19 75.8292 19H73.4452C73.2532 19 73.1038 18.9573 72.9972 18.872C72.9012 18.7867 72.8372 18.7227 72.8052 18.68L69.6372 14.728V18.6C69.6372 18.7067 69.5998 18.8027 69.5252 18.888C69.4505 18.9627 69.3545 19 69.2372 19H67.2212ZM80.5185 18.472C80.4012 18.472 80.3052 18.4347 80.2305 18.36C80.1559 18.2747 80.1185 18.1787 80.1185 18.072V15.144H77.2705C77.1532 15.144 77.0519 15.1067 76.9665 15.032C76.8919 14.9573 76.8545 14.8613 76.8545 14.744V13.576C76.8545 13.4587 76.8919 13.3627 76.9665 13.288C77.0519 13.2027 77.1532 13.16 77.2705 13.16H80.1185V10.328C80.1185 10.2107 80.1559 10.1147 80.2305 10.04C80.3052 9.96533 80.4012 9.928 80.5185 9.928H81.8305C81.9372 9.928 82.0279 9.96533 82.1025 10.04C82.1879 10.1147 82.2305 10.2107 82.2305 10.328V13.16H85.0625C85.1799 13.16 85.2759 13.2027 85.3505 13.288C85.4252 13.3627 85.4625 13.4587 85.4625 13.576V14.744C85.4625 14.8613 85.4252 14.9573 85.3505 15.032C85.2759 15.1067 85.1799 15.144 85.0625 15.144H82.2305V18.072C82.2305 18.1787 82.1879 18.2747 82.1025 18.36C82.0279 18.4347 81.9372 18.472 81.8305 18.472H80.5185ZM95.1475 19.16C94.1449 19.16 93.2809 18.9947 92.5555 18.664C91.8302 18.3333 91.2649 17.848 90.8595 17.208C90.4649 16.568 90.2462 15.7733 90.2035 14.824C90.1929 14.3867 90.1875 13.9173 90.1875 13.416C90.1875 12.9147 90.1929 12.4347 90.2035 11.976C90.2462 11.048 90.4702 10.2587 90.8755 9.608C91.2809 8.95733 91.8462 8.46667 92.5715 8.136C93.2969 7.80533 94.1555 7.64 95.1475 7.64C95.8515 7.64 96.5022 7.73067 97.0995 7.912C97.6969 8.08267 98.2195 8.33867 98.6675 8.68C99.1155 9.01067 99.4622 9.416 99.7075 9.896C99.9635 10.3653 100.097 10.8987 100.108 11.496C100.118 11.592 100.086 11.672 100.012 11.736C99.9475 11.8 99.8675 11.832 99.7715 11.832H97.6115C97.4729 11.832 97.3662 11.8053 97.2915 11.752C97.2169 11.688 97.1529 11.576 97.0995 11.416C96.9502 10.8507 96.7049 10.4667 96.3635 10.264C96.0329 10.0507 95.6222 9.944 95.1315 9.944C94.5449 9.944 94.0809 10.1093 93.7395 10.44C93.3982 10.76 93.2115 11.2987 93.1795 12.056C93.1475 12.9307 93.1475 13.8267 93.1795 14.744C93.2115 15.5013 93.3982 16.0453 93.7395 16.376C94.0809 16.696 94.5449 16.856 95.1315 16.856C95.6222 16.856 96.0382 16.7493 96.3795 16.536C96.7209 16.3227 96.9609 15.9387 97.0995 15.384C97.1422 15.224 97.2009 15.1173 97.2755 15.064C97.3609 15 97.4729 14.968 97.6115 14.968H99.7715C99.8675 14.968 99.9475 15 100.012 15.064C100.086 15.128 100.118 15.208 100.108 15.304C100.097 15.9013 99.9635 16.44 99.7075 16.92C99.4622 17.3893 99.1155 17.7947 98.6675 18.136C98.2195 18.4667 97.6969 18.7227 97.0995 18.904C96.5022 19.0747 95.8515 19.16 95.1475 19.16ZM105.55 19.16C104.654 19.16 103.897 19.016 103.278 18.728C102.67 18.44 102.201 18.0293 101.87 17.496C101.55 16.952 101.369 16.3067 101.326 15.56C101.315 15.3467 101.31 15.1067 101.31 14.84C101.31 14.5627 101.315 14.3227 101.326 14.12C101.369 13.3627 101.561 12.7173 101.902 12.184C102.243 11.6507 102.718 11.24 103.326 10.952C103.945 10.664 104.686 10.52 105.55 10.52C106.425 10.52 107.166 10.664 107.774 10.952C108.393 11.24 108.873 11.6507 109.214 12.184C109.555 12.7173 109.747 13.3627 109.79 14.12C109.801 14.3227 109.806 14.5627 109.806 14.84C109.806 15.1067 109.801 15.3467 109.79 15.56C109.747 16.3067 109.561 16.952 109.23 17.496C108.91 18.0293 108.441 18.44 107.822 18.728C107.214 19.016 106.457 19.16 105.55 19.16ZM105.55 17.208C106.03 17.208 106.377 17.064 106.59 16.776C106.814 16.488 106.942 16.056 106.974 15.48C106.985 15.32 106.99 15.1067 106.99 14.84C106.99 14.5733 106.985 14.36 106.974 14.2C106.942 13.6347 106.814 13.208 106.59 12.92C106.377 12.6213 106.03 12.472 105.55 12.472C105.091 12.472 104.745 12.6213 104.51 12.92C104.286 13.208 104.163 13.6347 104.142 14.2C104.131 14.36 104.126 14.5733 104.126 14.84C104.126 15.1067 104.131 15.32 104.142 15.48C104.163 16.056 104.286 16.488 104.51 16.776C104.745 17.064 105.091 17.208 105.55 17.208ZM114.451 19.16C113.843 19.16 113.299 19.0213 112.819 18.744C112.35 18.4667 111.982 18.0613 111.715 17.528C111.449 16.984 111.315 16.3227 111.315 15.544V11.08C111.315 10.9627 111.353 10.8667 111.427 10.792C111.502 10.7173 111.598 10.68 111.715 10.68H113.715C113.833 10.68 113.929 10.7173 114.003 10.792C114.089 10.8667 114.131 10.9627 114.131 11.08V15.448C114.131 16.4933 114.595 17.016 115.523 17.016C115.961 17.016 116.307 16.8827 116.563 16.616C116.83 16.3387 116.963 15.9493 116.963 15.448V11.08C116.963 10.9627 117.001 10.8667 117.075 10.792C117.15 10.7173 117.246 10.68 117.363 10.68H119.363C119.481 10.68 119.577 10.7173 119.651 10.792C119.726 10.8667 119.763 10.9627 119.763 11.08V18.6C119.763 18.7067 119.726 18.8027 119.651 18.888C119.577 18.9627 119.481 19 119.363 19H117.507C117.401 19 117.305 18.9627 117.219 18.888C117.145 18.8027 117.107 18.7067 117.107 18.6V17.992C116.83 18.376 116.467 18.6693 116.019 18.872C115.582 19.064 115.059 19.16 114.451 19.16ZM122.045 19C121.928 19 121.832 18.9627 121.757 18.888C121.683 18.8027 121.645 18.7067 121.645 18.6V11.08C121.645 10.9733 121.683 10.8827 121.757 10.808C121.832 10.7227 121.928 10.68 122.045 10.68H123.885C124.003 10.68 124.099 10.7227 124.173 10.808C124.259 10.8827 124.301 10.9733 124.301 11.08V11.72C124.579 11.3893 124.915 11.1333 125.309 10.952C125.715 10.7707 126.168 10.68 126.669 10.68H127.373C127.491 10.68 127.587 10.7173 127.661 10.792C127.736 10.8667 127.773 10.9627 127.773 11.08V12.728C127.773 12.8347 127.736 12.9307 127.661 13.016C127.587 13.0907 127.491 13.128 127.373 13.128H125.821C125.384 13.128 125.043 13.2507 124.797 13.496C124.563 13.7307 124.445 14.0667 124.445 14.504V18.6C124.445 18.7067 124.403 18.8027 124.317 18.888C124.243 18.9627 124.147 19 124.029 19H122.045ZM132.335 19.16C131.641 19.16 131.049 19.0853 130.559 18.936C130.079 18.776 129.684 18.584 129.375 18.36C129.076 18.136 128.852 17.9067 128.703 17.672C128.553 17.4267 128.473 17.2133 128.463 17.032C128.452 16.9147 128.489 16.8187 128.575 16.744C128.66 16.6693 128.751 16.632 128.847 16.632H130.671C130.703 16.632 130.729 16.6373 130.751 16.648C130.783 16.6587 130.815 16.68 130.847 16.712C130.985 16.7867 131.124 16.8827 131.263 17C131.401 17.1067 131.561 17.2027 131.743 17.288C131.924 17.3733 132.143 17.416 132.399 17.416C132.697 17.416 132.948 17.3573 133.151 17.24C133.353 17.112 133.455 16.936 133.455 16.712C133.455 16.5413 133.407 16.4027 133.311 16.296C133.215 16.1787 133.017 16.0667 132.719 15.96C132.431 15.8533 131.993 15.7467 131.407 15.64C130.852 15.512 130.367 15.3467 129.951 15.144C129.535 14.9307 129.215 14.6587 128.991 14.328C128.767 13.9867 128.655 13.576 128.655 13.096C128.655 12.6693 128.793 12.2587 129.071 11.864C129.348 11.4693 129.753 11.1493 130.287 10.904C130.82 10.648 131.481 10.52 132.271 10.52C132.879 10.52 133.412 10.5947 133.871 10.744C134.329 10.8827 134.713 11.064 135.023 11.288C135.332 11.512 135.567 11.7413 135.727 11.976C135.887 12.2107 135.972 12.424 135.983 12.616C135.993 12.7227 135.961 12.8187 135.887 12.904C135.812 12.9787 135.727 13.016 135.631 13.016H133.967C133.924 13.016 133.881 13.0107 133.839 13C133.796 12.9787 133.759 12.9573 133.727 12.936C133.599 12.872 133.471 12.7867 133.343 12.68C133.215 12.5733 133.065 12.4773 132.895 12.392C132.724 12.3067 132.511 12.264 132.255 12.264C131.967 12.264 131.743 12.328 131.583 12.456C131.423 12.584 131.343 12.7493 131.343 12.952C131.343 13.0907 131.385 13.2187 131.471 13.336C131.567 13.4533 131.753 13.56 132.031 13.656C132.319 13.752 132.761 13.8587 133.359 13.976C134.095 14.0933 134.681 14.2853 135.119 14.552C135.556 14.808 135.865 15.112 136.047 15.464C136.239 15.8053 136.335 16.168 136.335 16.552C136.335 17.064 136.18 17.5173 135.871 17.912C135.561 18.3067 135.108 18.616 134.511 18.84C133.924 19.0533 133.199 19.16 132.335 19.16ZM141.595 19.16C140.336 19.16 139.333 18.8187 138.587 18.136C137.84 17.4533 137.451 16.44 137.419 15.096C137.419 15.0213 137.419 14.9253 137.419 14.808C137.419 14.6907 137.419 14.6 137.419 14.536C137.451 13.6933 137.637 12.9733 137.979 12.376C138.331 11.768 138.811 11.3093 139.419 11C140.037 10.68 140.757 10.52 141.579 10.52C142.517 10.52 143.291 10.7067 143.899 11.08C144.517 11.4533 144.981 11.96 145.291 12.6C145.6 13.24 145.755 13.9707 145.755 14.792V15.176C145.755 15.2933 145.717 15.3893 145.643 15.464C145.568 15.5387 145.472 15.576 145.355 15.576H140.235C140.235 15.5867 140.235 15.6027 140.235 15.624C140.235 15.6453 140.235 15.6667 140.235 15.688C140.245 15.9973 140.299 16.28 140.395 16.536C140.501 16.792 140.651 16.9947 140.843 17.144C141.045 17.2933 141.291 17.368 141.579 17.368C141.792 17.368 141.968 17.336 142.107 17.272C142.256 17.1973 142.379 17.1173 142.475 17.032C142.571 16.936 142.645 16.856 142.699 16.792C142.795 16.6747 142.869 16.6053 142.923 16.584C142.987 16.552 143.083 16.536 143.211 16.536H145.195C145.301 16.536 145.387 16.568 145.451 16.632C145.525 16.696 145.557 16.7813 145.547 16.888C145.536 17.0693 145.445 17.288 145.275 17.544C145.104 17.8 144.853 18.056 144.523 18.312C144.203 18.5573 143.797 18.76 143.307 18.92C142.816 19.08 142.245 19.16 141.595 19.16ZM140.235 13.992H142.939V13.96C142.939 13.608 142.885 13.3093 142.779 13.064C142.683 12.808 142.528 12.6107 142.315 12.472C142.112 12.3333 141.867 12.264 141.579 12.264C141.301 12.264 141.061 12.3333 140.859 12.472C140.656 12.6107 140.501 12.808 140.395 13.064C140.288 13.3093 140.235 13.608 140.235 13.96V13.992ZM150.679 19.16C149.985 19.16 149.393 19.0853 148.903 18.936C148.423 18.776 148.028 18.584 147.719 18.36C147.42 18.136 147.196 17.9067 147.047 17.672C146.897 17.4267 146.817 17.2133 146.807 17.032C146.796 16.9147 146.833 16.8187 146.919 16.744C147.004 16.6693 147.095 16.632 147.191 16.632H149.015C149.047 16.632 149.073 16.6373 149.095 16.648C149.127 16.6587 149.159 16.68 149.191 16.712C149.329 16.7867 149.468 16.8827 149.607 17C149.745 17.1067 149.905 17.2027 150.087 17.288C150.268 17.3733 150.487 17.416 150.743 17.416C151.041 17.416 151.292 17.3573 151.495 17.24C151.697 17.112 151.799 16.936 151.799 16.712C151.799 16.5413 151.751 16.4027 151.655 16.296C151.559 16.1787 151.361 16.0667 151.063 15.96C150.775 15.8533 150.337 15.7467 149.751 15.64C149.196 15.512 148.711 15.3467 148.295 15.144C147.879 14.9307 147.559 14.6587 147.335 14.328C147.111 13.9867 146.999 13.576 146.999 13.096C146.999 12.6693 147.137 12.2587 147.415 11.864C147.692 11.4693 148.097 11.1493 148.631 10.904C149.164 10.648 149.825 10.52 150.615 10.52C151.223 10.52 151.756 10.5947 152.215 10.744C152.673 10.8827 153.057 11.064 153.367 11.288C153.676 11.512 153.911 11.7413 154.071 11.976C154.231 12.2107 154.316 12.424 154.327 12.616C154.337 12.7227 154.305 12.8187 154.231 12.904C154.156 12.9787 154.071 13.016 153.975 13.016H152.311C152.268 13.016 152.225 13.0107 152.183 13C152.14 12.9787 152.103 12.9573 152.071 12.936C151.943 12.872 151.815 12.7867 151.687 12.68C151.559 12.5733 151.409 12.4773 151.239 12.392C151.068 12.3067 150.855 12.264 150.599 12.264C150.311 12.264 150.087 12.328 149.927 12.456C149.767 12.584 149.687 12.7493 149.687 12.952C149.687 13.0907 149.729 13.2187 149.815 13.336C149.911 13.4533 150.097 13.56 150.375 13.656C150.663 13.752 151.105 13.8587 151.703 13.976C152.439 14.0933 153.025 14.2853 153.463 14.552C153.9 14.808 154.209 15.112 154.391 15.464C154.583 15.8053 154.679 16.168 154.679 16.552C154.679 17.064 154.524 17.5173 154.215 17.912C153.905 18.3067 153.452 18.616 152.855 18.84C152.268 19.0533 151.543 19.16 150.679 19.16Z" fill="white"/>
<path fill-rule="evenodd" clip-rule="evenodd" d="M4.66463 6.99992H2.3313V23.3333C2.3313 24.6166 3.3813 25.6666 4.66463 25.6666H20.998V23.3333H4.66463V6.99992ZM23.3313 2.33325H9.3313C8.04797 2.33325 6.99797 3.38325 6.99797 4.66659V18.6666C6.99797 19.9499 8.04797 20.9999 9.3313 20.9999H23.3313C24.6146 20.9999 25.6646 19.9499 25.6646 18.6666V4.66659C25.6646 3.38325 24.6146 2.33325 23.3313 2.33325ZM23.3313 18.6666H9.3313V4.66659H23.3313V18.6666ZM13.998 6.41659V16.9166L20.998 11.6666L13.998 6.41659Z" fill="white"/>
</svg>
