<svg width="144" height="32" viewBox="0 0 144 32" fill="none" xmlns="http://www.w3.org/2000/svg">
<path d="M52.432 21C52.3253 21 52.2347 20.9627 52.16 20.888C52.0853 20.8133 52.048 20.7227 52.048 20.616V12.328L49.616 14.2C49.552 14.2533 49.4773 14.28 49.392 14.28C49.264 14.28 49.1573 14.2213 49.072 14.104L48.4 13.24C48.3467 13.1547 48.32 13.0747 48.32 13C48.32 12.872 48.3787 12.7653 48.496 12.68L52.08 9.912C52.176 9.83733 52.3093 9.8 52.48 9.8H53.888C54.0053 9.8 54.096 9.83733 54.16 9.912C54.2347 9.976 54.272 10.0667 54.272 10.184V20.616C54.272 20.7227 54.2347 20.8133 54.16 20.888C54.096 20.9627 54.0053 21 53.888 21H52.432ZM56.5103 21C56.4036 21 56.3129 20.9627 56.2383 20.888C56.1636 20.8133 56.1263 20.7227 56.1263 20.616V19.8C56.1263 19.512 56.2596 19.2613 56.5263 19.048L59.0543 16.536C60.1529 15.672 60.9156 15 61.3423 14.52C61.7796 14.0293 61.9983 13.5493 61.9983 13.08C61.9983 12.5787 61.8596 12.184 61.5823 11.896C61.3156 11.608 60.9103 11.464 60.3663 11.464C59.8329 11.464 59.4116 11.624 59.1023 11.944C58.7929 12.2533 58.6009 12.6587 58.5263 13.16C58.4943 13.288 58.4356 13.384 58.3503 13.448C58.2649 13.5013 58.1689 13.528 58.0623 13.528H56.6383C56.5423 13.528 56.4623 13.496 56.3983 13.432C56.3343 13.368 56.3023 13.2933 56.3023 13.208C56.3236 12.5787 56.4943 11.992 56.8143 11.448C57.1343 10.8933 57.5983 10.4507 58.2063 10.12C58.8143 9.77867 59.5289 9.608 60.3503 9.608C61.2036 9.608 61.9236 9.75733 62.5103 10.056C63.1076 10.344 63.5556 10.744 63.8542 11.256C64.1529 11.768 64.3023 12.3493 64.3023 13C64.3023 13.7147 64.0996 14.36 63.6943 14.936C63.2996 15.512 62.6916 16.1307 61.8703 16.792L59.5983 19.096H64.1583C64.2756 19.096 64.3663 19.1333 64.4303 19.208C64.5049 19.272 64.5423 19.3627 64.5423 19.48V20.616C64.5423 20.7227 64.5049 20.8133 64.4303 20.888C64.3663 20.9627 64.2756 21 64.1583 21H56.5103ZM70.6008 21C70.4941 21 70.4034 20.9627 70.3288 20.888C70.2541 20.8133 70.2168 20.7227 70.2168 20.616V10.2C70.2168 10.0827 70.2488 9.98667 70.3128 9.912C70.3874 9.83733 70.4834 9.8 70.6008 9.8H77.6408C77.7581 9.8 77.8541 9.83733 77.9288 9.912C78.0034 9.98667 78.0408 10.0827 78.0408 10.2V11.256C78.0408 11.3733 78.0034 11.4693 77.9288 11.544C77.8541 11.608 77.7581 11.64 77.6408 11.64H72.3768V14.472H77.2888C77.4061 14.472 77.5021 14.5093 77.5768 14.584C77.6514 14.648 77.6888 14.7387 77.6888 14.856V15.848C77.6888 15.9653 77.6514 16.0613 77.5768 16.136C77.5021 16.2 77.4061 16.232 77.2888 16.232H72.3768V19.16H77.7688C77.8861 19.16 77.9821 19.1973 78.0568 19.272C78.1314 19.3467 78.1688 19.4427 78.1688 19.56V20.616C78.1688 20.7333 78.1314 20.8293 78.0568 20.904C77.9821 20.968 77.8861 21 77.7688 21H70.6008ZM79.6259 21C79.5299 21 79.4445 20.968 79.3699 20.904C79.3059 20.8293 79.2739 20.744 79.2739 20.648C79.2739 20.552 79.3112 20.4613 79.3859 20.376L82.1059 16.728L79.5779 13.304C79.5139 13.2187 79.4819 13.128 79.4819 13.032C79.4819 12.936 79.5139 12.856 79.5779 12.792C79.6525 12.7173 79.7379 12.68 79.8339 12.68H81.2259C81.3325 12.68 81.4125 12.7067 81.4659 12.76C81.5299 12.8027 81.5939 12.8667 81.6579 12.952L83.4659 15.352L85.2739 12.952C85.2845 12.9413 85.3272 12.8933 85.4019 12.808C85.4659 12.7227 85.5672 12.68 85.7059 12.68H87.0339C87.1299 12.68 87.2099 12.7173 87.2739 12.792C87.3485 12.856 87.3859 12.9307 87.3859 13.016C87.3859 13.1227 87.3539 13.2187 87.2899 13.304L84.7299 16.76L87.4659 20.376C87.5405 20.4613 87.5779 20.552 87.5779 20.648C87.5779 20.744 87.5405 20.8293 87.4659 20.904C87.4019 20.968 87.3219 21 87.2259 21H85.7699C85.5992 21 85.4552 20.9147 85.3379 20.744L83.4179 18.2L81.4659 20.744C81.3485 20.9147 81.2045 21 81.0339 21H79.6259ZM92.3275 21.16C91.1435 21.16 90.1995 20.8187 89.4955 20.136C88.8022 19.4427 88.4342 18.472 88.3915 17.224L88.3755 16.824L88.3915 16.424C88.4448 15.208 88.8182 14.2533 89.5115 13.56C90.2155 12.8667 91.1542 12.52 92.3275 12.52C93.5862 12.52 94.5568 12.904 95.2395 13.672C95.9328 14.44 96.2795 15.464 96.2795 16.744V17.08C96.2795 17.1867 96.2422 17.2773 96.1675 17.352C96.0928 17.4267 95.9968 17.464 95.8795 17.464H90.5675V17.592C90.5888 18.1787 90.7488 18.6747 91.0475 19.08C91.3568 19.4747 91.7782 19.672 92.3115 19.672C92.9408 19.672 93.4475 19.4267 93.8315 18.936C93.9275 18.8187 94.0022 18.744 94.0555 18.712C94.1195 18.68 94.2102 18.664 94.3275 18.664H95.7035C95.7995 18.664 95.8795 18.696 95.9435 18.76C96.0182 18.8133 96.0555 18.8827 96.0555 18.968C96.0555 19.224 95.9008 19.528 95.5915 19.88C95.2928 20.2213 94.8608 20.52 94.2955 20.776C93.7302 21.032 93.0742 21.16 92.3275 21.16ZM94.1035 16.12V16.072C94.1035 15.4427 93.9435 14.936 93.6235 14.552C93.3142 14.168 92.8822 13.976 92.3275 13.976C91.7728 13.976 91.3408 14.168 91.0315 14.552C90.7222 14.936 90.5675 15.4427 90.5675 16.072V16.12H94.1035ZM98.3619 21C98.2552 21 98.1645 20.9627 98.0899 20.888C98.0152 20.8133 97.9779 20.7227 97.9779 20.616V13.08C97.9779 12.9733 98.0152 12.8827 98.0899 12.808C98.1645 12.7227 98.2552 12.68 98.3619 12.68H99.6579C99.7752 12.68 99.8712 12.7173 99.9459 12.792C100.021 12.8667 100.058 12.9627 100.058 13.08V13.736C100.314 13.3947 100.634 13.1333 101.018 12.952C101.413 12.7707 101.861 12.68 102.362 12.68H103.018C103.135 12.68 103.226 12.7173 103.29 12.792C103.365 12.856 103.402 12.9467 103.402 13.064V14.216C103.402 14.3227 103.365 14.4133 103.29 14.488C103.226 14.5627 103.135 14.6 103.018 14.6H101.77C101.269 14.6 100.874 14.744 100.586 15.032C100.298 15.32 100.154 15.7147 100.154 16.216V20.616C100.154 20.7227 100.117 20.8133 100.042 20.888C99.9672 20.9627 99.8712 21 99.7539 21H98.3619ZM108.14 21.16C106.967 21.16 106.028 20.8347 105.324 20.184C104.631 19.5333 104.263 18.632 104.22 17.48L104.204 16.84L104.22 16.2C104.263 15.048 104.631 14.1467 105.324 13.496C106.028 12.8453 106.967 12.52 108.14 12.52C108.972 12.52 109.676 12.6693 110.252 12.968C110.839 13.2667 111.271 13.6347 111.548 14.072C111.836 14.4987 111.991 14.904 112.012 15.288C112.023 15.3947 111.986 15.4853 111.9 15.56C111.826 15.6347 111.735 15.672 111.628 15.672H110.22C110.114 15.672 110.028 15.6507 109.964 15.608C109.911 15.5547 109.858 15.4693 109.804 15.352C109.644 14.936 109.431 14.6373 109.164 14.456C108.908 14.2747 108.578 14.184 108.172 14.184C107.628 14.184 107.202 14.36 106.892 14.712C106.583 15.0533 106.418 15.576 106.396 16.28L106.38 16.872L106.396 17.4C106.439 18.7973 107.031 19.496 108.172 19.496C108.588 19.496 108.924 19.4053 109.18 19.224C109.436 19.0427 109.644 18.744 109.804 18.328C109.858 18.2107 109.911 18.1307 109.964 18.088C110.028 18.0347 110.114 18.008 110.22 18.008H111.628C111.735 18.008 111.826 18.0453 111.9 18.12C111.986 18.1947 112.023 18.2853 112.012 18.392C111.991 18.7653 111.842 19.1653 111.564 19.592C111.287 20.0187 110.86 20.3867 110.284 20.696C109.708 21.0053 108.994 21.16 108.14 21.16ZM114.001 11.304C113.894 11.304 113.804 11.2667 113.729 11.192C113.654 11.1173 113.617 11.0267 113.617 10.92V9.768C113.617 9.66133 113.654 9.57067 113.729 9.496C113.804 9.42133 113.894 9.384 114.001 9.384H115.457C115.564 9.384 115.654 9.42133 115.729 9.496C115.814 9.57067 115.857 9.66133 115.857 9.768V10.92C115.857 11.0267 115.82 11.1173 115.745 11.192C115.67 11.2667 115.574 11.304 115.457 11.304H114.001ZM114.065 21C113.958 21 113.868 20.9627 113.793 20.888C113.718 20.8133 113.681 20.7227 113.681 20.616V13.064C113.681 12.9573 113.718 12.8667 113.793 12.792C113.868 12.7173 113.958 12.68 114.065 12.68H115.393C115.51 12.68 115.601 12.7173 115.665 12.792C115.74 12.856 115.777 12.9467 115.777 13.064V20.616C115.777 20.7227 115.74 20.8133 115.665 20.888C115.601 20.9627 115.51 21 115.393 21H114.065ZM121.052 21.16C120.252 21.16 119.58 21.0427 119.036 20.808C118.492 20.5627 118.086 20.28 117.82 19.96C117.564 19.6293 117.436 19.3467 117.436 19.112C117.436 19.0053 117.473 18.92 117.548 18.856C117.622 18.792 117.708 18.76 117.804 18.76H119.068C119.164 18.76 119.244 18.7973 119.308 18.872C119.35 18.904 119.462 19 119.644 19.16C119.825 19.3307 120.038 19.464 120.284 19.56C120.529 19.656 120.801 19.704 121.1 19.704C121.526 19.704 121.878 19.6187 122.156 19.448C122.433 19.2773 122.572 19.0427 122.572 18.744C122.572 18.52 122.508 18.3387 122.38 18.2C122.262 18.0613 122.044 17.9387 121.724 17.832C121.404 17.7147 120.929 17.592 120.3 17.464C119.393 17.272 118.721 16.9787 118.284 16.584C117.857 16.1893 117.644 15.6667 117.644 15.016C117.644 14.5893 117.772 14.1893 118.028 13.816C118.284 13.432 118.662 13.1227 119.164 12.888C119.676 12.6427 120.284 12.52 120.988 12.52C121.702 12.52 122.321 12.6373 122.844 12.872C123.366 13.096 123.761 13.368 124.028 13.688C124.305 13.9973 124.444 14.2747 124.444 14.52C124.444 14.616 124.406 14.7013 124.332 14.776C124.268 14.84 124.188 14.872 124.092 14.872H122.908C122.822 14.872 122.732 14.8347 122.636 14.76C122.561 14.7067 122.444 14.6053 122.284 14.456C122.124 14.3067 121.937 14.1893 121.724 14.104C121.51 14.0187 121.26 13.976 120.972 13.976C120.577 13.976 120.268 14.0613 120.044 14.232C119.83 14.4027 119.724 14.6267 119.724 14.904C119.724 15.1067 119.777 15.272 119.884 15.4C119.99 15.528 120.198 15.6507 120.508 15.768C120.817 15.8853 121.281 16.0027 121.9 16.12C122.924 16.3227 123.654 16.6373 124.092 17.064C124.54 17.4907 124.764 18.0133 124.764 18.632C124.764 19.3787 124.438 19.9867 123.788 20.456C123.137 20.9253 122.225 21.16 121.052 21.16ZM129.999 21.16C128.815 21.16 127.871 20.8187 127.167 20.136C126.474 19.4427 126.106 18.472 126.063 17.224L126.047 16.824L126.063 16.424C126.117 15.208 126.49 14.2533 127.183 13.56C127.887 12.8667 128.826 12.52 129.999 12.52C131.258 12.52 132.229 12.904 132.911 13.672C133.605 14.44 133.951 15.464 133.951 16.744V17.08C133.951 17.1867 133.914 17.2773 133.839 17.352C133.765 17.4267 133.669 17.464 133.551 17.464H128.239V17.592C128.261 18.1787 128.421 18.6747 128.719 19.08C129.029 19.4747 129.45 19.672 129.983 19.672C130.613 19.672 131.119 19.4267 131.503 18.936C131.599 18.8187 131.674 18.744 131.727 18.712C131.791 18.68 131.882 18.664 131.999 18.664H133.375C133.471 18.664 133.551 18.696 133.615 18.76C133.69 18.8133 133.727 18.8827 133.727 18.968C133.727 19.224 133.573 19.528 133.263 19.88C132.965 20.2213 132.533 20.52 131.967 20.776C131.402 21.032 130.746 21.16 129.999 21.16ZM131.775 16.12V16.072C131.775 15.4427 131.615 14.936 131.295 14.552C130.986 14.168 130.554 13.976 129.999 13.976C129.445 13.976 129.013 14.168 128.703 14.552C128.394 14.936 128.239 15.4427 128.239 16.072V16.12H131.775ZM138.802 21.16C138.002 21.16 137.33 21.0427 136.786 20.808C136.242 20.5627 135.836 20.28 135.57 19.96C135.314 19.6293 135.186 19.3467 135.186 19.112C135.186 19.0053 135.223 18.92 135.298 18.856C135.372 18.792 135.458 18.76 135.554 18.76H136.818C136.914 18.76 136.994 18.7973 137.058 18.872C137.1 18.904 137.212 19 137.394 19.16C137.575 19.3307 137.788 19.464 138.034 19.56C138.279 19.656 138.551 19.704 138.85 19.704C139.276 19.704 139.628 19.6187 139.906 19.448C140.183 19.2773 140.322 19.0427 140.322 18.744C140.322 18.52 140.258 18.3387 140.13 18.2C140.012 18.0613 139.794 17.9387 139.474 17.832C139.154 17.7147 138.679 17.592 138.05 17.464C137.143 17.272 136.471 16.9787 136.034 16.584C135.607 16.1893 135.394 15.6667 135.394 15.016C135.394 14.5893 135.522 14.1893 135.778 13.816C136.034 13.432 136.412 13.1227 136.914 12.888C137.426 12.6427 138.034 12.52 138.738 12.52C139.452 12.52 140.071 12.6373 140.594 12.872C141.116 13.096 141.511 13.368 141.778 13.688C142.055 13.9973 142.194 14.2747 142.194 14.52C142.194 14.616 142.156 14.7013 142.082 14.776C142.018 14.84 141.938 14.872 141.842 14.872H140.658C140.572 14.872 140.482 14.8347 140.386 14.76C140.311 14.7067 140.194 14.6053 140.034 14.456C139.874 14.3067 139.687 14.1893 139.474 14.104C139.26 14.0187 139.01 13.976 138.722 13.976C138.327 13.976 138.018 14.0613 137.794 14.232C137.58 14.4027 137.474 14.6267 137.474 14.904C137.474 15.1067 137.527 15.272 137.634 15.4C137.74 15.528 137.948 15.6507 138.258 15.768C138.567 15.8853 139.031 16.0027 139.65 16.12C140.674 16.3227 141.404 16.6373 141.842 17.064C142.29 17.4907 142.514 18.0133 142.514 18.632C142.514 19.3787 142.188 19.9867 141.538 20.456C140.887 20.9253 139.975 21.16 138.802 21.16Z" fill="#1C3554"/>
<circle cx="16" cy="16" r="16" fill="#4586D6"/>
<path fill-rule="evenodd" clip-rule="evenodd" d="M13.993 23.421L7.28601 16.58L8.71401 15.179L14.007 20.579L23.293 11.293L24.707 12.707L13.993 23.421Z" fill="white"/>
</svg>
