<svg width="154" height="32" viewBox="0 0 154 32" fill="none" xmlns="http://www.w3.org/2000/svg">
<path d="M49.104 21C48.9973 21 48.9067 20.9627 48.832 20.888C48.7573 20.8133 48.72 20.7227 48.72 20.616V19.8C48.72 19.512 48.8533 19.2613 49.12 19.048L51.648 16.536C52.7467 15.672 53.5093 15 53.936 14.52C54.3733 14.0293 54.592 13.5493 54.592 13.08C54.592 12.5787 54.4533 12.184 54.176 11.896C53.9093 11.608 53.504 11.464 52.96 11.464C52.4267 11.464 52.0053 11.624 51.696 11.944C51.3867 12.2533 51.1947 12.6587 51.12 13.16C51.088 13.288 51.0293 13.384 50.944 13.448C50.8587 13.5013 50.7627 13.528 50.656 13.528H49.232C49.136 13.528 49.056 13.496 48.992 13.432C48.928 13.368 48.896 13.2933 48.896 13.208C48.9173 12.5787 49.088 11.992 49.408 11.448C49.728 10.8933 50.192 10.4507 50.8 10.12C51.408 9.77867 52.1227 9.608 52.944 9.608C53.7973 9.608 54.5173 9.75733 55.104 10.056C55.7013 10.344 56.1493 10.744 56.448 11.256C56.7467 11.768 56.896 12.3493 56.896 13C56.896 13.7147 56.6933 14.36 56.288 14.936C55.8933 15.512 55.2853 16.1307 54.464 16.792L52.192 19.096H56.752C56.8693 19.096 56.96 19.1333 57.024 19.208C57.0987 19.272 57.136 19.3627 57.136 19.48V20.616C57.136 20.7227 57.0987 20.8133 57.024 20.888C56.96 20.9627 56.8693 21 56.752 21H49.104ZM63.1543 21.16C61.7356 21.16 60.6743 20.7653 59.9703 19.976C59.2769 19.1867 58.8983 18.152 58.8343 16.872C58.8236 16.584 58.8183 16.0933 58.8183 15.4C58.8183 14.696 58.8236 14.1947 58.8343 13.896C58.8876 12.6373 59.2716 11.6133 59.9863 10.824C60.7009 10.0347 61.7569 9.64 63.1543 9.64C64.5623 9.64 65.6236 10.0347 66.3383 10.824C67.0529 11.6133 67.4316 12.6373 67.4743 13.896C67.4956 14.1947 67.5063 14.696 67.5063 15.4C67.5063 16.0933 67.4956 16.584 67.4743 16.872C67.4209 18.152 67.0423 19.1867 66.3383 19.976C65.6449 20.7653 64.5836 21.16 63.1543 21.16ZM63.1543 19.32C63.8263 19.32 64.3276 19.1013 64.6583 18.664C64.9889 18.216 65.1649 17.592 65.1863 16.792C65.2076 16.1733 65.2183 15.704 65.2183 15.384C65.2183 15.032 65.2076 14.568 65.1863 13.992C65.1649 13.2027 64.9889 12.584 64.6583 12.136C64.3276 11.688 63.8263 11.464 63.1543 11.464C62.4929 11.464 61.9916 11.688 61.6503 12.136C61.3196 12.584 61.1436 13.2027 61.1223 13.992C61.1116 14.28 61.1063 14.744 61.1063 15.384C61.1063 16.0133 61.1116 16.4827 61.1223 16.792C61.1436 17.592 61.3196 18.216 61.6503 18.664C61.9916 19.1013 62.4929 19.32 63.1543 19.32ZM73.7101 21C73.6035 21 73.5128 20.9627 73.4381 20.888C73.3635 20.8133 73.3261 20.7227 73.3261 20.616V10.2C73.3261 10.0827 73.3581 9.98667 73.4221 9.912C73.4968 9.83733 73.5928 9.8 73.7101 9.8H77.8541C79.1555 9.8 80.1741 10.104 80.9101 10.712C81.6568 11.32 82.0301 12.184 82.0301 13.304C82.0301 14.0827 81.8381 14.7387 81.4541 15.272C81.0808 15.7947 80.5581 16.1733 79.8861 16.408L82.2221 20.488C82.2541 20.552 82.2701 20.6107 82.2701 20.664C82.2701 20.76 82.2328 20.84 82.1581 20.904C82.0941 20.968 82.0195 21 81.9341 21H80.4781C80.3075 21 80.1741 20.9627 80.0781 20.888C79.9928 20.8133 79.9128 20.7067 79.8381 20.568L77.7741 16.776H75.5501V20.616C75.5501 20.7227 75.5128 20.8133 75.4381 20.888C75.3741 20.9627 75.2835 21 75.1661 21H73.7101ZM77.8061 14.968C78.4461 14.968 78.9261 14.824 79.2461 14.536C79.5768 14.248 79.7421 13.832 79.7421 13.288C79.7421 12.744 79.5768 12.3227 79.2461 12.024C78.9261 11.7253 78.4461 11.576 77.8061 11.576H75.5501V14.968H77.8061ZM87.39 21.16C86.206 21.16 85.262 20.8187 84.558 20.136C83.8647 19.4427 83.4967 18.472 83.454 17.224L83.438 16.824L83.454 16.424C83.5073 15.208 83.8807 14.2533 84.574 13.56C85.278 12.8667 86.2167 12.52 87.39 12.52C88.6487 12.52 89.6193 12.904 90.302 13.672C90.9953 14.44 91.342 15.464 91.342 16.744V17.08C91.342 17.1867 91.3047 17.2773 91.23 17.352C91.1553 17.4267 91.0593 17.464 90.942 17.464H85.63V17.592C85.6513 18.1787 85.8113 18.6747 86.11 19.08C86.4193 19.4747 86.8407 19.672 87.374 19.672C88.0033 19.672 88.51 19.4267 88.894 18.936C88.99 18.8187 89.0647 18.744 89.118 18.712C89.182 18.68 89.2727 18.664 89.39 18.664H90.766C90.862 18.664 90.942 18.696 91.006 18.76C91.0807 18.8133 91.118 18.8827 91.118 18.968C91.118 19.224 90.9633 19.528 90.654 19.88C90.3553 20.2213 89.9233 20.52 89.358 20.776C88.7927 21.032 88.1367 21.16 87.39 21.16ZM89.166 16.12V16.072C89.166 15.4427 89.006 14.936 88.686 14.552C88.3767 14.168 87.9447 13.976 87.39 13.976C86.8353 13.976 86.4033 14.168 86.094 14.552C85.7847 14.936 85.63 15.4427 85.63 16.072V16.12H89.166ZM96.1924 21.16C95.3924 21.16 94.7204 21.0427 94.1764 20.808C93.6324 20.5627 93.227 20.28 92.9604 19.96C92.7044 19.6293 92.5764 19.3467 92.5764 19.112C92.5764 19.0053 92.6137 18.92 92.6884 18.856C92.763 18.792 92.8484 18.76 92.9444 18.76H94.2084C94.3044 18.76 94.3844 18.7973 94.4484 18.872C94.491 18.904 94.603 19 94.7844 19.16C94.9657 19.3307 95.179 19.464 95.4244 19.56C95.6697 19.656 95.9417 19.704 96.2404 19.704C96.667 19.704 97.019 19.6187 97.2964 19.448C97.5737 19.2773 97.7124 19.0427 97.7124 18.744C97.7124 18.52 97.6484 18.3387 97.5204 18.2C97.403 18.0613 97.1844 17.9387 96.8644 17.832C96.5444 17.7147 96.0697 17.592 95.4404 17.464C94.5337 17.272 93.8617 16.9787 93.4244 16.584C92.9977 16.1893 92.7844 15.6667 92.7844 15.016C92.7844 14.5893 92.9124 14.1893 93.1684 13.816C93.4244 13.432 93.803 13.1227 94.3044 12.888C94.8164 12.6427 95.4244 12.52 96.1284 12.52C96.843 12.52 97.4617 12.6373 97.9844 12.872C98.507 13.096 98.9017 13.368 99.1684 13.688C99.4457 13.9973 99.5844 14.2747 99.5844 14.52C99.5844 14.616 99.547 14.7013 99.4724 14.776C99.4084 14.84 99.3284 14.872 99.2324 14.872H98.0484C97.963 14.872 97.8724 14.8347 97.7764 14.76C97.7017 14.7067 97.5844 14.6053 97.4244 14.456C97.2644 14.3067 97.0777 14.1893 96.8644 14.104C96.651 14.0187 96.4004 13.976 96.1124 13.976C95.7177 13.976 95.4084 14.0613 95.1844 14.232C94.971 14.4027 94.8644 14.6267 94.8644 14.904C94.8644 15.1067 94.9177 15.272 95.0244 15.4C95.131 15.528 95.339 15.6507 95.6484 15.768C95.9577 15.8853 96.4217 16.0027 97.0404 16.12C98.0644 16.3227 98.795 16.6373 99.2324 17.064C99.6804 17.4907 99.9044 18.0133 99.9044 18.632C99.9044 19.3787 99.579 19.9867 98.9284 20.456C98.2777 20.9253 97.3657 21.16 96.1924 21.16ZM105.236 21.16C103.988 21.16 103.023 20.84 102.34 20.2C101.657 19.5493 101.289 18.664 101.236 17.544L101.22 16.84L101.236 16.136C101.289 15.0267 101.663 14.1467 102.356 13.496C103.049 12.8453 104.009 12.52 105.236 12.52C106.463 12.52 107.423 12.8453 108.116 13.496C108.809 14.1467 109.183 15.0267 109.236 16.136C109.247 16.264 109.252 16.4987 109.252 16.84C109.252 17.1813 109.247 17.416 109.236 17.544C109.183 18.664 108.815 19.5493 108.132 20.2C107.449 20.84 106.484 21.16 105.236 21.16ZM105.236 19.576C105.801 19.576 106.239 19.4 106.548 19.048C106.857 18.6853 107.028 18.1573 107.06 17.464C107.071 17.3573 107.076 17.1493 107.076 16.84C107.076 16.5307 107.071 16.3227 107.06 16.216C107.028 15.5227 106.857 15 106.548 14.648C106.239 14.2853 105.801 14.104 105.236 14.104C104.671 14.104 104.233 14.2853 103.924 14.648C103.615 15 103.444 15.5227 103.412 16.216L103.396 16.84L103.412 17.464C103.444 18.1573 103.615 18.6853 103.924 19.048C104.233 19.4 104.671 19.576 105.236 19.576ZM114.113 21.16C113.131 21.16 112.358 20.84 111.793 20.2C111.227 19.5493 110.945 18.6693 110.945 17.56V13.064C110.945 12.9573 110.982 12.8667 111.057 12.792C111.131 12.7173 111.222 12.68 111.329 12.68H112.737C112.854 12.68 112.945 12.7173 113.009 12.792C113.083 12.856 113.121 12.9467 113.121 13.064V17.464C113.121 18.7867 113.702 19.448 114.865 19.448C115.419 19.448 115.857 19.272 116.177 18.92C116.507 18.568 116.673 18.0827 116.673 17.464V13.064C116.673 12.9573 116.71 12.8667 116.785 12.792C116.859 12.7173 116.95 12.68 117.057 12.68H118.465C118.582 12.68 118.673 12.7173 118.737 12.792C118.811 12.856 118.849 12.9467 118.849 13.064V20.616C118.849 20.7227 118.811 20.8133 118.737 20.888C118.673 20.9627 118.582 21 118.465 21H117.169C117.062 21 116.971 20.9627 116.897 20.888C116.822 20.8133 116.785 20.7227 116.785 20.616V19.96C116.187 20.76 115.297 21.16 114.113 21.16ZM121.346 21C121.24 21 121.149 20.9627 121.074 20.888C121 20.8133 120.962 20.7227 120.962 20.616V13.08C120.962 12.9733 121 12.8827 121.074 12.808C121.149 12.7227 121.24 12.68 121.346 12.68H122.642C122.76 12.68 122.856 12.7173 122.93 12.792C123.005 12.8667 123.042 12.9627 123.042 13.08V13.736C123.298 13.3947 123.618 13.1333 124.002 12.952C124.397 12.7707 124.845 12.68 125.346 12.68H126.002C126.12 12.68 126.21 12.7173 126.274 12.792C126.349 12.856 126.386 12.9467 126.386 13.064V14.216C126.386 14.3227 126.349 14.4133 126.274 14.488C126.21 14.5627 126.12 14.6 126.002 14.6H124.754C124.253 14.6 123.858 14.744 123.57 15.032C123.282 15.32 123.138 15.7147 123.138 16.216V20.616C123.138 20.7227 123.101 20.8133 123.026 20.888C122.952 20.9627 122.856 21 122.738 21H121.346ZM131.125 21.16C129.951 21.16 129.013 20.8347 128.309 20.184C127.615 19.5333 127.247 18.632 127.205 17.48L127.189 16.84L127.205 16.2C127.247 15.048 127.615 14.1467 128.309 13.496C129.013 12.8453 129.951 12.52 131.125 12.52C131.957 12.52 132.661 12.6693 133.237 12.968C133.823 13.2667 134.255 13.6347 134.533 14.072C134.821 14.4987 134.975 14.904 134.997 15.288C135.007 15.3947 134.97 15.4853 134.885 15.56C134.81 15.6347 134.719 15.672 134.613 15.672H133.205C133.098 15.672 133.013 15.6507 132.949 15.608C132.895 15.5547 132.842 15.4693 132.789 15.352C132.629 14.936 132.415 14.6373 132.149 14.456C131.893 14.2747 131.562 14.184 131.157 14.184C130.613 14.184 130.186 14.36 129.877 14.712C129.567 15.0533 129.402 15.576 129.381 16.28L129.365 16.872L129.381 17.4C129.423 18.7973 130.015 19.496 131.157 19.496C131.573 19.496 131.909 19.4053 132.165 19.224C132.421 19.0427 132.629 18.744 132.789 18.328C132.842 18.2107 132.895 18.1307 132.949 18.088C133.013 18.0347 133.098 18.008 133.205 18.008H134.613C134.719 18.008 134.81 18.0453 134.885 18.12C134.97 18.1947 135.007 18.2853 134.997 18.392C134.975 18.7653 134.826 19.1653 134.549 19.592C134.271 20.0187 133.845 20.3867 133.269 20.696C132.693 21.0053 131.978 21.16 131.125 21.16ZM140.249 21.16C139.065 21.16 138.121 20.8187 137.417 20.136C136.724 19.4427 136.356 18.472 136.313 17.224L136.297 16.824L136.313 16.424C136.367 15.208 136.74 14.2533 137.433 13.56C138.137 12.8667 139.076 12.52 140.249 12.52C141.508 12.52 142.479 12.904 143.161 13.672C143.855 14.44 144.201 15.464 144.201 16.744V17.08C144.201 17.1867 144.164 17.2773 144.089 17.352C144.015 17.4267 143.919 17.464 143.801 17.464H138.489V17.592C138.511 18.1787 138.671 18.6747 138.969 19.08C139.279 19.4747 139.7 19.672 140.233 19.672C140.863 19.672 141.369 19.4267 141.753 18.936C141.849 18.8187 141.924 18.744 141.977 18.712C142.041 18.68 142.132 18.664 142.249 18.664H143.625C143.721 18.664 143.801 18.696 143.865 18.76C143.94 18.8133 143.977 18.8827 143.977 18.968C143.977 19.224 143.823 19.528 143.513 19.88C143.215 20.2213 142.783 20.52 142.217 20.776C141.652 21.032 140.996 21.16 140.249 21.16ZM142.025 16.12V16.072C142.025 15.4427 141.865 14.936 141.545 14.552C141.236 14.168 140.804 13.976 140.249 13.976C139.695 13.976 139.263 14.168 138.953 14.552C138.644 14.936 138.489 15.4427 138.489 16.072V16.12H142.025ZM149.052 21.16C148.252 21.16 147.58 21.0427 147.036 20.808C146.492 20.5627 146.086 20.28 145.82 19.96C145.564 19.6293 145.436 19.3467 145.436 19.112C145.436 19.0053 145.473 18.92 145.548 18.856C145.622 18.792 145.708 18.76 145.804 18.76H147.068C147.164 18.76 147.244 18.7973 147.308 18.872C147.35 18.904 147.462 19 147.644 19.16C147.825 19.3307 148.038 19.464 148.284 19.56C148.529 19.656 148.801 19.704 149.1 19.704C149.526 19.704 149.878 19.6187 150.156 19.448C150.433 19.2773 150.572 19.0427 150.572 18.744C150.572 18.52 150.508 18.3387 150.38 18.2C150.262 18.0613 150.044 17.9387 149.724 17.832C149.404 17.7147 148.929 17.592 148.3 17.464C147.393 17.272 146.721 16.9787 146.284 16.584C145.857 16.1893 145.644 15.6667 145.644 15.016C145.644 14.5893 145.772 14.1893 146.028 13.816C146.284 13.432 146.662 13.1227 147.164 12.888C147.676 12.6427 148.284 12.52 148.988 12.52C149.702 12.52 150.321 12.6373 150.844 12.872C151.366 13.096 151.761 13.368 152.028 13.688C152.305 13.9973 152.444 14.2747 152.444 14.52C152.444 14.616 152.406 14.7013 152.332 14.776C152.268 14.84 152.188 14.872 152.092 14.872H150.908C150.822 14.872 150.732 14.8347 150.636 14.76C150.561 14.7067 150.444 14.6053 150.284 14.456C150.124 14.3067 149.937 14.1893 149.724 14.104C149.51 14.0187 149.26 13.976 148.972 13.976C148.577 13.976 148.268 14.0613 148.044 14.232C147.83 14.4027 147.724 14.6267 147.724 14.904C147.724 15.1067 147.777 15.272 147.884 15.4C147.99 15.528 148.198 15.6507 148.508 15.768C148.817 15.8853 149.281 16.0027 149.9 16.12C150.924 16.3227 151.654 16.6373 152.092 17.064C152.54 17.4907 152.764 18.0133 152.764 18.632C152.764 19.3787 152.438 19.9867 151.788 20.456C151.137 20.9253 150.225 21.16 149.052 21.16Z" fill="#1C3554"/>
<circle cx="16" cy="16" r="16" fill="#4586D6"/>
<path fill-rule="evenodd" clip-rule="evenodd" d="M13.993 23.421L7.286 16.58L8.714 15.179L14.007 20.579L23.293 11.293L24.707 12.707L13.993 23.421Z" fill="white"/>
</svg>
