<svg width="137" height="32" viewBox="0 0 137 32" fill="none" xmlns="http://www.w3.org/2000/svg">
<path d="M49.104 21C48.9973 21 48.9067 20.9627 48.832 20.888C48.7573 20.8133 48.72 20.7227 48.72 20.616V19.8C48.72 19.512 48.8533 19.2613 49.12 19.048L51.648 16.536C52.7467 15.672 53.5093 15 53.936 14.52C54.3733 14.0293 54.592 13.5493 54.592 13.08C54.592 12.5787 54.4533 12.184 54.176 11.896C53.9093 11.608 53.504 11.464 52.96 11.464C52.4267 11.464 52.0053 11.624 51.696 11.944C51.3867 12.2533 51.1947 12.6587 51.12 13.16C51.088 13.288 51.0293 13.384 50.944 13.448C50.8587 13.5013 50.7627 13.528 50.656 13.528H49.232C49.136 13.528 49.056 13.496 48.992 13.432C48.928 13.368 48.896 13.2933 48.896 13.208C48.9173 12.5787 49.088 11.992 49.408 11.448C49.728 10.8933 50.192 10.4507 50.8 10.12C51.408 9.77867 52.1227 9.608 52.944 9.608C53.7973 9.608 54.5173 9.75733 55.104 10.056C55.7013 10.344 56.1493 10.744 56.448 11.256C56.7467 11.768 56.896 12.3493 56.896 13C56.896 13.7147 56.6933 14.36 56.288 14.936C55.8933 15.512 55.2853 16.1307 54.464 16.792L52.192 19.096H56.752C56.8693 19.096 56.96 19.1333 57.024 19.208C57.0987 19.272 57.136 19.3627 57.136 19.48V20.616C57.136 20.7227 57.0987 20.8133 57.024 20.888C56.96 20.9627 56.8693 21 56.752 21H49.104ZM64.1169 21C64.0102 21 63.9195 20.9627 63.8449 20.888C63.7702 20.8133 63.7329 20.7227 63.7329 20.616V18.568H58.6609C58.5542 18.568 58.4635 18.5307 58.3889 18.456C58.3142 18.3813 58.2769 18.2907 58.2769 18.184V17.096C58.2769 16.9253 58.3355 16.7653 58.4529 16.616L63.1729 10.072C63.2262 9.98667 63.3062 9.92267 63.4129 9.88C63.5195 9.82667 63.6369 9.8 63.7649 9.8H65.5089C65.6262 9.8 65.7169 9.83733 65.7809 9.912C65.8555 9.976 65.8929 10.0667 65.8929 10.184V16.68H67.3169C67.4342 16.68 67.5302 16.7173 67.6049 16.792C67.6795 16.856 67.7169 16.9467 67.7169 17.064V18.184C67.7169 18.2907 67.6795 18.3813 67.6049 18.456C67.5302 18.5307 67.4395 18.568 67.3329 18.568H65.8929V20.616C65.8929 20.7227 65.8555 20.8133 65.7809 20.888C65.7169 20.9627 65.6262 21 65.5089 21H64.1169ZM63.7809 16.744V12.12L60.5009 16.744H63.7809ZM73.5386 21C73.4213 21 73.3253 20.968 73.2506 20.904C73.176 20.8293 73.1386 20.7333 73.1386 20.616V10.2C73.1386 10.0827 73.176 9.98667 73.2506 9.912C73.3253 9.83733 73.4213 9.8 73.5386 9.8H74.8026C75.0266 9.8 75.1866 9.90133 75.2826 10.104L78.3706 15.864L81.4906 10.104C81.5973 9.90133 81.7573 9.8 81.9706 9.8H83.2186C83.336 9.8 83.432 9.83733 83.5066 9.912C83.5813 9.98667 83.6186 10.0827 83.6186 10.2V20.616C83.6186 20.7333 83.5813 20.8293 83.5066 20.904C83.432 20.968 83.336 21 83.2186 21H81.8746C81.768 21 81.6773 20.9627 81.6026 20.888C81.528 20.8133 81.4906 20.7227 81.4906 20.616V13.688L79.2506 17.96C79.112 18.1947 78.9306 18.312 78.7066 18.312H78.0506C77.8266 18.312 77.6453 18.1947 77.5066 17.96L75.2666 13.688V20.616C75.2666 20.7227 75.2293 20.8133 75.1546 20.888C75.0906 20.9627 75 21 74.8826 21H73.5386ZM89.5954 21.16C88.3474 21.16 87.382 20.84 86.6994 20.2C86.0167 19.5493 85.6487 18.664 85.5954 17.544L85.5794 16.84L85.5954 16.136C85.6487 15.0267 86.022 14.1467 86.7154 13.496C87.4087 12.8453 88.3687 12.52 89.5954 12.52C90.822 12.52 91.782 12.8453 92.4754 13.496C93.1687 14.1467 93.542 15.0267 93.5954 16.136C93.606 16.264 93.6114 16.4987 93.6114 16.84C93.6114 17.1813 93.606 17.416 93.5954 17.544C93.542 18.664 93.174 19.5493 92.4914 20.2C91.8087 20.84 90.8434 21.16 89.5954 21.16ZM89.5954 19.576C90.1607 19.576 90.598 19.4 90.9074 19.048C91.2167 18.6853 91.3874 18.1573 91.4194 17.464C91.43 17.3573 91.4354 17.1493 91.4354 16.84C91.4354 16.5307 91.43 16.3227 91.4194 16.216C91.3874 15.5227 91.2167 15 90.9074 14.648C90.598 14.2853 90.1607 14.104 89.5954 14.104C89.03 14.104 88.5927 14.2853 88.2834 14.648C87.974 15 87.8034 15.5227 87.7714 16.216L87.7554 16.84L87.7714 17.464C87.8034 18.1573 87.974 18.6853 88.2834 19.048C88.5927 19.4 89.03 19.576 89.5954 19.576ZM98.4721 21.16C97.3948 21.16 96.5681 20.8133 95.9921 20.12C95.4161 19.4267 95.1068 18.504 95.0641 17.352L95.0481 16.824L95.0641 16.312C95.0961 15.192 95.4001 14.28 95.9761 13.576C96.5628 12.872 97.3948 12.52 98.4721 12.52C99.5068 12.52 100.328 12.872 100.936 13.576V10.024C100.936 9.90667 100.973 9.816 101.048 9.752C101.123 9.67733 101.213 9.64 101.32 9.64H102.68C102.797 9.64 102.888 9.67733 102.952 9.752C103.027 9.816 103.064 9.90667 103.064 10.024V20.616C103.064 20.7227 103.027 20.8133 102.952 20.888C102.888 20.9627 102.797 21 102.68 21H101.416C101.309 21 101.219 20.9627 101.144 20.888C101.069 20.8133 101.032 20.7227 101.032 20.616V20.024C100.424 20.7813 99.5708 21.16 98.4721 21.16ZM99.0641 19.448C99.6828 19.448 100.141 19.2507 100.44 18.856C100.739 18.4613 100.904 17.976 100.936 17.4C100.947 17.272 100.952 17.064 100.952 16.776C100.952 16.4987 100.947 16.296 100.936 16.168C100.915 15.6347 100.744 15.1813 100.424 14.808C100.115 14.424 99.6615 14.232 99.0641 14.232C97.9121 14.232 97.2988 14.9413 97.2241 16.36L97.2081 16.84L97.2241 17.32C97.2988 18.7387 97.9121 19.448 99.0641 19.448ZM108.285 21.16C107.303 21.16 106.53 20.84 105.965 20.2C105.399 19.5493 105.117 18.6693 105.117 17.56V13.064C105.117 12.9573 105.154 12.8667 105.229 12.792C105.303 12.7173 105.394 12.68 105.501 12.68H106.909C107.026 12.68 107.117 12.7173 107.181 12.792C107.255 12.856 107.293 12.9467 107.293 13.064V17.464C107.293 18.7867 107.874 19.448 109.037 19.448C109.591 19.448 110.029 19.272 110.349 18.92C110.679 18.568 110.845 18.0827 110.845 17.464V13.064C110.845 12.9573 110.882 12.8667 110.957 12.792C111.031 12.7173 111.122 12.68 111.229 12.68H112.637C112.754 12.68 112.845 12.7173 112.909 12.792C112.983 12.856 113.021 12.9467 113.021 13.064V20.616C113.021 20.7227 112.983 20.8133 112.909 20.888C112.845 20.9627 112.754 21 112.637 21H111.341C111.234 21 111.143 20.9627 111.069 20.888C110.994 20.8133 110.957 20.7227 110.957 20.616V19.96C110.359 20.76 109.469 21.16 108.285 21.16ZM115.534 21C115.427 21 115.337 20.9627 115.262 20.888C115.187 20.8133 115.15 20.7227 115.15 20.616V10.024C115.15 9.90667 115.187 9.816 115.262 9.752C115.337 9.67733 115.427 9.64 115.534 9.64H116.862C116.979 9.64 117.07 9.67733 117.134 9.752C117.209 9.816 117.246 9.90667 117.246 10.024V20.616C117.246 20.7227 117.209 20.8133 117.134 20.888C117.07 20.9627 116.979 21 116.862 21H115.534ZM122.953 21.16C121.769 21.16 120.825 20.8187 120.121 20.136C119.427 19.4427 119.059 18.472 119.017 17.224L119.001 16.824L119.017 16.424C119.07 15.208 119.443 14.2533 120.137 13.56C120.841 12.8667 121.779 12.52 122.953 12.52C124.211 12.52 125.182 12.904 125.865 13.672C126.558 14.44 126.905 15.464 126.905 16.744V17.08C126.905 17.1867 126.867 17.2773 126.793 17.352C126.718 17.4267 126.622 17.464 126.505 17.464H121.193V17.592C121.214 18.1787 121.374 18.6747 121.673 19.08C121.982 19.4747 122.403 19.672 122.937 19.672C123.566 19.672 124.073 19.4267 124.457 18.936C124.553 18.8187 124.627 18.744 124.681 18.712C124.745 18.68 124.835 18.664 124.953 18.664H126.329C126.425 18.664 126.505 18.696 126.569 18.76C126.643 18.8133 126.681 18.8827 126.681 18.968C126.681 19.224 126.526 19.528 126.217 19.88C125.918 20.2213 125.486 20.52 124.921 20.776C124.355 21.032 123.699 21.16 122.953 21.16ZM124.729 16.12V16.072C124.729 15.4427 124.569 14.936 124.249 14.552C123.939 14.168 123.507 13.976 122.953 13.976C122.398 13.976 121.966 14.168 121.657 14.552C121.347 14.936 121.193 15.4427 121.193 16.072V16.12H124.729ZM131.755 21.16C130.955 21.16 130.283 21.0427 129.739 20.808C129.195 20.5627 128.79 20.28 128.523 19.96C128.267 19.6293 128.139 19.3467 128.139 19.112C128.139 19.0053 128.176 18.92 128.251 18.856C128.326 18.792 128.411 18.76 128.507 18.76H129.771C129.867 18.76 129.947 18.7973 130.011 18.872C130.054 18.904 130.166 19 130.347 19.16C130.528 19.3307 130.742 19.464 130.987 19.56C131.232 19.656 131.504 19.704 131.803 19.704C132.23 19.704 132.582 19.6187 132.859 19.448C133.136 19.2773 133.275 19.0427 133.275 18.744C133.275 18.52 133.211 18.3387 133.083 18.2C132.966 18.0613 132.747 17.9387 132.427 17.832C132.107 17.7147 131.632 17.592 131.003 17.464C130.096 17.272 129.424 16.9787 128.987 16.584C128.56 16.1893 128.347 15.6667 128.347 15.016C128.347 14.5893 128.475 14.1893 128.731 13.816C128.987 13.432 129.366 13.1227 129.867 12.888C130.379 12.6427 130.987 12.52 131.691 12.52C132.406 12.52 133.024 12.6373 133.547 12.872C134.07 13.096 134.464 13.368 134.731 13.688C135.008 13.9973 135.147 14.2747 135.147 14.52C135.147 14.616 135.11 14.7013 135.035 14.776C134.971 14.84 134.891 14.872 134.795 14.872H133.611C133.526 14.872 133.435 14.8347 133.339 14.76C133.264 14.7067 133.147 14.6053 132.987 14.456C132.827 14.3067 132.64 14.1893 132.427 14.104C132.214 14.0187 131.963 13.976 131.675 13.976C131.28 13.976 130.971 14.0613 130.747 14.232C130.534 14.4027 130.427 14.6267 130.427 14.904C130.427 15.1067 130.48 15.272 130.587 15.4C130.694 15.528 130.902 15.6507 131.211 15.768C131.52 15.8853 131.984 16.0027 132.603 16.12C133.627 16.3227 134.358 16.6373 134.795 17.064C135.243 17.4907 135.467 18.0133 135.467 18.632C135.467 19.3787 135.142 19.9867 134.491 20.456C133.84 20.9253 132.928 21.16 131.755 21.16Z" fill="#1C3554"/>
<circle cx="16" cy="16" r="16" fill="#4586D6"/>
<path fill-rule="evenodd" clip-rule="evenodd" d="M13.993 23.421L7.286 16.58L8.714 15.179L14.007 20.579L23.293 11.293L24.707 12.707L13.993 23.421Z" fill="white"/>
</svg>
