<svg width="69" height="13" viewBox="0 0 69 13" fill="none" xmlns="http://www.w3.org/2000/svg">
<path d="M5.12 12.176C4.16 12.176 3.33867 12.0267 2.656 11.728C1.97333 11.4187 1.45067 11.008 1.088 10.496C0.736 9.984 0.549333 9.42933 0.528 8.832C0.528 8.736 0.56 8.656 0.624 8.592C0.688 8.528 0.768 8.496 0.864 8.496H3.008C3.25333 8.496 3.424 8.59733 3.52 8.8C3.808 9.51467 4.34667 9.872 5.136 9.872C5.60533 9.872 6 9.728 6.32 9.44C6.65067 9.14133 6.816 8.73067 6.816 8.208C6.816 7.73867 6.656 7.35467 6.336 7.056C6.02667 6.75733 5.62667 6.608 5.136 6.608C4.85867 6.608 4.63467 6.64533 4.464 6.72C4.304 6.784 4.13867 6.88 3.968 7.008C3.78667 7.14667 3.64267 7.216 3.536 7.216H1.44C1.344 7.216 1.25867 7.184 1.184 7.12C1.12 7.04533 1.088 6.96 1.088 6.864L1.664 1.28C1.67467 1.13067 1.728 1.01333 1.824 0.927999C1.93067 0.842666 2.05333 0.799999 2.192 0.799999H8.608C8.72533 0.799999 8.82133 0.837333 8.896 0.912C8.98133 0.986666 9.024 1.08267 9.024 1.2V2.704C9.024 2.82133 8.98133 2.91733 8.896 2.992C8.82133 3.06667 8.72533 3.104 8.608 3.104H3.968L3.76 5.168C4.02667 4.98667 4.32 4.85333 4.64 4.768C4.96 4.672 5.376 4.624 5.888 4.624C6.56 4.624 7.19467 4.77867 7.792 5.088C8.38933 5.38667 8.864 5.81333 9.216 6.368C9.57867 6.92267 9.76 7.55733 9.76 8.272C9.76 9.02933 9.57333 9.70667 9.2 10.304C8.82667 10.8907 8.288 11.3493 7.584 11.68C6.89067 12.0107 6.06933 12.176 5.12 12.176ZM15.7678 12.16C14.2958 12.1493 13.1811 11.76 12.4238 10.992C11.6664 10.2133 11.2558 9.19467 11.1918 7.936C11.1704 7.36 11.1598 6.848 11.1598 6.4C11.1598 5.94133 11.1704 5.41333 11.1918 4.816C11.2344 4.016 11.4264 3.30667 11.7678 2.688C12.1198 2.05867 12.6318 1.56267 13.3038 1.2C13.9758 0.826666 14.7971 0.639999 15.7678 0.639999C17.2078 0.650666 18.3171 1.04 19.0958 1.808C19.8744 2.576 20.2958 3.57867 20.3598 4.816C20.3811 5.41333 20.3918 5.94133 20.3918 6.4C20.3918 6.848 20.3811 7.36 20.3598 7.936C20.2851 9.19467 19.8691 10.2133 19.1118 10.992C18.3544 11.76 17.2398 12.1493 15.7678 12.16ZM15.7678 9.84C16.2904 9.84 16.6798 9.66933 16.9358 9.328C17.2024 8.976 17.3464 8.48533 17.3678 7.856C17.3891 7.54667 17.3998 7.05067 17.3998 6.368C17.3998 5.68533 17.3891 5.2 17.3678 4.912C17.3464 4.304 17.2078 3.824 16.9518 3.472C16.6958 3.12 16.3011 2.93867 15.7678 2.928C15.2451 2.93867 14.8504 3.12 14.5838 3.472C14.3278 3.824 14.1891 4.304 14.1678 4.912C14.1571 5.2 14.1518 5.68533 14.1518 6.368C14.1518 7.05067 14.1571 7.54667 14.1678 7.856C14.2211 9.17867 14.7544 9.84 15.7678 9.84ZM24.2908 6.448C23.5654 6.448 22.9841 6.26133 22.5468 5.888C22.1094 5.504 21.8694 4.992 21.8268 4.352C21.8054 4.032 21.7948 3.808 21.7948 3.68C21.7948 3.552 21.8054 3.27467 21.8268 2.848C21.8588 2.19733 22.0881 1.68 22.5148 1.296C22.9414 0.911999 23.5334 0.719999 24.2908 0.719999C25.0374 0.719999 25.6241 0.911999 26.0508 1.296C26.4774 1.68 26.7068 2.19733 26.7388 2.848C26.7601 3.27467 26.7708 3.552 26.7708 3.68C26.7708 3.808 26.7601 4.032 26.7388 4.352C26.6961 4.992 26.4561 5.504 26.0188 5.888C25.5814 6.26133 25.0054 6.448 24.2908 6.448ZM23.0108 12C22.9041 12 22.8134 11.9733 22.7388 11.92C22.6748 11.856 22.6428 11.776 22.6428 11.68C22.6428 11.616 22.6641 11.5573 22.7068 11.504L30.6108 1.104C30.6961 0.997333 30.7761 0.922666 30.8508 0.879999C30.9254 0.826666 31.0321 0.799999 31.1708 0.799999H32.3068C32.4134 0.799999 32.4988 0.831999 32.5628 0.896C32.6374 0.949333 32.6748 1.024 32.6748 1.12C32.6748 1.184 32.6534 1.24267 32.6108 1.296L24.7068 11.696C24.6214 11.8027 24.5414 11.8827 24.4668 11.936C24.3921 11.9787 24.2854 12 24.1468 12H23.0108ZM24.2908 5.056C24.7388 5.056 24.9841 4.79467 25.0268 4.272C25.0481 3.93067 25.0588 3.70667 25.0588 3.6C25.0588 3.46133 25.0481 3.24267 25.0268 2.944C25.0161 2.70933 24.9468 2.51733 24.8188 2.368C24.7014 2.21867 24.5254 2.144 24.2908 2.144C24.0454 2.144 23.8641 2.21867 23.7468 2.368C23.6294 2.51733 23.5601 2.70933 23.5388 2.944C23.5281 3.09333 23.5228 3.312 23.5228 3.6C23.5228 3.87733 23.5281 4.10133 23.5388 4.272C23.5814 4.79467 23.8321 5.056 24.2908 5.056ZM31.0588 12.08C30.3334 12.08 29.7521 11.8933 29.3148 11.52C28.8881 11.136 28.6481 10.6187 28.5948 9.968C28.5841 9.78667 28.5788 9.54133 28.5788 9.232C28.5788 8.912 28.5841 8.656 28.5948 8.464C28.6374 7.80267 28.8668 7.28 29.2828 6.896C29.7094 6.512 30.3014 6.32 31.0588 6.32C31.8161 6.32 32.4028 6.512 32.8188 6.896C33.2454 7.28 33.4801 7.80267 33.5228 8.464C33.5441 8.89067 33.5548 9.168 33.5548 9.296C33.5548 9.424 33.5441 9.648 33.5228 9.968C33.4801 10.608 33.2401 11.12 32.8028 11.504C32.3654 11.888 31.7841 12.08 31.0588 12.08ZM31.0588 10.672C31.3041 10.672 31.4854 10.5973 31.6028 10.448C31.7201 10.288 31.7894 10.096 31.8108 9.872C31.8321 9.552 31.8428 9.328 31.8428 9.2C31.8428 9.06133 31.8321 8.84267 31.8108 8.544C31.7894 8.32 31.7201 8.13333 31.6028 7.984C31.4854 7.824 31.3041 7.744 31.0588 7.744C30.8134 7.744 30.6321 7.824 30.5148 7.984C30.3974 8.13333 30.3334 8.32 30.3228 8.544C30.3121 8.69333 30.3068 8.912 30.3068 9.2C30.3068 9.488 30.3121 9.712 30.3228 9.872C30.3441 10.1067 30.4081 10.2987 30.5148 10.448C30.6321 10.5973 30.8134 10.672 31.0588 10.672ZM43.2273 12.16C41.7233 12.16 40.5393 11.792 39.6753 11.056C38.8113 10.32 38.3526 9.23733 38.2993 7.808C38.2886 7.49867 38.2833 7.04 38.2833 6.432C38.2833 5.81333 38.2886 5.34933 38.2993 5.04C38.3526 3.632 38.8166 2.54933 39.6913 1.792C40.5766 1.024 41.7553 0.639999 43.2273 0.639999C44.6993 0.639999 45.8779 1.024 46.7633 1.792C47.6486 2.54933 48.1126 3.632 48.1553 5.04C48.1766 5.65867 48.1873 6.12267 48.1873 6.432C48.1873 6.73067 48.1766 7.18933 48.1553 7.808C48.1019 9.23733 47.6433 10.32 46.7793 11.056C45.9153 11.792 44.7313 12.16 43.2273 12.16ZM43.2273 9.856C43.8139 9.856 44.2779 9.68 44.6193 9.328C44.9713 8.976 45.1579 8.43733 45.1793 7.712C45.2006 7.09333 45.2113 6.656 45.2113 6.4C45.2113 6.12267 45.2006 5.68533 45.1793 5.088C45.1579 4.36267 44.9713 3.824 44.6193 3.472C44.2673 3.12 43.8033 2.944 43.2273 2.944C42.6513 2.944 42.1873 3.12 41.8353 3.472C41.4939 3.824 41.3073 4.36267 41.2753 5.088C41.2646 5.38667 41.2593 5.824 41.2593 6.4C41.2593 6.96533 41.2646 7.40267 41.2753 7.712C41.3073 8.43733 41.4939 8.976 41.8353 9.328C42.1766 9.68 42.6406 9.856 43.2273 9.856ZM50.4419 12C50.3352 12 50.2392 11.9627 50.1539 11.888C50.0792 11.8027 50.0419 11.7067 50.0419 11.6V1.2C50.0419 1.08267 50.0792 0.986666 50.1539 0.912C50.2392 0.837333 50.3352 0.799999 50.4419 0.799999H57.8019C57.9192 0.799999 58.0152 0.837333 58.0899 0.912C58.1645 0.986666 58.2019 1.08267 58.2019 1.2V2.816C58.2019 2.92267 58.1645 3.01867 58.0899 3.104C58.0152 3.17867 57.9192 3.216 57.8019 3.216H52.8579V5.568H57.4819C57.5992 5.568 57.6952 5.61067 57.7699 5.696C57.8445 5.77067 57.8819 5.86667 57.8819 5.984V7.584C57.8819 7.69067 57.8445 7.78667 57.7699 7.872C57.6952 7.94667 57.5992 7.984 57.4819 7.984H52.8579V11.6C52.8579 11.7173 52.8205 11.8133 52.7459 11.888C52.6712 11.9627 52.5752 12 52.4579 12H50.4419ZM60.3325 12C60.2258 12 60.1298 11.9627 60.0445 11.888C59.9698 11.8027 59.9325 11.7067 59.9325 11.6V1.2C59.9325 1.08267 59.9698 0.986666 60.0445 0.912C60.1298 0.837333 60.2258 0.799999 60.3325 0.799999H67.6925C67.8098 0.799999 67.9058 0.837333 67.9805 0.912C68.0552 0.986666 68.0925 1.08267 68.0925 1.2V2.816C68.0925 2.92267 68.0552 3.01867 67.9805 3.104C67.9058 3.17867 67.8098 3.216 67.6925 3.216H62.7485V5.568H67.3725C67.4898 5.568 67.5858 5.61067 67.6605 5.696C67.7352 5.77067 67.7725 5.86667 67.7725 5.984V7.584C67.7725 7.69067 67.7352 7.78667 67.6605 7.872C67.5858 7.94667 67.4898 7.984 67.3725 7.984H62.7485V11.6C62.7485 11.7173 62.7112 11.8133 62.6365 11.888C62.5618 11.9627 62.4658 12 62.3485 12H60.3325Z" fill="white"/>
</svg>
