<svg width="224" height="64" viewBox="0 0 224 64" fill="none" xmlns="http://www.w3.org/2000/svg">
<rect width="224" height="64" rx="8" fill="#F72585"/>
<path d="M51.792 38L51.776 30.576L48.096 36.72H47.168L43.488 30.672V38H41.504V26.8H43.216L47.664 34.224L52.032 26.8H53.744L53.76 38H51.792ZM60.4333 38.112C59.5693 38.112 58.7906 37.9253 58.0973 37.552C57.4039 37.1787 56.8599 36.6613 56.4653 36C56.0813 35.328 55.8893 34.5707 55.8893 33.728C55.8893 32.8853 56.0813 32.1333 56.4653 31.472C56.8599 30.8107 57.4039 30.2933 58.0973 29.92C58.7906 29.5467 59.5693 29.36 60.4333 29.36C61.3079 29.36 62.0919 29.5467 62.7853 29.92C63.4786 30.2933 64.0173 30.8107 64.4013 31.472C64.7959 32.1333 64.9933 32.8853 64.9933 33.728C64.9933 34.5707 64.7959 35.328 64.4013 36C64.0173 36.6613 63.4786 37.1787 62.7853 37.552C62.0919 37.9253 61.3079 38.112 60.4333 38.112ZM60.4333 36.4C61.1693 36.4 61.7773 36.1547 62.2573 35.664C62.7373 35.1733 62.9773 34.528 62.9773 33.728C62.9773 32.928 62.7373 32.2827 62.2573 31.792C61.7773 31.3013 61.1693 31.056 60.4333 31.056C59.6973 31.056 59.0893 31.3013 58.6093 31.792C58.1399 32.2827 57.9053 32.928 57.9053 33.728C57.9053 34.528 58.1399 35.1733 58.6093 35.664C59.0893 36.1547 59.6973 36.4 60.4333 36.4ZM69.5458 38.112C68.8524 38.112 68.1751 38.0213 67.5138 37.84C66.8524 37.6587 66.3244 37.4293 65.9298 37.152L66.6978 35.632C67.0818 35.888 67.5404 36.096 68.0738 36.256C68.6178 36.4053 69.1511 36.48 69.6738 36.48C70.8684 36.48 71.4658 36.1653 71.4658 35.536C71.4658 35.2373 71.3111 35.0293 71.0018 34.912C70.7031 34.7947 70.2178 34.6827 69.5458 34.576C68.8418 34.4693 68.2658 34.3467 67.8178 34.208C67.3804 34.0693 66.9964 33.8293 66.6658 33.488C66.3458 33.136 66.1858 32.6507 66.1858 32.032C66.1858 31.2213 66.5218 30.576 67.1938 30.096C67.8764 29.6053 68.7938 29.36 69.9458 29.36C70.5324 29.36 71.1191 29.4293 71.7058 29.568C72.2924 29.696 72.7724 29.872 73.1458 30.096L72.3778 31.616C71.6524 31.1893 70.8364 30.976 69.9298 30.976C69.3431 30.976 68.8951 31.0667 68.5858 31.248C68.2871 31.4187 68.1378 31.648 68.1378 31.936C68.1378 32.256 68.2978 32.4853 68.6178 32.624C68.9484 32.752 69.4551 32.8747 70.1378 32.992C70.8204 33.0987 71.3804 33.2213 71.8178 33.36C72.2551 33.4987 72.6284 33.7333 72.9378 34.064C73.2578 34.3947 73.4178 34.864 73.4178 35.472C73.4178 36.272 73.0711 36.912 72.3778 37.392C71.6844 37.872 70.7404 38.112 69.5458 38.112ZM80.2761 37.536C80.0415 37.728 79.7535 37.872 79.4121 37.968C79.0815 38.064 78.7295 38.112 78.3561 38.112C77.4175 38.112 76.6921 37.8667 76.1801 37.376C75.6681 36.8853 75.4121 36.1707 75.4121 35.232V31.12H74.0041V29.52H75.4121V27.568H77.4121V29.52H79.7001V31.12H77.4121V35.184C77.4121 35.6 77.5135 35.92 77.7161 36.144C77.9188 36.3573 78.2121 36.464 78.5961 36.464C79.0441 36.464 79.4175 36.3467 79.7161 36.112L80.2761 37.536ZM91.1433 26.8C92.1139 26.8 92.9566 26.96 93.6713 27.28C94.3966 27.6 94.9513 28.0587 95.3353 28.656C95.7193 29.2533 95.9113 29.9627 95.9113 30.784C95.9113 31.5947 95.7193 32.304 95.3353 32.912C94.9513 33.5093 94.3966 33.968 93.6713 34.288C92.9566 34.608 92.1139 34.768 91.1433 34.768H88.6153V38H86.5353V26.8H91.1433ZM91.0473 33.008C91.9539 33.008 92.6419 32.816 93.1112 32.432C93.5806 32.048 93.8153 31.4987 93.8153 30.784C93.8153 30.0693 93.5806 29.52 93.1112 29.136C92.6419 28.752 91.9539 28.56 91.0473 28.56H88.6153V33.008H91.0473ZM101.605 38.112C100.741 38.112 99.9625 37.9253 99.2691 37.552C98.5758 37.1787 98.0318 36.6613 97.6371 36C97.2531 35.328 97.0611 34.5707 97.0611 33.728C97.0611 32.8853 97.2531 32.1333 97.6371 31.472C98.0318 30.8107 98.5758 30.2933 99.2691 29.92C99.9625 29.5467 100.741 29.36 101.605 29.36C102.48 29.36 103.264 29.5467 103.957 29.92C104.65 30.2933 105.189 30.8107 105.573 31.472C105.968 32.1333 106.165 32.8853 106.165 33.728C106.165 34.5707 105.968 35.328 105.573 36C105.189 36.6613 104.65 37.1787 103.957 37.552C103.264 37.9253 102.48 38.112 101.605 38.112ZM101.605 36.4C102.341 36.4 102.949 36.1547 103.429 35.664C103.909 35.1733 104.149 34.528 104.149 33.728C104.149 32.928 103.909 32.2827 103.429 31.792C102.949 31.3013 102.341 31.056 101.605 31.056C100.869 31.056 100.261 31.3013 99.7811 31.792C99.3118 32.2827 99.0771 32.928 99.0771 33.728C99.0771 34.528 99.3118 35.1733 99.7811 35.664C100.261 36.1547 100.869 36.4 101.605 36.4ZM112.814 29.36C113.646 29.36 114.387 29.5413 115.038 29.904C115.699 30.2667 116.216 30.7787 116.59 31.44C116.963 32.1013 117.15 32.864 117.15 33.728C117.15 34.592 116.963 35.36 116.59 36.032C116.216 36.6933 115.699 37.2053 115.038 37.568C114.387 37.9307 113.646 38.112 112.814 38.112C111.662 38.112 110.75 37.728 110.078 36.96V41.104H108.078V29.456H109.982V30.576C110.312 30.1707 110.718 29.8667 111.198 29.664C111.688 29.4613 112.227 29.36 112.814 29.36ZM112.59 36.4C113.326 36.4 113.928 36.1547 114.398 35.664C114.878 35.1733 115.118 34.528 115.118 33.728C115.118 32.928 114.878 32.2827 114.398 31.792C113.928 31.3013 113.326 31.056 112.59 31.056C112.11 31.056 111.678 31.168 111.294 31.392C110.91 31.6053 110.606 31.9147 110.382 32.32C110.158 32.7253 110.046 33.1947 110.046 33.728C110.046 34.2613 110.158 34.7307 110.382 35.136C110.606 35.5413 110.91 35.856 111.294 36.08C111.678 36.2933 112.11 36.4 112.59 36.4ZM127.318 29.456V38H125.414V36.912C125.094 37.296 124.694 37.5947 124.214 37.808C123.734 38.0107 123.217 38.112 122.662 38.112C121.521 38.112 120.62 37.7973 119.958 37.168C119.308 36.528 118.982 35.584 118.982 34.336V29.456H120.982V34.064C120.982 34.832 121.153 35.408 121.494 35.792C121.846 36.1653 122.342 36.352 122.982 36.352C123.697 36.352 124.262 36.1333 124.678 35.696C125.105 35.248 125.318 34.608 125.318 33.776V29.456H127.318ZM129.937 26.128H131.937V38H129.937V26.128ZM137.826 29.36C139.085 29.36 140.045 29.664 140.706 30.272C141.378 30.8693 141.714 31.776 141.714 32.992V38H139.826V36.96C139.581 37.3333 139.229 37.6213 138.77 37.824C138.322 38.016 137.778 38.112 137.138 38.112C136.498 38.112 135.938 38.0053 135.458 37.792C134.978 37.568 134.605 37.264 134.338 36.88C134.082 36.4853 133.954 36.0427 133.954 35.552C133.954 34.784 134.237 34.1707 134.802 33.712C135.378 33.2427 136.279 33.008 137.506 33.008H139.714V32.88C139.714 32.2827 139.533 31.824 139.17 31.504C138.818 31.184 138.29 31.024 137.586 31.024C137.106 31.024 136.631 31.0987 136.162 31.248C135.703 31.3973 135.314 31.6053 134.994 31.872L134.21 30.416C134.658 30.0747 135.197 29.8133 135.826 29.632C136.455 29.4507 137.122 29.36 137.826 29.36ZM137.554 36.656C138.055 36.656 138.498 36.544 138.882 36.32C139.277 36.0853 139.554 35.7547 139.714 35.328V34.336H137.65C136.498 34.336 135.922 34.7147 135.922 35.472C135.922 35.8347 136.066 36.1227 136.354 36.336C136.642 36.5493 137.042 36.656 137.554 36.656ZM146.185 30.704C146.761 29.808 147.774 29.36 149.225 29.36V31.264C149.054 31.232 148.899 31.216 148.761 31.216C147.982 31.216 147.374 31.4453 146.937 31.904C146.499 32.352 146.281 33.0027 146.281 33.856V38H144.281V29.456H146.185V30.704Z" fill="white"/>
<path d="M167.293 24.707L174.586 32L167.293 39.293L168.707 40.707L177.414 32L168.707 23.293L167.293 24.707Z" fill="white"/>
</svg>
