<svg width="376" height="72" viewBox="0 0 376 72" fill="none" xmlns="http://www.w3.org/2000/svg">
<rect width="376" height="72" rx="8" fill="#F72585"/>
<path d="M144.06 41C143.975 41 143.895 40.968 143.82 40.904C143.756 40.84 143.724 40.76 143.724 40.664C143.724 40.6213 143.735 40.5733 143.756 40.52L147.612 30.2C147.644 30.0933 147.703 30.0027 147.788 29.928C147.884 29.8427 148.012 29.8 148.172 29.8H149.916C150.076 29.8 150.199 29.8427 150.284 29.928C150.369 30.0027 150.433 30.0933 150.476 30.2L154.332 40.52C154.343 40.5733 154.348 40.6213 154.348 40.664C154.348 40.76 154.316 40.84 154.252 40.904C154.188 40.968 154.113 41 154.028 41H152.636C152.487 41 152.375 40.968 152.3 40.904C152.236 40.8293 152.193 40.76 152.172 40.696L151.42 38.744H146.668L145.916 40.696C145.895 40.76 145.847 40.8293 145.772 40.904C145.708 40.968 145.601 41 145.452 41H144.06ZM147.228 36.904H150.86L149.036 31.96L147.228 36.904ZM158.644 41.16C158.089 41.16 157.599 41.0693 157.172 40.888C156.756 40.696 156.409 40.4293 156.132 40.088C155.855 39.7467 155.641 39.3467 155.492 38.888C155.343 38.4187 155.257 37.9067 155.236 37.352C155.225 37.16 155.22 36.9893 155.22 36.84C155.22 36.68 155.225 36.504 155.236 36.312C155.257 35.7787 155.337 35.2827 155.476 34.824C155.625 34.3653 155.839 33.9653 156.116 33.624C156.404 33.272 156.756 33 157.172 32.808C157.599 32.616 158.089 32.52 158.644 32.52C159.22 32.52 159.705 32.6213 160.1 32.824C160.505 33.016 160.841 33.2667 161.108 33.576V30.024C161.108 29.9173 161.14 29.8267 161.204 29.752C161.279 29.6773 161.375 29.64 161.492 29.64H162.852C162.959 29.64 163.049 29.6773 163.124 29.752C163.199 29.8267 163.236 29.9173 163.236 30.024V40.616C163.236 40.7227 163.199 40.8133 163.124 40.888C163.049 40.9627 162.959 41 162.852 41H161.588C161.471 41 161.375 40.9627 161.3 40.888C161.236 40.8133 161.204 40.7227 161.204 40.616V40.024C160.937 40.3547 160.596 40.6267 160.18 40.84C159.775 41.0533 159.263 41.16 158.644 41.16ZM159.236 39.448C159.684 39.448 160.041 39.3467 160.308 39.144C160.575 38.9413 160.772 38.6853 160.9 38.376C161.028 38.056 161.097 37.7307 161.108 37.4C161.119 37.208 161.124 37.0053 161.124 36.792C161.124 36.568 161.119 36.36 161.108 36.168C161.097 35.848 161.023 35.544 160.884 35.256C160.745 34.9573 160.543 34.712 160.276 34.52C160.009 34.328 159.663 34.232 159.236 34.232C158.788 34.232 158.431 34.3333 158.164 34.536C157.908 34.728 157.721 34.984 157.604 35.304C157.487 35.624 157.417 35.976 157.396 36.36C157.385 36.68 157.385 37 157.396 37.32C157.417 37.704 157.487 38.056 157.604 38.376C157.721 38.696 157.908 38.9573 158.164 39.16C158.431 39.352 158.788 39.448 159.236 39.448ZM168.457 41.16C167.902 41.16 167.411 41.0693 166.985 40.888C166.569 40.696 166.222 40.4293 165.945 40.088C165.667 39.7467 165.454 39.3467 165.305 38.888C165.155 38.4187 165.07 37.9067 165.049 37.352C165.038 37.16 165.033 36.9893 165.033 36.84C165.033 36.68 165.038 36.504 165.049 36.312C165.07 35.7787 165.15 35.2827 165.289 34.824C165.438 34.3653 165.651 33.9653 165.929 33.624C166.217 33.272 166.569 33 166.985 32.808C167.411 32.616 167.902 32.52 168.457 32.52C169.033 32.52 169.518 32.6213 169.913 32.824C170.318 33.016 170.654 33.2667 170.921 33.576V30.024C170.921 29.9173 170.953 29.8267 171.017 29.752C171.091 29.6773 171.187 29.64 171.305 29.64H172.665C172.771 29.64 172.862 29.6773 172.937 29.752C173.011 29.8267 173.049 29.9173 173.049 30.024V40.616C173.049 40.7227 173.011 40.8133 172.937 40.888C172.862 40.9627 172.771 41 172.665 41H171.401C171.283 41 171.187 40.9627 171.113 40.888C171.049 40.8133 171.017 40.7227 171.017 40.616V40.024C170.75 40.3547 170.409 40.6267 169.993 40.84C169.587 41.0533 169.075 41.16 168.457 41.16ZM169.049 39.448C169.497 39.448 169.854 39.3467 170.121 39.144C170.387 38.9413 170.585 38.6853 170.713 38.376C170.841 38.056 170.91 37.7307 170.921 37.4C170.931 37.208 170.937 37.0053 170.937 36.792C170.937 36.568 170.931 36.36 170.921 36.168C170.91 35.848 170.835 35.544 170.697 35.256C170.558 34.9573 170.355 34.712 170.089 34.52C169.822 34.328 169.475 34.232 169.049 34.232C168.601 34.232 168.243 34.3333 167.977 34.536C167.721 34.728 167.534 34.984 167.417 35.304C167.299 35.624 167.23 35.976 167.209 36.36C167.198 36.68 167.198 37 167.209 37.32C167.23 37.704 167.299 38.056 167.417 38.376C167.534 38.696 167.721 38.9573 167.977 39.16C168.243 39.352 168.601 39.448 169.049 39.448ZM181.487 41C181.38 41 181.289 40.9627 181.215 40.888C181.14 40.8133 181.103 40.7227 181.103 40.616V31.768H178.143C178.036 31.768 177.945 31.7307 177.871 31.656C177.796 31.5813 177.759 31.4907 177.759 31.384V30.2C177.759 30.0827 177.796 29.9867 177.871 29.912C177.945 29.8373 178.036 29.8 178.143 29.8H186.303C186.42 29.8 186.516 29.8373 186.591 29.912C186.665 29.9867 186.703 30.0827 186.703 30.2V31.384C186.703 31.4907 186.665 31.5813 186.591 31.656C186.516 31.7307 186.42 31.768 186.303 31.768H183.359V40.616C183.359 40.7227 183.321 40.8133 183.247 40.888C183.172 40.9627 183.076 41 182.959 41H181.487ZM190.345 41.16C189.492 41.16 188.772 41.0107 188.185 40.712C187.609 40.4133 187.167 39.992 186.857 39.448C186.559 38.904 186.388 38.2693 186.345 37.544C186.335 37.352 186.329 37.1173 186.329 36.84C186.329 36.5627 186.335 36.328 186.345 36.136C186.388 35.4 186.564 34.7653 186.873 34.232C187.193 33.688 187.641 33.2667 188.217 32.968C188.804 32.6693 189.513 32.52 190.345 32.52C191.177 32.52 191.881 32.6693 192.457 32.968C193.044 33.2667 193.492 33.688 193.801 34.232C194.121 34.7653 194.303 35.4 194.345 36.136C194.356 36.328 194.361 36.5627 194.361 36.84C194.361 37.1173 194.356 37.352 194.345 37.544C194.303 38.2693 194.127 38.904 193.817 39.448C193.519 39.992 193.076 40.4133 192.489 40.712C191.913 41.0107 191.199 41.16 190.345 41.16ZM190.345 39.576C190.911 39.576 191.348 39.4 191.657 39.048C191.967 38.6853 192.137 38.1573 192.169 37.464C192.18 37.304 192.185 37.096 192.185 36.84C192.185 36.584 192.18 36.376 192.169 36.216C192.137 35.5333 191.967 35.0107 191.657 34.648C191.348 34.2853 190.911 34.104 190.345 34.104C189.78 34.104 189.343 34.2853 189.033 34.648C188.724 35.0107 188.553 35.5333 188.521 36.216C188.511 36.376 188.505 36.584 188.505 36.84C188.505 37.096 188.511 37.304 188.521 37.464C188.553 38.1573 188.724 38.6853 189.033 39.048C189.343 39.4 189.78 39.576 190.345 39.576ZM204.302 41.16C203.31 41.16 202.468 40.9893 201.774 40.648C201.092 40.296 200.569 39.8 200.206 39.16C199.844 38.5093 199.641 37.7307 199.598 36.824C199.588 36.3867 199.582 35.9173 199.582 35.416C199.582 34.9147 199.588 34.4347 199.598 33.976C199.641 33.08 199.844 32.3067 200.206 31.656C200.58 31.0053 201.108 30.5093 201.79 30.168C202.484 29.816 203.321 29.64 204.302 29.64C205.028 29.64 205.678 29.736 206.254 29.928C206.83 30.12 207.321 30.3867 207.726 30.728C208.132 31.0587 208.446 31.448 208.67 31.896C208.894 32.344 209.012 32.8293 209.022 33.352C209.033 33.448 209.001 33.528 208.926 33.592C208.862 33.656 208.782 33.688 208.686 33.688H207.166C207.049 33.688 206.953 33.6613 206.878 33.608C206.804 33.544 206.75 33.4427 206.718 33.304C206.548 32.6 206.254 32.12 205.838 31.864C205.422 31.608 204.905 31.48 204.286 31.48C203.572 31.48 203.001 31.6827 202.574 32.088C202.148 32.4827 201.918 33.1387 201.886 34.056C201.854 34.9307 201.854 35.8267 201.886 36.744C201.918 37.6613 202.148 38.3227 202.574 38.728C203.001 39.1227 203.572 39.32 204.286 39.32C204.905 39.32 205.422 39.192 205.838 38.936C206.254 38.6693 206.548 38.1893 206.718 37.496C206.75 37.3467 206.804 37.2453 206.878 37.192C206.953 37.1387 207.049 37.112 207.166 37.112H208.686C208.782 37.112 208.862 37.144 208.926 37.208C209.001 37.272 209.033 37.352 209.022 37.448C209.012 37.9707 208.894 38.456 208.67 38.904C208.446 39.352 208.132 39.7467 207.726 40.088C207.321 40.4187 206.83 40.68 206.254 40.872C205.678 41.064 205.028 41.16 204.302 41.16ZM213.144 41.16C212.589 41.16 212.088 41.0533 211.64 40.84C211.192 40.616 210.835 40.3227 210.568 39.96C210.312 39.5867 210.184 39.1707 210.184 38.712C210.184 37.9653 210.483 37.3733 211.08 36.936C211.688 36.488 212.488 36.1893 213.48 36.04L215.672 35.72V35.384C215.672 34.936 215.56 34.5893 215.336 34.344C215.112 34.0987 214.728 33.976 214.184 33.976C213.8 33.976 213.485 34.056 213.24 34.216C213.005 34.3653 212.829 34.568 212.712 34.824C212.627 34.9627 212.504 35.032 212.344 35.032H211.08C210.963 35.032 210.872 35 210.808 34.936C210.755 34.872 210.728 34.7867 210.728 34.68C210.739 34.5093 210.808 34.3013 210.936 34.056C211.064 33.8107 211.267 33.576 211.544 33.352C211.821 33.1173 212.179 32.92 212.616 32.76C213.053 32.6 213.581 32.52 214.2 32.52C214.872 32.52 215.437 32.6053 215.896 32.776C216.365 32.936 216.739 33.1547 217.016 33.432C217.293 33.7093 217.496 34.0347 217.624 34.408C217.752 34.7813 217.816 35.176 217.816 35.592V40.616C217.816 40.7227 217.779 40.8133 217.704 40.888C217.629 40.9627 217.539 41 217.432 41H216.136C216.019 41 215.923 40.9627 215.848 40.888C215.784 40.8133 215.752 40.7227 215.752 40.616V39.992C215.613 40.1947 215.427 40.3867 215.192 40.568C214.957 40.7387 214.669 40.8827 214.328 41C213.997 41.1067 213.603 41.16 213.144 41.16ZM213.688 39.64C214.061 39.64 214.397 39.56 214.696 39.4C215.005 39.24 215.245 38.9947 215.416 38.664C215.597 38.3227 215.688 37.896 215.688 37.384V37.048L214.088 37.304C213.459 37.4 212.989 37.5547 212.68 37.768C212.371 37.9813 212.216 38.2427 212.216 38.552C212.216 38.7867 212.285 38.9893 212.424 39.16C212.573 39.32 212.76 39.4427 212.984 39.528C213.208 39.6027 213.443 39.64 213.688 39.64ZM220.253 41C220.146 41 220.055 40.9627 219.981 40.888C219.906 40.8133 219.868 40.7227 219.868 40.616V33.08C219.868 32.9627 219.906 32.8667 219.981 32.792C220.055 32.7173 220.146 32.68 220.253 32.68H221.549C221.655 32.68 221.746 32.7173 221.821 32.792C221.906 32.8667 221.949 32.9627 221.949 33.08V33.736C222.194 33.3947 222.509 33.1333 222.893 32.952C223.287 32.7707 223.741 32.68 224.253 32.68H224.909C225.026 32.68 225.117 32.7173 225.181 32.792C225.255 32.8667 225.293 32.9573 225.293 33.064V34.216C225.293 34.3227 225.255 34.4133 225.181 34.488C225.117 34.5627 225.026 34.6 224.909 34.6H223.661C223.149 34.6 222.749 34.744 222.461 35.032C222.183 35.32 222.045 35.7147 222.045 36.216V40.616C222.045 40.7227 222.007 40.8133 221.933 40.888C221.858 40.9627 221.762 41 221.645 41H220.253ZM230.3 41C229.66 41 229.122 40.888 228.684 40.664C228.247 40.44 227.922 40.1093 227.708 39.672C227.495 39.224 227.388 38.6693 227.388 38.008V34.376H226.124C226.018 34.376 225.927 34.3387 225.852 34.264C225.778 34.1893 225.74 34.0987 225.74 33.992V33.064C225.74 32.9573 225.778 32.8667 225.852 32.792C225.927 32.7173 226.018 32.68 226.124 32.68H227.388V30.024C227.388 29.9173 227.42 29.8267 227.484 29.752C227.559 29.6773 227.655 29.64 227.772 29.64H229.068C229.175 29.64 229.266 29.6773 229.34 29.752C229.415 29.8267 229.452 29.9173 229.452 30.024V32.68H231.452C231.559 32.68 231.65 32.7173 231.724 32.792C231.799 32.8667 231.836 32.9573 231.836 33.064V33.992C231.836 34.0987 231.799 34.1893 231.724 34.264C231.65 34.3387 231.559 34.376 231.452 34.376H229.452V37.848C229.452 38.2853 229.527 38.6267 229.676 38.872C229.836 39.1173 230.108 39.24 230.492 39.24H231.596C231.703 39.24 231.794 39.2773 231.868 39.352C231.943 39.4267 231.98 39.5173 231.98 39.624V40.616C231.98 40.7227 231.943 40.8133 231.868 40.888C231.794 40.9627 231.703 41 231.596 41H230.3Z" fill="white"/>
</svg>
