<svg width="376" height="72" viewBox="0 0 376 72" fill="none" xmlns="http://www.w3.org/2000/svg">
<rect x="0.5" y="0.5" width="375" height="71" rx="7.5" stroke="#F72585"/>
<path d="M156.132 41C156.025 41 155.935 40.9627 155.86 40.888C155.785 40.8133 155.748 40.7227 155.748 40.616V30.2C155.748 30.0827 155.785 29.9867 155.86 29.912C155.935 29.8373 156.025 29.8 156.132 29.8H160.772C161.636 29.8 162.34 29.9333 162.884 30.2C163.428 30.456 163.828 30.8133 164.084 31.272C164.351 31.7307 164.484 32.264 164.484 32.872C164.484 33.2773 164.409 33.6347 164.26 33.944C164.121 34.2427 163.945 34.488 163.732 34.68C163.529 34.872 163.327 35.0213 163.124 35.128C163.54 35.32 163.908 35.64 164.228 36.088C164.548 36.536 164.708 37.0693 164.708 37.688C164.708 38.328 164.564 38.8987 164.276 39.4C163.988 39.9013 163.561 40.296 162.996 40.584C162.431 40.8613 161.732 41 160.9 41H156.132ZM157.972 39.304H160.644C161.22 39.304 161.657 39.1493 161.956 38.84C162.255 38.52 162.404 38.136 162.404 37.688C162.404 37.2187 162.249 36.8293 161.94 36.52C161.641 36.2107 161.209 36.056 160.644 36.056H157.972V39.304ZM157.972 34.392H160.484C161.049 34.392 161.471 34.2587 161.748 33.992C162.036 33.7147 162.18 33.3573 162.18 32.92C162.18 32.472 162.036 32.12 161.748 31.864C161.471 31.608 161.049 31.48 160.484 31.48H157.972V34.392ZM169.613 41.16C168.962 41.16 168.397 41.016 167.917 40.728C167.447 40.4293 167.085 40.0133 166.829 39.48C166.573 38.936 166.445 38.296 166.445 37.56V33.064C166.445 32.9573 166.482 32.8667 166.557 32.792C166.631 32.7173 166.722 32.68 166.829 32.68H168.237C168.354 32.68 168.445 32.7173 168.509 32.792C168.583 32.8667 168.621 32.9573 168.621 33.064V37.464C168.621 38.7867 169.202 39.448 170.365 39.448C170.919 39.448 171.357 39.272 171.677 38.92C172.007 38.568 172.173 38.0827 172.173 37.464V33.064C172.173 32.9573 172.21 32.8667 172.285 32.792C172.359 32.7173 172.45 32.68 172.557 32.68H173.965C174.071 32.68 174.162 32.7173 174.237 32.792C174.311 32.8667 174.349 32.9573 174.349 33.064V40.616C174.349 40.7227 174.311 40.8133 174.237 40.888C174.162 40.9627 174.071 41 173.965 41H172.669C172.551 41 172.455 40.9627 172.381 40.888C172.317 40.8133 172.285 40.7227 172.285 40.616V39.96C171.997 40.3333 171.639 40.6267 171.213 40.84C170.786 41.0533 170.253 41.16 169.613 41.16ZM177.966 44.04C177.881 44.04 177.806 44.008 177.742 43.944C177.678 43.88 177.646 43.8053 177.646 43.72C177.646 43.6773 177.646 43.6347 177.646 43.592C177.657 43.56 177.678 43.5173 177.71 43.464L178.958 40.504L175.886 33.256C175.844 33.1493 175.822 33.0747 175.822 33.032C175.833 32.936 175.87 32.856 175.934 32.792C175.998 32.7173 176.078 32.68 176.174 32.68H177.47C177.598 32.68 177.694 32.712 177.758 32.776C177.822 32.84 177.87 32.9093 177.902 32.984L180.03 38.216L182.222 32.984C182.254 32.8987 182.302 32.8293 182.366 32.776C182.43 32.712 182.526 32.68 182.654 32.68H183.934C184.02 32.68 184.094 32.712 184.158 32.776C184.233 32.84 184.27 32.9147 184.27 33C184.27 33.064 184.249 33.1493 184.206 33.256L179.678 43.736C179.636 43.8213 179.582 43.8907 179.518 43.944C179.454 44.008 179.358 44.04 179.23 44.04H177.966ZM189.46 41C189.353 41 189.263 40.9627 189.188 40.888C189.113 40.8133 189.076 40.7227 189.076 40.616V30.2C189.076 30.0827 189.113 29.9867 189.188 29.912C189.263 29.8373 189.353 29.8 189.46 29.8H190.692C190.841 29.8 190.948 29.8373 191.012 29.912C191.087 29.976 191.135 30.024 191.156 30.056L195.764 37.224V30.2C195.764 30.0827 195.796 29.9867 195.86 29.912C195.935 29.8373 196.031 29.8 196.148 29.8H197.492C197.609 29.8 197.705 29.8373 197.78 29.912C197.855 29.9867 197.892 30.0827 197.892 30.2V40.6C197.892 40.7173 197.855 40.8133 197.78 40.888C197.705 40.9627 197.615 41 197.508 41H196.26C196.111 41 196.004 40.9627 195.94 40.888C195.876 40.8133 195.828 40.7653 195.796 40.744L191.204 33.736V40.616C191.204 40.7227 191.167 40.8133 191.092 40.888C191.017 40.9627 190.921 41 190.804 41H189.46ZM203.877 41.16C203.023 41.16 202.303 41.0107 201.717 40.712C201.141 40.4133 200.698 39.992 200.389 39.448C200.09 38.904 199.919 38.2693 199.877 37.544C199.866 37.352 199.861 37.1173 199.861 36.84C199.861 36.5627 199.866 36.328 199.877 36.136C199.919 35.4 200.095 34.7653 200.405 34.232C200.725 33.688 201.173 33.2667 201.749 32.968C202.335 32.6693 203.045 32.52 203.877 32.52C204.709 32.52 205.413 32.6693 205.989 32.968C206.575 33.2667 207.023 33.688 207.333 34.232C207.653 34.7653 207.834 35.4 207.877 36.136C207.887 36.328 207.893 36.5627 207.893 36.84C207.893 37.1173 207.887 37.352 207.877 37.544C207.834 38.2693 207.658 38.904 207.349 39.448C207.05 39.992 206.607 40.4133 206.021 40.712C205.445 41.0107 204.73 41.16 203.877 41.16ZM203.877 39.576C204.442 39.576 204.879 39.4 205.189 39.048C205.498 38.6853 205.669 38.1573 205.701 37.464C205.711 37.304 205.717 37.096 205.717 36.84C205.717 36.584 205.711 36.376 205.701 36.216C205.669 35.5227 205.498 35 205.189 34.648C204.879 34.2853 204.442 34.104 203.877 34.104C203.311 34.104 202.874 34.2853 202.565 34.648C202.255 35 202.085 35.5227 202.053 36.216C202.042 36.376 202.037 36.584 202.037 36.84C202.037 37.096 202.042 37.304 202.053 37.464C202.085 38.1573 202.255 38.6853 202.565 39.048C202.874 39.4 203.311 39.576 203.877 39.576ZM211.703 41C211.554 41 211.442 40.9627 211.367 40.888C211.292 40.8133 211.228 40.7173 211.175 40.6L208.887 33.176C208.876 33.1227 208.871 33.0747 208.871 33.032C208.871 32.936 208.903 32.856 208.967 32.792C209.042 32.7173 209.122 32.68 209.207 32.68H210.391C210.519 32.68 210.62 32.7173 210.695 32.792C210.77 32.856 210.812 32.92 210.823 32.984L212.391 38.28L214.055 33.032C214.076 32.9573 214.124 32.8827 214.199 32.808C214.274 32.7227 214.386 32.68 214.535 32.68H215.335C215.484 32.68 215.596 32.7227 215.671 32.808C215.746 32.8827 215.794 32.9573 215.815 33.032L217.479 38.28L219.047 32.984C219.058 32.92 219.095 32.856 219.159 32.792C219.234 32.7173 219.335 32.68 219.463 32.68H220.647C220.743 32.68 220.823 32.7173 220.887 32.792C220.962 32.856 220.999 32.936 220.999 33.032C220.999 33.0747 220.988 33.1227 220.967 33.176L218.679 40.6C218.647 40.7173 218.588 40.8133 218.503 40.888C218.428 40.9627 218.316 41 218.167 41H217.127C216.988 41 216.871 40.9627 216.775 40.888C216.69 40.8133 216.631 40.7173 216.599 40.6L214.935 35.544L213.271 40.6C213.228 40.7173 213.164 40.8133 213.079 40.888C213.004 40.9627 212.887 41 212.727 41H211.703Z" fill="#F72585"/>
</svg>
