<svg width="374" height="144" viewBox="0 0 374 144" fill="none" xmlns="http://www.w3.org/2000/svg">
<path d="M283.568 77.16C282.096 77.16 280.955 76.7813 280.144 76.024C279.344 75.2667 278.917 74.2 278.864 72.824C278.853 72.536 278.848 72.0667 278.848 71.416C278.848 70.7547 278.853 70.2747 278.864 69.976C278.917 68.6107 279.349 67.5493 280.16 66.792C280.981 66.024 282.117 65.64 283.568 65.64C284.517 65.64 285.344 65.8053 286.048 66.136C286.752 66.456 287.296 66.8987 287.68 67.464C288.064 68.0187 288.267 68.648 288.288 69.352V69.384C288.288 69.4693 288.251 69.544 288.176 69.608C288.112 69.6613 288.037 69.688 287.952 69.688H286.432C286.304 69.688 286.208 69.6613 286.144 69.608C286.08 69.5547 286.027 69.4533 285.984 69.304C285.813 68.632 285.531 68.1627 285.136 67.896C284.741 67.6187 284.213 67.48 283.552 67.48C282.016 67.48 281.216 68.3387 281.152 70.056C281.141 70.344 281.136 70.7867 281.136 71.384C281.136 71.9813 281.141 72.4347 281.152 72.744C281.216 74.4613 282.016 75.32 283.552 75.32C284.213 75.32 284.741 75.1813 285.136 74.904C285.541 74.6267 285.824 74.1573 285.984 73.496C286.016 73.3467 286.064 73.2453 286.128 73.192C286.203 73.1387 286.304 73.112 286.432 73.112H287.952C288.048 73.112 288.128 73.144 288.192 73.208C288.267 73.272 288.299 73.352 288.288 73.448C288.267 74.152 288.064 74.7867 287.68 75.352C287.296 75.9067 286.752 76.3493 286.048 76.68C285.344 77 284.517 77.16 283.568 77.16ZM293.578 77.16C292.394 77.16 291.45 76.8187 290.746 76.136C290.052 75.4427 289.684 74.472 289.642 73.224L289.626 72.824L289.642 72.424C289.695 71.208 290.068 70.2533 290.762 69.56C291.466 68.8667 292.404 68.52 293.578 68.52C294.836 68.52 295.807 68.904 296.49 69.672C297.183 70.44 297.53 71.464 297.53 72.744V73.08C297.53 73.1867 297.492 73.2773 297.418 73.352C297.343 73.4267 297.247 73.464 297.13 73.464H291.818V73.592C291.839 74.1787 291.999 74.6747 292.298 75.08C292.607 75.4747 293.028 75.672 293.562 75.672C294.191 75.672 294.698 75.4267 295.082 74.936C295.178 74.8187 295.252 74.744 295.306 74.712C295.37 74.68 295.46 74.664 295.578 74.664H296.954C297.05 74.664 297.13 74.696 297.194 74.76C297.268 74.8133 297.306 74.8827 297.306 74.968C297.306 75.224 297.151 75.528 296.842 75.88C296.543 76.2213 296.111 76.52 295.546 76.776C294.98 77.032 294.324 77.16 293.578 77.16ZM295.354 72.12V72.072C295.354 71.4427 295.194 70.936 294.874 70.552C294.564 70.168 294.132 69.976 293.578 69.976C293.023 69.976 292.591 70.168 292.282 70.552C291.972 70.936 291.818 71.4427 291.818 72.072V72.12H295.354ZM299.612 77C299.505 77 299.415 76.9627 299.34 76.888C299.265 76.8133 299.228 76.7227 299.228 76.616V69.08C299.228 68.9733 299.265 68.8827 299.34 68.808C299.415 68.7227 299.505 68.68 299.612 68.68H300.908C301.025 68.68 301.121 68.7173 301.196 68.792C301.271 68.8667 301.308 68.9627 301.308 69.08V69.736C301.564 69.3947 301.884 69.1333 302.268 68.952C302.663 68.7707 303.111 68.68 303.612 68.68H304.268C304.385 68.68 304.476 68.7173 304.54 68.792C304.615 68.856 304.652 68.9467 304.652 69.064V70.216C304.652 70.3227 304.615 70.4133 304.54 70.488C304.476 70.5627 304.385 70.6 304.268 70.6H303.02C302.519 70.6 302.124 70.744 301.836 71.032C301.548 71.32 301.404 71.7147 301.404 72.216V76.616C301.404 76.7227 301.367 76.8133 301.292 76.888C301.217 76.9627 301.121 77 301.004 77H299.612ZM309.66 77C308.689 77 307.958 76.7493 307.468 76.248C306.988 75.736 306.748 74.9893 306.748 74.008V70.376H305.484C305.377 70.376 305.286 70.3387 305.212 70.264C305.137 70.1787 305.1 70.0827 305.1 69.976V69.064C305.1 68.9573 305.137 68.8667 305.212 68.792C305.286 68.7173 305.377 68.68 305.484 68.68H306.748V66.024C306.748 65.9067 306.785 65.816 306.86 65.752C306.934 65.6773 307.025 65.64 307.132 65.64H308.428C308.545 65.64 308.636 65.6773 308.7 65.752C308.774 65.816 308.812 65.9067 308.812 66.024V68.68H310.812C310.929 68.68 311.02 68.7173 311.084 68.792C311.158 68.856 311.196 68.9467 311.196 69.064V69.976C311.196 70.0933 311.158 70.1893 311.084 70.264C311.009 70.3387 310.918 70.376 310.812 70.376H308.812V73.848C308.812 74.3067 308.892 74.6533 309.052 74.888C309.212 75.1227 309.478 75.24 309.852 75.24H310.956C311.062 75.24 311.153 75.2773 311.228 75.352C311.302 75.4267 311.34 75.5173 311.34 75.624V76.616C311.34 76.7227 311.302 76.8133 311.228 76.888C311.164 76.9627 311.073 77 310.956 77H309.66ZM313.079 67.304C312.972 67.304 312.882 67.2667 312.807 67.192C312.732 67.1173 312.695 67.0267 312.695 66.92V65.768C312.695 65.6613 312.732 65.5707 312.807 65.496C312.882 65.4213 312.972 65.384 313.079 65.384H314.535C314.642 65.384 314.732 65.4213 314.807 65.496C314.892 65.5707 314.935 65.6613 314.935 65.768V66.92C314.935 67.0267 314.898 67.1173 314.823 67.192C314.748 67.2667 314.652 67.304 314.535 67.304H313.079ZM313.143 77C313.036 77 312.946 76.9627 312.871 76.888C312.796 76.8133 312.759 76.7227 312.759 76.616V69.064C312.759 68.9573 312.796 68.8667 312.871 68.792C312.946 68.7173 313.036 68.68 313.143 68.68H314.471C314.588 68.68 314.679 68.7173 314.743 68.792C314.818 68.856 314.855 68.9467 314.855 69.064V76.616C314.855 76.7227 314.818 76.8133 314.743 76.888C314.679 76.9627 314.588 77 314.471 77H313.143ZM318.258 77C318.151 77 318.061 76.9627 317.986 76.888C317.911 76.8133 317.874 76.7227 317.874 76.616V70.376H316.578C316.471 70.376 316.381 70.3387 316.306 70.264C316.231 70.1787 316.194 70.0827 316.194 69.976V69.064C316.194 68.9573 316.231 68.8667 316.306 68.792C316.381 68.7173 316.471 68.68 316.578 68.68H317.874V68.024C317.874 66.1147 318.919 65.16 321.01 65.16H324.274C324.391 65.16 324.482 65.1973 324.546 65.272C324.621 65.336 324.658 65.4267 324.658 65.544V66.456C324.658 66.5733 324.621 66.6693 324.546 66.744C324.471 66.8187 324.381 66.856 324.274 66.856H321.074C320.658 66.856 320.365 66.9573 320.194 67.16C320.034 67.3627 319.954 67.6773 319.954 68.104V68.68H324.274C324.391 68.68 324.482 68.7173 324.546 68.792C324.621 68.856 324.658 68.9467 324.658 69.064V76.616C324.658 76.7227 324.621 76.8133 324.546 76.888C324.482 76.9627 324.391 77 324.274 77H322.978C322.871 77 322.781 76.9627 322.706 76.888C322.631 76.8133 322.594 76.7227 322.594 76.616V70.376H319.954V76.616C319.954 76.7227 319.917 76.8133 319.842 76.888C319.767 76.9627 319.677 77 319.57 77H318.258ZM330.39 77.16C329.217 77.16 328.278 76.8347 327.574 76.184C326.881 75.5333 326.513 74.632 326.47 73.48L326.454 72.84L326.47 72.2C326.513 71.048 326.881 70.1467 327.574 69.496C328.278 68.8453 329.217 68.52 330.39 68.52C331.222 68.52 331.926 68.6693 332.502 68.968C333.089 69.2667 333.521 69.6347 333.798 70.072C334.086 70.4987 334.241 70.904 334.262 71.288C334.273 71.3947 334.236 71.4853 334.15 71.56C334.076 71.6347 333.985 71.672 333.878 71.672H332.47C332.364 71.672 332.278 71.6507 332.214 71.608C332.161 71.5547 332.108 71.4693 332.054 71.352C331.894 70.936 331.681 70.6373 331.414 70.456C331.158 70.2747 330.828 70.184 330.422 70.184C329.878 70.184 329.452 70.36 329.142 70.712C328.833 71.0533 328.668 71.576 328.646 72.28L328.63 72.872L328.646 73.4C328.689 74.7973 329.281 75.496 330.422 75.496C330.838 75.496 331.174 75.4053 331.43 75.224C331.686 75.0427 331.894 74.744 332.054 74.328C332.108 74.2107 332.161 74.1307 332.214 74.088C332.278 74.0347 332.364 74.008 332.47 74.008H333.878C333.985 74.008 334.076 74.0453 334.15 74.12C334.236 74.1947 334.273 74.2853 334.262 74.392C334.241 74.7653 334.092 75.1653 333.814 75.592C333.537 76.0187 333.11 76.3867 332.534 76.696C331.958 77.0053 331.244 77.16 330.39 77.16ZM338.347 77.16C337.803 77.16 337.302 77.0533 336.843 76.84C336.395 76.616 336.038 76.3173 335.771 75.944C335.515 75.5707 335.387 75.16 335.387 74.712C335.387 73.9867 335.68 73.4 336.267 72.952C336.854 72.504 337.659 72.2 338.683 72.04L340.875 71.72V71.384C340.875 70.9147 340.758 70.5627 340.523 70.328C340.288 70.0933 339.91 69.976 339.387 69.976C339.035 69.976 338.747 70.0453 338.523 70.184C338.31 70.312 338.139 70.44 338.011 70.568C337.883 70.7067 337.798 70.7973 337.755 70.84C337.712 70.968 337.632 71.032 337.515 71.032H336.283C336.187 71.032 336.102 71 336.027 70.936C335.963 70.872 335.931 70.7867 335.931 70.68C335.942 70.4133 336.07 70.1093 336.315 69.768C336.571 69.4267 336.96 69.1333 337.483 68.888C338.006 68.6427 338.646 68.52 339.403 68.52C340.662 68.52 341.579 68.8027 342.155 69.368C342.731 69.9333 343.019 70.6747 343.019 71.592V76.616C343.019 76.7227 342.982 76.8133 342.907 76.888C342.843 76.9627 342.752 77 342.635 77H341.339C341.232 77 341.142 76.9627 341.067 76.888C340.992 76.8133 340.955 76.7227 340.955 76.616V75.992C340.72 76.3333 340.384 76.616 339.947 76.84C339.52 77.0533 338.987 77.16 338.347 77.16ZM338.891 75.64C339.478 75.64 339.958 75.448 340.331 75.064C340.704 74.68 340.891 74.12 340.891 73.384V73.048L339.291 73.304C338.672 73.4 338.203 73.5547 337.883 73.768C337.574 73.9813 337.419 74.2427 337.419 74.552C337.419 74.8933 337.563 75.16 337.851 75.352C338.139 75.544 338.486 75.64 338.891 75.64ZM348.754 77C347.783 77 347.052 76.7493 346.562 76.248C346.082 75.736 345.842 74.9893 345.842 74.008V70.376H344.578C344.471 70.376 344.38 70.3387 344.306 70.264C344.231 70.1787 344.194 70.0827 344.194 69.976V69.064C344.194 68.9573 344.231 68.8667 344.306 68.792C344.38 68.7173 344.471 68.68 344.578 68.68H345.842V66.024C345.842 65.9067 345.879 65.816 345.954 65.752C346.028 65.6773 346.119 65.64 346.226 65.64H347.522C347.639 65.64 347.73 65.6773 347.794 65.752C347.868 65.816 347.906 65.9067 347.906 66.024V68.68H349.906C350.023 68.68 350.114 68.7173 350.178 68.792C350.252 68.856 350.29 68.9467 350.29 69.064V69.976C350.29 70.0933 350.252 70.1893 350.178 70.264C350.103 70.3387 350.012 70.376 349.906 70.376H347.906V73.848C347.906 74.3067 347.986 74.6533 348.146 74.888C348.306 75.1227 348.572 75.24 348.946 75.24H350.05C350.156 75.24 350.247 75.2773 350.322 75.352C350.396 75.4267 350.434 75.5173 350.434 75.624V76.616C350.434 76.7227 350.396 76.8133 350.322 76.888C350.258 76.9627 350.167 77 350.05 77H348.754ZM355.437 77.16C354.253 77.16 353.309 76.8187 352.605 76.136C351.912 75.4427 351.544 74.472 351.501 73.224L351.485 72.824L351.501 72.424C351.554 71.208 351.928 70.2533 352.621 69.56C353.325 68.8667 354.264 68.52 355.437 68.52C356.696 68.52 357.666 68.904 358.349 69.672C359.042 70.44 359.389 71.464 359.389 72.744V73.08C359.389 73.1867 359.352 73.2773 359.277 73.352C359.202 73.4267 359.106 73.464 358.989 73.464H353.677V73.592C353.698 74.1787 353.858 74.6747 354.157 75.08C354.466 75.4747 354.888 75.672 355.421 75.672C356.05 75.672 356.557 75.4267 356.941 74.936C357.037 74.8187 357.112 74.744 357.165 74.712C357.229 74.68 357.32 74.664 357.437 74.664H358.813C358.909 74.664 358.989 74.696 359.053 74.76C359.128 74.8133 359.165 74.8827 359.165 74.968C359.165 75.224 359.01 75.528 358.701 75.88C358.402 76.2213 357.97 76.52 357.405 76.776C356.84 77.032 356.184 77.16 355.437 77.16ZM357.213 72.12V72.072C357.213 71.4427 357.053 70.936 356.733 70.552C356.424 70.168 355.992 69.976 355.437 69.976C354.882 69.976 354.45 70.168 354.141 70.552C353.832 70.936 353.677 71.4427 353.677 72.072V72.12H357.213Z" fill="#1C3554"/>
<circle cx="246" cy="72" r="16" fill="#4586D6"/>
<path fill-rule="evenodd" clip-rule="evenodd" d="M243.993 79.421L237.286 72.58L238.714 71.179L244.007 76.579L253.293 67.293L254.707 68.707L243.993 79.421Z" fill="white"/>
<path d="M282.432 21C282.325 21 282.235 20.9627 282.16 20.888C282.085 20.8133 282.048 20.7227 282.048 20.616V12.328L279.616 14.2C279.552 14.2533 279.477 14.28 279.392 14.28C279.264 14.28 279.157 14.2213 279.072 14.104L278.4 13.24C278.347 13.1547 278.32 13.0747 278.32 13C278.32 12.872 278.379 12.7653 278.496 12.68L282.08 9.912C282.176 9.83733 282.309 9.8 282.48 9.8H283.888C284.005 9.8 284.096 9.83733 284.16 9.912C284.235 9.976 284.272 10.0667 284.272 10.184V20.616C284.272 20.7227 284.235 20.8133 284.16 20.888C284.096 20.9627 284.005 21 283.888 21H282.432ZM286.51 21C286.404 21 286.313 20.9627 286.238 20.888C286.164 20.8133 286.126 20.7227 286.126 20.616V19.8C286.126 19.512 286.26 19.2613 286.526 19.048L289.054 16.536C290.153 15.672 290.916 15 291.342 14.52C291.78 14.0293 291.998 13.5493 291.998 13.08C291.998 12.5787 291.86 12.184 291.582 11.896C291.316 11.608 290.91 11.464 290.366 11.464C289.833 11.464 289.412 11.624 289.102 11.944C288.793 12.2533 288.601 12.6587 288.526 13.16C288.494 13.288 288.436 13.384 288.35 13.448C288.265 13.5013 288.169 13.528 288.062 13.528H286.638C286.542 13.528 286.462 13.496 286.398 13.432C286.334 13.368 286.302 13.2933 286.302 13.208C286.324 12.5787 286.494 11.992 286.814 11.448C287.134 10.8933 287.598 10.4507 288.206 10.12C288.814 9.77867 289.529 9.608 290.35 9.608C291.204 9.608 291.924 9.75733 292.51 10.056C293.108 10.344 293.556 10.744 293.854 11.256C294.153 11.768 294.302 12.3493 294.302 13C294.302 13.7147 294.1 14.36 293.694 14.936C293.3 15.512 292.692 16.1307 291.87 16.792L289.598 19.096H294.158C294.276 19.096 294.366 19.1333 294.43 19.208C294.505 19.272 294.542 19.3627 294.542 19.48V20.616C294.542 20.7227 294.505 20.8133 294.43 20.888C294.366 20.9627 294.276 21 294.158 21H286.51ZM300.601 21C300.494 21 300.403 20.9627 300.329 20.888C300.254 20.8133 300.217 20.7227 300.217 20.616V10.2C300.217 10.0827 300.249 9.98667 300.313 9.912C300.387 9.83733 300.483 9.8 300.601 9.8H307.641C307.758 9.8 307.854 9.83733 307.929 9.912C308.003 9.98667 308.041 10.0827 308.041 10.2V11.256C308.041 11.3733 308.003 11.4693 307.929 11.544C307.854 11.608 307.758 11.64 307.641 11.64H302.377V14.472H307.289C307.406 14.472 307.502 14.5093 307.577 14.584C307.651 14.648 307.689 14.7387 307.689 14.856V15.848C307.689 15.9653 307.651 16.0613 307.577 16.136C307.502 16.2 307.406 16.232 307.289 16.232H302.377V19.16H307.769C307.886 19.16 307.982 19.1973 308.057 19.272C308.131 19.3467 308.169 19.4427 308.169 19.56V20.616C308.169 20.7333 308.131 20.8293 308.057 20.904C307.982 20.968 307.886 21 307.769 21H300.601ZM309.626 21C309.53 21 309.445 20.968 309.37 20.904C309.306 20.8293 309.274 20.744 309.274 20.648C309.274 20.552 309.311 20.4613 309.386 20.376L312.106 16.728L309.578 13.304C309.514 13.2187 309.482 13.128 309.482 13.032C309.482 12.936 309.514 12.856 309.578 12.792C309.653 12.7173 309.738 12.68 309.834 12.68H311.226C311.333 12.68 311.413 12.7067 311.466 12.76C311.53 12.8027 311.594 12.8667 311.658 12.952L313.466 15.352L315.274 12.952C315.285 12.9413 315.327 12.8933 315.402 12.808C315.466 12.7227 315.567 12.68 315.706 12.68H317.034C317.13 12.68 317.21 12.7173 317.274 12.792C317.349 12.856 317.386 12.9307 317.386 13.016C317.386 13.1227 317.354 13.2187 317.29 13.304L314.73 16.76L317.466 20.376C317.541 20.4613 317.578 20.552 317.578 20.648C317.578 20.744 317.541 20.8293 317.466 20.904C317.402 20.968 317.322 21 317.226 21H315.77C315.599 21 315.455 20.9147 315.338 20.744L313.418 18.2L311.466 20.744C311.349 20.9147 311.205 21 311.034 21H309.626ZM322.328 21.16C321.144 21.16 320.2 20.8187 319.496 20.136C318.802 19.4427 318.434 18.472 318.392 17.224L318.376 16.824L318.392 16.424C318.445 15.208 318.818 14.2533 319.512 13.56C320.216 12.8667 321.154 12.52 322.328 12.52C323.586 12.52 324.557 12.904 325.24 13.672C325.933 14.44 326.28 15.464 326.28 16.744V17.08C326.28 17.1867 326.242 17.2773 326.168 17.352C326.093 17.4267 325.997 17.464 325.88 17.464H320.568V17.592C320.589 18.1787 320.749 18.6747 321.048 19.08C321.357 19.4747 321.778 19.672 322.312 19.672C322.941 19.672 323.448 19.4267 323.832 18.936C323.928 18.8187 324.002 18.744 324.056 18.712C324.12 18.68 324.21 18.664 324.328 18.664H325.704C325.8 18.664 325.88 18.696 325.944 18.76C326.018 18.8133 326.056 18.8827 326.056 18.968C326.056 19.224 325.901 19.528 325.592 19.88C325.293 20.2213 324.861 20.52 324.296 20.776C323.73 21.032 323.074 21.16 322.328 21.16ZM324.104 16.12V16.072C324.104 15.4427 323.944 14.936 323.624 14.552C323.314 14.168 322.882 13.976 322.328 13.976C321.773 13.976 321.341 14.168 321.032 14.552C320.722 14.936 320.568 15.4427 320.568 16.072V16.12H324.104ZM328.362 21C328.255 21 328.165 20.9627 328.09 20.888C328.015 20.8133 327.978 20.7227 327.978 20.616V13.08C327.978 12.9733 328.015 12.8827 328.09 12.808C328.165 12.7227 328.255 12.68 328.362 12.68H329.658C329.775 12.68 329.871 12.7173 329.946 12.792C330.021 12.8667 330.058 12.9627 330.058 13.08V13.736C330.314 13.3947 330.634 13.1333 331.018 12.952C331.413 12.7707 331.861 12.68 332.362 12.68H333.018C333.135 12.68 333.226 12.7173 333.29 12.792C333.365 12.856 333.402 12.9467 333.402 13.064V14.216C333.402 14.3227 333.365 14.4133 333.29 14.488C333.226 14.5627 333.135 14.6 333.018 14.6H331.77C331.269 14.6 330.874 14.744 330.586 15.032C330.298 15.32 330.154 15.7147 330.154 16.216V20.616C330.154 20.7227 330.117 20.8133 330.042 20.888C329.967 20.9627 329.871 21 329.754 21H328.362ZM338.14 21.16C336.967 21.16 336.028 20.8347 335.324 20.184C334.631 19.5333 334.263 18.632 334.22 17.48L334.204 16.84L334.22 16.2C334.263 15.048 334.631 14.1467 335.324 13.496C336.028 12.8453 336.967 12.52 338.14 12.52C338.972 12.52 339.676 12.6693 340.252 12.968C340.839 13.2667 341.271 13.6347 341.548 14.072C341.836 14.4987 341.991 14.904 342.012 15.288C342.023 15.3947 341.986 15.4853 341.9 15.56C341.826 15.6347 341.735 15.672 341.628 15.672H340.22C340.114 15.672 340.028 15.6507 339.964 15.608C339.911 15.5547 339.858 15.4693 339.804 15.352C339.644 14.936 339.431 14.6373 339.164 14.456C338.908 14.2747 338.578 14.184 338.172 14.184C337.628 14.184 337.202 14.36 336.892 14.712C336.583 15.0533 336.418 15.576 336.396 16.28L336.38 16.872L336.396 17.4C336.439 18.7973 337.031 19.496 338.172 19.496C338.588 19.496 338.924 19.4053 339.18 19.224C339.436 19.0427 339.644 18.744 339.804 18.328C339.858 18.2107 339.911 18.1307 339.964 18.088C340.028 18.0347 340.114 18.008 340.22 18.008H341.628C341.735 18.008 341.826 18.0453 341.9 18.12C341.986 18.1947 342.023 18.2853 342.012 18.392C341.991 18.7653 341.842 19.1653 341.564 19.592C341.287 20.0187 340.86 20.3867 340.284 20.696C339.708 21.0053 338.994 21.16 338.14 21.16ZM344.001 11.304C343.894 11.304 343.804 11.2667 343.729 11.192C343.654 11.1173 343.617 11.0267 343.617 10.92V9.768C343.617 9.66133 343.654 9.57067 343.729 9.496C343.804 9.42133 343.894 9.384 344.001 9.384H345.457C345.564 9.384 345.654 9.42133 345.729 9.496C345.814 9.57067 345.857 9.66133 345.857 9.768V10.92C345.857 11.0267 345.82 11.1173 345.745 11.192C345.67 11.2667 345.574 11.304 345.457 11.304H344.001ZM344.065 21C343.958 21 343.868 20.9627 343.793 20.888C343.718 20.8133 343.681 20.7227 343.681 20.616V13.064C343.681 12.9573 343.718 12.8667 343.793 12.792C343.868 12.7173 343.958 12.68 344.065 12.68H345.393C345.51 12.68 345.601 12.7173 345.665 12.792C345.74 12.856 345.777 12.9467 345.777 13.064V20.616C345.777 20.7227 345.74 20.8133 345.665 20.888C345.601 20.9627 345.51 21 345.393 21H344.065ZM351.052 21.16C350.252 21.16 349.58 21.0427 349.036 20.808C348.492 20.5627 348.086 20.28 347.82 19.96C347.564 19.6293 347.436 19.3467 347.436 19.112C347.436 19.0053 347.473 18.92 347.548 18.856C347.622 18.792 347.708 18.76 347.804 18.76H349.068C349.164 18.76 349.244 18.7973 349.308 18.872C349.35 18.904 349.462 19 349.644 19.16C349.825 19.3307 350.038 19.464 350.284 19.56C350.529 19.656 350.801 19.704 351.1 19.704C351.526 19.704 351.878 19.6187 352.156 19.448C352.433 19.2773 352.572 19.0427 352.572 18.744C352.572 18.52 352.508 18.3387 352.38 18.2C352.262 18.0613 352.044 17.9387 351.724 17.832C351.404 17.7147 350.929 17.592 350.3 17.464C349.393 17.272 348.721 16.9787 348.284 16.584C347.857 16.1893 347.644 15.6667 347.644 15.016C347.644 14.5893 347.772 14.1893 348.028 13.816C348.284 13.432 348.662 13.1227 349.164 12.888C349.676 12.6427 350.284 12.52 350.988 12.52C351.702 12.52 352.321 12.6373 352.844 12.872C353.366 13.096 353.761 13.368 354.028 13.688C354.305 13.9973 354.444 14.2747 354.444 14.52C354.444 14.616 354.406 14.7013 354.332 14.776C354.268 14.84 354.188 14.872 354.092 14.872H352.908C352.822 14.872 352.732 14.8347 352.636 14.76C352.561 14.7067 352.444 14.6053 352.284 14.456C352.124 14.3067 351.937 14.1893 351.724 14.104C351.51 14.0187 351.26 13.976 350.972 13.976C350.577 13.976 350.268 14.0613 350.044 14.232C349.83 14.4027 349.724 14.6267 349.724 14.904C349.724 15.1067 349.777 15.272 349.884 15.4C349.99 15.528 350.198 15.6507 350.508 15.768C350.817 15.8853 351.281 16.0027 351.9 16.12C352.924 16.3227 353.654 16.6373 354.092 17.064C354.54 17.4907 354.764 18.0133 354.764 18.632C354.764 19.3787 354.438 19.9867 353.788 20.456C353.137 20.9253 352.225 21.16 351.052 21.16ZM359.999 21.16C358.815 21.16 357.871 20.8187 357.167 20.136C356.474 19.4427 356.106 18.472 356.063 17.224L356.047 16.824L356.063 16.424C356.117 15.208 356.49 14.2533 357.183 13.56C357.887 12.8667 358.826 12.52 359.999 12.52C361.258 12.52 362.229 12.904 362.911 13.672C363.605 14.44 363.951 15.464 363.951 16.744V17.08C363.951 17.1867 363.914 17.2773 363.839 17.352C363.765 17.4267 363.669 17.464 363.551 17.464H358.239V17.592C358.261 18.1787 358.421 18.6747 358.719 19.08C359.029 19.4747 359.45 19.672 359.983 19.672C360.613 19.672 361.119 19.4267 361.503 18.936C361.599 18.8187 361.674 18.744 361.727 18.712C361.791 18.68 361.882 18.664 361.999 18.664H363.375C363.471 18.664 363.551 18.696 363.615 18.76C363.69 18.8133 363.727 18.8827 363.727 18.968C363.727 19.224 363.573 19.528 363.263 19.88C362.965 20.2213 362.533 20.52 361.967 20.776C361.402 21.032 360.746 21.16 359.999 21.16ZM361.775 16.12V16.072C361.775 15.4427 361.615 14.936 361.295 14.552C360.986 14.168 360.554 13.976 359.999 13.976C359.445 13.976 359.013 14.168 358.703 14.552C358.394 14.936 358.239 15.4427 358.239 16.072V16.12H361.775ZM368.802 21.16C368.002 21.16 367.33 21.0427 366.786 20.808C366.242 20.5627 365.836 20.28 365.57 19.96C365.314 19.6293 365.186 19.3467 365.186 19.112C365.186 19.0053 365.223 18.92 365.298 18.856C365.372 18.792 365.458 18.76 365.554 18.76H366.818C366.914 18.76 366.994 18.7973 367.058 18.872C367.1 18.904 367.212 19 367.394 19.16C367.575 19.3307 367.788 19.464 368.034 19.56C368.279 19.656 368.551 19.704 368.85 19.704C369.276 19.704 369.628 19.6187 369.906 19.448C370.183 19.2773 370.322 19.0427 370.322 18.744C370.322 18.52 370.258 18.3387 370.13 18.2C370.012 18.0613 369.794 17.9387 369.474 17.832C369.154 17.7147 368.679 17.592 368.05 17.464C367.143 17.272 366.471 16.9787 366.034 16.584C365.607 16.1893 365.394 15.6667 365.394 15.016C365.394 14.5893 365.522 14.1893 365.778 13.816C366.034 13.432 366.412 13.1227 366.914 12.888C367.426 12.6427 368.034 12.52 368.738 12.52C369.452 12.52 370.071 12.6373 370.594 12.872C371.116 13.096 371.511 13.368 371.778 13.688C372.055 13.9973 372.194 14.2747 372.194 14.52C372.194 14.616 372.156 14.7013 372.082 14.776C372.018 14.84 371.938 14.872 371.842 14.872H370.658C370.572 14.872 370.482 14.8347 370.386 14.76C370.311 14.7067 370.194 14.6053 370.034 14.456C369.874 14.3067 369.687 14.1893 369.474 14.104C369.26 14.0187 369.01 13.976 368.722 13.976C368.327 13.976 368.018 14.0613 367.794 14.232C367.58 14.4027 367.474 14.6267 367.474 14.904C367.474 15.1067 367.527 15.272 367.634 15.4C367.74 15.528 367.948 15.6507 368.258 15.768C368.567 15.8853 369.031 16.0027 369.65 16.12C370.674 16.3227 371.404 16.6373 371.842 17.064C372.29 17.4907 372.514 18.0133 372.514 18.632C372.514 19.3787 372.188 19.9867 371.538 20.456C370.887 20.9253 369.975 21.16 368.802 21.16Z" fill="#1C3554"/>
<circle cx="246" cy="16" r="16" fill="#4586D6"/>
<path fill-rule="evenodd" clip-rule="evenodd" d="M243.993 23.421L237.286 16.58L238.714 15.179L244.007 20.579L253.293 11.293L254.707 12.707L243.993 23.421Z" fill="white"/>
<path d="M49.104 133C48.9973 133 48.9067 132.963 48.832 132.888C48.7573 132.813 48.72 132.723 48.72 132.616V131.8C48.72 131.512 48.8533 131.261 49.12 131.048L51.648 128.536C52.7467 127.672 53.5093 127 53.936 126.52C54.3733 126.029 54.592 125.549 54.592 125.08C54.592 124.579 54.4533 124.184 54.176 123.896C53.9093 123.608 53.504 123.464 52.96 123.464C52.4267 123.464 52.0053 123.624 51.696 123.944C51.3867 124.253 51.1947 124.659 51.12 125.16C51.088 125.288 51.0293 125.384 50.944 125.448C50.8587 125.501 50.7627 125.528 50.656 125.528H49.232C49.136 125.528 49.056 125.496 48.992 125.432C48.928 125.368 48.896 125.293 48.896 125.208C48.9173 124.579 49.088 123.992 49.408 123.448C49.728 122.893 50.192 122.451 50.8 122.12C51.408 121.779 52.1227 121.608 52.944 121.608C53.7973 121.608 54.5173 121.757 55.104 122.056C55.7013 122.344 56.1493 122.744 56.448 123.256C56.7467 123.768 56.896 124.349 56.896 125C56.896 125.715 56.6933 126.36 56.288 126.936C55.8933 127.512 55.2853 128.131 54.464 128.792L52.192 131.096H56.752C56.8693 131.096 56.96 131.133 57.024 131.208C57.0987 131.272 57.136 131.363 57.136 131.48V132.616C57.136 132.723 57.0987 132.813 57.024 132.888C56.96 132.963 56.8693 133 56.752 133H49.104ZM63.1543 133.16C61.7356 133.16 60.6743 132.765 59.9703 131.976C59.2769 131.187 58.8983 130.152 58.8343 128.872C58.8236 128.584 58.8183 128.093 58.8183 127.4C58.8183 126.696 58.8236 126.195 58.8343 125.896C58.8876 124.637 59.2716 123.613 59.9863 122.824C60.7009 122.035 61.7569 121.64 63.1543 121.64C64.5623 121.64 65.6236 122.035 66.3383 122.824C67.0529 123.613 67.4316 124.637 67.4743 125.896C67.4956 126.195 67.5063 126.696 67.5063 127.4C67.5063 128.093 67.4956 128.584 67.4743 128.872C67.4209 130.152 67.0423 131.187 66.3383 131.976C65.6449 132.765 64.5836 133.16 63.1543 133.16ZM63.1543 131.32C63.8263 131.32 64.3276 131.101 64.6583 130.664C64.9889 130.216 65.1649 129.592 65.1863 128.792C65.2076 128.173 65.2183 127.704 65.2183 127.384C65.2183 127.032 65.2076 126.568 65.1863 125.992C65.1649 125.203 64.9889 124.584 64.6583 124.136C64.3276 123.688 63.8263 123.464 63.1543 123.464C62.4929 123.464 61.9916 123.688 61.6503 124.136C61.3196 124.584 61.1436 125.203 61.1223 125.992C61.1116 126.28 61.1063 126.744 61.1063 127.384C61.1063 128.013 61.1116 128.483 61.1223 128.792C61.1436 129.592 61.3196 130.216 61.6503 130.664C61.9916 131.101 62.4929 131.32 63.1543 131.32ZM73.7101 133C73.6035 133 73.5128 132.963 73.4381 132.888C73.3635 132.813 73.3261 132.723 73.3261 132.616V122.2C73.3261 122.083 73.3581 121.987 73.4221 121.912C73.4968 121.837 73.5928 121.8 73.7101 121.8H77.8541C79.1555 121.8 80.1741 122.104 80.9101 122.712C81.6568 123.32 82.0301 124.184 82.0301 125.304C82.0301 126.083 81.8381 126.739 81.4541 127.272C81.0808 127.795 80.5581 128.173 79.8861 128.408L82.2221 132.488C82.2541 132.552 82.2701 132.611 82.2701 132.664C82.2701 132.76 82.2328 132.84 82.1581 132.904C82.0941 132.968 82.0195 133 81.9341 133H80.4781C80.3075 133 80.1741 132.963 80.0781 132.888C79.9928 132.813 79.9128 132.707 79.8381 132.568L77.7741 128.776H75.5501V132.616C75.5501 132.723 75.5128 132.813 75.4381 132.888C75.3741 132.963 75.2835 133 75.1661 133H73.7101ZM77.8061 126.968C78.4461 126.968 78.9261 126.824 79.2461 126.536C79.5768 126.248 79.7421 125.832 79.7421 125.288C79.7421 124.744 79.5768 124.323 79.2461 124.024C78.9261 123.725 78.4461 123.576 77.8061 123.576H75.5501V126.968H77.8061ZM87.39 133.16C86.206 133.16 85.262 132.819 84.558 132.136C83.8647 131.443 83.4967 130.472 83.454 129.224L83.438 128.824L83.454 128.424C83.5073 127.208 83.8807 126.253 84.574 125.56C85.278 124.867 86.2167 124.52 87.39 124.52C88.6487 124.52 89.6193 124.904 90.302 125.672C90.9953 126.44 91.342 127.464 91.342 128.744V129.08C91.342 129.187 91.3047 129.277 91.23 129.352C91.1553 129.427 91.0593 129.464 90.942 129.464H85.63V129.592C85.6513 130.179 85.8113 130.675 86.11 131.08C86.4193 131.475 86.8407 131.672 87.374 131.672C88.0033 131.672 88.51 131.427 88.894 130.936C88.99 130.819 89.0647 130.744 89.118 130.712C89.182 130.68 89.2727 130.664 89.39 130.664H90.766C90.862 130.664 90.942 130.696 91.006 130.76C91.0807 130.813 91.118 130.883 91.118 130.968C91.118 131.224 90.9633 131.528 90.654 131.88C90.3553 132.221 89.9233 132.52 89.358 132.776C88.7927 133.032 88.1367 133.16 87.39 133.16ZM89.166 128.12V128.072C89.166 127.443 89.006 126.936 88.686 126.552C88.3767 126.168 87.9447 125.976 87.39 125.976C86.8353 125.976 86.4033 126.168 86.094 126.552C85.7847 126.936 85.63 127.443 85.63 128.072V128.12H89.166ZM96.1924 133.16C95.3924 133.16 94.7204 133.043 94.1764 132.808C93.6324 132.563 93.227 132.28 92.9604 131.96C92.7044 131.629 92.5764 131.347 92.5764 131.112C92.5764 131.005 92.6137 130.92 92.6884 130.856C92.763 130.792 92.8484 130.76 92.9444 130.76H94.2084C94.3044 130.76 94.3844 130.797 94.4484 130.872C94.491 130.904 94.603 131 94.7844 131.16C94.9657 131.331 95.179 131.464 95.4244 131.56C95.6697 131.656 95.9417 131.704 96.2404 131.704C96.667 131.704 97.019 131.619 97.2964 131.448C97.5737 131.277 97.7124 131.043 97.7124 130.744C97.7124 130.52 97.6484 130.339 97.5204 130.2C97.403 130.061 97.1844 129.939 96.8644 129.832C96.5444 129.715 96.0697 129.592 95.4404 129.464C94.5337 129.272 93.8617 128.979 93.4244 128.584C92.9977 128.189 92.7844 127.667 92.7844 127.016C92.7844 126.589 92.9124 126.189 93.1684 125.816C93.4244 125.432 93.803 125.123 94.3044 124.888C94.8164 124.643 95.4244 124.52 96.1284 124.52C96.843 124.52 97.4617 124.637 97.9844 124.872C98.507 125.096 98.9017 125.368 99.1684 125.688C99.4457 125.997 99.5844 126.275 99.5844 126.52C99.5844 126.616 99.547 126.701 99.4724 126.776C99.4084 126.84 99.3284 126.872 99.2324 126.872H98.0484C97.963 126.872 97.8724 126.835 97.7764 126.76C97.7017 126.707 97.5844 126.605 97.4244 126.456C97.2644 126.307 97.0777 126.189 96.8644 126.104C96.651 126.019 96.4004 125.976 96.1124 125.976C95.7177 125.976 95.4084 126.061 95.1844 126.232C94.971 126.403 94.8644 126.627 94.8644 126.904C94.8644 127.107 94.9177 127.272 95.0244 127.4C95.131 127.528 95.339 127.651 95.6484 127.768C95.9577 127.885 96.4217 128.003 97.0404 128.12C98.0644 128.323 98.795 128.637 99.2324 129.064C99.6804 129.491 99.9044 130.013 99.9044 130.632C99.9044 131.379 99.579 131.987 98.9284 132.456C98.2777 132.925 97.3657 133.16 96.1924 133.16ZM105.236 133.16C103.988 133.16 103.023 132.84 102.34 132.2C101.657 131.549 101.289 130.664 101.236 129.544L101.22 128.84L101.236 128.136C101.289 127.027 101.663 126.147 102.356 125.496C103.049 124.845 104.009 124.52 105.236 124.52C106.463 124.52 107.423 124.845 108.116 125.496C108.809 126.147 109.183 127.027 109.236 128.136C109.247 128.264 109.252 128.499 109.252 128.84C109.252 129.181 109.247 129.416 109.236 129.544C109.183 130.664 108.815 131.549 108.132 132.2C107.449 132.84 106.484 133.16 105.236 133.16ZM105.236 131.576C105.801 131.576 106.239 131.4 106.548 131.048C106.857 130.685 107.028 130.157 107.06 129.464C107.071 129.357 107.076 129.149 107.076 128.84C107.076 128.531 107.071 128.323 107.06 128.216C107.028 127.523 106.857 127 106.548 126.648C106.239 126.285 105.801 126.104 105.236 126.104C104.671 126.104 104.233 126.285 103.924 126.648C103.615 127 103.444 127.523 103.412 128.216L103.396 128.84L103.412 129.464C103.444 130.157 103.615 130.685 103.924 131.048C104.233 131.4 104.671 131.576 105.236 131.576ZM114.113 133.16C113.131 133.16 112.358 132.84 111.793 132.2C111.227 131.549 110.945 130.669 110.945 129.56V125.064C110.945 124.957 110.982 124.867 111.057 124.792C111.131 124.717 111.222 124.68 111.329 124.68H112.737C112.854 124.68 112.945 124.717 113.009 124.792C113.083 124.856 113.121 124.947 113.121 125.064V129.464C113.121 130.787 113.702 131.448 114.865 131.448C115.419 131.448 115.857 131.272 116.177 130.92C116.507 130.568 116.673 130.083 116.673 129.464V125.064C116.673 124.957 116.71 124.867 116.785 124.792C116.859 124.717 116.95 124.68 117.057 124.68H118.465C118.582 124.68 118.673 124.717 118.737 124.792C118.811 124.856 118.849 124.947 118.849 125.064V132.616C118.849 132.723 118.811 132.813 118.737 132.888C118.673 132.963 118.582 133 118.465 133H117.169C117.062 133 116.971 132.963 116.897 132.888C116.822 132.813 116.785 132.723 116.785 132.616V131.96C116.187 132.76 115.297 133.16 114.113 133.16ZM121.346 133C121.24 133 121.149 132.963 121.074 132.888C121 132.813 120.962 132.723 120.962 132.616V125.08C120.962 124.973 121 124.883 121.074 124.808C121.149 124.723 121.24 124.68 121.346 124.68H122.642C122.76 124.68 122.856 124.717 122.93 124.792C123.005 124.867 123.042 124.963 123.042 125.08V125.736C123.298 125.395 123.618 125.133 124.002 124.952C124.397 124.771 124.845 124.68 125.346 124.68H126.002C126.12 124.68 126.21 124.717 126.274 124.792C126.349 124.856 126.386 124.947 126.386 125.064V126.216C126.386 126.323 126.349 126.413 126.274 126.488C126.21 126.563 126.12 126.6 126.002 126.6H124.754C124.253 126.6 123.858 126.744 123.57 127.032C123.282 127.32 123.138 127.715 123.138 128.216V132.616C123.138 132.723 123.101 132.813 123.026 132.888C122.952 132.963 122.856 133 122.738 133H121.346ZM131.125 133.16C129.951 133.16 129.013 132.835 128.309 132.184C127.615 131.533 127.247 130.632 127.205 129.48L127.189 128.84L127.205 128.2C127.247 127.048 127.615 126.147 128.309 125.496C129.013 124.845 129.951 124.52 131.125 124.52C131.957 124.52 132.661 124.669 133.237 124.968C133.823 125.267 134.255 125.635 134.533 126.072C134.821 126.499 134.975 126.904 134.997 127.288C135.007 127.395 134.97 127.485 134.885 127.56C134.81 127.635 134.719 127.672 134.613 127.672H133.205C133.098 127.672 133.013 127.651 132.949 127.608C132.895 127.555 132.842 127.469 132.789 127.352C132.629 126.936 132.415 126.637 132.149 126.456C131.893 126.275 131.562 126.184 131.157 126.184C130.613 126.184 130.186 126.36 129.877 126.712C129.567 127.053 129.402 127.576 129.381 128.28L129.365 128.872L129.381 129.4C129.423 130.797 130.015 131.496 131.157 131.496C131.573 131.496 131.909 131.405 132.165 131.224C132.421 131.043 132.629 130.744 132.789 130.328C132.842 130.211 132.895 130.131 132.949 130.088C133.013 130.035 133.098 130.008 133.205 130.008H134.613C134.719 130.008 134.81 130.045 134.885 130.12C134.97 130.195 135.007 130.285 134.997 130.392C134.975 130.765 134.826 131.165 134.549 131.592C134.271 132.019 133.845 132.387 133.269 132.696C132.693 133.005 131.978 133.16 131.125 133.16ZM140.249 133.16C139.065 133.16 138.121 132.819 137.417 132.136C136.724 131.443 136.356 130.472 136.313 129.224L136.297 128.824L136.313 128.424C136.367 127.208 136.74 126.253 137.433 125.56C138.137 124.867 139.076 124.52 140.249 124.52C141.508 124.52 142.479 124.904 143.161 125.672C143.855 126.44 144.201 127.464 144.201 128.744V129.08C144.201 129.187 144.164 129.277 144.089 129.352C144.015 129.427 143.919 129.464 143.801 129.464H138.489V129.592C138.511 130.179 138.671 130.675 138.969 131.08C139.279 131.475 139.7 131.672 140.233 131.672C140.863 131.672 141.369 131.427 141.753 130.936C141.849 130.819 141.924 130.744 141.977 130.712C142.041 130.68 142.132 130.664 142.249 130.664H143.625C143.721 130.664 143.801 130.696 143.865 130.76C143.94 130.813 143.977 130.883 143.977 130.968C143.977 131.224 143.823 131.528 143.513 131.88C143.215 132.221 142.783 132.52 142.217 132.776C141.652 133.032 140.996 133.16 140.249 133.16ZM142.025 128.12V128.072C142.025 127.443 141.865 126.936 141.545 126.552C141.236 126.168 140.804 125.976 140.249 125.976C139.695 125.976 139.263 126.168 138.953 126.552C138.644 126.936 138.489 127.443 138.489 128.072V128.12H142.025ZM149.052 133.16C148.252 133.16 147.58 133.043 147.036 132.808C146.492 132.563 146.086 132.28 145.82 131.96C145.564 131.629 145.436 131.347 145.436 131.112C145.436 131.005 145.473 130.92 145.548 130.856C145.622 130.792 145.708 130.76 145.804 130.76H147.068C147.164 130.76 147.244 130.797 147.308 130.872C147.35 130.904 147.462 131 147.644 131.16C147.825 131.331 148.038 131.464 148.284 131.56C148.529 131.656 148.801 131.704 149.1 131.704C149.526 131.704 149.878 131.619 150.156 131.448C150.433 131.277 150.572 131.043 150.572 130.744C150.572 130.52 150.508 130.339 150.38 130.2C150.262 130.061 150.044 129.939 149.724 129.832C149.404 129.715 148.929 129.592 148.3 129.464C147.393 129.272 146.721 128.979 146.284 128.584C145.857 128.189 145.644 127.667 145.644 127.016C145.644 126.589 145.772 126.189 146.028 125.816C146.284 125.432 146.662 125.123 147.164 124.888C147.676 124.643 148.284 124.52 148.988 124.52C149.702 124.52 150.321 124.637 150.844 124.872C151.366 125.096 151.761 125.368 152.028 125.688C152.305 125.997 152.444 126.275 152.444 126.52C152.444 126.616 152.406 126.701 152.332 126.776C152.268 126.84 152.188 126.872 152.092 126.872H150.908C150.822 126.872 150.732 126.835 150.636 126.76C150.561 126.707 150.444 126.605 150.284 126.456C150.124 126.307 149.937 126.189 149.724 126.104C149.51 126.019 149.26 125.976 148.972 125.976C148.577 125.976 148.268 126.061 148.044 126.232C147.83 126.403 147.724 126.627 147.724 126.904C147.724 127.107 147.777 127.272 147.884 127.4C147.99 127.528 148.198 127.651 148.508 127.768C148.817 127.885 149.281 128.003 149.9 128.12C150.924 128.323 151.654 128.637 152.092 129.064C152.54 129.491 152.764 130.013 152.764 130.632C152.764 131.379 152.438 131.987 151.788 132.456C151.137 132.925 150.225 133.16 149.052 133.16Z" fill="#1C3554"/>
<circle cx="16" cy="128" r="16" fill="#4586D6"/>
<path fill-rule="evenodd" clip-rule="evenodd" d="M13.993 135.421L7.286 128.58L8.714 127.179L14.007 132.579L23.293 123.293L24.707 124.707L13.993 135.421Z" fill="white"/>
<path d="M49.632 77C49.5253 77 49.4347 76.9627 49.36 76.888C49.2853 76.8133 49.248 76.7227 49.248 76.616V66.2C49.248 66.0827 49.28 65.9867 49.344 65.912C49.4187 65.8373 49.5147 65.8 49.632 65.8H56.576C56.6933 65.8 56.7893 65.8373 56.864 65.912C56.9387 65.9867 56.976 66.0827 56.976 66.2V67.32C56.976 67.4373 56.9387 67.5333 56.864 67.608C56.7893 67.672 56.6933 67.704 56.576 67.704H51.44V70.744H56.256C56.3733 70.744 56.4693 70.7813 56.544 70.856C56.6187 70.9307 56.656 71.0267 56.656 71.144V72.264C56.656 72.3813 56.6187 72.4773 56.544 72.552C56.4693 72.616 56.3733 72.648 56.256 72.648H51.44V76.616C51.44 76.7333 51.4027 76.8293 51.328 76.904C51.2533 76.968 51.1573 77 51.04 77H49.632ZM61.6284 77.16C60.647 77.16 59.8737 76.84 59.3084 76.2C58.743 75.5493 58.4604 74.6693 58.4604 73.56V69.064C58.4604 68.9573 58.4977 68.8667 58.5724 68.792C58.647 68.7173 58.7377 68.68 58.8444 68.68H60.2524C60.3697 68.68 60.4604 68.7173 60.5244 68.792C60.599 68.856 60.6364 68.9467 60.6364 69.064V73.464C60.6364 74.7867 61.2177 75.448 62.3804 75.448C62.935 75.448 63.3724 75.272 63.6924 74.92C64.023 74.568 64.1884 74.0827 64.1884 73.464V69.064C64.1884 68.9573 64.2257 68.8667 64.3004 68.792C64.375 68.7173 64.4657 68.68 64.5724 68.68H65.9804C66.0977 68.68 66.1884 68.7173 66.2524 68.792C66.327 68.856 66.3644 68.9467 66.3644 69.064V76.616C66.3644 76.7227 66.327 76.8133 66.2524 76.888C66.1884 76.9627 66.0977 77 65.9804 77H64.6844C64.5777 77 64.487 76.9627 64.4124 76.888C64.3377 76.8133 64.3004 76.7227 64.3004 76.616V75.96C63.703 76.76 62.8124 77.16 61.6284 77.16ZM68.8779 77C68.7712 77 68.6805 76.9627 68.6059 76.888C68.5312 76.8133 68.4939 76.7227 68.4939 76.616V66.024C68.4939 65.9067 68.5312 65.816 68.6059 65.752C68.6805 65.6773 68.7712 65.64 68.8779 65.64H70.2059C70.3232 65.64 70.4139 65.6773 70.4779 65.752C70.5525 65.816 70.5899 65.9067 70.5899 66.024V76.616C70.5899 76.7227 70.5525 76.8133 70.4779 76.888C70.4139 76.9627 70.3232 77 70.2059 77H68.8779ZM73.1123 77C73.0056 77 72.9149 76.9627 72.8403 76.888C72.7656 76.8133 72.7283 76.7227 72.7283 76.616V66.024C72.7283 65.9067 72.7656 65.816 72.8403 65.752C72.9149 65.6773 73.0056 65.64 73.1123 65.64H74.4403C74.5576 65.64 74.6483 65.6773 74.7123 65.752C74.7869 65.816 74.8243 65.9067 74.8243 66.024V76.616C74.8243 76.7227 74.7869 76.8133 74.7123 76.888C74.6483 76.9627 74.5576 77 74.4403 77H73.1123ZM83.2523 77C83.1456 77 83.0549 76.9627 82.9803 76.888C82.9056 76.8133 82.8683 76.7227 82.8683 76.616V67.768H79.9083C79.8016 67.768 79.7109 67.7307 79.6363 67.656C79.5616 67.5813 79.5243 67.4907 79.5243 67.384V66.2C79.5243 66.0827 79.5563 65.9867 79.6203 65.912C79.6949 65.8373 79.7909 65.8 79.9083 65.8H88.0683C88.1856 65.8 88.2816 65.8373 88.3563 65.912C88.4309 65.9867 88.4683 66.0827 88.4683 66.2V67.384C88.4683 67.4907 88.4309 67.5813 88.3563 67.656C88.2816 67.7307 88.1856 67.768 88.0683 67.768H85.1243V76.616C85.1243 76.7227 85.0869 76.8133 85.0123 76.888C84.9376 76.9627 84.8416 77 84.7243 77H83.2523ZM90.126 67.304C90.0193 67.304 89.9287 67.2667 89.854 67.192C89.7793 67.1173 89.742 67.0267 89.742 66.92V65.768C89.742 65.6613 89.7793 65.5707 89.854 65.496C89.9287 65.4213 90.0193 65.384 90.126 65.384H91.582C91.6887 65.384 91.7793 65.4213 91.854 65.496C91.9393 65.5707 91.982 65.6613 91.982 65.768V66.92C91.982 67.0267 91.9447 67.1173 91.87 67.192C91.7953 67.2667 91.6993 67.304 91.582 67.304H90.126ZM90.19 77C90.0833 77 89.9927 76.9627 89.918 76.888C89.8433 76.8133 89.806 76.7227 89.806 76.616V69.064C89.806 68.9573 89.8433 68.8667 89.918 68.792C89.9927 68.7173 90.0833 68.68 90.19 68.68H91.518C91.6353 68.68 91.726 68.7173 91.79 68.792C91.8647 68.856 91.902 68.9467 91.902 69.064V76.616C91.902 76.7227 91.8647 76.8133 91.79 76.888C91.726 76.9627 91.6353 77 91.518 77H90.19ZM94.4088 77C94.3021 77 94.2114 76.9627 94.1368 76.888C94.0621 76.8133 94.0247 76.7227 94.0247 76.616V69.064C94.0247 68.9573 94.0621 68.8667 94.1368 68.792C94.2114 68.7173 94.3021 68.68 94.4088 68.68H95.6568C95.7634 68.68 95.8541 68.7173 95.9288 68.792C96.0034 68.8667 96.0408 68.9573 96.0408 69.064V69.608C96.5954 68.8827 97.3688 68.52 98.3608 68.52C99.5448 68.52 100.371 68.9947 100.841 69.944C101.097 69.5173 101.459 69.176 101.929 68.92C102.398 68.6533 102.905 68.52 103.449 68.52C104.323 68.52 105.038 68.8187 105.593 69.416C106.147 70.0133 106.425 70.8827 106.425 72.024V76.616C106.425 76.7227 106.387 76.8133 106.313 76.888C106.249 76.9627 106.158 77 106.041 77H104.729C104.622 77 104.531 76.9627 104.457 76.888C104.382 76.8133 104.345 76.7227 104.345 76.616V72.152C104.345 71.48 104.201 70.9947 103.913 70.696C103.635 70.3867 103.262 70.232 102.793 70.232C102.377 70.232 102.019 70.3867 101.721 70.696C101.433 71.0053 101.289 71.4907 101.289 72.152V76.616C101.289 76.7227 101.251 76.8133 101.177 76.888C101.102 76.9627 101.011 77 100.905 77H99.5928C99.4861 77 99.3954 76.9627 99.3208 76.888C99.2461 76.8133 99.2088 76.7227 99.2088 76.616V72.152C99.2088 71.48 99.0594 70.9947 98.7608 70.696C98.4728 70.3867 98.1048 70.232 97.6568 70.232C97.2301 70.232 96.8674 70.3867 96.5688 70.696C96.2808 71.0053 96.1368 71.4907 96.1368 72.152V76.616C96.1368 76.7227 96.0994 76.8133 96.0248 76.888C95.9501 76.9627 95.8594 77 95.7528 77H94.4088ZM112.046 77.16C110.862 77.16 109.918 76.8187 109.214 76.136C108.521 75.4427 108.153 74.472 108.11 73.224L108.094 72.824L108.11 72.424C108.164 71.208 108.537 70.2533 109.23 69.56C109.934 68.8667 110.873 68.52 112.046 68.52C113.305 68.52 114.276 68.904 114.958 69.672C115.652 70.44 115.998 71.464 115.998 72.744V73.08C115.998 73.1867 115.961 73.2773 115.886 73.352C115.812 73.4267 115.716 73.464 115.598 73.464H110.286V73.592C110.308 74.1787 110.468 74.6747 110.766 75.08C111.076 75.4747 111.497 75.672 112.03 75.672C112.66 75.672 113.166 75.4267 113.55 74.936C113.646 74.8187 113.721 74.744 113.774 74.712C113.838 74.68 113.929 74.664 114.046 74.664H115.422C115.518 74.664 115.598 74.696 115.662 74.76C115.737 74.8133 115.774 74.8827 115.774 74.968C115.774 75.224 115.62 75.528 115.31 75.88C115.012 76.2213 114.58 76.52 114.014 76.776C113.449 77.032 112.793 77.16 112.046 77.16ZM113.822 72.12V72.072C113.822 71.4427 113.662 70.936 113.342 70.552C113.033 70.168 112.601 69.976 112.046 69.976C111.492 69.976 111.06 70.168 110.75 70.552C110.441 70.936 110.286 71.4427 110.286 72.072V72.12H113.822ZM120.435 77C120.35 77 120.27 76.968 120.195 76.904C120.131 76.84 120.099 76.76 120.099 76.664L120.131 76.52L123.987 66.2C124.062 65.9333 124.248 65.8 124.547 65.8H126.291C126.568 65.8 126.755 65.9333 126.851 66.2L130.707 76.52C130.718 76.552 130.723 76.6 130.723 76.664C130.723 76.76 130.691 76.84 130.627 76.904C130.563 76.968 130.488 77 130.403 77H129.011C128.872 77 128.766 76.968 128.691 76.904C128.616 76.84 128.568 76.7707 128.547 76.696L127.795 74.744H123.043L122.291 76.696C122.206 76.8987 122.051 77 121.827 77H120.435ZM127.235 72.904L125.411 67.96L123.603 72.904H127.235ZM135.531 77.16C134.358 77.16 133.419 76.8347 132.715 76.184C132.022 75.5333 131.654 74.632 131.611 73.48L131.595 72.84L131.611 72.2C131.654 71.048 132.022 70.1467 132.715 69.496C133.419 68.8453 134.358 68.52 135.531 68.52C136.363 68.52 137.067 68.6693 137.643 68.968C138.23 69.2667 138.662 69.6347 138.939 70.072C139.227 70.4987 139.382 70.904 139.403 71.288C139.414 71.3947 139.376 71.4853 139.291 71.56C139.216 71.6347 139.126 71.672 139.019 71.672H137.611C137.504 71.672 137.419 71.6507 137.355 71.608C137.302 71.5547 137.248 71.4693 137.195 71.352C137.035 70.936 136.822 70.6373 136.555 70.456C136.299 70.2747 135.968 70.184 135.563 70.184C135.019 70.184 134.592 70.36 134.283 70.712C133.974 71.0533 133.808 71.576 133.787 72.28L133.771 72.872L133.787 73.4C133.83 74.7973 134.422 75.496 135.563 75.496C135.979 75.496 136.315 75.4053 136.571 75.224C136.827 75.0427 137.035 74.744 137.195 74.328C137.248 74.2107 137.302 74.1307 137.355 74.088C137.419 74.0347 137.504 74.008 137.611 74.008H139.019C139.126 74.008 139.216 74.0453 139.291 74.12C139.376 74.1947 139.414 74.2853 139.403 74.392C139.382 74.7653 139.232 75.1653 138.955 75.592C138.678 76.0187 138.251 76.3867 137.675 76.696C137.099 77.0053 136.384 77.16 135.531 77.16ZM144.672 77.16C143.498 77.16 142.56 76.8347 141.856 76.184C141.162 75.5333 140.794 74.632 140.752 73.48L140.736 72.84L140.752 72.2C140.794 71.048 141.162 70.1467 141.856 69.496C142.56 68.8453 143.498 68.52 144.672 68.52C145.504 68.52 146.208 68.6693 146.784 68.968C147.37 69.2667 147.802 69.6347 148.08 70.072C148.368 70.4987 148.522 70.904 148.544 71.288C148.554 71.3947 148.517 71.4853 148.432 71.56C148.357 71.6347 148.266 71.672 148.16 71.672H146.752C146.645 71.672 146.56 71.6507 146.496 71.608C146.442 71.5547 146.389 71.4693 146.336 71.352C146.176 70.936 145.962 70.6373 145.696 70.456C145.44 70.2747 145.109 70.184 144.704 70.184C144.16 70.184 143.733 70.36 143.424 70.712C143.114 71.0533 142.949 71.576 142.928 72.28L142.912 72.872L142.928 73.4C142.97 74.7973 143.562 75.496 144.704 75.496C145.12 75.496 145.456 75.4053 145.712 75.224C145.968 75.0427 146.176 74.744 146.336 74.328C146.389 74.2107 146.442 74.1307 146.496 74.088C146.56 74.0347 146.645 74.008 146.752 74.008H148.16C148.266 74.008 148.357 74.0453 148.432 74.12C148.517 74.1947 148.554 74.2853 148.544 74.392C148.522 74.7653 148.373 75.1653 148.096 75.592C147.818 76.0187 147.392 76.3867 146.816 76.696C146.24 77.0053 145.525 77.16 144.672 77.16ZM153.796 77.16C152.612 77.16 151.668 76.8187 150.964 76.136C150.271 75.4427 149.903 74.472 149.86 73.224L149.844 72.824L149.86 72.424C149.914 71.208 150.287 70.2533 150.98 69.56C151.684 68.8667 152.623 68.52 153.796 68.52C155.055 68.52 156.026 68.904 156.708 69.672C157.402 70.44 157.748 71.464 157.748 72.744V73.08C157.748 73.1867 157.711 73.2773 157.636 73.352C157.562 73.4267 157.466 73.464 157.348 73.464H152.036V73.592C152.058 74.1787 152.218 74.6747 152.516 75.08C152.826 75.4747 153.247 75.672 153.78 75.672C154.41 75.672 154.916 75.4267 155.3 74.936C155.396 74.8187 155.471 74.744 155.524 74.712C155.588 74.68 155.679 74.664 155.796 74.664H157.172C157.268 74.664 157.348 74.696 157.412 74.76C157.487 74.8133 157.524 74.8827 157.524 74.968C157.524 75.224 157.37 75.528 157.06 75.88C156.762 76.2213 156.33 76.52 155.764 76.776C155.199 77.032 154.543 77.16 153.796 77.16ZM155.572 72.12V72.072C155.572 71.4427 155.412 70.936 155.092 70.552C154.783 70.168 154.351 69.976 153.796 69.976C153.242 69.976 152.81 70.168 152.5 70.552C152.191 70.936 152.036 71.4427 152.036 72.072V72.12H155.572ZM162.599 77.16C161.799 77.16 161.127 77.0427 160.583 76.808C160.039 76.5627 159.633 76.28 159.367 75.96C159.111 75.6293 158.983 75.3467 158.983 75.112C158.983 75.0053 159.02 74.92 159.095 74.856C159.169 74.792 159.255 74.76 159.351 74.76H160.615C160.711 74.76 160.791 74.7973 160.855 74.872C160.897 74.904 161.009 75 161.191 75.16C161.372 75.3307 161.585 75.464 161.831 75.56C162.076 75.656 162.348 75.704 162.647 75.704C163.073 75.704 163.425 75.6187 163.703 75.448C163.98 75.2773 164.119 75.0427 164.119 74.744C164.119 74.52 164.055 74.3387 163.927 74.2C163.809 74.0613 163.591 73.9387 163.271 73.832C162.951 73.7147 162.476 73.592 161.847 73.464C160.94 73.272 160.268 72.9787 159.831 72.584C159.404 72.1893 159.191 71.6667 159.191 71.016C159.191 70.5893 159.319 70.1893 159.575 69.816C159.831 69.432 160.209 69.1227 160.711 68.888C161.223 68.6427 161.831 68.52 162.535 68.52C163.249 68.52 163.868 68.6373 164.391 68.872C164.913 69.096 165.308 69.368 165.575 69.688C165.852 69.9973 165.991 70.2747 165.991 70.52C165.991 70.616 165.953 70.7013 165.879 70.776C165.815 70.84 165.735 70.872 165.639 70.872H164.455C164.369 70.872 164.279 70.8347 164.183 70.76C164.108 70.7067 163.991 70.6053 163.831 70.456C163.671 70.3067 163.484 70.1893 163.271 70.104C163.057 70.0187 162.807 69.976 162.519 69.976C162.124 69.976 161.815 70.0613 161.591 70.232C161.377 70.4027 161.271 70.6267 161.271 70.904C161.271 71.1067 161.324 71.272 161.431 71.4C161.537 71.528 161.745 71.6507 162.055 71.768C162.364 71.8853 162.828 72.0027 163.447 72.12C164.471 72.3227 165.201 72.6373 165.639 73.064C166.087 73.4907 166.311 74.0133 166.311 74.632C166.311 75.3787 165.985 75.9867 165.335 76.456C164.684 76.9253 163.772 77.16 162.599 77.16ZM171.114 77.16C170.314 77.16 169.642 77.0427 169.098 76.808C168.554 76.5627 168.149 76.28 167.882 75.96C167.626 75.6293 167.498 75.3467 167.498 75.112C167.498 75.0053 167.536 74.92 167.61 74.856C167.685 74.792 167.77 74.76 167.866 74.76H169.13C169.226 74.76 169.306 74.7973 169.37 74.872C169.413 74.904 169.525 75 169.706 75.16C169.888 75.3307 170.101 75.464 170.346 75.56C170.592 75.656 170.864 75.704 171.162 75.704C171.589 75.704 171.941 75.6187 172.218 75.448C172.496 75.2773 172.634 75.0427 172.634 74.744C172.634 74.52 172.57 74.3387 172.442 74.2C172.325 74.0613 172.106 73.9387 171.786 73.832C171.466 73.7147 170.992 73.592 170.362 73.464C169.456 73.272 168.784 72.9787 168.346 72.584C167.92 72.1893 167.706 71.6667 167.706 71.016C167.706 70.5893 167.834 70.1893 168.09 69.816C168.346 69.432 168.725 69.1227 169.226 68.888C169.738 68.6427 170.346 68.52 171.05 68.52C171.765 68.52 172.384 68.6373 172.906 68.872C173.429 69.096 173.824 69.368 174.09 69.688C174.368 69.9973 174.506 70.2747 174.506 70.52C174.506 70.616 174.469 70.7013 174.394 70.776C174.33 70.84 174.25 70.872 174.154 70.872H172.97C172.885 70.872 172.794 70.8347 172.698 70.76C172.624 70.7067 172.506 70.6053 172.346 70.456C172.186 70.3067 172 70.1893 171.786 70.104C171.573 70.0187 171.322 69.976 171.034 69.976C170.64 69.976 170.33 70.0613 170.106 70.232C169.893 70.4027 169.786 70.6267 169.786 70.904C169.786 71.1067 169.84 71.272 169.946 71.4C170.053 71.528 170.261 71.6507 170.57 71.768C170.88 71.8853 171.344 72.0027 171.962 72.12C172.986 72.3227 173.717 72.6373 174.154 73.064C174.602 73.4907 174.826 74.0133 174.826 74.632C174.826 75.3787 174.501 75.9867 173.85 76.456C173.2 76.9253 172.288 77.16 171.114 77.16Z" fill="#1C3554"/>
<circle cx="16" cy="72" r="16" fill="#4586D6"/>
<path fill-rule="evenodd" clip-rule="evenodd" d="M13.993 79.421L7.286 72.58L8.714 71.179L14.007 76.579L23.293 67.293L24.707 68.707L13.993 79.421Z" fill="white"/>
<path d="M49.104 21C48.9973 21 48.9067 20.9627 48.832 20.888C48.7573 20.8133 48.72 20.7227 48.72 20.616V19.8C48.72 19.512 48.8533 19.2613 49.12 19.048L51.648 16.536C52.7467 15.672 53.5093 15 53.936 14.52C54.3733 14.0293 54.592 13.5493 54.592 13.08C54.592 12.5787 54.4533 12.184 54.176 11.896C53.9093 11.608 53.504 11.464 52.96 11.464C52.4267 11.464 52.0053 11.624 51.696 11.944C51.3867 12.2533 51.1947 12.6587 51.12 13.16C51.088 13.288 51.0293 13.384 50.944 13.448C50.8587 13.5013 50.7627 13.528 50.656 13.528H49.232C49.136 13.528 49.056 13.496 48.992 13.432C48.928 13.368 48.896 13.2933 48.896 13.208C48.9173 12.5787 49.088 11.992 49.408 11.448C49.728 10.8933 50.192 10.4507 50.8 10.12C51.408 9.77867 52.1227 9.608 52.944 9.608C53.7973 9.608 54.5173 9.75733 55.104 10.056C55.7013 10.344 56.1493 10.744 56.448 11.256C56.7467 11.768 56.896 12.3493 56.896 13C56.896 13.7147 56.6933 14.36 56.288 14.936C55.8933 15.512 55.2853 16.1307 54.464 16.792L52.192 19.096H56.752C56.8693 19.096 56.96 19.1333 57.024 19.208C57.0987 19.272 57.136 19.3627 57.136 19.48V20.616C57.136 20.7227 57.0987 20.8133 57.024 20.888C56.96 20.9627 56.8693 21 56.752 21H49.104ZM64.1169 21C64.0102 21 63.9195 20.9627 63.8449 20.888C63.7702 20.8133 63.7329 20.7227 63.7329 20.616V18.568H58.6609C58.5542 18.568 58.4635 18.5307 58.3889 18.456C58.3142 18.3813 58.2769 18.2907 58.2769 18.184V17.096C58.2769 16.9253 58.3355 16.7653 58.4529 16.616L63.1729 10.072C63.2262 9.98667 63.3062 9.92267 63.4129 9.88C63.5195 9.82667 63.6369 9.8 63.7649 9.8H65.5089C65.6262 9.8 65.7169 9.83733 65.7809 9.912C65.8555 9.976 65.8929 10.0667 65.8929 10.184V16.68H67.3169C67.4342 16.68 67.5302 16.7173 67.6049 16.792C67.6795 16.856 67.7169 16.9467 67.7169 17.064V18.184C67.7169 18.2907 67.6795 18.3813 67.6049 18.456C67.5302 18.5307 67.4395 18.568 67.3329 18.568H65.8929V20.616C65.8929 20.7227 65.8555 20.8133 65.7809 20.888C65.7169 20.9627 65.6262 21 65.5089 21H64.1169ZM63.7809 16.744V12.12L60.5009 16.744H63.7809ZM73.5386 21C73.4213 21 73.3253 20.968 73.2506 20.904C73.176 20.8293 73.1386 20.7333 73.1386 20.616V10.2C73.1386 10.0827 73.176 9.98667 73.2506 9.912C73.3253 9.83733 73.4213 9.8 73.5386 9.8H74.8026C75.0266 9.8 75.1866 9.90133 75.2826 10.104L78.3706 15.864L81.4906 10.104C81.5973 9.90133 81.7573 9.8 81.9706 9.8H83.2186C83.336 9.8 83.432 9.83733 83.5066 9.912C83.5813 9.98667 83.6186 10.0827 83.6186 10.2V20.616C83.6186 20.7333 83.5813 20.8293 83.5066 20.904C83.432 20.968 83.336 21 83.2186 21H81.8746C81.768 21 81.6773 20.9627 81.6026 20.888C81.528 20.8133 81.4906 20.7227 81.4906 20.616V13.688L79.2506 17.96C79.112 18.1947 78.9306 18.312 78.7066 18.312H78.0506C77.8266 18.312 77.6453 18.1947 77.5066 17.96L75.2666 13.688V20.616C75.2666 20.7227 75.2293 20.8133 75.1546 20.888C75.0906 20.9627 75 21 74.8826 21H73.5386ZM89.5954 21.16C88.3474 21.16 87.382 20.84 86.6994 20.2C86.0167 19.5493 85.6487 18.664 85.5954 17.544L85.5794 16.84L85.5954 16.136C85.6487 15.0267 86.022 14.1467 86.7154 13.496C87.4087 12.8453 88.3687 12.52 89.5954 12.52C90.822 12.52 91.782 12.8453 92.4754 13.496C93.1687 14.1467 93.542 15.0267 93.5954 16.136C93.606 16.264 93.6114 16.4987 93.6114 16.84C93.6114 17.1813 93.606 17.416 93.5954 17.544C93.542 18.664 93.174 19.5493 92.4914 20.2C91.8087 20.84 90.8434 21.16 89.5954 21.16ZM89.5954 19.576C90.1607 19.576 90.598 19.4 90.9074 19.048C91.2167 18.6853 91.3874 18.1573 91.4194 17.464C91.43 17.3573 91.4354 17.1493 91.4354 16.84C91.4354 16.5307 91.43 16.3227 91.4194 16.216C91.3874 15.5227 91.2167 15 90.9074 14.648C90.598 14.2853 90.1607 14.104 89.5954 14.104C89.03 14.104 88.5927 14.2853 88.2834 14.648C87.974 15 87.8034 15.5227 87.7714 16.216L87.7554 16.84L87.7714 17.464C87.8034 18.1573 87.974 18.6853 88.2834 19.048C88.5927 19.4 89.03 19.576 89.5954 19.576ZM98.4721 21.16C97.3948 21.16 96.5681 20.8133 95.9921 20.12C95.4161 19.4267 95.1068 18.504 95.0641 17.352L95.0481 16.824L95.0641 16.312C95.0961 15.192 95.4001 14.28 95.9761 13.576C96.5628 12.872 97.3948 12.52 98.4721 12.52C99.5068 12.52 100.328 12.872 100.936 13.576V10.024C100.936 9.90667 100.973 9.816 101.048 9.752C101.123 9.67733 101.213 9.64 101.32 9.64H102.68C102.797 9.64 102.888 9.67733 102.952 9.752C103.027 9.816 103.064 9.90667 103.064 10.024V20.616C103.064 20.7227 103.027 20.8133 102.952 20.888C102.888 20.9627 102.797 21 102.68 21H101.416C101.309 21 101.219 20.9627 101.144 20.888C101.069 20.8133 101.032 20.7227 101.032 20.616V20.024C100.424 20.7813 99.5708 21.16 98.4721 21.16ZM99.0641 19.448C99.6828 19.448 100.141 19.2507 100.44 18.856C100.739 18.4613 100.904 17.976 100.936 17.4C100.947 17.272 100.952 17.064 100.952 16.776C100.952 16.4987 100.947 16.296 100.936 16.168C100.915 15.6347 100.744 15.1813 100.424 14.808C100.115 14.424 99.6615 14.232 99.0641 14.232C97.9121 14.232 97.2988 14.9413 97.2241 16.36L97.2081 16.84L97.2241 17.32C97.2988 18.7387 97.9121 19.448 99.0641 19.448ZM108.285 21.16C107.303 21.16 106.53 20.84 105.965 20.2C105.399 19.5493 105.117 18.6693 105.117 17.56V13.064C105.117 12.9573 105.154 12.8667 105.229 12.792C105.303 12.7173 105.394 12.68 105.501 12.68H106.909C107.026 12.68 107.117 12.7173 107.181 12.792C107.255 12.856 107.293 12.9467 107.293 13.064V17.464C107.293 18.7867 107.874 19.448 109.037 19.448C109.591 19.448 110.029 19.272 110.349 18.92C110.679 18.568 110.845 18.0827 110.845 17.464V13.064C110.845 12.9573 110.882 12.8667 110.957 12.792C111.031 12.7173 111.122 12.68 111.229 12.68H112.637C112.754 12.68 112.845 12.7173 112.909 12.792C112.983 12.856 113.021 12.9467 113.021 13.064V20.616C113.021 20.7227 112.983 20.8133 112.909 20.888C112.845 20.9627 112.754 21 112.637 21H111.341C111.234 21 111.143 20.9627 111.069 20.888C110.994 20.8133 110.957 20.7227 110.957 20.616V19.96C110.359 20.76 109.469 21.16 108.285 21.16ZM115.534 21C115.427 21 115.337 20.9627 115.262 20.888C115.187 20.8133 115.15 20.7227 115.15 20.616V10.024C115.15 9.90667 115.187 9.816 115.262 9.752C115.337 9.67733 115.427 9.64 115.534 9.64H116.862C116.979 9.64 117.07 9.67733 117.134 9.752C117.209 9.816 117.246 9.90667 117.246 10.024V20.616C117.246 20.7227 117.209 20.8133 117.134 20.888C117.07 20.9627 116.979 21 116.862 21H115.534ZM122.953 21.16C121.769 21.16 120.825 20.8187 120.121 20.136C119.427 19.4427 119.059 18.472 119.017 17.224L119.001 16.824L119.017 16.424C119.07 15.208 119.443 14.2533 120.137 13.56C120.841 12.8667 121.779 12.52 122.953 12.52C124.211 12.52 125.182 12.904 125.865 13.672C126.558 14.44 126.905 15.464 126.905 16.744V17.08C126.905 17.1867 126.867 17.2773 126.793 17.352C126.718 17.4267 126.622 17.464 126.505 17.464H121.193V17.592C121.214 18.1787 121.374 18.6747 121.673 19.08C121.982 19.4747 122.403 19.672 122.937 19.672C123.566 19.672 124.073 19.4267 124.457 18.936C124.553 18.8187 124.627 18.744 124.681 18.712C124.745 18.68 124.835 18.664 124.953 18.664H126.329C126.425 18.664 126.505 18.696 126.569 18.76C126.643 18.8133 126.681 18.8827 126.681 18.968C126.681 19.224 126.526 19.528 126.217 19.88C125.918 20.2213 125.486 20.52 124.921 20.776C124.355 21.032 123.699 21.16 122.953 21.16ZM124.729 16.12V16.072C124.729 15.4427 124.569 14.936 124.249 14.552C123.939 14.168 123.507 13.976 122.953 13.976C122.398 13.976 121.966 14.168 121.657 14.552C121.347 14.936 121.193 15.4427 121.193 16.072V16.12H124.729ZM131.755 21.16C130.955 21.16 130.283 21.0427 129.739 20.808C129.195 20.5627 128.79 20.28 128.523 19.96C128.267 19.6293 128.139 19.3467 128.139 19.112C128.139 19.0053 128.176 18.92 128.251 18.856C128.326 18.792 128.411 18.76 128.507 18.76H129.771C129.867 18.76 129.947 18.7973 130.011 18.872C130.054 18.904 130.166 19 130.347 19.16C130.528 19.3307 130.742 19.464 130.987 19.56C131.232 19.656 131.504 19.704 131.803 19.704C132.23 19.704 132.582 19.6187 132.859 19.448C133.136 19.2773 133.275 19.0427 133.275 18.744C133.275 18.52 133.211 18.3387 133.083 18.2C132.966 18.0613 132.747 17.9387 132.427 17.832C132.107 17.7147 131.632 17.592 131.003 17.464C130.096 17.272 129.424 16.9787 128.987 16.584C128.56 16.1893 128.347 15.6667 128.347 15.016C128.347 14.5893 128.475 14.1893 128.731 13.816C128.987 13.432 129.366 13.1227 129.867 12.888C130.379 12.6427 130.987 12.52 131.691 12.52C132.406 12.52 133.024 12.6373 133.547 12.872C134.07 13.096 134.464 13.368 134.731 13.688C135.008 13.9973 135.147 14.2747 135.147 14.52C135.147 14.616 135.11 14.7013 135.035 14.776C134.971 14.84 134.891 14.872 134.795 14.872H133.611C133.526 14.872 133.435 14.8347 133.339 14.76C133.264 14.7067 133.147 14.6053 132.987 14.456C132.827 14.3067 132.64 14.1893 132.427 14.104C132.214 14.0187 131.963 13.976 131.675 13.976C131.28 13.976 130.971 14.0613 130.747 14.232C130.534 14.4027 130.427 14.6267 130.427 14.904C130.427 15.1067 130.48 15.272 130.587 15.4C130.694 15.528 130.902 15.6507 131.211 15.768C131.52 15.8853 131.984 16.0027 132.603 16.12C133.627 16.3227 134.358 16.6373 134.795 17.064C135.243 17.4907 135.467 18.0133 135.467 18.632C135.467 19.3787 135.142 19.9867 134.491 20.456C133.84 20.9253 132.928 21.16 131.755 21.16Z" fill="#1C3554"/>
<circle cx="16" cy="16" r="16" fill="#4586D6"/>
<path fill-rule="evenodd" clip-rule="evenodd" d="M13.993 23.421L7.286 16.58L8.714 15.179L14.007 20.579L23.293 11.293L24.707 12.707L13.993 23.421Z" fill="white"/>
</svg>
