<svg width="109" height="56" viewBox="0 0 109 56" fill="none" xmlns="http://www.w3.org/2000/svg">
<rect width="109" height="56" rx="8" fill="#EF233C"/>
<path d="M25.12 33.176C24.16 33.176 23.3387 33.0267 22.656 32.728C21.9733 32.4187 21.4507 32.008 21.088 31.496C20.736 30.984 20.5493 30.4293 20.528 29.832C20.528 29.736 20.56 29.656 20.624 29.592C20.688 29.528 20.768 29.496 20.864 29.496H23.008C23.2533 29.496 23.424 29.5973 23.52 29.8C23.808 30.5147 24.3467 30.872 25.136 30.872C25.6053 30.872 26 30.728 26.32 30.44C26.6507 30.1413 26.816 29.7307 26.816 29.208C26.816 28.7387 26.656 28.3547 26.336 28.056C26.0267 27.7573 25.6267 27.608 25.136 27.608C24.8587 27.608 24.6347 27.6453 24.464 27.72C24.304 27.784 24.1387 27.88 23.968 28.008C23.7867 28.1467 23.6427 28.216 23.536 28.216H21.44C21.344 28.216 21.2587 28.184 21.184 28.12C21.12 28.0453 21.088 27.96 21.088 27.864L21.664 22.28C21.6747 22.1307 21.728 22.0133 21.824 21.928C21.9307 21.8427 22.0533 21.8 22.192 21.8H28.608C28.7253 21.8 28.8213 21.8373 28.896 21.912C28.9813 21.9867 29.024 22.0827 29.024 22.2V23.704C29.024 23.8213 28.9813 23.9173 28.896 23.992C28.8213 24.0667 28.7253 24.104 28.608 24.104H23.968L23.76 26.168C24.0267 25.9867 24.32 25.8533 24.64 25.768C24.96 25.672 25.376 25.624 25.888 25.624C26.56 25.624 27.1947 25.7787 27.792 26.088C28.3893 26.3867 28.864 26.8133 29.216 27.368C29.5787 27.9227 29.76 28.5573 29.76 29.272C29.76 30.0293 29.5733 30.7067 29.2 31.304C28.8267 31.8907 28.288 32.3493 27.584 32.68C26.8907 33.0107 26.0693 33.176 25.12 33.176ZM35.7678 33.16C34.2958 33.1493 33.1811 32.76 32.4238 31.992C31.6664 31.2133 31.2558 30.1947 31.1918 28.936C31.1704 28.36 31.1598 27.848 31.1598 27.4C31.1598 26.9413 31.1704 26.4133 31.1918 25.816C31.2344 25.016 31.4264 24.3067 31.7678 23.688C32.1198 23.0587 32.6318 22.5627 33.3038 22.2C33.9758 21.8267 34.7971 21.64 35.7678 21.64C37.2078 21.6507 38.3171 22.04 39.0958 22.808C39.8744 23.576 40.2958 24.5787 40.3598 25.816C40.3811 26.4133 40.3918 26.9413 40.3918 27.4C40.3918 27.848 40.3811 28.36 40.3598 28.936C40.2851 30.1947 39.8691 31.2133 39.1118 31.992C38.3544 32.76 37.2398 33.1493 35.7678 33.16ZM35.7678 30.84C36.2904 30.84 36.6798 30.6693 36.9358 30.328C37.2024 29.976 37.3464 29.4853 37.3678 28.856C37.3891 28.5467 37.3998 28.0507 37.3998 27.368C37.3998 26.6853 37.3891 26.2 37.3678 25.912C37.3464 25.304 37.2078 24.824 36.9518 24.472C36.6958 24.12 36.3011 23.9387 35.7678 23.928C35.2451 23.9387 34.8504 24.12 34.5838 24.472C34.3278 24.824 34.1891 25.304 34.1678 25.912C34.1571 26.2 34.1518 26.6853 34.1518 27.368C34.1518 28.0507 34.1571 28.5467 34.1678 28.856C34.2211 30.1787 34.7544 30.84 35.7678 30.84ZM44.2908 27.448C43.5654 27.448 42.9841 27.2613 42.5468 26.888C42.1094 26.504 41.8694 25.992 41.8268 25.352C41.8054 25.032 41.7948 24.808 41.7948 24.68C41.7948 24.552 41.8054 24.2747 41.8268 23.848C41.8588 23.1973 42.0881 22.68 42.5148 22.296C42.9414 21.912 43.5334 21.72 44.2908 21.72C45.0374 21.72 45.6241 21.912 46.0508 22.296C46.4774 22.68 46.7068 23.1973 46.7388 23.848C46.7601 24.2747 46.7708 24.552 46.7708 24.68C46.7708 24.808 46.7601 25.032 46.7388 25.352C46.6961 25.992 46.4561 26.504 46.0188 26.888C45.5814 27.2613 45.0054 27.448 44.2908 27.448ZM43.0108 33C42.9041 33 42.8134 32.9733 42.7388 32.92C42.6748 32.856 42.6428 32.776 42.6428 32.68C42.6428 32.616 42.6641 32.5573 42.7068 32.504L50.6108 22.104C50.6961 21.9973 50.7761 21.9227 50.8508 21.88C50.9254 21.8267 51.0321 21.8 51.1708 21.8H52.3068C52.4134 21.8 52.4988 21.832 52.5628 21.896C52.6374 21.9493 52.6748 22.024 52.6748 22.12C52.6748 22.184 52.6534 22.2427 52.6108 22.296L44.7068 32.696C44.6214 32.8027 44.5414 32.8827 44.4668 32.936C44.3921 32.9787 44.2854 33 44.1468 33H43.0108ZM44.2908 26.056C44.7388 26.056 44.9841 25.7947 45.0268 25.272C45.0481 24.9307 45.0588 24.7067 45.0588 24.6C45.0588 24.4613 45.0481 24.2427 45.0268 23.944C45.0161 23.7093 44.9468 23.5173 44.8188 23.368C44.7014 23.2187 44.5254 23.144 44.2908 23.144C44.0454 23.144 43.8641 23.2187 43.7468 23.368C43.6294 23.5173 43.5601 23.7093 43.5388 23.944C43.5281 24.0933 43.5228 24.312 43.5228 24.6C43.5228 24.8773 43.5281 25.1013 43.5388 25.272C43.5814 25.7947 43.8321 26.056 44.2908 26.056ZM51.0588 33.08C50.3334 33.08 49.7521 32.8933 49.3148 32.52C48.8881 32.136 48.6481 31.6187 48.5948 30.968C48.5841 30.7867 48.5788 30.5413 48.5788 30.232C48.5788 29.912 48.5841 29.656 48.5948 29.464C48.6374 28.8027 48.8668 28.28 49.2828 27.896C49.7094 27.512 50.3014 27.32 51.0588 27.32C51.8161 27.32 52.4028 27.512 52.8188 27.896C53.2454 28.28 53.4801 28.8027 53.5228 29.464C53.5441 29.8907 53.5548 30.168 53.5548 30.296C53.5548 30.424 53.5441 30.648 53.5228 30.968C53.4801 31.608 53.2401 32.12 52.8028 32.504C52.3654 32.888 51.7841 33.08 51.0588 33.08ZM51.0588 31.672C51.3041 31.672 51.4854 31.5973 51.6028 31.448C51.7201 31.288 51.7894 31.096 51.8108 30.872C51.8321 30.552 51.8428 30.328 51.8428 30.2C51.8428 30.0613 51.8321 29.8427 51.8108 29.544C51.7894 29.32 51.7201 29.1333 51.6028 28.984C51.4854 28.824 51.3041 28.744 51.0588 28.744C50.8134 28.744 50.6321 28.824 50.5148 28.984C50.3974 29.1333 50.3334 29.32 50.3228 29.544C50.3121 29.6933 50.3068 29.912 50.3068 30.2C50.3068 30.488 50.3121 30.712 50.3228 30.872C50.3441 31.1067 50.4081 31.2987 50.5148 31.448C50.6321 31.5973 50.8134 31.672 51.0588 31.672ZM63.2273 33.16C61.7233 33.16 60.5393 32.792 59.6753 32.056C58.8113 31.32 58.3526 30.2373 58.2993 28.808C58.2886 28.4987 58.2833 28.04 58.2833 27.432C58.2833 26.8133 58.2886 26.3493 58.2993 26.04C58.3526 24.632 58.8166 23.5493 59.6913 22.792C60.5766 22.024 61.7553 21.64 63.2273 21.64C64.6993 21.64 65.8779 22.024 66.7633 22.792C67.6486 23.5493 68.1126 24.632 68.1553 26.04C68.1766 26.6587 68.1873 27.1227 68.1873 27.432C68.1873 27.7307 68.1766 28.1893 68.1553 28.808C68.1019 30.2373 67.6433 31.32 66.7793 32.056C65.9153 32.792 64.7313 33.16 63.2273 33.16ZM63.2273 30.856C63.8139 30.856 64.2779 30.68 64.6193 30.328C64.9713 29.976 65.1579 29.4373 65.1793 28.712C65.2006 28.0933 65.2113 27.656 65.2113 27.4C65.2113 27.1227 65.2006 26.6853 65.1793 26.088C65.1579 25.3627 64.9713 24.824 64.6193 24.472C64.2673 24.12 63.8033 23.944 63.2273 23.944C62.6513 23.944 62.1873 24.12 61.8353 24.472C61.4939 24.824 61.3073 25.3627 61.2753 26.088C61.2646 26.3867 61.2593 26.824 61.2593 27.4C61.2593 27.9653 61.2646 28.4027 61.2753 28.712C61.3073 29.4373 61.4939 29.976 61.8353 30.328C62.1766 30.68 62.6406 30.856 63.2273 30.856ZM70.4419 33C70.3352 33 70.2392 32.9627 70.1539 32.888C70.0792 32.8027 70.0419 32.7067 70.0419 32.6V22.2C70.0419 22.0827 70.0792 21.9867 70.1539 21.912C70.2392 21.8373 70.3352 21.8 70.4419 21.8H77.8019C77.9192 21.8 78.0152 21.8373 78.0899 21.912C78.1645 21.9867 78.2019 22.0827 78.2019 22.2V23.816C78.2019 23.9227 78.1645 24.0187 78.0899 24.104C78.0152 24.1787 77.9192 24.216 77.8019 24.216H72.8579V26.568H77.4819C77.5992 26.568 77.6952 26.6107 77.7699 26.696C77.8445 26.7707 77.8819 26.8667 77.8819 26.984V28.584C77.8819 28.6907 77.8445 28.7867 77.7699 28.872C77.6952 28.9467 77.5992 28.984 77.4819 28.984H72.8579V32.6C72.8579 32.7173 72.8205 32.8133 72.7459 32.888C72.6712 32.9627 72.5752 33 72.4579 33H70.4419ZM80.3325 33C80.2258 33 80.1298 32.9627 80.0445 32.888C79.9698 32.8027 79.9325 32.7067 79.9325 32.6V22.2C79.9325 22.0827 79.9698 21.9867 80.0445 21.912C80.1298 21.8373 80.2258 21.8 80.3325 21.8H87.6925C87.8098 21.8 87.9058 21.8373 87.9805 21.912C88.0552 21.9867 88.0925 22.0827 88.0925 22.2V23.816C88.0925 23.9227 88.0552 24.0187 87.9805 24.104C87.9058 24.1787 87.8098 24.216 87.6925 24.216H82.7485V26.568H87.3725C87.4898 26.568 87.5858 26.6107 87.6605 26.696C87.7352 26.7707 87.7725 26.8667 87.7725 26.984V28.584C87.7725 28.6907 87.7352 28.7867 87.6605 28.872C87.5858 28.9467 87.4898 28.984 87.3725 28.984H82.7485V32.6C82.7485 32.7173 82.7112 32.8133 82.6365 32.888C82.5618 32.9627 82.4658 33 82.3485 33H80.3325Z" fill="white"/>
</svg>
