<svg width="151" height="28" viewBox="0 0 151 28" fill="none" xmlns="http://www.w3.org/2000/svg">
<path d="M37.52 19C37.4027 19 37.3067 18.9627 37.232 18.888C37.1573 18.8027 37.12 18.7067 37.12 18.6V8.2C37.12 8.08267 37.1573 7.98667 37.232 7.912C37.3067 7.83733 37.4027 7.8 37.52 7.8H44.992C45.1093 7.8 45.2053 7.83733 45.28 7.912C45.3547 7.98667 45.392 8.08267 45.392 8.2V9.704C45.392 9.82133 45.3547 9.91733 45.28 9.992C45.2053 10.0667 45.1093 10.104 44.992 10.104H39.888V12.264H44.64C44.7573 12.264 44.8533 12.3067 44.928 12.392C45.0027 12.4667 45.04 12.5627 45.04 12.68V14.072C45.04 14.1787 45.0027 14.2747 44.928 14.36C44.8533 14.4347 44.7573 14.472 44.64 14.472H39.888V16.696H45.12C45.2373 16.696 45.3333 16.7333 45.408 16.808C45.4827 16.8827 45.52 16.9787 45.52 17.096V18.6C45.52 18.7067 45.4827 18.8027 45.408 18.888C45.3333 18.9627 45.2373 19 45.12 19H37.52ZM46.8268 19C46.7308 19 46.6454 18.968 46.5708 18.904C46.5068 18.8293 46.4748 18.7387 46.4748 18.632C46.4748 18.6107 46.4801 18.5787 46.4908 18.536C46.5014 18.4827 46.5228 18.4347 46.5548 18.392L49.2268 14.728L46.7948 11.288C46.7628 11.2453 46.7361 11.2027 46.7148 11.16C46.7041 11.1173 46.6988 11.0747 46.6988 11.032C46.6988 10.936 46.7361 10.856 46.8108 10.792C46.8854 10.7173 46.9708 10.68 47.0668 10.68H49.0188C49.1574 10.68 49.2588 10.712 49.3228 10.776C49.3974 10.84 49.4508 10.8987 49.4828 10.952L50.9708 13L52.4428 10.968C52.4854 10.9147 52.5388 10.856 52.6028 10.792C52.6774 10.7173 52.7841 10.68 52.9228 10.68H54.7948C54.8908 10.68 54.9708 10.7173 55.0347 10.792C55.1094 10.856 55.1468 10.936 55.1468 11.032C55.1468 11.0747 55.1414 11.1173 55.1308 11.16C55.1201 11.2027 55.0988 11.2453 55.0668 11.288L52.5708 14.728L55.2908 18.392C55.3228 18.4347 55.3441 18.4773 55.3548 18.52C55.3654 18.5627 55.3708 18.6 55.3708 18.632C55.3708 18.7387 55.3334 18.8293 55.2587 18.904C55.1948 18.968 55.1148 19 55.0188 19H52.9708C52.8428 19 52.7468 18.9733 52.6828 18.92C52.6188 18.856 52.5654 18.7973 52.5228 18.744L50.9068 16.552L49.2748 18.744C49.2321 18.7867 49.1788 18.84 49.1148 18.904C49.0508 18.968 48.9548 19 48.8268 19H46.8268ZM56.969 22.04C56.8517 22.04 56.7557 21.9973 56.681 21.912C56.6063 21.8373 56.569 21.7467 56.569 21.64V11.08C56.569 10.9627 56.6063 10.8667 56.681 10.792C56.7557 10.7173 56.8517 10.68 56.969 10.68H58.777C58.8837 10.68 58.9743 10.7173 59.049 10.792C59.1343 10.8667 59.177 10.9627 59.177 11.08V11.656C59.433 11.336 59.7637 11.0693 60.169 10.856C60.5743 10.632 61.0703 10.52 61.657 10.52C62.1903 10.52 62.6597 10.6053 63.065 10.776C63.4703 10.936 63.817 11.176 64.105 11.496C64.4037 11.816 64.633 12.2053 64.793 12.664C64.953 13.1227 65.0437 13.6507 65.065 14.248C65.0757 14.4613 65.081 14.6587 65.081 14.84C65.081 15.0213 65.0757 15.2187 65.065 15.432C65.0437 16.008 64.953 16.5253 64.793 16.984C64.633 17.4427 64.409 17.832 64.121 18.152C63.833 18.472 63.481 18.7227 63.065 18.904C62.6597 19.0747 62.1903 19.16 61.657 19.16C61.1343 19.16 60.6757 19.0693 60.281 18.888C59.897 18.696 59.577 18.4293 59.321 18.088V21.64C59.321 21.7467 59.2837 21.8373 59.209 21.912C59.1343 21.9973 59.0383 22.04 58.921 22.04H56.969ZM60.793 17.016C61.1557 17.016 61.4383 16.9413 61.641 16.792C61.8437 16.6427 61.9877 16.44 62.073 16.184C62.169 15.928 62.2277 15.6453 62.249 15.336C62.2703 15.0053 62.2703 14.6747 62.249 14.344C62.2277 14.0347 62.169 13.752 62.073 13.496C61.9877 13.24 61.8437 13.0373 61.641 12.888C61.4383 12.7387 61.1557 12.664 60.793 12.664C60.4517 12.664 60.1743 12.744 59.961 12.904C59.7477 13.0533 59.593 13.2507 59.497 13.496C59.401 13.7413 59.3423 14.008 59.321 14.296C59.3103 14.4987 59.305 14.696 59.305 14.888C59.305 15.08 59.3103 15.2827 59.321 15.496C59.3317 15.7627 59.3903 16.0133 59.497 16.248C59.6037 16.472 59.7637 16.6587 59.977 16.808C60.1903 16.9467 60.4623 17.016 60.793 17.016ZM70.5028 19.16C69.2441 19.16 68.2414 18.8187 67.4948 18.136C66.7481 17.4533 66.3588 16.44 66.3268 15.096C66.3268 15.0213 66.3268 14.9253 66.3268 14.808C66.3268 14.6907 66.3268 14.6 66.3268 14.536C66.3588 13.6933 66.5454 12.9733 66.8868 12.376C67.2388 11.768 67.7188 11.3093 68.3268 11C68.9454 10.68 69.6654 10.52 70.4868 10.52C71.4254 10.52 72.1988 10.7067 72.8068 11.08C73.4254 11.4533 73.8894 11.96 74.1988 12.6C74.5081 13.24 74.6628 13.9707 74.6628 14.792V15.176C74.6628 15.2933 74.6254 15.3893 74.5508 15.464C74.4761 15.5387 74.3801 15.576 74.2628 15.576H69.1428C69.1428 15.5867 69.1428 15.6027 69.1428 15.624C69.1428 15.6453 69.1428 15.6667 69.1428 15.688C69.1534 15.9973 69.2068 16.28 69.3028 16.536C69.4094 16.792 69.5588 16.9947 69.7508 17.144C69.9534 17.2933 70.1988 17.368 70.4868 17.368C70.7001 17.368 70.8761 17.336 71.0148 17.272C71.1641 17.1973 71.2868 17.1173 71.3828 17.032C71.4788 16.936 71.5534 16.856 71.6068 16.792C71.7028 16.6747 71.7774 16.6053 71.8308 16.584C71.8948 16.552 71.9908 16.536 72.1188 16.536H74.1028C74.2094 16.536 74.2948 16.568 74.3588 16.632C74.4334 16.696 74.4654 16.7813 74.4548 16.888C74.4441 17.0693 74.3534 17.288 74.1828 17.544C74.0121 17.8 73.7614 18.056 73.4308 18.312C73.1108 18.5573 72.7054 18.76 72.2148 18.92C71.7241 19.08 71.1534 19.16 70.5028 19.16ZM69.1428 13.992H71.8468V13.96C71.8468 13.608 71.7934 13.3093 71.6868 13.064C71.5908 12.808 71.4361 12.6107 71.2228 12.472C71.0201 12.3333 70.7748 12.264 70.4868 12.264C70.2094 12.264 69.9694 12.3333 69.7668 12.472C69.5641 12.6107 69.4094 12.808 69.3028 13.064C69.1961 13.3093 69.1428 13.608 69.1428 13.96V13.992ZM76.5628 19C76.4454 19 76.3494 18.9627 76.2747 18.888C76.2001 18.8027 76.1628 18.7067 76.1628 18.6V11.08C76.1628 10.9733 76.2001 10.8827 76.2747 10.808C76.3494 10.7227 76.4454 10.68 76.5628 10.68H78.4028C78.5201 10.68 78.6161 10.7227 78.6908 10.808C78.7761 10.8827 78.8188 10.9733 78.8188 11.08V11.72C79.0961 11.3893 79.4321 11.1333 79.8268 10.952C80.2321 10.7707 80.6854 10.68 81.1868 10.68H81.8908C82.0081 10.68 82.1041 10.7173 82.1788 10.792C82.2534 10.8667 82.2908 10.9627 82.2908 11.08V12.728C82.2908 12.8347 82.2534 12.9307 82.1788 13.016C82.1041 13.0907 82.0081 13.128 81.8908 13.128H80.3388C79.9014 13.128 79.5601 13.2507 79.3148 13.496C79.0801 13.7307 78.9628 14.0667 78.9628 14.504V18.6C78.9628 18.7067 78.9201 18.8027 78.8348 18.888C78.7601 18.9627 78.6641 19 78.5468 19H76.5628ZM87.6844 19C87.0017 19 86.4097 18.8933 85.9084 18.68C85.4177 18.456 85.039 18.1147 84.7724 17.656C84.5057 17.1867 84.3724 16.584 84.3724 15.848V12.776H83.1244C83.007 12.776 82.9057 12.7387 82.8204 12.664C82.7457 12.5893 82.7084 12.4933 82.7084 12.376V11.08C82.7084 10.9627 82.7457 10.8667 82.8204 10.792C82.9057 10.7173 83.007 10.68 83.1244 10.68H84.3724V8.04C84.3724 7.92267 84.4097 7.82667 84.4844 7.752C84.5697 7.67733 84.6657 7.64 84.7724 7.64H86.6284C86.7457 7.64 86.8417 7.67733 86.9164 7.752C86.991 7.82667 87.0284 7.92267 87.0284 8.04V10.68H89.0284C89.1457 10.68 89.2417 10.7173 89.3164 10.792C89.4017 10.8667 89.4444 10.9627 89.4444 11.08V12.376C89.4444 12.4933 89.4017 12.5893 89.3164 12.664C89.2417 12.7387 89.1457 12.776 89.0284 12.776H87.0284V15.624C87.0284 15.9867 87.0977 16.2747 87.2364 16.488C87.375 16.7013 87.6097 16.808 87.9404 16.808H89.1724C89.2897 16.808 89.3857 16.8453 89.4604 16.92C89.535 16.9947 89.5724 17.0907 89.5724 17.208V18.6C89.5724 18.7067 89.535 18.8027 89.4604 18.888C89.3857 18.9627 89.2897 19 89.1724 19H87.6844ZM94.8794 19C94.7727 19 94.6767 18.9627 94.5914 18.888C94.5167 18.8027 94.4794 18.7067 94.4794 18.6V8.2C94.4794 8.08267 94.5167 7.98667 94.5914 7.912C94.6767 7.83733 94.7727 7.8 94.8794 7.8H96.6074C96.7887 7.8 96.922 7.848 97.0074 7.944C97.0927 8.02933 97.146 8.09867 97.1674 8.152L99.9834 13.192L102.799 8.152C102.831 8.09867 102.885 8.02933 102.959 7.944C103.045 7.848 103.178 7.8 103.359 7.8H105.071C105.189 7.8 105.285 7.83733 105.359 7.912C105.445 7.98667 105.487 8.08267 105.487 8.2V18.6C105.487 18.7067 105.445 18.8027 105.359 18.888C105.285 18.9627 105.189 19 105.071 19H103.167C103.05 19 102.949 18.9627 102.863 18.888C102.789 18.8027 102.751 18.7067 102.751 18.6V12.6L100.959 15.944C100.906 16.04 100.837 16.1253 100.751 16.2C100.666 16.2747 100.549 16.312 100.399 16.312H99.5674C99.418 16.312 99.3007 16.2747 99.2154 16.2C99.13 16.1253 99.0607 16.04 99.0074 15.944L97.1994 12.6V18.6C97.1994 18.7067 97.162 18.8027 97.0874 18.888C97.0127 18.9627 96.9167 19 96.7994 19H94.8794ZM111.393 19.16C110.135 19.16 109.132 18.8187 108.385 18.136C107.639 17.4533 107.249 16.44 107.217 15.096C107.217 15.0213 107.217 14.9253 107.217 14.808C107.217 14.6907 107.217 14.6 107.217 14.536C107.249 13.6933 107.436 12.9733 107.777 12.376C108.129 11.768 108.609 11.3093 109.217 11C109.836 10.68 110.556 10.52 111.377 10.52C112.316 10.52 113.089 10.7067 113.697 11.08C114.316 11.4533 114.78 11.96 115.089 12.6C115.399 13.24 115.553 13.9707 115.553 14.792V15.176C115.553 15.2933 115.516 15.3893 115.441 15.464C115.367 15.5387 115.271 15.576 115.153 15.576H110.033C110.033 15.5867 110.033 15.6027 110.033 15.624C110.033 15.6453 110.033 15.6667 110.033 15.688C110.044 15.9973 110.097 16.28 110.193 16.536C110.3 16.792 110.449 16.9947 110.641 17.144C110.844 17.2933 111.089 17.368 111.377 17.368C111.591 17.368 111.767 17.336 111.905 17.272C112.055 17.1973 112.177 17.1173 112.273 17.032C112.369 16.936 112.444 16.856 112.497 16.792C112.593 16.6747 112.668 16.6053 112.721 16.584C112.785 16.552 112.881 16.536 113.009 16.536H114.993C115.1 16.536 115.185 16.568 115.249 16.632C115.324 16.696 115.356 16.7813 115.345 16.888C115.335 17.0693 115.244 17.288 115.073 17.544C114.903 17.8 114.652 18.056 114.321 18.312C114.001 18.5573 113.596 18.76 113.105 18.92C112.615 19.08 112.044 19.16 111.393 19.16ZM110.033 13.992H112.737V13.96C112.737 13.608 112.684 13.3093 112.577 13.064C112.481 12.808 112.327 12.6107 112.113 12.472C111.911 12.3333 111.665 12.264 111.377 12.264C111.1 12.264 110.86 12.3333 110.657 12.472C110.455 12.6107 110.3 12.808 110.193 13.064C110.087 13.3093 110.033 13.608 110.033 13.96V13.992ZM117.453 19C117.336 19 117.24 18.9627 117.165 18.888C117.091 18.8027 117.053 18.7067 117.053 18.6V11.08C117.053 10.9627 117.091 10.8667 117.165 10.792C117.24 10.7173 117.336 10.68 117.453 10.68H119.293C119.411 10.68 119.507 10.7173 119.581 10.792C119.667 10.8667 119.709 10.9627 119.709 11.08V11.688C119.976 11.3573 120.333 11.08 120.781 10.856C121.229 10.632 121.757 10.52 122.365 10.52C122.984 10.52 123.528 10.6587 123.997 10.936C124.477 11.2133 124.851 11.6187 125.117 12.152C125.395 12.6853 125.533 13.3467 125.533 14.136V18.6C125.533 18.7067 125.496 18.8027 125.421 18.888C125.347 18.9627 125.251 19 125.133 19H123.117C123.011 19 122.915 18.9627 122.829 18.888C122.755 18.8027 122.717 18.7067 122.717 18.6V14.232C122.717 13.7307 122.595 13.3467 122.349 13.08C122.115 12.8027 121.763 12.664 121.293 12.664C120.856 12.664 120.504 12.8027 120.237 13.08C119.981 13.3467 119.853 13.7307 119.853 14.232V18.6C119.853 18.7067 119.811 18.8027 119.725 18.888C119.651 18.9627 119.56 19 119.453 19H117.453ZM131.513 19C130.83 19 130.238 18.8933 129.737 18.68C129.246 18.456 128.867 18.1147 128.601 17.656C128.334 17.1867 128.201 16.584 128.201 15.848V12.776H126.953C126.835 12.776 126.734 12.7387 126.649 12.664C126.574 12.5893 126.537 12.4933 126.537 12.376V11.08C126.537 10.9627 126.574 10.8667 126.649 10.792C126.734 10.7173 126.835 10.68 126.953 10.68H128.201V8.04C128.201 7.92267 128.238 7.82667 128.312 7.752C128.398 7.67733 128.494 7.64 128.601 7.64H130.457C130.574 7.64 130.67 7.67733 130.745 7.752C130.819 7.82667 130.857 7.92267 130.857 8.04V10.68H132.857C132.974 10.68 133.07 10.7173 133.145 10.792C133.23 10.8667 133.273 10.9627 133.273 11.08V12.376C133.273 12.4933 133.23 12.5893 133.145 12.664C133.07 12.7387 132.974 12.776 132.857 12.776H130.857V15.624C130.857 15.9867 130.926 16.2747 131.065 16.488C131.203 16.7013 131.438 16.808 131.769 16.808H133.001C133.118 16.808 133.214 16.8453 133.289 16.92C133.363 16.9947 133.401 17.0907 133.401 17.208V18.6C133.401 18.7067 133.363 18.8027 133.289 18.888C133.214 18.9627 133.118 19 133.001 19H131.513ZM138.661 19.16C137.765 19.16 137.008 19.016 136.389 18.728C135.781 18.44 135.312 18.0293 134.981 17.496C134.661 16.952 134.48 16.3067 134.437 15.56C134.427 15.3467 134.421 15.1067 134.421 14.84C134.421 14.5627 134.427 14.3227 134.437 14.12C134.48 13.3627 134.672 12.7173 135.013 12.184C135.355 11.6507 135.829 11.24 136.437 10.952C137.056 10.664 137.797 10.52 138.661 10.52C139.536 10.52 140.277 10.664 140.885 10.952C141.504 11.24 141.984 11.6507 142.325 12.184C142.667 12.7173 142.859 13.3627 142.901 14.12C142.912 14.3227 142.917 14.5627 142.917 14.84C142.917 15.1067 142.912 15.3467 142.901 15.56C142.859 16.3067 142.672 16.952 142.341 17.496C142.021 18.0293 141.552 18.44 140.933 18.728C140.325 19.016 139.568 19.16 138.661 19.16ZM138.661 17.208C139.141 17.208 139.488 17.064 139.701 16.776C139.925 16.488 140.053 16.056 140.085 15.48C140.096 15.32 140.101 15.1067 140.101 14.84C140.101 14.5733 140.096 14.36 140.085 14.2C140.053 13.6347 139.925 13.208 139.701 12.92C139.488 12.6213 139.141 12.472 138.661 12.472C138.203 12.472 137.856 12.6213 137.621 12.92C137.397 13.208 137.275 13.6347 137.253 14.2C137.243 14.36 137.237 14.5733 137.237 14.84C137.237 15.1067 137.243 15.32 137.253 15.48C137.275 16.056 137.397 16.488 137.621 16.776C137.856 17.064 138.203 17.208 138.661 17.208ZM144.907 19C144.789 19 144.693 18.9627 144.618 18.888C144.544 18.8027 144.507 18.7067 144.507 18.6V11.08C144.507 10.9733 144.544 10.8827 144.618 10.808C144.693 10.7227 144.789 10.68 144.907 10.68H146.747C146.864 10.68 146.96 10.7227 147.035 10.808C147.12 10.8827 147.163 10.9733 147.163 11.08V11.72C147.44 11.3893 147.776 11.1333 148.171 10.952C148.576 10.7707 149.029 10.68 149.531 10.68H150.235C150.352 10.68 150.448 10.7173 150.523 10.792C150.597 10.8667 150.635 10.9627 150.635 11.08V12.728C150.635 12.8347 150.597 12.9307 150.523 13.016C150.448 13.0907 150.352 13.128 150.235 13.128H148.683C148.245 13.128 147.904 13.2507 147.659 13.496C147.424 13.7307 147.307 14.0667 147.307 14.504V18.6C147.307 18.7067 147.264 18.8027 147.179 18.888C147.104 18.9627 147.008 19 146.891 19H144.907Z" fill="white"/>
<path fill-rule="evenodd" clip-rule="evenodd" d="M14.0001 26.8334C6.91243 26.8334 1.16675 21.0877 1.16675 14.0001C1.16675 6.91243 6.91243 1.16675 14.0001 1.16675C21.0877 1.16675 26.8334 6.91243 26.8334 14.0001C26.8334 21.0877 21.0877 26.8334 14.0001 26.8334ZM22.6328 19.9788C23.8101 18.2821 24.5001 16.2217 24.5001 14.0001C24.5001 8.20109 19.7991 3.50008 14.0001 3.50008C8.20109 3.50008 3.50008 8.20109 3.50008 14.0001C3.50008 16.2217 4.19003 18.2821 5.36734 19.9788C6.68036 18.2445 9.76579 17.5001 14.0001 17.5001C18.2344 17.5001 21.3198 18.2445 22.6328 19.9788ZM20.9589 21.8631C20.6174 20.6353 18.1644 19.8334 14.0001 19.8334C9.8358 19.8334 7.38275 20.6353 7.04129 21.8631C8.89393 23.504 11.3307 24.5001 14.0001 24.5001C16.6695 24.5001 19.1062 23.504 20.9589 21.8631ZM14.0001 17.5001C11.3878 17.5001 9.33342 15.6654 9.33342 11.6667C9.33342 9.04847 11.1757 7.00008 14.0001 7.00008C16.8166 7.00008 18.6667 9.24192 18.6667 11.9001C18.6667 15.7263 16.5878 17.5001 14.0001 17.5001ZM11.6667 11.6667C11.6667 14.3142 12.6213 15.1667 14.0001 15.1667C15.3741 15.1667 16.3334 14.3482 16.3334 11.9001C16.3334 10.4422 15.4183 9.33342 14.0001 9.33342C12.5228 9.33342 11.6667 10.2852 11.6667 11.6667Z" fill="white"/>
</svg>
