<svg width="176" height="32" viewBox="0 0 176 32" fill="none" xmlns="http://www.w3.org/2000/svg">
<path d="M49.632 21C49.5253 21 49.4347 20.9627 49.36 20.888C49.2853 20.8133 49.248 20.7227 49.248 20.616V10.2C49.248 10.0827 49.28 9.98667 49.344 9.912C49.4187 9.83733 49.5147 9.8 49.632 9.8H56.576C56.6933 9.8 56.7893 9.83733 56.864 9.912C56.9387 9.98667 56.976 10.0827 56.976 10.2V11.32C56.976 11.4373 56.9387 11.5333 56.864 11.608C56.7893 11.672 56.6933 11.704 56.576 11.704H51.44V14.744H56.256C56.3733 14.744 56.4693 14.7813 56.544 14.856C56.6187 14.9307 56.656 15.0267 56.656 15.144V16.264C56.656 16.3813 56.6187 16.4773 56.544 16.552C56.4693 16.616 56.3733 16.648 56.256 16.648H51.44V20.616C51.44 20.7333 51.4027 20.8293 51.328 20.904C51.2533 20.968 51.1573 21 51.04 21H49.632ZM61.6284 21.16C60.647 21.16 59.8737 20.84 59.3084 20.2C58.743 19.5493 58.4604 18.6693 58.4604 17.56V13.064C58.4604 12.9573 58.4977 12.8667 58.5724 12.792C58.647 12.7173 58.7377 12.68 58.8444 12.68H60.2524C60.3697 12.68 60.4604 12.7173 60.5244 12.792C60.599 12.856 60.6364 12.9467 60.6364 13.064V17.464C60.6364 18.7867 61.2177 19.448 62.3804 19.448C62.935 19.448 63.3724 19.272 63.6924 18.92C64.023 18.568 64.1884 18.0827 64.1884 17.464V13.064C64.1884 12.9573 64.2257 12.8667 64.3004 12.792C64.375 12.7173 64.4657 12.68 64.5724 12.68H65.9804C66.0977 12.68 66.1884 12.7173 66.2524 12.792C66.327 12.856 66.3644 12.9467 66.3644 13.064V20.616C66.3644 20.7227 66.327 20.8133 66.2524 20.888C66.1884 20.9627 66.0977 21 65.9804 21H64.6844C64.5777 21 64.487 20.9627 64.4124 20.888C64.3377 20.8133 64.3004 20.7227 64.3004 20.616V19.96C63.703 20.76 62.8124 21.16 61.6284 21.16ZM68.8779 21C68.7712 21 68.6805 20.9627 68.6059 20.888C68.5312 20.8133 68.4939 20.7227 68.4939 20.616V10.024C68.4939 9.90667 68.5312 9.816 68.6059 9.752C68.6805 9.67733 68.7712 9.64 68.8779 9.64H70.2059C70.3232 9.64 70.4139 9.67733 70.4779 9.752C70.5525 9.816 70.5899 9.90667 70.5899 10.024V20.616C70.5899 20.7227 70.5525 20.8133 70.4779 20.888C70.4139 20.9627 70.3232 21 70.2059 21H68.8779ZM73.1123 21C73.0056 21 72.9149 20.9627 72.8403 20.888C72.7656 20.8133 72.7283 20.7227 72.7283 20.616V10.024C72.7283 9.90667 72.7656 9.816 72.8403 9.752C72.9149 9.67733 73.0056 9.64 73.1123 9.64H74.4403C74.5576 9.64 74.6483 9.67733 74.7123 9.752C74.7869 9.816 74.8243 9.90667 74.8243 10.024V20.616C74.8243 20.7227 74.7869 20.8133 74.7123 20.888C74.6483 20.9627 74.5576 21 74.4403 21H73.1123ZM83.2523 21C83.1456 21 83.0549 20.9627 82.9803 20.888C82.9056 20.8133 82.8683 20.7227 82.8683 20.616V11.768H79.9083C79.8016 11.768 79.7109 11.7307 79.6363 11.656C79.5616 11.5813 79.5243 11.4907 79.5243 11.384V10.2C79.5243 10.0827 79.5563 9.98667 79.6203 9.912C79.6949 9.83733 79.7909 9.8 79.9083 9.8H88.0683C88.1856 9.8 88.2816 9.83733 88.3563 9.912C88.4309 9.98667 88.4683 10.0827 88.4683 10.2V11.384C88.4683 11.4907 88.4309 11.5813 88.3563 11.656C88.2816 11.7307 88.1856 11.768 88.0683 11.768H85.1243V20.616C85.1243 20.7227 85.0869 20.8133 85.0123 20.888C84.9376 20.9627 84.8416 21 84.7243 21H83.2523ZM90.126 11.304C90.0193 11.304 89.9287 11.2667 89.854 11.192C89.7793 11.1173 89.742 11.0267 89.742 10.92V9.768C89.742 9.66133 89.7793 9.57067 89.854 9.496C89.9287 9.42133 90.0193 9.384 90.126 9.384H91.582C91.6887 9.384 91.7793 9.42133 91.854 9.496C91.9393 9.57067 91.982 9.66133 91.982 9.768V10.92C91.982 11.0267 91.9447 11.1173 91.87 11.192C91.7953 11.2667 91.6993 11.304 91.582 11.304H90.126ZM90.19 21C90.0833 21 89.9927 20.9627 89.918 20.888C89.8433 20.8133 89.806 20.7227 89.806 20.616V13.064C89.806 12.9573 89.8433 12.8667 89.918 12.792C89.9927 12.7173 90.0833 12.68 90.19 12.68H91.518C91.6353 12.68 91.726 12.7173 91.79 12.792C91.8647 12.856 91.902 12.9467 91.902 13.064V20.616C91.902 20.7227 91.8647 20.8133 91.79 20.888C91.726 20.9627 91.6353 21 91.518 21H90.19ZM94.4088 21C94.3021 21 94.2114 20.9627 94.1368 20.888C94.0621 20.8133 94.0247 20.7227 94.0247 20.616V13.064C94.0247 12.9573 94.0621 12.8667 94.1368 12.792C94.2114 12.7173 94.3021 12.68 94.4088 12.68H95.6568C95.7634 12.68 95.8541 12.7173 95.9288 12.792C96.0034 12.8667 96.0408 12.9573 96.0408 13.064V13.608C96.5954 12.8827 97.3688 12.52 98.3608 12.52C99.5448 12.52 100.371 12.9947 100.841 13.944C101.097 13.5173 101.459 13.176 101.929 12.92C102.398 12.6533 102.905 12.52 103.449 12.52C104.323 12.52 105.038 12.8187 105.593 13.416C106.147 14.0133 106.425 14.8827 106.425 16.024V20.616C106.425 20.7227 106.387 20.8133 106.313 20.888C106.249 20.9627 106.158 21 106.041 21H104.729C104.622 21 104.531 20.9627 104.457 20.888C104.382 20.8133 104.345 20.7227 104.345 20.616V16.152C104.345 15.48 104.201 14.9947 103.913 14.696C103.635 14.3867 103.262 14.232 102.793 14.232C102.377 14.232 102.019 14.3867 101.721 14.696C101.433 15.0053 101.289 15.4907 101.289 16.152V20.616C101.289 20.7227 101.251 20.8133 101.177 20.888C101.102 20.9627 101.011 21 100.905 21H99.5928C99.4861 21 99.3954 20.9627 99.3208 20.888C99.2461 20.8133 99.2088 20.7227 99.2088 20.616V16.152C99.2088 15.48 99.0594 14.9947 98.7608 14.696C98.4728 14.3867 98.1048 14.232 97.6568 14.232C97.2301 14.232 96.8674 14.3867 96.5688 14.696C96.2808 15.0053 96.1368 15.4907 96.1368 16.152V20.616C96.1368 20.7227 96.0994 20.8133 96.0248 20.888C95.9501 20.9627 95.8594 21 95.7528 21H94.4088ZM112.046 21.16C110.862 21.16 109.918 20.8187 109.214 20.136C108.521 19.4427 108.153 18.472 108.11 17.224L108.094 16.824L108.11 16.424C108.164 15.208 108.537 14.2533 109.23 13.56C109.934 12.8667 110.873 12.52 112.046 12.52C113.305 12.52 114.276 12.904 114.958 13.672C115.652 14.44 115.998 15.464 115.998 16.744V17.08C115.998 17.1867 115.961 17.2773 115.886 17.352C115.812 17.4267 115.716 17.464 115.598 17.464H110.286V17.592C110.308 18.1787 110.468 18.6747 110.766 19.08C111.076 19.4747 111.497 19.672 112.03 19.672C112.66 19.672 113.166 19.4267 113.55 18.936C113.646 18.8187 113.721 18.744 113.774 18.712C113.838 18.68 113.929 18.664 114.046 18.664H115.422C115.518 18.664 115.598 18.696 115.662 18.76C115.737 18.8133 115.774 18.8827 115.774 18.968C115.774 19.224 115.62 19.528 115.31 19.88C115.012 20.2213 114.58 20.52 114.014 20.776C113.449 21.032 112.793 21.16 112.046 21.16ZM113.822 16.12V16.072C113.822 15.4427 113.662 14.936 113.342 14.552C113.033 14.168 112.601 13.976 112.046 13.976C111.492 13.976 111.06 14.168 110.75 14.552C110.441 14.936 110.286 15.4427 110.286 16.072V16.12H113.822ZM120.435 21C120.35 21 120.27 20.968 120.195 20.904C120.131 20.84 120.099 20.76 120.099 20.664L120.131 20.52L123.987 10.2C124.062 9.93333 124.248 9.8 124.547 9.8H126.291C126.568 9.8 126.755 9.93333 126.851 10.2L130.707 20.52C130.718 20.552 130.723 20.6 130.723 20.664C130.723 20.76 130.691 20.84 130.627 20.904C130.563 20.968 130.488 21 130.403 21H129.011C128.872 21 128.766 20.968 128.691 20.904C128.616 20.84 128.568 20.7707 128.547 20.696L127.795 18.744H123.043L122.291 20.696C122.206 20.8987 122.051 21 121.827 21H120.435ZM127.235 16.904L125.411 11.96L123.603 16.904H127.235ZM135.531 21.16C134.358 21.16 133.419 20.8347 132.715 20.184C132.022 19.5333 131.654 18.632 131.611 17.48L131.595 16.84L131.611 16.2C131.654 15.048 132.022 14.1467 132.715 13.496C133.419 12.8453 134.358 12.52 135.531 12.52C136.363 12.52 137.067 12.6693 137.643 12.968C138.23 13.2667 138.662 13.6347 138.939 14.072C139.227 14.4987 139.382 14.904 139.403 15.288C139.414 15.3947 139.376 15.4853 139.291 15.56C139.216 15.6347 139.126 15.672 139.019 15.672H137.611C137.504 15.672 137.419 15.6507 137.355 15.608C137.302 15.5547 137.248 15.4693 137.195 15.352C137.035 14.936 136.822 14.6373 136.555 14.456C136.299 14.2747 135.968 14.184 135.563 14.184C135.019 14.184 134.592 14.36 134.283 14.712C133.974 15.0533 133.808 15.576 133.787 16.28L133.771 16.872L133.787 17.4C133.83 18.7973 134.422 19.496 135.563 19.496C135.979 19.496 136.315 19.4053 136.571 19.224C136.827 19.0427 137.035 18.744 137.195 18.328C137.248 18.2107 137.302 18.1307 137.355 18.088C137.419 18.0347 137.504 18.008 137.611 18.008H139.019C139.126 18.008 139.216 18.0453 139.291 18.12C139.376 18.1947 139.414 18.2853 139.403 18.392C139.382 18.7653 139.232 19.1653 138.955 19.592C138.678 20.0187 138.251 20.3867 137.675 20.696C137.099 21.0053 136.384 21.16 135.531 21.16ZM144.672 21.16C143.498 21.16 142.56 20.8347 141.856 20.184C141.162 19.5333 140.794 18.632 140.752 17.48L140.736 16.84L140.752 16.2C140.794 15.048 141.162 14.1467 141.856 13.496C142.56 12.8453 143.498 12.52 144.672 12.52C145.504 12.52 146.208 12.6693 146.784 12.968C147.37 13.2667 147.802 13.6347 148.08 14.072C148.368 14.4987 148.522 14.904 148.544 15.288C148.554 15.3947 148.517 15.4853 148.432 15.56C148.357 15.6347 148.266 15.672 148.16 15.672H146.752C146.645 15.672 146.56 15.6507 146.496 15.608C146.442 15.5547 146.389 15.4693 146.336 15.352C146.176 14.936 145.962 14.6373 145.696 14.456C145.44 14.2747 145.109 14.184 144.704 14.184C144.16 14.184 143.733 14.36 143.424 14.712C143.114 15.0533 142.949 15.576 142.928 16.28L142.912 16.872L142.928 17.4C142.97 18.7973 143.562 19.496 144.704 19.496C145.12 19.496 145.456 19.4053 145.712 19.224C145.968 19.0427 146.176 18.744 146.336 18.328C146.389 18.2107 146.442 18.1307 146.496 18.088C146.56 18.0347 146.645 18.008 146.752 18.008H148.16C148.266 18.008 148.357 18.0453 148.432 18.12C148.517 18.1947 148.554 18.2853 148.544 18.392C148.522 18.7653 148.373 19.1653 148.096 19.592C147.818 20.0187 147.392 20.3867 146.816 20.696C146.24 21.0053 145.525 21.16 144.672 21.16ZM153.796 21.16C152.612 21.16 151.668 20.8187 150.964 20.136C150.271 19.4427 149.903 18.472 149.86 17.224L149.844 16.824L149.86 16.424C149.914 15.208 150.287 14.2533 150.98 13.56C151.684 12.8667 152.623 12.52 153.796 12.52C155.055 12.52 156.026 12.904 156.708 13.672C157.402 14.44 157.748 15.464 157.748 16.744V17.08C157.748 17.1867 157.711 17.2773 157.636 17.352C157.562 17.4267 157.466 17.464 157.348 17.464H152.036V17.592C152.058 18.1787 152.218 18.6747 152.516 19.08C152.826 19.4747 153.247 19.672 153.78 19.672C154.41 19.672 154.916 19.4267 155.3 18.936C155.396 18.8187 155.471 18.744 155.524 18.712C155.588 18.68 155.679 18.664 155.796 18.664H157.172C157.268 18.664 157.348 18.696 157.412 18.76C157.487 18.8133 157.524 18.8827 157.524 18.968C157.524 19.224 157.37 19.528 157.06 19.88C156.762 20.2213 156.33 20.52 155.764 20.776C155.199 21.032 154.543 21.16 153.796 21.16ZM155.572 16.12V16.072C155.572 15.4427 155.412 14.936 155.092 14.552C154.783 14.168 154.351 13.976 153.796 13.976C153.242 13.976 152.81 14.168 152.5 14.552C152.191 14.936 152.036 15.4427 152.036 16.072V16.12H155.572ZM162.599 21.16C161.799 21.16 161.127 21.0427 160.583 20.808C160.039 20.5627 159.633 20.28 159.367 19.96C159.111 19.6293 158.983 19.3467 158.983 19.112C158.983 19.0053 159.02 18.92 159.095 18.856C159.169 18.792 159.255 18.76 159.351 18.76H160.615C160.711 18.76 160.791 18.7973 160.855 18.872C160.897 18.904 161.009 19 161.191 19.16C161.372 19.3307 161.585 19.464 161.831 19.56C162.076 19.656 162.348 19.704 162.647 19.704C163.073 19.704 163.425 19.6187 163.703 19.448C163.98 19.2773 164.119 19.0427 164.119 18.744C164.119 18.52 164.055 18.3387 163.927 18.2C163.809 18.0613 163.591 17.9387 163.271 17.832C162.951 17.7147 162.476 17.592 161.847 17.464C160.94 17.272 160.268 16.9787 159.831 16.584C159.404 16.1893 159.191 15.6667 159.191 15.016C159.191 14.5893 159.319 14.1893 159.575 13.816C159.831 13.432 160.209 13.1227 160.711 12.888C161.223 12.6427 161.831 12.52 162.535 12.52C163.249 12.52 163.868 12.6373 164.391 12.872C164.913 13.096 165.308 13.368 165.575 13.688C165.852 13.9973 165.991 14.2747 165.991 14.52C165.991 14.616 165.953 14.7013 165.879 14.776C165.815 14.84 165.735 14.872 165.639 14.872H164.455C164.369 14.872 164.279 14.8347 164.183 14.76C164.108 14.7067 163.991 14.6053 163.831 14.456C163.671 14.3067 163.484 14.1893 163.271 14.104C163.057 14.0187 162.807 13.976 162.519 13.976C162.124 13.976 161.815 14.0613 161.591 14.232C161.377 14.4027 161.271 14.6267 161.271 14.904C161.271 15.1067 161.324 15.272 161.431 15.4C161.537 15.528 161.745 15.6507 162.055 15.768C162.364 15.8853 162.828 16.0027 163.447 16.12C164.471 16.3227 165.201 16.6373 165.639 17.064C166.087 17.4907 166.311 18.0133 166.311 18.632C166.311 19.3787 165.985 19.9867 165.335 20.456C164.684 20.9253 163.772 21.16 162.599 21.16ZM171.114 21.16C170.314 21.16 169.642 21.0427 169.098 20.808C168.554 20.5627 168.149 20.28 167.882 19.96C167.626 19.6293 167.498 19.3467 167.498 19.112C167.498 19.0053 167.536 18.92 167.61 18.856C167.685 18.792 167.77 18.76 167.866 18.76H169.13C169.226 18.76 169.306 18.7973 169.37 18.872C169.413 18.904 169.525 19 169.706 19.16C169.888 19.3307 170.101 19.464 170.346 19.56C170.592 19.656 170.864 19.704 171.162 19.704C171.589 19.704 171.941 19.6187 172.218 19.448C172.496 19.2773 172.634 19.0427 172.634 18.744C172.634 18.52 172.57 18.3387 172.442 18.2C172.325 18.0613 172.106 17.9387 171.786 17.832C171.466 17.7147 170.992 17.592 170.362 17.464C169.456 17.272 168.784 16.9787 168.346 16.584C167.92 16.1893 167.706 15.6667 167.706 15.016C167.706 14.5893 167.834 14.1893 168.09 13.816C168.346 13.432 168.725 13.1227 169.226 12.888C169.738 12.6427 170.346 12.52 171.05 12.52C171.765 12.52 172.384 12.6373 172.906 12.872C173.429 13.096 173.824 13.368 174.09 13.688C174.368 13.9973 174.506 14.2747 174.506 14.52C174.506 14.616 174.469 14.7013 174.394 14.776C174.33 14.84 174.25 14.872 174.154 14.872H172.97C172.885 14.872 172.794 14.8347 172.698 14.76C172.624 14.7067 172.506 14.6053 172.346 14.456C172.186 14.3067 172 14.1893 171.786 14.104C171.573 14.0187 171.322 13.976 171.034 13.976C170.64 13.976 170.33 14.0613 170.106 14.232C169.893 14.4027 169.786 14.6267 169.786 14.904C169.786 15.1067 169.84 15.272 169.946 15.4C170.053 15.528 170.261 15.6507 170.57 15.768C170.88 15.8853 171.344 16.0027 171.962 16.12C172.986 16.3227 173.717 16.6373 174.154 17.064C174.602 17.4907 174.826 18.0133 174.826 18.632C174.826 19.3787 174.501 19.9867 173.85 20.456C173.2 20.9253 172.288 21.16 171.114 21.16Z" fill="#1C3554"/>
<circle cx="16" cy="16" r="16" fill="#4586D6"/>
<path fill-rule="evenodd" clip-rule="evenodd" d="M13.993 23.421L7.286 16.58L8.714 15.179L14.007 20.579L23.293 11.293L24.707 12.707L13.993 23.421Z" fill="white"/>
</svg>
