<svg width="226" height="56" viewBox="0 0 226 56" fill="none" xmlns="http://www.w3.org/2000/svg">
<rect width="226" height="56" rx="8" fill="#F72585"/>
<path d="M40.768 31.408H35.168L34.064 34H31.92L36.96 22.8H39.008L44.064 34H41.888L40.768 31.408ZM40.08 29.776L37.968 24.88L35.872 29.776H40.08ZM53.5863 22.128V34H51.6663V32.896C51.3356 33.3013 50.9249 33.6053 50.4343 33.808C49.9543 34.0107 49.4209 34.112 48.8343 34.112C48.0129 34.112 47.2716 33.9307 46.6103 33.568C45.9596 33.2053 45.4476 32.6933 45.0743 32.032C44.7009 31.36 44.5143 30.592 44.5143 29.728C44.5143 28.864 44.7009 28.1013 45.0743 27.44C45.4476 26.7787 45.9596 26.2667 46.6103 25.904C47.2716 25.5413 48.0129 25.36 48.8343 25.36C49.3996 25.36 49.9169 25.456 50.3863 25.648C50.8556 25.84 51.2556 26.128 51.5863 26.512V22.128H53.5863ZM49.0743 32.4C49.5543 32.4 49.9863 32.2933 50.3703 32.08C50.7543 31.856 51.0583 31.5413 51.2823 31.136C51.5063 30.7307 51.6183 30.2613 51.6183 29.728C51.6183 29.1947 51.5063 28.7253 51.2823 28.32C51.0583 27.9147 50.7543 27.6053 50.3703 27.392C49.9863 27.168 49.5543 27.056 49.0743 27.056C48.5943 27.056 48.1623 27.168 47.7783 27.392C47.3943 27.6053 47.0903 27.9147 46.8663 28.32C46.6423 28.7253 46.5303 29.1947 46.5303 29.728C46.5303 30.2613 46.6423 30.7307 46.8663 31.136C47.0903 31.5413 47.3943 31.856 47.7783 32.08C48.1623 32.2933 48.5943 32.4 49.0743 32.4ZM64.5706 22.128V34H62.6506V32.896C62.32 33.3013 61.9093 33.6053 61.4186 33.808C60.9386 34.0107 60.4053 34.112 59.8186 34.112C58.9973 34.112 58.256 33.9307 57.5946 33.568C56.944 33.2053 56.432 32.6933 56.0586 32.032C55.6853 31.36 55.4986 30.592 55.4986 29.728C55.4986 28.864 55.6853 28.1013 56.0586 27.44C56.432 26.7787 56.944 26.2667 57.5946 25.904C58.256 25.5413 58.9973 25.36 59.8186 25.36C60.384 25.36 60.9013 25.456 61.3706 25.648C61.84 25.84 62.24 26.128 62.5706 26.512V22.128H64.5706ZM60.0586 32.4C60.5386 32.4 60.9706 32.2933 61.3546 32.08C61.7386 31.856 62.0426 31.5413 62.2666 31.136C62.4906 30.7307 62.6026 30.2613 62.6026 29.728C62.6026 29.1947 62.4906 28.7253 62.2666 28.32C62.0426 27.9147 61.7386 27.6053 61.3546 27.392C60.9706 27.168 60.5386 27.056 60.0586 27.056C59.5786 27.056 59.1466 27.168 58.7626 27.392C58.3786 27.6053 58.0746 27.9147 57.8506 28.32C57.6266 28.7253 57.5146 29.1947 57.5146 29.728C57.5146 30.2613 57.6266 30.7307 57.8506 31.136C58.0746 31.5413 58.3786 31.856 58.7626 32.08C59.1466 32.2933 59.5786 32.4 60.0586 32.4ZM74.0729 24.56H70.3609V22.8H79.8649V24.56H76.1529V34H74.0729V24.56ZM84.1989 34.112C83.3349 34.112 82.5562 33.9253 81.8629 33.552C81.1695 33.1787 80.6255 32.6613 80.2309 32C79.8469 31.328 79.6549 30.5707 79.6549 29.728C79.6549 28.8853 79.8469 28.1333 80.2309 27.472C80.6255 26.8107 81.1695 26.2933 81.8629 25.92C82.5562 25.5467 83.3349 25.36 84.1989 25.36C85.0735 25.36 85.8575 25.5467 86.5509 25.92C87.2442 26.2933 87.7829 26.8107 88.1669 27.472C88.5615 28.1333 88.7589 28.8853 88.7589 29.728C88.7589 30.5707 88.5615 31.328 88.1669 32C87.7829 32.6613 87.2442 33.1787 86.5509 33.552C85.8575 33.9253 85.0735 34.112 84.1989 34.112ZM84.1989 32.4C84.9349 32.4 85.5429 32.1547 86.0229 31.664C86.5029 31.1733 86.7429 30.528 86.7429 29.728C86.7429 28.928 86.5029 28.2827 86.0229 27.792C85.5429 27.3013 84.9349 27.056 84.1989 27.056C83.4629 27.056 82.8549 27.3013 82.3749 27.792C81.9055 28.2827 81.6709 28.928 81.6709 29.728C81.6709 30.528 81.9055 31.1733 82.3749 31.664C82.8549 32.1547 83.4629 32.4 84.1989 32.4ZM111.653 22.8L107.941 34H105.733L102.965 25.712L100.149 34H97.9253L94.2133 22.8H96.3733L99.1573 31.312L102.053 22.8H103.973L106.805 31.36L109.669 22.8H111.653ZM113.234 25.456H115.234V34H113.234V25.456ZM114.242 24.048C113.879 24.048 113.575 23.936 113.33 23.712C113.085 23.4773 112.962 23.1893 112.962 22.848C112.962 22.5067 113.085 22.224 113.33 22C113.575 21.7653 113.879 21.648 114.242 21.648C114.605 21.648 114.909 21.76 115.154 21.984C115.399 22.1973 115.522 22.4693 115.522 22.8C115.522 23.152 115.399 23.4507 115.154 23.696C114.919 23.9307 114.615 24.048 114.242 24.048ZM120.499 34.112C119.806 34.112 119.128 34.0213 118.467 33.84C117.806 33.6587 117.278 33.4293 116.883 33.152L117.651 31.632C118.035 31.888 118.494 32.096 119.027 32.256C119.571 32.4053 120.104 32.48 120.627 32.48C121.822 32.48 122.419 32.1653 122.419 31.536C122.419 31.2373 122.264 31.0293 121.955 30.912C121.656 30.7947 121.171 30.6827 120.499 30.576C119.795 30.4693 119.219 30.3467 118.771 30.208C118.334 30.0693 117.95 29.8293 117.619 29.488C117.299 29.136 117.139 28.6507 117.139 28.032C117.139 27.2213 117.475 26.576 118.147 26.096C118.83 25.6053 119.747 25.36 120.899 25.36C121.486 25.36 122.072 25.4293 122.659 25.568C123.246 25.696 123.726 25.872 124.099 26.096L123.331 27.616C122.606 27.1893 121.79 26.976 120.883 26.976C120.296 26.976 119.848 27.0667 119.539 27.248C119.24 27.4187 119.091 27.648 119.091 27.936C119.091 28.256 119.251 28.4853 119.571 28.624C119.902 28.752 120.408 28.8747 121.091 28.992C121.774 29.0987 122.334 29.2213 122.771 29.36C123.208 29.4987 123.582 29.7333 123.891 30.064C124.211 30.3947 124.371 30.864 124.371 31.472C124.371 32.272 124.024 32.912 123.331 33.392C122.638 33.872 121.694 34.112 120.499 34.112ZM130.941 25.36C132.019 25.36 132.883 25.6747 133.533 26.304C134.184 26.9333 134.509 27.8667 134.509 29.104V34H132.509V29.36C132.509 28.6133 132.333 28.0533 131.981 27.68C131.629 27.296 131.128 27.104 130.477 27.104C129.741 27.104 129.16 27.328 128.733 27.776C128.307 28.2133 128.093 28.848 128.093 29.68V34H126.093V22.128H128.093V26.448C128.424 26.096 128.829 25.8293 129.309 25.648C129.8 25.456 130.344 25.36 130.941 25.36ZM137.046 22.128H139.046V34H137.046V22.128ZM141.671 25.456H143.671V34H141.671V25.456ZM142.679 24.048C142.317 24.048 142.013 23.936 141.767 23.712C141.522 23.4773 141.399 23.1893 141.399 22.848C141.399 22.5067 141.522 22.224 141.767 22C142.013 21.7653 142.317 21.648 142.679 21.648C143.042 21.648 143.346 21.76 143.591 21.984C143.837 22.1973 143.959 22.4693 143.959 22.8C143.959 23.152 143.837 23.4507 143.591 23.696C143.357 23.9307 143.053 24.048 142.679 24.048ZM148.936 34.112C148.243 34.112 147.566 34.0213 146.904 33.84C146.243 33.6587 145.715 33.4293 145.32 33.152L146.088 31.632C146.472 31.888 146.931 32.096 147.464 32.256C148.008 32.4053 148.542 32.48 149.064 32.48C150.259 32.48 150.856 32.1653 150.856 31.536C150.856 31.2373 150.702 31.0293 150.392 30.912C150.094 30.7947 149.608 30.6827 148.936 30.576C148.232 30.4693 147.656 30.3467 147.208 30.208C146.771 30.0693 146.387 29.8293 146.056 29.488C145.736 29.136 145.576 28.6507 145.576 28.032C145.576 27.2213 145.912 26.576 146.584 26.096C147.267 25.6053 148.184 25.36 149.336 25.36C149.923 25.36 150.51 25.4293 151.096 25.568C151.683 25.696 152.163 25.872 152.536 26.096L151.768 27.616C151.043 27.1893 150.227 26.976 149.32 26.976C148.734 26.976 148.286 27.0667 147.976 27.248C147.678 27.4187 147.528 27.648 147.528 27.936C147.528 28.256 147.688 28.4853 148.008 28.624C148.339 28.752 148.846 28.8747 149.528 28.992C150.211 29.0987 150.771 29.2213 151.208 29.36C151.646 29.4987 152.019 29.7333 152.328 30.064C152.648 30.3947 152.808 30.864 152.808 31.472C152.808 32.272 152.462 32.912 151.768 33.392C151.075 33.872 150.131 34.112 148.936 34.112ZM159.667 33.536C159.432 33.728 159.144 33.872 158.803 33.968C158.472 34.064 158.12 34.112 157.747 34.112C156.808 34.112 156.083 33.8667 155.571 33.376C155.059 32.8853 154.803 32.1707 154.803 31.232V27.12H153.395V25.52H154.803V23.568H156.803V25.52H159.091V27.12H156.803V31.184C156.803 31.6 156.904 31.92 157.107 32.144C157.309 32.3573 157.603 32.464 157.987 32.464C158.435 32.464 158.808 32.3467 159.107 32.112L159.667 33.536Z" fill="white"/>
<path fill-rule="evenodd" clip-rule="evenodd" d="M183.5 26.5H191V29.5H183.5V37H180.5V29.5H173V26.5H180.5V19H183.5V26.5Z" fill="white"/>
</svg>
