<svg width="152" height="24" viewBox="0 0 152 24" fill="none" xmlns="http://www.w3.org/2000/svg">
<path fill-rule="evenodd" clip-rule="evenodd" d="M12 19.2884L19.416 24L17.448 15.12L23.9999 9.14526L15.372 8.37474L12 0L8.62798 8.37474L0 9.14526L6.55198 15.12L4.58399 24L12 19.2884Z" fill="#FAA307"/>
<path fill-rule="evenodd" clip-rule="evenodd" d="M43.9999 19.2884L51.4159 24L49.4479 15.12L55.9999 9.14526L47.3719 8.37474L43.9999 0L40.6279 8.37474L31.9999 9.14526L38.5519 15.12L36.5839 24L43.9999 19.2884Z" fill="#FAA307"/>
<path fill-rule="evenodd" clip-rule="evenodd" d="M75.9998 19.2884L83.4158 24L81.4478 15.12L87.9998 9.14526L79.3718 8.37474L75.9998 0L72.6279 8.37474L63.9999 9.14526L70.5519 15.12L68.5839 24L75.9998 19.2884Z" fill="#FAA307"/>
<path fill-rule="evenodd" clip-rule="evenodd" d="M108 19.2884L115.416 24L113.448 15.12L120 9.14526L111.372 8.37474L108 0L104.628 8.37474L95.9998 9.14526L102.552 15.12L100.584 24L108 19.2884Z" fill="#FAA307"/>
<path fill-rule="evenodd" clip-rule="evenodd" d="M140 19.2884L147.416 24L145.448 15.12L152 9.14526L143.372 8.37474L140 0L136.628 8.37474L128 9.14526L134.552 15.12L132.584 24L140 19.2884Z" fill="#FAA307"/>
</svg>
