<svg width="161" height="28" viewBox="0 0 161 28" fill="none" xmlns="http://www.w3.org/2000/svg">
<path d="M37.52 19C37.4027 19 37.3067 18.9627 37.232 18.888C37.1573 18.8027 37.12 18.7067 37.12 18.6V8.2C37.12 8.08267 37.1573 7.98667 37.232 7.912C37.3067 7.83733 37.4027 7.8 37.52 7.8H39.632C39.7493 7.8 39.8453 7.83733 39.92 7.912C39.9947 7.98667 40.032 8.08267 40.032 8.2V16.584H44.88C44.9973 16.584 45.0933 16.6267 45.168 16.712C45.2427 16.7867 45.28 16.8827 45.28 17V18.6C45.28 18.7067 45.2427 18.8027 45.168 18.888C45.0933 18.9627 44.9973 19 44.88 19H37.52ZM46.8909 19C46.7735 19 46.6775 18.9627 46.6029 18.888C46.5282 18.8027 46.4909 18.7067 46.4909 18.6V11.08C46.4909 10.9627 46.5282 10.8667 46.6029 10.792C46.6775 10.7173 46.7735 10.68 46.8909 10.68H48.7789C48.8962 10.68 48.9922 10.7173 49.0669 10.792C49.1415 10.8667 49.1789 10.9627 49.1789 11.08V18.6C49.1789 18.7067 49.1415 18.8027 49.0669 18.888C48.9922 18.9627 48.8962 19 48.7789 19H46.8909ZM46.8749 9.48C46.7575 9.48 46.6615 9.44267 46.5869 9.368C46.5122 9.29333 46.4749 9.19733 46.4749 9.08V7.64C46.4749 7.53333 46.5122 7.44267 46.5869 7.368C46.6615 7.28267 46.7575 7.24 46.8749 7.24H48.7949C48.9015 7.24 48.9922 7.28267 49.0669 7.368C49.1522 7.44267 49.1949 7.53333 49.1949 7.64V9.08C49.1949 9.19733 49.1522 9.29333 49.0669 9.368C48.9922 9.44267 48.9015 9.48 48.7949 9.48H46.8749ZM52.413 19C52.3063 19 52.2103 18.9627 52.125 18.888C52.0503 18.8027 52.013 18.7067 52.013 18.6V12.776H50.797C50.6797 12.776 50.5837 12.7387 50.509 12.664C50.4343 12.5893 50.397 12.4933 50.397 12.376V11.08C50.397 10.9627 50.4343 10.8667 50.509 10.792C50.5837 10.7173 50.6797 10.68 50.797 10.68H52.013V10.168C52.013 9.44267 52.1517 8.86133 52.429 8.424C52.717 7.976 53.1223 7.656 53.645 7.464C54.1677 7.26133 54.7917 7.16 55.517 7.16H56.765C56.8823 7.16 56.9783 7.19733 57.053 7.272C57.1277 7.34667 57.165 7.44267 57.165 7.56V8.856C57.165 8.97333 57.1277 9.06933 57.053 9.144C56.9783 9.21867 56.8823 9.256 56.765 9.256H55.645C55.2823 9.256 55.0263 9.34133 54.877 9.512C54.7383 9.68267 54.669 9.928 54.669 10.248V10.68H56.605C56.7223 10.68 56.8183 10.7173 56.893 10.792C56.9677 10.8667 57.005 10.9627 57.005 11.08V12.376C57.005 12.4933 56.9677 12.5893 56.893 12.664C56.8183 12.7387 56.7223 12.776 56.605 12.776H54.669V18.6C54.669 18.7067 54.6317 18.8027 54.557 18.888C54.4823 18.9627 54.3863 19 54.269 19H52.413ZM61.8934 19.16C60.6347 19.16 59.632 18.8187 58.8854 18.136C58.1387 17.4533 57.7494 16.44 57.7174 15.096C57.7174 15.0213 57.7174 14.9253 57.7174 14.808C57.7174 14.6907 57.7174 14.6 57.7174 14.536C57.7494 13.6933 57.936 12.9733 58.2774 12.376C58.6294 11.768 59.1094 11.3093 59.7174 11C60.336 10.68 61.056 10.52 61.8774 10.52C62.816 10.52 63.5894 10.7067 64.1974 11.08C64.816 11.4533 65.28 11.96 65.5894 12.6C65.8987 13.24 66.0534 13.9707 66.0534 14.792V15.176C66.0534 15.2933 66.016 15.3893 65.9414 15.464C65.8667 15.5387 65.7707 15.576 65.6534 15.576H60.5334C60.5334 15.5867 60.5334 15.6027 60.5334 15.624C60.5334 15.6453 60.5334 15.6667 60.5334 15.688C60.544 15.9973 60.5974 16.28 60.6934 16.536C60.8 16.792 60.9494 16.9947 61.1414 17.144C61.344 17.2933 61.5894 17.368 61.8774 17.368C62.0907 17.368 62.2667 17.336 62.4054 17.272C62.5547 17.1973 62.6774 17.1173 62.7734 17.032C62.8694 16.936 62.944 16.856 62.9974 16.792C63.0934 16.6747 63.168 16.6053 63.2214 16.584C63.2854 16.552 63.3814 16.536 63.5094 16.536H65.4934C65.6 16.536 65.6854 16.568 65.7494 16.632C65.824 16.696 65.856 16.7813 65.8454 16.888C65.8347 17.0693 65.744 17.288 65.5734 17.544C65.4027 17.8 65.152 18.056 64.8214 18.312C64.5014 18.5573 64.096 18.76 63.6054 18.92C63.1147 19.08 62.544 19.16 61.8934 19.16ZM60.5334 13.992H63.2374V13.96C63.2374 13.608 63.184 13.3093 63.0774 13.064C62.9814 12.808 62.8267 12.6107 62.6134 12.472C62.4107 12.3333 62.1654 12.264 61.8774 12.264C61.6 12.264 61.36 12.3333 61.1574 12.472C60.9547 12.6107 60.8 12.808 60.6934 13.064C60.5867 13.3093 60.5334 13.608 60.5334 13.96V13.992ZM73.6246 19C73.5073 19 73.4113 18.9627 73.3366 18.888C73.262 18.8027 73.2246 18.7067 73.2246 18.6V10.312H70.3766C70.2593 10.312 70.1633 10.2747 70.0886 10.2C70.014 10.1147 69.9766 10.0187 69.9766 9.912V8.2C69.9766 8.08267 70.014 7.98667 70.0886 7.912C70.1633 7.83733 70.2593 7.8 70.3766 7.8H78.9846C79.102 7.8 79.198 7.83733 79.2726 7.912C79.3473 7.98667 79.3846 8.08267 79.3846 8.2V9.912C79.3846 10.0187 79.3473 10.1147 79.2726 10.2C79.198 10.2747 79.102 10.312 78.9846 10.312H76.1366V18.6C76.1366 18.7067 76.0993 18.8027 76.0246 18.888C75.95 18.9627 75.854 19 75.7366 19H73.6246ZM80.9221 19C80.8048 19 80.7088 18.9627 80.6341 18.888C80.5595 18.8027 80.5221 18.7067 80.5221 18.6V11.08C80.5221 10.9627 80.5595 10.8667 80.6341 10.792C80.7088 10.7173 80.8048 10.68 80.9221 10.68H82.8101C82.9275 10.68 83.0235 10.7173 83.0981 10.792C83.1728 10.8667 83.2101 10.9627 83.2101 11.08V18.6C83.2101 18.7067 83.1728 18.8027 83.0981 18.888C83.0235 18.9627 82.9275 19 82.8101 19H80.9221ZM80.9061 9.48C80.7888 9.48 80.6928 9.44267 80.6181 9.368C80.5435 9.29333 80.5061 9.19733 80.5061 9.08V7.64C80.5061 7.53333 80.5435 7.44267 80.6181 7.368C80.6928 7.28267 80.7888 7.24 80.9061 7.24H82.8261C82.9328 7.24 83.0235 7.28267 83.0981 7.368C83.1835 7.44267 83.2261 7.53333 83.2261 7.64V9.08C83.2261 9.19733 83.1835 9.29333 83.0981 9.368C83.0235 9.44267 82.9328 9.48 82.8261 9.48H80.9061ZM86.0003 19C85.8829 19 85.7869 18.9627 85.7122 18.888C85.6376 18.8027 85.6003 18.7067 85.6003 18.6V11.08C85.6003 10.9627 85.6376 10.8667 85.7122 10.792C85.7869 10.7173 85.8829 10.68 86.0003 10.68H87.7443C87.8616 10.68 87.9576 10.7173 88.0323 10.792C88.1069 10.8667 88.1443 10.9627 88.1443 11.08V11.624C88.3576 11.336 88.6563 11.0853 89.0403 10.872C89.4243 10.648 89.8776 10.5307 90.4003 10.52C91.6376 10.488 92.4856 10.9467 92.9443 11.896C93.1896 11.4907 93.5363 11.16 93.9843 10.904C94.4429 10.648 94.9443 10.52 95.4883 10.52C96.0429 10.52 96.5389 10.648 96.9763 10.904C97.4243 11.1493 97.7816 11.5333 98.0483 12.056C98.3149 12.568 98.4483 13.2347 98.4483 14.056V18.6C98.4483 18.7067 98.4109 18.8027 98.3363 18.888C98.2616 18.9627 98.1656 19 98.0483 19H96.1923C96.0749 19 95.9736 18.9627 95.8883 18.888C95.8136 18.8027 95.7763 18.7067 95.7763 18.6V14.168C95.7763 13.7947 95.7229 13.5013 95.6163 13.288C95.5096 13.064 95.3656 12.904 95.1843 12.808C95.0029 12.712 94.7949 12.664 94.5603 12.664C94.3683 12.664 94.1763 12.712 93.9843 12.808C93.8029 12.904 93.6536 13.064 93.5363 13.288C93.4296 13.5013 93.3763 13.7947 93.3763 14.168V18.6C93.3763 18.7067 93.3389 18.8027 93.2643 18.888C93.1896 18.9627 93.0936 19 92.9763 19H91.1203C91.0029 19 90.9069 18.9627 90.8323 18.888C90.7576 18.8027 90.7203 18.7067 90.7203 18.6V14.168C90.7203 13.7947 90.6616 13.5013 90.5443 13.288C90.4269 13.064 90.2776 12.904 90.0963 12.808C89.9149 12.712 89.7176 12.664 89.5043 12.664C89.3016 12.664 89.1043 12.712 88.9123 12.808C88.7309 12.904 88.5816 13.064 88.4643 13.288C88.3576 13.5013 88.3043 13.7893 88.3043 14.152V18.6C88.3043 18.7067 88.2616 18.8027 88.1763 18.888C88.1016 18.9627 88.0109 19 87.9043 19H86.0003ZM104.097 19.16C102.838 19.16 101.835 18.8187 101.089 18.136C100.342 17.4533 99.9525 16.44 99.9205 15.096C99.9205 15.0213 99.9205 14.9253 99.9205 14.808C99.9205 14.6907 99.9205 14.6 99.9205 14.536C99.9525 13.6933 100.139 12.9733 100.481 12.376C100.833 11.768 101.313 11.3093 101.921 11C102.539 10.68 103.259 10.52 104.081 10.52C105.019 10.52 105.793 10.7067 106.401 11.08C107.019 11.4533 107.483 11.96 107.793 12.6C108.102 13.24 108.257 13.9707 108.257 14.792V15.176C108.257 15.2933 108.219 15.3893 108.145 15.464C108.07 15.5387 107.974 15.576 107.857 15.576H102.737C102.737 15.5867 102.737 15.6027 102.737 15.624C102.737 15.6453 102.737 15.6667 102.737 15.688C102.747 15.9973 102.801 16.28 102.897 16.536C103.003 16.792 103.153 16.9947 103.345 17.144C103.547 17.2933 103.793 17.368 104.081 17.368C104.294 17.368 104.47 17.336 104.609 17.272C104.758 17.1973 104.881 17.1173 104.977 17.032C105.073 16.936 105.147 16.856 105.201 16.792C105.297 16.6747 105.371 16.6053 105.425 16.584C105.489 16.552 105.585 16.536 105.713 16.536H107.697C107.803 16.536 107.889 16.568 107.953 16.632C108.027 16.696 108.059 16.7813 108.049 16.888C108.038 17.0693 107.947 17.288 107.777 17.544C107.606 17.8 107.355 18.056 107.025 18.312C106.705 18.5573 106.299 18.76 105.809 18.92C105.318 19.08 104.747 19.16 104.097 19.16ZM102.737 13.992H105.441V13.96C105.441 13.608 105.387 13.3093 105.281 13.064C105.185 12.808 105.03 12.6107 104.817 12.472C104.614 12.3333 104.369 12.264 104.081 12.264C103.803 12.264 103.563 12.3333 103.361 12.472C103.158 12.6107 103.003 12.808 102.897 13.064C102.79 13.3093 102.737 13.608 102.737 13.96V13.992ZM112.293 19C112.207 19 112.127 18.968 112.053 18.904C111.989 18.8293 111.957 18.7493 111.957 18.664C111.957 18.6107 111.962 18.5627 111.973 18.52L115.733 8.248C115.765 8.13067 115.829 8.02933 115.924 7.944C116.031 7.848 116.175 7.8 116.357 7.8H118.725C118.906 7.8 119.045 7.848 119.141 7.944C119.247 8.02933 119.317 8.13067 119.349 8.248L123.093 18.52C123.114 18.5627 123.125 18.6107 123.125 18.664C123.125 18.7493 123.087 18.8293 123.013 18.904C122.949 18.968 122.869 19 122.773 19H120.805C120.645 19 120.522 18.9627 120.437 18.888C120.362 18.8027 120.314 18.728 120.293 18.664L119.669 17.032H115.397L114.789 18.664C114.767 18.728 114.719 18.8027 114.645 18.888C114.57 18.9627 114.442 19 114.261 19H112.293ZM116.053 14.728H119.029L117.541 10.504L116.053 14.728ZM127.924 19.16C127.135 19.16 126.436 19.016 125.828 18.728C125.22 18.44 124.735 18.024 124.372 17.48C124.02 16.9253 123.828 16.264 123.796 15.496C123.786 15.3253 123.78 15.112 123.78 14.856C123.78 14.5893 123.786 14.3707 123.796 14.2C123.828 13.4213 124.02 12.76 124.372 12.216C124.724 11.6613 125.204 11.24 125.812 10.952C126.431 10.664 127.135 10.52 127.924 10.52C128.66 10.52 129.29 10.6267 129.812 10.84C130.346 11.0427 130.772 11.2987 131.092 11.608C131.423 11.9173 131.668 12.2373 131.828 12.568C131.999 12.888 132.09 13.1707 132.1 13.416C132.111 13.5227 132.074 13.6187 131.988 13.704C131.903 13.7787 131.807 13.816 131.7 13.816H129.668C129.551 13.816 129.46 13.7893 129.396 13.736C129.332 13.6827 129.274 13.6027 129.22 13.496C129.092 13.1653 128.927 12.9307 128.724 12.792C128.532 12.6533 128.282 12.584 127.972 12.584C127.546 12.584 127.215 12.7227 126.98 13C126.756 13.2773 126.634 13.704 126.612 14.28C126.602 14.7067 126.602 15.0853 126.612 15.416C126.644 16.0027 126.772 16.4293 126.996 16.696C127.22 16.9627 127.546 17.096 127.972 17.096C128.303 17.096 128.564 17.0267 128.756 16.888C128.948 16.7387 129.103 16.504 129.22 16.184C129.274 16.0773 129.332 15.9973 129.396 15.944C129.46 15.8907 129.551 15.864 129.668 15.864H131.7C131.807 15.864 131.903 15.9013 131.988 15.976C132.074 16.0507 132.111 16.1467 132.1 16.264C132.09 16.4347 132.036 16.6427 131.94 16.888C131.844 17.1333 131.695 17.3893 131.492 17.656C131.29 17.9227 131.023 18.168 130.692 18.392C130.372 18.616 129.983 18.8027 129.524 18.952C129.066 19.0907 128.532 19.16 127.924 19.16ZM137.362 19.16C136.572 19.16 135.874 19.016 135.266 18.728C134.658 18.44 134.172 18.024 133.81 17.48C133.458 16.9253 133.266 16.264 133.234 15.496C133.223 15.3253 133.218 15.112 133.218 14.856C133.218 14.5893 133.223 14.3707 133.234 14.2C133.266 13.4213 133.458 12.76 133.81 12.216C134.162 11.6613 134.642 11.24 135.25 10.952C135.868 10.664 136.572 10.52 137.362 10.52C138.098 10.52 138.727 10.6267 139.25 10.84C139.783 11.0427 140.21 11.2987 140.53 11.608C140.86 11.9173 141.106 12.2373 141.266 12.568C141.436 12.888 141.527 13.1707 141.538 13.416C141.548 13.5227 141.511 13.6187 141.426 13.704C141.34 13.7787 141.244 13.816 141.138 13.816H139.106C138.988 13.816 138.898 13.7893 138.834 13.736C138.77 13.6827 138.711 13.6027 138.658 13.496C138.53 13.1653 138.364 12.9307 138.162 12.792C137.97 12.6533 137.719 12.584 137.41 12.584C136.983 12.584 136.652 12.7227 136.418 13C136.194 13.2773 136.071 13.704 136.05 14.28C136.039 14.7067 136.039 15.0853 136.05 15.416C136.082 16.0027 136.21 16.4293 136.434 16.696C136.658 16.9627 136.983 17.096 137.41 17.096C137.74 17.096 138.002 17.0267 138.194 16.888C138.386 16.7387 138.54 16.504 138.658 16.184C138.711 16.0773 138.77 15.9973 138.834 15.944C138.898 15.8907 138.988 15.864 139.106 15.864H141.138C141.244 15.864 141.34 15.9013 141.426 15.976C141.511 16.0507 141.548 16.1467 141.538 16.264C141.527 16.4347 141.474 16.6427 141.378 16.888C141.282 17.1333 141.132 17.3893 140.93 17.656C140.727 17.9227 140.46 18.168 140.13 18.392C139.81 18.616 139.42 18.8027 138.962 18.952C138.503 19.0907 137.97 19.16 137.362 19.16ZM146.815 19.16C145.557 19.16 144.554 18.8187 143.807 18.136C143.061 17.4533 142.671 16.44 142.639 15.096C142.639 15.0213 142.639 14.9253 142.639 14.808C142.639 14.6907 142.639 14.6 142.639 14.536C142.671 13.6933 142.858 12.9733 143.199 12.376C143.551 11.768 144.031 11.3093 144.639 11C145.258 10.68 145.978 10.52 146.799 10.52C147.738 10.52 148.511 10.7067 149.119 11.08C149.738 11.4533 150.202 11.96 150.511 12.6C150.821 13.24 150.975 13.9707 150.975 14.792V15.176C150.975 15.2933 150.938 15.3893 150.863 15.464C150.789 15.5387 150.693 15.576 150.575 15.576H145.455C145.455 15.5867 145.455 15.6027 145.455 15.624C145.455 15.6453 145.455 15.6667 145.455 15.688C145.466 15.9973 145.519 16.28 145.615 16.536C145.722 16.792 145.871 16.9947 146.063 17.144C146.266 17.2933 146.511 17.368 146.799 17.368C147.013 17.368 147.189 17.336 147.327 17.272C147.477 17.1973 147.599 17.1173 147.695 17.032C147.791 16.936 147.866 16.856 147.919 16.792C148.015 16.6747 148.09 16.6053 148.143 16.584C148.207 16.552 148.303 16.536 148.431 16.536H150.415C150.522 16.536 150.607 16.568 150.671 16.632C150.746 16.696 150.778 16.7813 150.767 16.888C150.757 17.0693 150.666 17.288 150.495 17.544C150.325 17.8 150.074 18.056 149.743 18.312C149.423 18.5573 149.018 18.76 148.527 18.92C148.037 19.08 147.466 19.16 146.815 19.16ZM145.455 13.992H148.159V13.96C148.159 13.608 148.106 13.3093 147.999 13.064C147.903 12.808 147.749 12.6107 147.535 12.472C147.333 12.3333 147.087 12.264 146.799 12.264C146.522 12.264 146.282 12.3333 146.079 12.472C145.877 12.6107 145.722 12.808 145.615 13.064C145.509 13.3093 145.455 13.608 145.455 13.96V13.992ZM155.899 19.16C155.206 19.16 154.614 19.0853 154.123 18.936C153.643 18.776 153.249 18.584 152.939 18.36C152.641 18.136 152.417 17.9067 152.267 17.672C152.118 17.4267 152.038 17.2133 152.027 17.032C152.017 16.9147 152.054 16.8187 152.139 16.744C152.225 16.6693 152.315 16.632 152.411 16.632H154.235C154.267 16.632 154.294 16.6373 154.315 16.648C154.347 16.6587 154.379 16.68 154.411 16.712C154.55 16.7867 154.689 16.8827 154.827 17C154.966 17.1067 155.126 17.2027 155.307 17.288C155.489 17.3733 155.707 17.416 155.963 17.416C156.262 17.416 156.513 17.3573 156.715 17.24C156.918 17.112 157.019 16.936 157.019 16.712C157.019 16.5413 156.971 16.4027 156.875 16.296C156.779 16.1787 156.582 16.0667 156.283 15.96C155.995 15.8533 155.558 15.7467 154.971 15.64C154.417 15.512 153.931 15.3467 153.515 15.144C153.099 14.9307 152.779 14.6587 152.555 14.328C152.331 13.9867 152.219 13.576 152.219 13.096C152.219 12.6693 152.358 12.2587 152.635 11.864C152.913 11.4693 153.318 11.1493 153.851 10.904C154.385 10.648 155.046 10.52 155.835 10.52C156.443 10.52 156.977 10.5947 157.435 10.744C157.894 10.8827 158.278 11.064 158.587 11.288C158.897 11.512 159.131 11.7413 159.291 11.976C159.451 12.2107 159.537 12.424 159.547 12.616C159.558 12.7227 159.526 12.8187 159.451 12.904C159.377 12.9787 159.291 13.016 159.195 13.016H157.531C157.489 13.016 157.446 13.0107 157.403 13C157.361 12.9787 157.323 12.9573 157.291 12.936C157.163 12.872 157.035 12.7867 156.907 12.68C156.779 12.5733 156.63 12.4773 156.459 12.392C156.289 12.3067 156.075 12.264 155.819 12.264C155.531 12.264 155.307 12.328 155.147 12.456C154.987 12.584 154.907 12.7493 154.907 12.952C154.907 13.0907 154.95 13.2187 155.035 13.336C155.131 13.4533 155.318 13.56 155.595 13.656C155.883 13.752 156.326 13.8587 156.923 13.976C157.659 14.0933 158.246 14.2853 158.683 14.552C159.121 14.808 159.43 15.112 159.611 15.464C159.803 15.8053 159.899 16.168 159.899 16.552C159.899 17.064 159.745 17.5173 159.435 17.912C159.126 18.3067 158.673 18.616 158.075 18.84C157.489 19.0533 156.763 19.16 155.899 19.16Z" fill="white"/>
<path fill-rule="evenodd" clip-rule="evenodd" d="M18.5148 17.7917L14.5831 15.4583V10.1733C14.5831 9.70667 14.2098 9.33333 13.7431 9.33333H13.6731C13.2065 9.33333 12.8331 9.70667 12.8331 10.1733V15.68C12.8331 16.0883 13.0431 16.4733 13.4048 16.6833L17.6631 19.2383C18.0598 19.4717 18.5731 19.355 18.8065 18.9583C19.0515 18.55 18.9231 18.025 18.5148 17.7917ZM24.7098 5.845L21.1165 2.85833C20.6265 2.45 19.8915 2.50833 19.4715 3.01C19.0631 3.5 19.1331 4.235 19.6231 4.655L23.2048 7.64167C23.6948 8.05 24.4298 7.99167 24.8498 7.49C25.2698 7 25.1998 6.265 24.7098 5.845ZM4.78314 7.64167L8.3648 4.655C8.86647 4.235 8.93647 3.5 8.51647 3.01C8.10814 2.50833 7.37314 2.45 6.88314 2.85833L3.2898 5.845C2.7998 6.265 2.7298 7 3.1498 7.49C3.55814 7.99167 4.29314 8.05 4.78314 7.64167ZM13.9998 4.66667C8.20147 4.66667 3.4998 9.36833 3.4998 15.1667C3.4998 20.965 8.20147 25.6667 13.9998 25.6667C19.7981 25.6667 24.4998 20.965 24.4998 15.1667C24.4998 9.36833 19.7981 4.66667 13.9998 4.66667ZM13.9998 23.3333C9.49647 23.3333 5.83314 19.67 5.83314 15.1667C5.83314 10.6633 9.49647 7 13.9998 7C18.5031 7 22.1665 10.6633 22.1665 15.1667C22.1665 19.67 18.5031 23.3333 13.9998 23.3333Z" fill="white"/>
</svg>
