<svg width="440" height="921" viewBox="0 0 440 921" fill="none" xmlns="http://www.w3.org/2000/svg">
<rect x="0.5" y="0.5" width="439" height="920" rx="7.5" fill="white" stroke="#CCCCCC"/>
<rect x="32.5" y="809.5" width="375" height="71" rx="7.5" stroke="#F72585"/>
<path d="M188.132 850C188.025 850 187.935 849.963 187.86 849.888C187.785 849.813 187.748 849.723 187.748 849.616V839.2C187.748 839.083 187.785 838.987 187.86 838.912C187.935 838.837 188.025 838.8 188.132 838.8H192.772C193.636 838.8 194.34 838.933 194.884 839.2C195.428 839.456 195.828 839.813 196.084 840.272C196.351 840.731 196.484 841.264 196.484 841.872C196.484 842.277 196.409 842.635 196.26 842.944C196.121 843.243 195.945 843.488 195.732 843.68C195.529 843.872 195.327 844.021 195.124 844.128C195.54 844.32 195.908 844.64 196.228 845.088C196.548 845.536 196.708 846.069 196.708 846.688C196.708 847.328 196.564 847.899 196.276 848.4C195.988 848.901 195.561 849.296 194.996 849.584C194.431 849.861 193.732 850 192.9 850H188.132ZM189.972 848.304H192.644C193.22 848.304 193.657 848.149 193.956 847.84C194.255 847.52 194.404 847.136 194.404 846.688C194.404 846.219 194.249 845.829 193.94 845.52C193.641 845.211 193.209 845.056 192.644 845.056H189.972V848.304ZM189.972 843.392H192.484C193.049 843.392 193.471 843.259 193.748 842.992C194.036 842.715 194.18 842.357 194.18 841.92C194.18 841.472 194.036 841.125 193.748 840.88C193.471 840.624 193.049 840.496 192.484 840.496H189.972V843.392ZM201.613 850.16C200.962 850.16 200.397 850.016 199.917 849.728C199.447 849.429 199.085 849.013 198.829 848.48C198.573 847.936 198.445 847.296 198.445 846.56V842.064C198.445 841.957 198.482 841.867 198.557 841.792C198.631 841.717 198.722 841.68 198.829 841.68H200.237C200.354 841.68 200.445 841.717 200.509 841.792C200.583 841.867 200.621 841.957 200.621 842.064V846.464C200.621 847.787 201.202 848.448 202.365 848.448C202.919 848.448 203.357 848.272 203.677 847.92C204.007 847.568 204.173 847.083 204.173 846.464V842.064C204.173 841.957 204.21 841.867 204.285 841.792C204.359 841.717 204.45 841.68 204.557 841.68H205.965C206.071 841.68 206.162 841.717 206.237 841.792C206.311 841.867 206.349 841.957 206.349 842.064V849.616C206.349 849.723 206.311 849.813 206.237 849.888C206.162 849.963 206.071 850 205.965 850H204.669C204.551 850 204.455 849.963 204.381 849.888C204.317 849.813 204.285 849.723 204.285 849.616V848.96C203.997 849.333 203.639 849.627 203.213 849.84C202.786 850.053 202.253 850.16 201.613 850.16ZM209.966 853.04C209.881 853.04 209.806 853.008 209.742 852.944C209.678 852.88 209.646 852.805 209.646 852.72C209.646 852.677 209.646 852.635 209.646 852.592C209.657 852.56 209.678 852.517 209.71 852.464L210.958 849.504L207.886 842.256C207.844 842.149 207.822 842.075 207.822 842.032C207.833 841.936 207.87 841.856 207.934 841.792C207.998 841.717 208.078 841.68 208.174 841.68H209.47C209.598 841.68 209.694 841.712 209.758 841.776C209.822 841.84 209.87 841.909 209.902 841.984L212.03 847.216L214.222 841.984C214.254 841.899 214.302 841.829 214.366 841.776C214.43 841.712 214.526 841.68 214.654 841.68H215.934C216.02 841.68 216.094 841.712 216.158 841.776C216.233 841.84 216.27 841.915 216.27 842C216.27 842.064 216.249 842.149 216.206 842.256L211.678 852.736C211.636 852.821 211.582 852.891 211.518 852.944C211.454 853.008 211.358 853.04 211.23 853.04H209.966ZM221.46 850C221.353 850 221.263 849.963 221.188 849.888C221.113 849.813 221.076 849.723 221.076 849.616V839.2C221.076 839.083 221.113 838.987 221.188 838.912C221.263 838.837 221.353 838.8 221.46 838.8H222.692C222.841 838.8 222.948 838.837 223.012 838.912C223.087 838.976 223.135 839.024 223.156 839.056L227.764 846.224V839.2C227.764 839.083 227.796 838.987 227.86 838.912C227.935 838.837 228.031 838.8 228.148 838.8H229.492C229.609 838.8 229.705 838.837 229.78 838.912C229.855 838.987 229.892 839.083 229.892 839.2V849.6C229.892 849.717 229.855 849.813 229.78 849.888C229.705 849.963 229.615 850 229.508 850H228.26C228.111 850 228.004 849.963 227.94 849.888C227.876 849.813 227.828 849.765 227.796 849.744L223.204 842.736V849.616C223.204 849.723 223.167 849.813 223.092 849.888C223.017 849.963 222.921 850 222.804 850H221.46ZM235.877 850.16C235.023 850.16 234.303 850.011 233.717 849.712C233.141 849.413 232.698 848.992 232.389 848.448C232.09 847.904 231.919 847.269 231.877 846.544C231.866 846.352 231.861 846.117 231.861 845.84C231.861 845.563 231.866 845.328 231.877 845.136C231.919 844.4 232.095 843.765 232.405 843.232C232.725 842.688 233.173 842.267 233.749 841.968C234.335 841.669 235.045 841.52 235.877 841.52C236.709 841.52 237.413 841.669 237.989 841.968C238.575 842.267 239.023 842.688 239.333 843.232C239.653 843.765 239.834 844.4 239.877 845.136C239.887 845.328 239.893 845.563 239.893 845.84C239.893 846.117 239.887 846.352 239.877 846.544C239.834 847.269 239.658 847.904 239.349 848.448C239.05 848.992 238.607 849.413 238.021 849.712C237.445 850.011 236.73 850.16 235.877 850.16ZM235.877 848.576C236.442 848.576 236.879 848.4 237.189 848.048C237.498 847.685 237.669 847.157 237.701 846.464C237.711 846.304 237.717 846.096 237.717 845.84C237.717 845.584 237.711 845.376 237.701 845.216C237.669 844.533 237.498 844.011 237.189 843.648C236.879 843.285 236.442 843.104 235.877 843.104C235.311 843.104 234.874 843.285 234.565 843.648C234.255 844.011 234.085 844.533 234.053 845.216C234.042 845.376 234.037 845.584 234.037 845.84C234.037 846.096 234.042 846.304 234.053 846.464C234.085 847.157 234.255 847.685 234.565 848.048C234.874 848.4 235.311 848.576 235.877 848.576ZM243.703 850C243.554 850 243.442 849.963 243.367 849.888C243.292 849.813 243.228 849.717 243.175 849.6L240.887 842.176C240.876 842.123 240.871 842.075 240.871 842.032C240.871 841.936 240.903 841.856 240.967 841.792C241.042 841.717 241.122 841.68 241.207 841.68H242.391C242.519 841.68 242.62 841.717 242.695 841.792C242.77 841.856 242.812 841.92 242.823 841.984L244.391 847.28L246.055 842.032C246.076 841.957 246.124 841.883 246.199 841.808C246.274 841.723 246.386 841.68 246.535 841.68H247.335C247.484 841.68 247.596 841.723 247.671 841.808C247.746 841.883 247.794 841.957 247.815 842.032L249.479 847.28L251.047 841.984C251.058 841.92 251.095 841.856 251.159 841.792C251.234 841.717 251.335 841.68 251.463 841.68H252.647C252.743 841.68 252.823 841.717 252.887 841.792C252.962 841.856 252.999 841.936 252.999 842.032C252.999 842.075 252.988 842.123 252.967 842.176L250.679 849.6C250.647 849.717 250.588 849.813 250.503 849.888C250.428 849.963 250.316 850 250.167 850H249.127C248.978 850 248.86 849.963 248.775 849.888C248.69 849.813 248.631 849.717 248.599 849.6L246.935 844.544L245.271 849.6C245.228 849.717 245.164 849.813 245.079 849.888C245.004 849.963 244.887 850 244.727 850H243.703Z" fill="#F72585"/>
<rect x="32" y="713" width="376" height="72" rx="8" fill="#F72585"/>
<path d="M176.06 754C175.975 754 175.895 753.968 175.82 753.904C175.756 753.84 175.724 753.76 175.724 753.664C175.724 753.621 175.735 753.573 175.756 753.52L179.612 743.2C179.644 743.093 179.703 743.003 179.788 742.928C179.884 742.843 180.012 742.8 180.172 742.8H181.916C182.076 742.8 182.199 742.843 182.284 742.928C182.369 743.003 182.433 743.093 182.476 743.2L186.332 753.52C186.343 753.573 186.348 753.621 186.348 753.664C186.348 753.76 186.316 753.84 186.252 753.904C186.188 753.968 186.113 754 186.028 754H184.636C184.487 754 184.375 753.968 184.3 753.904C184.236 753.829 184.193 753.76 184.172 753.696L183.42 751.744H178.668L177.916 753.696C177.895 753.76 177.847 753.829 177.772 753.904C177.708 753.968 177.601 754 177.452 754H176.06ZM179.228 749.904H182.86L181.036 744.96L179.228 749.904ZM190.644 754.16C190.089 754.16 189.599 754.069 189.172 753.888C188.756 753.696 188.409 753.429 188.132 753.088C187.855 752.747 187.641 752.347 187.492 751.888C187.343 751.419 187.257 750.907 187.236 750.352C187.225 750.16 187.22 749.989 187.22 749.84C187.22 749.68 187.225 749.504 187.236 749.312C187.257 748.779 187.337 748.283 187.476 747.824C187.625 747.365 187.839 746.965 188.116 746.624C188.404 746.272 188.756 746 189.172 745.808C189.599 745.616 190.089 745.52 190.644 745.52C191.22 745.52 191.705 745.621 192.1 745.824C192.505 746.016 192.841 746.267 193.108 746.576V743.024C193.108 742.917 193.14 742.827 193.204 742.752C193.279 742.677 193.375 742.64 193.492 742.64H194.852C194.959 742.64 195.049 742.677 195.124 742.752C195.199 742.827 195.236 742.917 195.236 743.024V753.616C195.236 753.723 195.199 753.813 195.124 753.888C195.049 753.963 194.959 754 194.852 754H193.588C193.471 754 193.375 753.963 193.3 753.888C193.236 753.813 193.204 753.723 193.204 753.616V753.024C192.937 753.355 192.596 753.627 192.18 753.84C191.775 754.053 191.263 754.16 190.644 754.16ZM191.236 752.448C191.684 752.448 192.041 752.347 192.308 752.144C192.575 751.941 192.772 751.685 192.9 751.376C193.028 751.056 193.097 750.731 193.108 750.4C193.119 750.208 193.124 750.005 193.124 749.792C193.124 749.568 193.119 749.36 193.108 749.168C193.097 748.848 193.023 748.544 192.884 748.256C192.745 747.957 192.543 747.712 192.276 747.52C192.009 747.328 191.663 747.232 191.236 747.232C190.788 747.232 190.431 747.333 190.164 747.536C189.908 747.728 189.721 747.984 189.604 748.304C189.487 748.624 189.417 748.976 189.396 749.36C189.385 749.68 189.385 750 189.396 750.32C189.417 750.704 189.487 751.056 189.604 751.376C189.721 751.696 189.908 751.957 190.164 752.16C190.431 752.352 190.788 752.448 191.236 752.448ZM200.457 754.16C199.902 754.16 199.411 754.069 198.985 753.888C198.569 753.696 198.222 753.429 197.945 753.088C197.667 752.747 197.454 752.347 197.305 751.888C197.155 751.419 197.07 750.907 197.049 750.352C197.038 750.16 197.033 749.989 197.033 749.84C197.033 749.68 197.038 749.504 197.049 749.312C197.07 748.779 197.15 748.283 197.289 747.824C197.438 747.365 197.651 746.965 197.929 746.624C198.217 746.272 198.569 746 198.985 745.808C199.411 745.616 199.902 745.52 200.457 745.52C201.033 745.52 201.518 745.621 201.913 745.824C202.318 746.016 202.654 746.267 202.921 746.576V743.024C202.921 742.917 202.953 742.827 203.017 742.752C203.091 742.677 203.187 742.64 203.305 742.64H204.665C204.771 742.64 204.862 742.677 204.937 742.752C205.011 742.827 205.049 742.917 205.049 743.024V753.616C205.049 753.723 205.011 753.813 204.937 753.888C204.862 753.963 204.771 754 204.665 754H203.401C203.283 754 203.187 753.963 203.113 753.888C203.049 753.813 203.017 753.723 203.017 753.616V753.024C202.75 753.355 202.409 753.627 201.993 753.84C201.587 754.053 201.075 754.16 200.457 754.16ZM201.049 752.448C201.497 752.448 201.854 752.347 202.121 752.144C202.387 751.941 202.585 751.685 202.713 751.376C202.841 751.056 202.91 750.731 202.921 750.4C202.931 750.208 202.937 750.005 202.937 749.792C202.937 749.568 202.931 749.36 202.921 749.168C202.91 748.848 202.835 748.544 202.697 748.256C202.558 747.957 202.355 747.712 202.089 747.52C201.822 747.328 201.475 747.232 201.049 747.232C200.601 747.232 200.243 747.333 199.977 747.536C199.721 747.728 199.534 747.984 199.417 748.304C199.299 748.624 199.23 748.976 199.209 749.36C199.198 749.68 199.198 750 199.209 750.32C199.23 750.704 199.299 751.056 199.417 751.376C199.534 751.696 199.721 751.957 199.977 752.16C200.243 752.352 200.601 752.448 201.049 752.448ZM213.487 754C213.38 754 213.289 753.963 213.215 753.888C213.14 753.813 213.103 753.723 213.103 753.616V744.768H210.143C210.036 744.768 209.945 744.731 209.871 744.656C209.796 744.581 209.759 744.491 209.759 744.384V743.2C209.759 743.083 209.796 742.987 209.871 742.912C209.945 742.837 210.036 742.8 210.143 742.8H218.303C218.42 742.8 218.516 742.837 218.591 742.912C218.665 742.987 218.703 743.083 218.703 743.2V744.384C218.703 744.491 218.665 744.581 218.591 744.656C218.516 744.731 218.42 744.768 218.303 744.768H215.359V753.616C215.359 753.723 215.321 753.813 215.247 753.888C215.172 753.963 215.076 754 214.959 754H213.487ZM222.345 754.16C221.492 754.16 220.772 754.011 220.185 753.712C219.609 753.413 219.167 752.992 218.857 752.448C218.559 751.904 218.388 751.269 218.345 750.544C218.335 750.352 218.329 750.117 218.329 749.84C218.329 749.563 218.335 749.328 218.345 749.136C218.388 748.4 218.564 747.765 218.873 747.232C219.193 746.688 219.641 746.267 220.217 745.968C220.804 745.669 221.513 745.52 222.345 745.52C223.177 745.52 223.881 745.669 224.457 745.968C225.044 746.267 225.492 746.688 225.801 747.232C226.121 747.765 226.303 748.4 226.345 749.136C226.356 749.328 226.361 749.563 226.361 749.84C226.361 750.117 226.356 750.352 226.345 750.544C226.303 751.269 226.127 751.904 225.817 752.448C225.519 752.992 225.076 753.413 224.489 753.712C223.913 754.011 223.199 754.16 222.345 754.16ZM222.345 752.576C222.911 752.576 223.348 752.4 223.657 752.048C223.967 751.685 224.137 751.157 224.169 750.464C224.18 750.304 224.185 750.096 224.185 749.84C224.185 749.584 224.18 749.376 224.169 749.216C224.137 748.533 223.967 748.011 223.657 747.648C223.348 747.285 222.911 747.104 222.345 747.104C221.78 747.104 221.343 747.285 221.033 747.648C220.724 748.011 220.553 748.533 220.521 749.216C220.511 749.376 220.505 749.584 220.505 749.84C220.505 750.096 220.511 750.304 220.521 750.464C220.553 751.157 220.724 751.685 221.033 752.048C221.343 752.4 221.78 752.576 222.345 752.576ZM236.302 754.16C235.31 754.16 234.468 753.989 233.774 753.648C233.092 753.296 232.569 752.8 232.206 752.16C231.844 751.509 231.641 750.731 231.598 749.824C231.588 749.387 231.582 748.917 231.582 748.416C231.582 747.915 231.588 747.435 231.598 746.976C231.641 746.08 231.844 745.307 232.206 744.656C232.58 744.005 233.108 743.509 233.79 743.168C234.484 742.816 235.321 742.64 236.302 742.64C237.028 742.64 237.678 742.736 238.254 742.928C238.83 743.12 239.321 743.387 239.726 743.728C240.132 744.059 240.446 744.448 240.67 744.896C240.894 745.344 241.012 745.829 241.022 746.352C241.033 746.448 241.001 746.528 240.926 746.592C240.862 746.656 240.782 746.688 240.686 746.688H239.166C239.049 746.688 238.953 746.661 238.878 746.608C238.804 746.544 238.75 746.443 238.718 746.304C238.548 745.6 238.254 745.12 237.838 744.864C237.422 744.608 236.905 744.48 236.286 744.48C235.572 744.48 235.001 744.683 234.574 745.088C234.148 745.483 233.918 746.139 233.886 747.056C233.854 747.931 233.854 748.827 233.886 749.744C233.918 750.661 234.148 751.323 234.574 751.728C235.001 752.123 235.572 752.32 236.286 752.32C236.905 752.32 237.422 752.192 237.838 751.936C238.254 751.669 238.548 751.189 238.718 750.496C238.75 750.347 238.804 750.245 238.878 750.192C238.953 750.139 239.049 750.112 239.166 750.112H240.686C240.782 750.112 240.862 750.144 240.926 750.208C241.001 750.272 241.033 750.352 241.022 750.448C241.012 750.971 240.894 751.456 240.67 751.904C240.446 752.352 240.132 752.747 239.726 753.088C239.321 753.419 238.83 753.68 238.254 753.872C237.678 754.064 237.028 754.16 236.302 754.16ZM245.144 754.16C244.589 754.16 244.088 754.053 243.64 753.84C243.192 753.616 242.835 753.323 242.568 752.96C242.312 752.587 242.184 752.171 242.184 751.712C242.184 750.965 242.483 750.373 243.08 749.936C243.688 749.488 244.488 749.189 245.48 749.04L247.672 748.72V748.384C247.672 747.936 247.56 747.589 247.336 747.344C247.112 747.099 246.728 746.976 246.184 746.976C245.8 746.976 245.485 747.056 245.24 747.216C245.005 747.365 244.829 747.568 244.712 747.824C244.627 747.963 244.504 748.032 244.344 748.032H243.08C242.963 748.032 242.872 748 242.808 747.936C242.755 747.872 242.728 747.787 242.728 747.68C242.739 747.509 242.808 747.301 242.936 747.056C243.064 746.811 243.267 746.576 243.544 746.352C243.821 746.117 244.179 745.92 244.616 745.76C245.053 745.6 245.581 745.52 246.2 745.52C246.872 745.52 247.437 745.605 247.896 745.776C248.365 745.936 248.739 746.155 249.016 746.432C249.293 746.709 249.496 747.035 249.624 747.408C249.752 747.781 249.816 748.176 249.816 748.592V753.616C249.816 753.723 249.779 753.813 249.704 753.888C249.629 753.963 249.539 754 249.432 754H248.136C248.019 754 247.923 753.963 247.848 753.888C247.784 753.813 247.752 753.723 247.752 753.616V752.992C247.613 753.195 247.427 753.387 247.192 753.568C246.957 753.739 246.669 753.883 246.328 754C245.997 754.107 245.603 754.16 245.144 754.16ZM245.688 752.64C246.061 752.64 246.397 752.56 246.696 752.4C247.005 752.24 247.245 751.995 247.416 751.664C247.597 751.323 247.688 750.896 247.688 750.384V750.048L246.088 750.304C245.459 750.4 244.989 750.555 244.68 750.768C244.371 750.981 244.216 751.243 244.216 751.552C244.216 751.787 244.285 751.989 244.424 752.16C244.573 752.32 244.76 752.443 244.984 752.528C245.208 752.603 245.443 752.64 245.688 752.64ZM252.253 754C252.146 754 252.055 753.963 251.981 753.888C251.906 753.813 251.868 753.723 251.868 753.616V746.08C251.868 745.963 251.906 745.867 251.981 745.792C252.055 745.717 252.146 745.68 252.253 745.68H253.549C253.655 745.68 253.746 745.717 253.821 745.792C253.906 745.867 253.949 745.963 253.949 746.08V746.736C254.194 746.395 254.509 746.133 254.893 745.952C255.287 745.771 255.741 745.68 256.253 745.68H256.909C257.026 745.68 257.117 745.717 257.181 745.792C257.255 745.867 257.293 745.957 257.293 746.064V747.216C257.293 747.323 257.255 747.413 257.181 747.488C257.117 747.563 257.026 747.6 256.909 747.6H255.661C255.149 747.6 254.749 747.744 254.461 748.032C254.183 748.32 254.045 748.715 254.045 749.216V753.616C254.045 753.723 254.007 753.813 253.933 753.888C253.858 753.963 253.762 754 253.645 754H252.253ZM262.3 754C261.66 754 261.122 753.888 260.684 753.664C260.247 753.44 259.922 753.109 259.708 752.672C259.495 752.224 259.388 751.669 259.388 751.008V747.376H258.124C258.018 747.376 257.927 747.339 257.852 747.264C257.778 747.189 257.74 747.099 257.74 746.992V746.064C257.74 745.957 257.778 745.867 257.852 745.792C257.927 745.717 258.018 745.68 258.124 745.68H259.388V743.024C259.388 742.917 259.42 742.827 259.484 742.752C259.559 742.677 259.655 742.64 259.772 742.64H261.068C261.175 742.64 261.266 742.677 261.34 742.752C261.415 742.827 261.452 742.917 261.452 743.024V745.68H263.452C263.559 745.68 263.65 745.717 263.724 745.792C263.799 745.867 263.836 745.957 263.836 746.064V746.992C263.836 747.099 263.799 747.189 263.724 747.264C263.65 747.339 263.559 747.376 263.452 747.376H261.452V750.848C261.452 751.285 261.527 751.627 261.676 751.872C261.836 752.117 262.108 752.24 262.492 752.24H263.596C263.703 752.24 263.794 752.277 263.868 752.352C263.943 752.427 263.98 752.517 263.98 752.624V753.616C263.98 753.723 263.943 753.813 263.868 753.888C263.794 753.963 263.703 754 263.596 754H262.3Z" fill="white"/>
<path d="M315.568 606.16C314.096 606.16 312.955 605.781 312.144 605.024C311.344 604.267 310.917 603.2 310.864 601.824C310.853 601.536 310.848 601.067 310.848 600.416C310.848 599.755 310.853 599.275 310.864 598.976C310.917 597.611 311.349 596.549 312.16 595.792C312.981 595.024 314.117 594.64 315.568 594.64C316.517 594.64 317.344 594.805 318.048 595.136C318.752 595.456 319.296 595.899 319.68 596.464C320.064 597.019 320.267 597.648 320.288 598.352V598.384C320.288 598.469 320.251 598.544 320.176 598.608C320.112 598.661 320.037 598.688 319.952 598.688H318.432C318.304 598.688 318.208 598.661 318.144 598.608C318.08 598.555 318.027 598.453 317.984 598.304C317.813 597.632 317.531 597.163 317.136 596.896C316.741 596.619 316.213 596.48 315.552 596.48C314.016 596.48 313.216 597.339 313.152 599.056C313.141 599.344 313.136 599.787 313.136 600.384C313.136 600.981 313.141 601.435 313.152 601.744C313.216 603.461 314.016 604.32 315.552 604.32C316.213 604.32 316.741 604.181 317.136 603.904C317.541 603.627 317.824 603.157 317.984 602.496C318.016 602.347 318.064 602.245 318.128 602.192C318.203 602.139 318.304 602.112 318.432 602.112H319.952C320.048 602.112 320.128 602.144 320.192 602.208C320.267 602.272 320.299 602.352 320.288 602.448C320.267 603.152 320.064 603.787 319.68 604.352C319.296 604.907 318.752 605.349 318.048 605.68C317.344 606 316.517 606.16 315.568 606.16ZM325.578 606.16C324.394 606.16 323.45 605.819 322.746 605.136C322.052 604.443 321.684 603.472 321.642 602.224L321.626 601.824L321.642 601.424C321.695 600.208 322.068 599.253 322.762 598.56C323.466 597.867 324.404 597.52 325.578 597.52C326.836 597.52 327.807 597.904 328.49 598.672C329.183 599.44 329.53 600.464 329.53 601.744V602.08C329.53 602.187 329.492 602.277 329.418 602.352C329.343 602.427 329.247 602.464 329.13 602.464H323.818V602.592C323.839 603.179 323.999 603.675 324.298 604.08C324.607 604.475 325.028 604.672 325.562 604.672C326.191 604.672 326.698 604.427 327.082 603.936C327.178 603.819 327.252 603.744 327.306 603.712C327.37 603.68 327.46 603.664 327.578 603.664H328.954C329.05 603.664 329.13 603.696 329.194 603.76C329.268 603.813 329.306 603.883 329.306 603.968C329.306 604.224 329.151 604.528 328.842 604.88C328.543 605.221 328.111 605.52 327.546 605.776C326.98 606.032 326.324 606.16 325.578 606.16ZM327.354 601.12V601.072C327.354 600.443 327.194 599.936 326.874 599.552C326.564 599.168 326.132 598.976 325.578 598.976C325.023 598.976 324.591 599.168 324.282 599.552C323.972 599.936 323.818 600.443 323.818 601.072V601.12H327.354ZM331.612 606C331.505 606 331.415 605.963 331.34 605.888C331.265 605.813 331.228 605.723 331.228 605.616V598.08C331.228 597.973 331.265 597.883 331.34 597.808C331.415 597.723 331.505 597.68 331.612 597.68H332.908C333.025 597.68 333.121 597.717 333.196 597.792C333.271 597.867 333.308 597.963 333.308 598.08V598.736C333.564 598.395 333.884 598.133 334.268 597.952C334.663 597.771 335.111 597.68 335.612 597.68H336.268C336.385 597.68 336.476 597.717 336.54 597.792C336.615 597.856 336.652 597.947 336.652 598.064V599.216C336.652 599.323 336.615 599.413 336.54 599.488C336.476 599.563 336.385 599.6 336.268 599.6H335.02C334.519 599.6 334.124 599.744 333.836 600.032C333.548 600.32 333.404 600.715 333.404 601.216V605.616C333.404 605.723 333.367 605.813 333.292 605.888C333.217 605.963 333.121 606 333.004 606H331.612ZM341.66 606C340.689 606 339.958 605.749 339.468 605.248C338.988 604.736 338.748 603.989 338.748 603.008V599.376H337.484C337.377 599.376 337.286 599.339 337.212 599.264C337.137 599.179 337.1 599.083 337.1 598.976V598.064C337.1 597.957 337.137 597.867 337.212 597.792C337.286 597.717 337.377 597.68 337.484 597.68H338.748V595.024C338.748 594.907 338.785 594.816 338.86 594.752C338.934 594.677 339.025 594.64 339.132 594.64H340.428C340.545 594.64 340.636 594.677 340.7 594.752C340.774 594.816 340.812 594.907 340.812 595.024V597.68H342.812C342.929 597.68 343.02 597.717 343.084 597.792C343.158 597.856 343.196 597.947 343.196 598.064V598.976C343.196 599.093 343.158 599.189 343.084 599.264C343.009 599.339 342.918 599.376 342.812 599.376H340.812V602.848C340.812 603.307 340.892 603.653 341.052 603.888C341.212 604.123 341.478 604.24 341.852 604.24H342.956C343.062 604.24 343.153 604.277 343.228 604.352C343.302 604.427 343.34 604.517 343.34 604.624V605.616C343.34 605.723 343.302 605.813 343.228 605.888C343.164 605.963 343.073 606 342.956 606H341.66ZM345.079 596.304C344.972 596.304 344.882 596.267 344.807 596.192C344.732 596.117 344.695 596.027 344.695 595.92V594.768C344.695 594.661 344.732 594.571 344.807 594.496C344.882 594.421 344.972 594.384 345.079 594.384H346.535C346.642 594.384 346.732 594.421 346.807 594.496C346.892 594.571 346.935 594.661 346.935 594.768V595.92C346.935 596.027 346.898 596.117 346.823 596.192C346.748 596.267 346.652 596.304 346.535 596.304H345.079ZM345.143 606C345.036 606 344.946 605.963 344.871 605.888C344.796 605.813 344.759 605.723 344.759 605.616V598.064C344.759 597.957 344.796 597.867 344.871 597.792C344.946 597.717 345.036 597.68 345.143 597.68H346.471C346.588 597.68 346.679 597.717 346.743 597.792C346.818 597.856 346.855 597.947 346.855 598.064V605.616C346.855 605.723 346.818 605.813 346.743 605.888C346.679 605.963 346.588 606 346.471 606H345.143ZM350.258 606C350.151 606 350.061 605.963 349.986 605.888C349.911 605.813 349.874 605.723 349.874 605.616V599.376H348.578C348.471 599.376 348.381 599.339 348.306 599.264C348.231 599.179 348.194 599.083 348.194 598.976V598.064C348.194 597.957 348.231 597.867 348.306 597.792C348.381 597.717 348.471 597.68 348.578 597.68H349.874V597.024C349.874 595.115 350.919 594.16 353.01 594.16H356.274C356.391 594.16 356.482 594.197 356.546 594.272C356.621 594.336 356.658 594.427 356.658 594.544V595.456C356.658 595.573 356.621 595.669 356.546 595.744C356.471 595.819 356.381 595.856 356.274 595.856H353.074C352.658 595.856 352.365 595.957 352.194 596.16C352.034 596.363 351.954 596.677 351.954 597.104V597.68H356.274C356.391 597.68 356.482 597.717 356.546 597.792C356.621 597.856 356.658 597.947 356.658 598.064V605.616C356.658 605.723 356.621 605.813 356.546 605.888C356.482 605.963 356.391 606 356.274 606H354.978C354.871 606 354.781 605.963 354.706 605.888C354.631 605.813 354.594 605.723 354.594 605.616V599.376H351.954V605.616C351.954 605.723 351.917 605.813 351.842 605.888C351.767 605.963 351.677 606 351.57 606H350.258ZM362.39 606.16C361.217 606.16 360.278 605.835 359.574 605.184C358.881 604.533 358.513 603.632 358.47 602.48L358.454 601.84L358.47 601.2C358.513 600.048 358.881 599.147 359.574 598.496C360.278 597.845 361.217 597.52 362.39 597.52C363.222 597.52 363.926 597.669 364.502 597.968C365.089 598.267 365.521 598.635 365.798 599.072C366.086 599.499 366.241 599.904 366.262 600.288C366.273 600.395 366.236 600.485 366.15 600.56C366.076 600.635 365.985 600.672 365.878 600.672H364.47C364.364 600.672 364.278 600.651 364.214 600.608C364.161 600.555 364.108 600.469 364.054 600.352C363.894 599.936 363.681 599.637 363.414 599.456C363.158 599.275 362.828 599.184 362.422 599.184C361.878 599.184 361.452 599.36 361.142 599.712C360.833 600.053 360.668 600.576 360.646 601.28L360.63 601.872L360.646 602.4C360.689 603.797 361.281 604.496 362.422 604.496C362.838 604.496 363.174 604.405 363.43 604.224C363.686 604.043 363.894 603.744 364.054 603.328C364.108 603.211 364.161 603.131 364.214 603.088C364.278 603.035 364.364 603.008 364.47 603.008H365.878C365.985 603.008 366.076 603.045 366.15 603.12C366.236 603.195 366.273 603.285 366.262 603.392C366.241 603.765 366.092 604.165 365.814 604.592C365.537 605.019 365.11 605.387 364.534 605.696C363.958 606.005 363.244 606.16 362.39 606.16ZM370.347 606.16C369.803 606.16 369.302 606.053 368.843 605.84C368.395 605.616 368.038 605.317 367.771 604.944C367.515 604.571 367.387 604.16 367.387 603.712C367.387 602.987 367.68 602.4 368.267 601.952C368.854 601.504 369.659 601.2 370.683 601.04L372.875 600.72V600.384C372.875 599.915 372.758 599.563 372.523 599.328C372.288 599.093 371.91 598.976 371.387 598.976C371.035 598.976 370.747 599.045 370.523 599.184C370.31 599.312 370.139 599.44 370.011 599.568C369.883 599.707 369.798 599.797 369.755 599.84C369.712 599.968 369.632 600.032 369.515 600.032H368.283C368.187 600.032 368.102 600 368.027 599.936C367.963 599.872 367.931 599.787 367.931 599.68C367.942 599.413 368.07 599.109 368.315 598.768C368.571 598.427 368.96 598.133 369.483 597.888C370.006 597.643 370.646 597.52 371.403 597.52C372.662 597.52 373.579 597.803 374.155 598.368C374.731 598.933 375.019 599.675 375.019 600.592V605.616C375.019 605.723 374.982 605.813 374.907 605.888C374.843 605.963 374.752 606 374.635 606H373.339C373.232 606 373.142 605.963 373.067 605.888C372.992 605.813 372.955 605.723 372.955 605.616V604.992C372.72 605.333 372.384 605.616 371.947 605.84C371.52 606.053 370.987 606.16 370.347 606.16ZM370.891 604.64C371.478 604.64 371.958 604.448 372.331 604.064C372.704 603.68 372.891 603.12 372.891 602.384V602.048L371.291 602.304C370.672 602.4 370.203 602.555 369.883 602.768C369.574 602.981 369.419 603.243 369.419 603.552C369.419 603.893 369.563 604.16 369.851 604.352C370.139 604.544 370.486 604.64 370.891 604.64ZM380.754 606C379.783 606 379.052 605.749 378.562 605.248C378.082 604.736 377.842 603.989 377.842 603.008V599.376H376.578C376.471 599.376 376.38 599.339 376.306 599.264C376.231 599.179 376.194 599.083 376.194 598.976V598.064C376.194 597.957 376.231 597.867 376.306 597.792C376.38 597.717 376.471 597.68 376.578 597.68H377.842V595.024C377.842 594.907 377.879 594.816 377.954 594.752C378.028 594.677 378.119 594.64 378.226 594.64H379.522C379.639 594.64 379.73 594.677 379.794 594.752C379.868 594.816 379.906 594.907 379.906 595.024V597.68H381.906C382.023 597.68 382.114 597.717 382.178 597.792C382.252 597.856 382.29 597.947 382.29 598.064V598.976C382.29 599.093 382.252 599.189 382.178 599.264C382.103 599.339 382.012 599.376 381.906 599.376H379.906V602.848C379.906 603.307 379.986 603.653 380.146 603.888C380.306 604.123 380.572 604.24 380.946 604.24H382.05C382.156 604.24 382.247 604.277 382.322 604.352C382.396 604.427 382.434 604.517 382.434 604.624V605.616C382.434 605.723 382.396 605.813 382.322 605.888C382.258 605.963 382.167 606 382.05 606H380.754ZM387.437 606.16C386.253 606.16 385.309 605.819 384.605 605.136C383.912 604.443 383.544 603.472 383.501 602.224L383.485 601.824L383.501 601.424C383.554 600.208 383.928 599.253 384.621 598.56C385.325 597.867 386.264 597.52 387.437 597.52C388.696 597.52 389.666 597.904 390.349 598.672C391.042 599.44 391.389 600.464 391.389 601.744V602.08C391.389 602.187 391.352 602.277 391.277 602.352C391.202 602.427 391.106 602.464 390.989 602.464H385.677V602.592C385.698 603.179 385.858 603.675 386.157 604.08C386.466 604.475 386.888 604.672 387.421 604.672C388.05 604.672 388.557 604.427 388.941 603.936C389.037 603.819 389.112 603.744 389.165 603.712C389.229 603.68 389.32 603.664 389.437 603.664H390.813C390.909 603.664 390.989 603.696 391.053 603.76C391.128 603.813 391.165 603.883 391.165 603.968C391.165 604.224 391.01 604.528 390.701 604.88C390.402 605.221 389.97 605.52 389.405 605.776C388.84 606.032 388.184 606.16 387.437 606.16ZM389.213 601.12V601.072C389.213 600.443 389.053 599.936 388.733 599.552C388.424 599.168 387.992 598.976 387.437 598.976C386.882 598.976 386.45 599.168 386.141 599.552C385.832 599.936 385.677 600.443 385.677 601.072V601.12H389.213Z" fill="#1C3554"/>
<circle cx="278" cy="601" r="16" fill="#4586D6"/>
<path fill-rule="evenodd" clip-rule="evenodd" d="M275.993 608.421L269.286 601.58L270.714 600.179L276.007 605.579L285.293 596.293L286.707 597.707L275.993 608.421Z" fill="white"/>
<path d="M81.104 662C80.9973 662 80.9067 661.963 80.832 661.888C80.7573 661.813 80.72 661.723 80.72 661.616V660.8C80.72 660.512 80.8533 660.261 81.12 660.048L83.648 657.536C84.7467 656.672 85.5093 656 85.936 655.52C86.3733 655.029 86.592 654.549 86.592 654.08C86.592 653.579 86.4533 653.184 86.176 652.896C85.9093 652.608 85.504 652.464 84.96 652.464C84.4267 652.464 84.0053 652.624 83.696 652.944C83.3867 653.253 83.1947 653.659 83.12 654.16C83.088 654.288 83.0293 654.384 82.944 654.448C82.8587 654.501 82.7627 654.528 82.656 654.528H81.232C81.136 654.528 81.056 654.496 80.992 654.432C80.928 654.368 80.896 654.293 80.896 654.208C80.9173 653.579 81.088 652.992 81.408 652.448C81.728 651.893 82.192 651.451 82.8 651.12C83.408 650.779 84.1227 650.608 84.944 650.608C85.7973 650.608 86.5173 650.757 87.104 651.056C87.7013 651.344 88.1493 651.744 88.448 652.256C88.7467 652.768 88.896 653.349 88.896 654C88.896 654.715 88.6933 655.36 88.288 655.936C87.8933 656.512 87.2853 657.131 86.464 657.792L84.192 660.096H88.752C88.8693 660.096 88.96 660.133 89.024 660.208C89.0987 660.272 89.136 660.363 89.136 660.48V661.616C89.136 661.723 89.0987 661.813 89.024 661.888C88.96 661.963 88.8693 662 88.752 662H81.104ZM95.1543 662.16C93.7356 662.16 92.6743 661.765 91.9703 660.976C91.2769 660.187 90.8983 659.152 90.8343 657.872C90.8236 657.584 90.8183 657.093 90.8183 656.4C90.8183 655.696 90.8236 655.195 90.8343 654.896C90.8876 653.637 91.2716 652.613 91.9863 651.824C92.7009 651.035 93.7569 650.64 95.1543 650.64C96.5623 650.64 97.6236 651.035 98.3383 651.824C99.0529 652.613 99.4316 653.637 99.4743 654.896C99.4956 655.195 99.5063 655.696 99.5063 656.4C99.5063 657.093 99.4956 657.584 99.4743 657.872C99.4209 659.152 99.0423 660.187 98.3383 660.976C97.6449 661.765 96.5836 662.16 95.1543 662.16ZM95.1543 660.32C95.8263 660.32 96.3276 660.101 96.6583 659.664C96.9889 659.216 97.1649 658.592 97.1863 657.792C97.2076 657.173 97.2183 656.704 97.2183 656.384C97.2183 656.032 97.2076 655.568 97.1863 654.992C97.1649 654.203 96.9889 653.584 96.6583 653.136C96.3276 652.688 95.8263 652.464 95.1543 652.464C94.4929 652.464 93.9916 652.688 93.6503 653.136C93.3196 653.584 93.1436 654.203 93.1223 654.992C93.1116 655.28 93.1063 655.744 93.1063 656.384C93.1063 657.013 93.1116 657.483 93.1223 657.792C93.1436 658.592 93.3196 659.216 93.6503 659.664C93.9916 660.101 94.4929 660.32 95.1543 660.32ZM105.71 662C105.603 662 105.513 661.963 105.438 661.888C105.363 661.813 105.326 661.723 105.326 661.616V651.2C105.326 651.083 105.358 650.987 105.422 650.912C105.497 650.837 105.593 650.8 105.71 650.8H109.854C111.155 650.8 112.174 651.104 112.91 651.712C113.657 652.32 114.03 653.184 114.03 654.304C114.03 655.083 113.838 655.739 113.454 656.272C113.081 656.795 112.558 657.173 111.886 657.408L114.222 661.488C114.254 661.552 114.27 661.611 114.27 661.664C114.27 661.76 114.233 661.84 114.158 661.904C114.094 661.968 114.019 662 113.934 662H112.478C112.307 662 112.174 661.963 112.078 661.888C111.993 661.813 111.913 661.707 111.838 661.568L109.774 657.776H107.55V661.616C107.55 661.723 107.513 661.813 107.438 661.888C107.374 661.963 107.283 662 107.166 662H105.71ZM109.806 655.968C110.446 655.968 110.926 655.824 111.246 655.536C111.577 655.248 111.742 654.832 111.742 654.288C111.742 653.744 111.577 653.323 111.246 653.024C110.926 652.725 110.446 652.576 109.806 652.576H107.55V655.968H109.806ZM119.39 662.16C118.206 662.16 117.262 661.819 116.558 661.136C115.865 660.443 115.497 659.472 115.454 658.224L115.438 657.824L115.454 657.424C115.507 656.208 115.881 655.253 116.574 654.56C117.278 653.867 118.217 653.52 119.39 653.52C120.649 653.52 121.619 653.904 122.302 654.672C122.995 655.44 123.342 656.464 123.342 657.744V658.08C123.342 658.187 123.305 658.277 123.23 658.352C123.155 658.427 123.059 658.464 122.942 658.464H117.63V658.592C117.651 659.179 117.811 659.675 118.11 660.08C118.419 660.475 118.841 660.672 119.374 660.672C120.003 660.672 120.51 660.427 120.894 659.936C120.99 659.819 121.065 659.744 121.118 659.712C121.182 659.68 121.273 659.664 121.39 659.664H122.766C122.862 659.664 122.942 659.696 123.006 659.76C123.081 659.813 123.118 659.883 123.118 659.968C123.118 660.224 122.963 660.528 122.654 660.88C122.355 661.221 121.923 661.52 121.358 661.776C120.793 662.032 120.137 662.16 119.39 662.16ZM121.166 657.12V657.072C121.166 656.443 121.006 655.936 120.686 655.552C120.377 655.168 119.945 654.976 119.39 654.976C118.835 654.976 118.403 655.168 118.094 655.552C117.785 655.936 117.63 656.443 117.63 657.072V657.12H121.166ZM128.192 662.16C127.392 662.16 126.72 662.043 126.176 661.808C125.632 661.563 125.227 661.28 124.96 660.96C124.704 660.629 124.576 660.347 124.576 660.112C124.576 660.005 124.614 659.92 124.688 659.856C124.763 659.792 124.848 659.76 124.944 659.76H126.208C126.304 659.76 126.384 659.797 126.448 659.872C126.491 659.904 126.603 660 126.784 660.16C126.966 660.331 127.179 660.464 127.424 660.56C127.67 660.656 127.942 660.704 128.24 660.704C128.667 660.704 129.019 660.619 129.296 660.448C129.574 660.277 129.712 660.043 129.712 659.744C129.712 659.52 129.648 659.339 129.52 659.2C129.403 659.061 129.184 658.939 128.864 658.832C128.544 658.715 128.07 658.592 127.44 658.464C126.534 658.272 125.862 657.979 125.424 657.584C124.998 657.189 124.784 656.667 124.784 656.016C124.784 655.589 124.912 655.189 125.168 654.816C125.424 654.432 125.803 654.123 126.304 653.888C126.816 653.643 127.424 653.52 128.128 653.52C128.843 653.52 129.462 653.637 129.984 653.872C130.507 654.096 130.902 654.368 131.168 654.688C131.446 654.997 131.584 655.275 131.584 655.52C131.584 655.616 131.547 655.701 131.472 655.776C131.408 655.84 131.328 655.872 131.232 655.872H130.048C129.963 655.872 129.872 655.835 129.776 655.76C129.702 655.707 129.584 655.605 129.424 655.456C129.264 655.307 129.078 655.189 128.864 655.104C128.651 655.019 128.4 654.976 128.112 654.976C127.718 654.976 127.408 655.061 127.184 655.232C126.971 655.403 126.864 655.627 126.864 655.904C126.864 656.107 126.918 656.272 127.024 656.4C127.131 656.528 127.339 656.651 127.648 656.768C127.958 656.885 128.422 657.003 129.04 657.12C130.064 657.323 130.795 657.637 131.232 658.064C131.68 658.491 131.904 659.013 131.904 659.632C131.904 660.379 131.579 660.987 130.928 661.456C130.278 661.925 129.366 662.16 128.192 662.16ZM137.236 662.16C135.988 662.16 135.023 661.84 134.34 661.2C133.657 660.549 133.289 659.664 133.236 658.544L133.22 657.84L133.236 657.136C133.289 656.027 133.663 655.147 134.356 654.496C135.049 653.845 136.009 653.52 137.236 653.52C138.463 653.52 139.423 653.845 140.116 654.496C140.809 655.147 141.183 656.027 141.236 657.136C141.247 657.264 141.252 657.499 141.252 657.84C141.252 658.181 141.247 658.416 141.236 658.544C141.183 659.664 140.815 660.549 140.132 661.2C139.449 661.84 138.484 662.16 137.236 662.16ZM137.236 660.576C137.801 660.576 138.239 660.4 138.548 660.048C138.857 659.685 139.028 659.157 139.06 658.464C139.071 658.357 139.076 658.149 139.076 657.84C139.076 657.531 139.071 657.323 139.06 657.216C139.028 656.523 138.857 656 138.548 655.648C138.239 655.285 137.801 655.104 137.236 655.104C136.671 655.104 136.233 655.285 135.924 655.648C135.615 656 135.444 656.523 135.412 657.216L135.396 657.84L135.412 658.464C135.444 659.157 135.615 659.685 135.924 660.048C136.233 660.4 136.671 660.576 137.236 660.576ZM146.113 662.16C145.131 662.16 144.358 661.84 143.793 661.2C143.227 660.549 142.945 659.669 142.945 658.56V654.064C142.945 653.957 142.982 653.867 143.057 653.792C143.131 653.717 143.222 653.68 143.329 653.68H144.737C144.854 653.68 144.945 653.717 145.009 653.792C145.083 653.856 145.121 653.947 145.121 654.064V658.464C145.121 659.787 145.702 660.448 146.865 660.448C147.419 660.448 147.857 660.272 148.177 659.92C148.507 659.568 148.673 659.083 148.673 658.464V654.064C148.673 653.957 148.71 653.867 148.785 653.792C148.859 653.717 148.95 653.68 149.057 653.68H150.465C150.582 653.68 150.673 653.717 150.737 653.792C150.811 653.856 150.849 653.947 150.849 654.064V661.616C150.849 661.723 150.811 661.813 150.737 661.888C150.673 661.963 150.582 662 150.465 662H149.169C149.062 662 148.971 661.963 148.897 661.888C148.822 661.813 148.785 661.723 148.785 661.616V660.96C148.187 661.76 147.297 662.16 146.113 662.16ZM153.346 662C153.24 662 153.149 661.963 153.074 661.888C153 661.813 152.962 661.723 152.962 661.616V654.08C152.962 653.973 153 653.883 153.074 653.808C153.149 653.723 153.24 653.68 153.346 653.68H154.642C154.76 653.68 154.856 653.717 154.93 653.792C155.005 653.867 155.042 653.963 155.042 654.08V654.736C155.298 654.395 155.618 654.133 156.002 653.952C156.397 653.771 156.845 653.68 157.346 653.68H158.002C158.12 653.68 158.21 653.717 158.274 653.792C158.349 653.856 158.386 653.947 158.386 654.064V655.216C158.386 655.323 158.349 655.413 158.274 655.488C158.21 655.563 158.12 655.6 158.002 655.6H156.754C156.253 655.6 155.858 655.744 155.57 656.032C155.282 656.32 155.138 656.715 155.138 657.216V661.616C155.138 661.723 155.101 661.813 155.026 661.888C154.952 661.963 154.856 662 154.738 662H153.346ZM163.125 662.16C161.951 662.16 161.013 661.835 160.309 661.184C159.615 660.533 159.247 659.632 159.205 658.48L159.189 657.84L159.205 657.2C159.247 656.048 159.615 655.147 160.309 654.496C161.013 653.845 161.951 653.52 163.125 653.52C163.957 653.52 164.661 653.669 165.237 653.968C165.823 654.267 166.255 654.635 166.533 655.072C166.821 655.499 166.975 655.904 166.997 656.288C167.007 656.395 166.97 656.485 166.885 656.56C166.81 656.635 166.719 656.672 166.613 656.672H165.205C165.098 656.672 165.013 656.651 164.949 656.608C164.895 656.555 164.842 656.469 164.789 656.352C164.629 655.936 164.415 655.637 164.149 655.456C163.893 655.275 163.562 655.184 163.157 655.184C162.613 655.184 162.186 655.36 161.877 655.712C161.567 656.053 161.402 656.576 161.381 657.28L161.365 657.872L161.381 658.4C161.423 659.797 162.015 660.496 163.157 660.496C163.573 660.496 163.909 660.405 164.165 660.224C164.421 660.043 164.629 659.744 164.789 659.328C164.842 659.211 164.895 659.131 164.949 659.088C165.013 659.035 165.098 659.008 165.205 659.008H166.613C166.719 659.008 166.81 659.045 166.885 659.12C166.97 659.195 167.007 659.285 166.997 659.392C166.975 659.765 166.826 660.165 166.549 660.592C166.271 661.019 165.845 661.387 165.269 661.696C164.693 662.005 163.978 662.16 163.125 662.16ZM172.249 662.16C171.065 662.16 170.121 661.819 169.417 661.136C168.724 660.443 168.356 659.472 168.313 658.224L168.297 657.824L168.313 657.424C168.367 656.208 168.74 655.253 169.433 654.56C170.137 653.867 171.076 653.52 172.249 653.52C173.508 653.52 174.479 653.904 175.161 654.672C175.855 655.44 176.201 656.464 176.201 657.744V658.08C176.201 658.187 176.164 658.277 176.089 658.352C176.015 658.427 175.919 658.464 175.801 658.464H170.489V658.592C170.511 659.179 170.671 659.675 170.969 660.08C171.279 660.475 171.7 660.672 172.233 660.672C172.863 660.672 173.369 660.427 173.753 659.936C173.849 659.819 173.924 659.744 173.977 659.712C174.041 659.68 174.132 659.664 174.249 659.664H175.625C175.721 659.664 175.801 659.696 175.865 659.76C175.94 659.813 175.977 659.883 175.977 659.968C175.977 660.224 175.823 660.528 175.513 660.88C175.215 661.221 174.783 661.52 174.217 661.776C173.652 662.032 172.996 662.16 172.249 662.16ZM174.025 657.12V657.072C174.025 656.443 173.865 655.936 173.545 655.552C173.236 655.168 172.804 654.976 172.249 654.976C171.695 654.976 171.263 655.168 170.953 655.552C170.644 655.936 170.489 656.443 170.489 657.072V657.12H174.025ZM181.052 662.16C180.252 662.16 179.58 662.043 179.036 661.808C178.492 661.563 178.086 661.28 177.82 660.96C177.564 660.629 177.436 660.347 177.436 660.112C177.436 660.005 177.473 659.92 177.548 659.856C177.622 659.792 177.708 659.76 177.804 659.76H179.068C179.164 659.76 179.244 659.797 179.308 659.872C179.35 659.904 179.462 660 179.644 660.16C179.825 660.331 180.038 660.464 180.284 660.56C180.529 660.656 180.801 660.704 181.1 660.704C181.526 660.704 181.878 660.619 182.156 660.448C182.433 660.277 182.572 660.043 182.572 659.744C182.572 659.52 182.508 659.339 182.38 659.2C182.262 659.061 182.044 658.939 181.724 658.832C181.404 658.715 180.929 658.592 180.3 658.464C179.393 658.272 178.721 657.979 178.284 657.584C177.857 657.189 177.644 656.667 177.644 656.016C177.644 655.589 177.772 655.189 178.028 654.816C178.284 654.432 178.662 654.123 179.164 653.888C179.676 653.643 180.284 653.52 180.988 653.52C181.702 653.52 182.321 653.637 182.844 653.872C183.366 654.096 183.761 654.368 184.028 654.688C184.305 654.997 184.444 655.275 184.444 655.52C184.444 655.616 184.406 655.701 184.332 655.776C184.268 655.84 184.188 655.872 184.092 655.872H182.908C182.822 655.872 182.732 655.835 182.636 655.76C182.561 655.707 182.444 655.605 182.284 655.456C182.124 655.307 181.937 655.189 181.724 655.104C181.51 655.019 181.26 654.976 180.972 654.976C180.577 654.976 180.268 655.061 180.044 655.232C179.83 655.403 179.724 655.627 179.724 655.904C179.724 656.107 179.777 656.272 179.884 656.4C179.99 656.528 180.198 656.651 180.508 656.768C180.817 656.885 181.281 657.003 181.9 657.12C182.924 657.323 183.654 657.637 184.092 658.064C184.54 658.491 184.764 659.013 184.764 659.632C184.764 660.379 184.438 660.987 183.788 661.456C183.137 661.925 182.225 662.16 181.052 662.16Z" fill="#1C3554"/>
<circle cx="48" cy="657" r="16" fill="#4586D6"/>
<path fill-rule="evenodd" clip-rule="evenodd" d="M45.993 664.421L39.286 657.58L40.714 656.179L46.007 661.579L55.293 652.293L56.707 653.707L45.993 664.421Z" fill="white"/>
<path d="M81.632 606C81.5253 606 81.4347 605.963 81.36 605.888C81.2853 605.813 81.248 605.723 81.248 605.616V595.2C81.248 595.083 81.28 594.987 81.344 594.912C81.4187 594.837 81.5147 594.8 81.632 594.8H88.576C88.6933 594.8 88.7893 594.837 88.864 594.912C88.9387 594.987 88.976 595.083 88.976 595.2V596.32C88.976 596.437 88.9387 596.533 88.864 596.608C88.7893 596.672 88.6933 596.704 88.576 596.704H83.44V599.744H88.256C88.3733 599.744 88.4693 599.781 88.544 599.856C88.6187 599.931 88.656 600.027 88.656 600.144V601.264C88.656 601.381 88.6187 601.477 88.544 601.552C88.4693 601.616 88.3733 601.648 88.256 601.648H83.44V605.616C83.44 605.733 83.4027 605.829 83.328 605.904C83.2533 605.968 83.1573 606 83.04 606H81.632ZM93.6284 606.16C92.647 606.16 91.8737 605.84 91.3084 605.2C90.743 604.549 90.4604 603.669 90.4604 602.56V598.064C90.4604 597.957 90.4977 597.867 90.5724 597.792C90.647 597.717 90.7377 597.68 90.8444 597.68H92.2524C92.3697 597.68 92.4604 597.717 92.5244 597.792C92.599 597.856 92.6364 597.947 92.6364 598.064V602.464C92.6364 603.787 93.2177 604.448 94.3804 604.448C94.935 604.448 95.3724 604.272 95.6924 603.92C96.023 603.568 96.1884 603.083 96.1884 602.464V598.064C96.1884 597.957 96.2257 597.867 96.3004 597.792C96.375 597.717 96.4657 597.68 96.5724 597.68H97.9804C98.0977 597.68 98.1884 597.717 98.2524 597.792C98.327 597.856 98.3644 597.947 98.3644 598.064V605.616C98.3644 605.723 98.327 605.813 98.2524 605.888C98.1884 605.963 98.0977 606 97.9804 606H96.6844C96.5777 606 96.487 605.963 96.4124 605.888C96.3377 605.813 96.3004 605.723 96.3004 605.616V604.96C95.703 605.76 94.8124 606.16 93.6284 606.16ZM100.878 606C100.771 606 100.681 605.963 100.606 605.888C100.531 605.813 100.494 605.723 100.494 605.616V595.024C100.494 594.907 100.531 594.816 100.606 594.752C100.681 594.677 100.771 594.64 100.878 594.64H102.206C102.323 594.64 102.414 594.677 102.478 594.752C102.553 594.816 102.59 594.907 102.59 595.024V605.616C102.59 605.723 102.553 605.813 102.478 605.888C102.414 605.963 102.323 606 102.206 606H100.878ZM105.112 606C105.006 606 104.915 605.963 104.84 605.888C104.766 605.813 104.728 605.723 104.728 605.616V595.024C104.728 594.907 104.766 594.816 104.84 594.752C104.915 594.677 105.006 594.64 105.112 594.64H106.44C106.558 594.64 106.648 594.677 106.712 594.752C106.787 594.816 106.824 594.907 106.824 595.024V605.616C106.824 605.723 106.787 605.813 106.712 605.888C106.648 605.963 106.558 606 106.44 606H105.112ZM115.252 606C115.146 606 115.055 605.963 114.98 605.888C114.906 605.813 114.868 605.723 114.868 605.616V596.768H111.908C111.802 596.768 111.711 596.731 111.636 596.656C111.562 596.581 111.524 596.491 111.524 596.384V595.2C111.524 595.083 111.556 594.987 111.62 594.912C111.695 594.837 111.791 594.8 111.908 594.8H120.068C120.186 594.8 120.282 594.837 120.356 594.912C120.431 594.987 120.468 595.083 120.468 595.2V596.384C120.468 596.491 120.431 596.581 120.356 596.656C120.282 596.731 120.186 596.768 120.068 596.768H117.124V605.616C117.124 605.723 117.087 605.813 117.012 605.888C116.938 605.963 116.842 606 116.724 606H115.252ZM122.126 596.304C122.019 596.304 121.929 596.267 121.854 596.192C121.779 596.117 121.742 596.027 121.742 595.92V594.768C121.742 594.661 121.779 594.571 121.854 594.496C121.929 594.421 122.019 594.384 122.126 594.384H123.582C123.689 594.384 123.779 594.421 123.854 594.496C123.939 594.571 123.982 594.661 123.982 594.768V595.92C123.982 596.027 123.945 596.117 123.87 596.192C123.795 596.267 123.699 596.304 123.582 596.304H122.126ZM122.19 606C122.083 606 121.993 605.963 121.918 605.888C121.843 605.813 121.806 605.723 121.806 605.616V598.064C121.806 597.957 121.843 597.867 121.918 597.792C121.993 597.717 122.083 597.68 122.19 597.68H123.518C123.635 597.68 123.726 597.717 123.79 597.792C123.865 597.856 123.902 597.947 123.902 598.064V605.616C123.902 605.723 123.865 605.813 123.79 605.888C123.726 605.963 123.635 606 123.518 606H122.19ZM126.409 606C126.302 606 126.211 605.963 126.137 605.888C126.062 605.813 126.025 605.723 126.025 605.616V598.064C126.025 597.957 126.062 597.867 126.137 597.792C126.211 597.717 126.302 597.68 126.409 597.68H127.657C127.763 597.68 127.854 597.717 127.929 597.792C128.003 597.867 128.041 597.957 128.041 598.064V598.608C128.595 597.883 129.369 597.52 130.361 597.52C131.545 597.52 132.371 597.995 132.841 598.944C133.097 598.517 133.459 598.176 133.929 597.92C134.398 597.653 134.905 597.52 135.449 597.52C136.323 597.52 137.038 597.819 137.593 598.416C138.147 599.013 138.425 599.883 138.425 601.024V605.616C138.425 605.723 138.387 605.813 138.313 605.888C138.249 605.963 138.158 606 138.041 606H136.729C136.622 606 136.531 605.963 136.457 605.888C136.382 605.813 136.345 605.723 136.345 605.616V601.152C136.345 600.48 136.201 599.995 135.913 599.696C135.635 599.387 135.262 599.232 134.793 599.232C134.377 599.232 134.019 599.387 133.721 599.696C133.433 600.005 133.289 600.491 133.289 601.152V605.616C133.289 605.723 133.251 605.813 133.177 605.888C133.102 605.963 133.011 606 132.905 606H131.593C131.486 606 131.395 605.963 131.321 605.888C131.246 605.813 131.209 605.723 131.209 605.616V601.152C131.209 600.48 131.059 599.995 130.761 599.696C130.473 599.387 130.105 599.232 129.657 599.232C129.23 599.232 128.867 599.387 128.569 599.696C128.281 600.005 128.137 600.491 128.137 601.152V605.616C128.137 605.723 128.099 605.813 128.025 605.888C127.95 605.963 127.859 606 127.753 606H126.409ZM144.046 606.16C142.862 606.16 141.918 605.819 141.214 605.136C140.521 604.443 140.153 603.472 140.11 602.224L140.094 601.824L140.11 601.424C140.164 600.208 140.537 599.253 141.23 598.56C141.934 597.867 142.873 597.52 144.046 597.52C145.305 597.52 146.276 597.904 146.958 598.672C147.652 599.44 147.998 600.464 147.998 601.744V602.08C147.998 602.187 147.961 602.277 147.886 602.352C147.812 602.427 147.716 602.464 147.598 602.464H142.286V602.592C142.308 603.179 142.468 603.675 142.766 604.08C143.076 604.475 143.497 604.672 144.03 604.672C144.66 604.672 145.166 604.427 145.55 603.936C145.646 603.819 145.721 603.744 145.774 603.712C145.838 603.68 145.929 603.664 146.046 603.664H147.422C147.518 603.664 147.598 603.696 147.662 603.76C147.737 603.813 147.774 603.883 147.774 603.968C147.774 604.224 147.62 604.528 147.31 604.88C147.012 605.221 146.58 605.52 146.014 605.776C145.449 606.032 144.793 606.16 144.046 606.16ZM145.822 601.12V601.072C145.822 600.443 145.662 599.936 145.342 599.552C145.033 599.168 144.601 598.976 144.046 598.976C143.492 598.976 143.06 599.168 142.75 599.552C142.441 599.936 142.286 600.443 142.286 601.072V601.12H145.822ZM152.435 606C152.35 606 152.27 605.968 152.195 605.904C152.131 605.84 152.099 605.76 152.099 605.664L152.131 605.52L155.987 595.2C156.062 594.933 156.248 594.8 156.547 594.8H158.291C158.568 594.8 158.755 594.933 158.851 595.2L162.707 605.52C162.718 605.552 162.723 605.6 162.723 605.664C162.723 605.76 162.691 605.84 162.627 605.904C162.563 605.968 162.488 606 162.403 606H161.011C160.872 606 160.766 605.968 160.691 605.904C160.616 605.84 160.568 605.771 160.547 605.696L159.795 603.744H155.043L154.291 605.696C154.206 605.899 154.051 606 153.827 606H152.435ZM159.235 601.904L157.411 596.96L155.603 601.904H159.235ZM167.531 606.16C166.358 606.16 165.419 605.835 164.715 605.184C164.022 604.533 163.654 603.632 163.611 602.48L163.595 601.84L163.611 601.2C163.654 600.048 164.022 599.147 164.715 598.496C165.419 597.845 166.358 597.52 167.531 597.52C168.363 597.52 169.067 597.669 169.643 597.968C170.23 598.267 170.662 598.635 170.939 599.072C171.227 599.499 171.382 599.904 171.403 600.288C171.414 600.395 171.376 600.485 171.291 600.56C171.216 600.635 171.126 600.672 171.019 600.672H169.611C169.504 600.672 169.419 600.651 169.355 600.608C169.302 600.555 169.248 600.469 169.195 600.352C169.035 599.936 168.822 599.637 168.555 599.456C168.299 599.275 167.968 599.184 167.563 599.184C167.019 599.184 166.592 599.36 166.283 599.712C165.974 600.053 165.808 600.576 165.787 601.28L165.771 601.872L165.787 602.4C165.83 603.797 166.422 604.496 167.563 604.496C167.979 604.496 168.315 604.405 168.571 604.224C168.827 604.043 169.035 603.744 169.195 603.328C169.248 603.211 169.302 603.131 169.355 603.088C169.419 603.035 169.504 603.008 169.611 603.008H171.019C171.126 603.008 171.216 603.045 171.291 603.12C171.376 603.195 171.414 603.285 171.403 603.392C171.382 603.765 171.232 604.165 170.955 604.592C170.678 605.019 170.251 605.387 169.675 605.696C169.099 606.005 168.384 606.16 167.531 606.16ZM176.672 606.16C175.498 606.16 174.56 605.835 173.856 605.184C173.162 604.533 172.794 603.632 172.752 602.48L172.736 601.84L172.752 601.2C172.794 600.048 173.162 599.147 173.856 598.496C174.56 597.845 175.498 597.52 176.672 597.52C177.504 597.52 178.208 597.669 178.784 597.968C179.37 598.267 179.802 598.635 180.08 599.072C180.368 599.499 180.522 599.904 180.544 600.288C180.554 600.395 180.517 600.485 180.432 600.56C180.357 600.635 180.266 600.672 180.16 600.672H178.752C178.645 600.672 178.56 600.651 178.496 600.608C178.442 600.555 178.389 600.469 178.336 600.352C178.176 599.936 177.962 599.637 177.696 599.456C177.44 599.275 177.109 599.184 176.704 599.184C176.16 599.184 175.733 599.36 175.424 599.712C175.114 600.053 174.949 600.576 174.928 601.28L174.912 601.872L174.928 602.4C174.97 603.797 175.562 604.496 176.704 604.496C177.12 604.496 177.456 604.405 177.712 604.224C177.968 604.043 178.176 603.744 178.336 603.328C178.389 603.211 178.442 603.131 178.496 603.088C178.56 603.035 178.645 603.008 178.752 603.008H180.16C180.266 603.008 180.357 603.045 180.432 603.12C180.517 603.195 180.554 603.285 180.544 603.392C180.522 603.765 180.373 604.165 180.096 604.592C179.818 605.019 179.392 605.387 178.816 605.696C178.24 606.005 177.525 606.16 176.672 606.16ZM185.796 606.16C184.612 606.16 183.668 605.819 182.964 605.136C182.271 604.443 181.903 603.472 181.86 602.224L181.844 601.824L181.86 601.424C181.914 600.208 182.287 599.253 182.98 598.56C183.684 597.867 184.623 597.52 185.796 597.52C187.055 597.52 188.026 597.904 188.708 598.672C189.402 599.44 189.748 600.464 189.748 601.744V602.08C189.748 602.187 189.711 602.277 189.636 602.352C189.562 602.427 189.466 602.464 189.348 602.464H184.036V602.592C184.058 603.179 184.218 603.675 184.516 604.08C184.826 604.475 185.247 604.672 185.78 604.672C186.41 604.672 186.916 604.427 187.3 603.936C187.396 603.819 187.471 603.744 187.524 603.712C187.588 603.68 187.679 603.664 187.796 603.664H189.172C189.268 603.664 189.348 603.696 189.412 603.76C189.487 603.813 189.524 603.883 189.524 603.968C189.524 604.224 189.37 604.528 189.06 604.88C188.762 605.221 188.33 605.52 187.764 605.776C187.199 606.032 186.543 606.16 185.796 606.16ZM187.572 601.12V601.072C187.572 600.443 187.412 599.936 187.092 599.552C186.783 599.168 186.351 598.976 185.796 598.976C185.242 598.976 184.81 599.168 184.5 599.552C184.191 599.936 184.036 600.443 184.036 601.072V601.12H187.572ZM194.599 606.16C193.799 606.16 193.127 606.043 192.583 605.808C192.039 605.563 191.633 605.28 191.367 604.96C191.111 604.629 190.983 604.347 190.983 604.112C190.983 604.005 191.02 603.92 191.095 603.856C191.169 603.792 191.255 603.76 191.351 603.76H192.615C192.711 603.76 192.791 603.797 192.855 603.872C192.897 603.904 193.009 604 193.191 604.16C193.372 604.331 193.585 604.464 193.831 604.56C194.076 604.656 194.348 604.704 194.647 604.704C195.073 604.704 195.425 604.619 195.703 604.448C195.98 604.277 196.119 604.043 196.119 603.744C196.119 603.52 196.055 603.339 195.927 603.2C195.809 603.061 195.591 602.939 195.271 602.832C194.951 602.715 194.476 602.592 193.847 602.464C192.94 602.272 192.268 601.979 191.831 601.584C191.404 601.189 191.191 600.667 191.191 600.016C191.191 599.589 191.319 599.189 191.575 598.816C191.831 598.432 192.209 598.123 192.711 597.888C193.223 597.643 193.831 597.52 194.535 597.52C195.249 597.52 195.868 597.637 196.391 597.872C196.913 598.096 197.308 598.368 197.575 598.688C197.852 598.997 197.991 599.275 197.991 599.52C197.991 599.616 197.953 599.701 197.879 599.776C197.815 599.84 197.735 599.872 197.639 599.872H196.455C196.369 599.872 196.279 599.835 196.183 599.76C196.108 599.707 195.991 599.605 195.831 599.456C195.671 599.307 195.484 599.189 195.271 599.104C195.057 599.019 194.807 598.976 194.519 598.976C194.124 598.976 193.815 599.061 193.591 599.232C193.377 599.403 193.271 599.627 193.271 599.904C193.271 600.107 193.324 600.272 193.431 600.4C193.537 600.528 193.745 600.651 194.055 600.768C194.364 600.885 194.828 601.003 195.447 601.12C196.471 601.323 197.201 601.637 197.639 602.064C198.087 602.491 198.311 603.013 198.311 603.632C198.311 604.379 197.985 604.987 197.335 605.456C196.684 605.925 195.772 606.16 194.599 606.16ZM203.114 606.16C202.314 606.16 201.642 606.043 201.098 605.808C200.554 605.563 200.149 605.28 199.882 604.96C199.626 604.629 199.498 604.347 199.498 604.112C199.498 604.005 199.536 603.92 199.61 603.856C199.685 603.792 199.77 603.76 199.866 603.76H201.13C201.226 603.76 201.306 603.797 201.37 603.872C201.413 603.904 201.525 604 201.706 604.16C201.888 604.331 202.101 604.464 202.346 604.56C202.592 604.656 202.864 604.704 203.162 604.704C203.589 604.704 203.941 604.619 204.218 604.448C204.496 604.277 204.634 604.043 204.634 603.744C204.634 603.52 204.57 603.339 204.442 603.2C204.325 603.061 204.106 602.939 203.786 602.832C203.466 602.715 202.992 602.592 202.362 602.464C201.456 602.272 200.784 601.979 200.346 601.584C199.92 601.189 199.706 600.667 199.706 600.016C199.706 599.589 199.834 599.189 200.09 598.816C200.346 598.432 200.725 598.123 201.226 597.888C201.738 597.643 202.346 597.52 203.05 597.52C203.765 597.52 204.384 597.637 204.906 597.872C205.429 598.096 205.824 598.368 206.09 598.688C206.368 598.997 206.506 599.275 206.506 599.52C206.506 599.616 206.469 599.701 206.394 599.776C206.33 599.84 206.25 599.872 206.154 599.872H204.97C204.885 599.872 204.794 599.835 204.698 599.76C204.624 599.707 204.506 599.605 204.346 599.456C204.186 599.307 204 599.189 203.786 599.104C203.573 599.019 203.322 598.976 203.034 598.976C202.64 598.976 202.33 599.061 202.106 599.232C201.893 599.403 201.786 599.627 201.786 599.904C201.786 600.107 201.84 600.272 201.946 600.4C202.053 600.528 202.261 600.651 202.57 600.768C202.88 600.885 203.344 601.003 203.962 601.12C204.986 601.323 205.717 601.637 206.154 602.064C206.602 602.491 206.826 603.013 206.826 603.632C206.826 604.379 206.501 604.987 205.85 605.456C205.2 605.925 204.288 606.16 203.114 606.16Z" fill="#1C3554"/>
<circle cx="48" cy="601" r="16" fill="#4586D6"/>
<path fill-rule="evenodd" clip-rule="evenodd" d="M45.993 608.421L39.286 601.58L40.714 600.179L46.007 605.579L55.293 596.293L56.707 597.707L45.993 608.421Z" fill="white"/>
<path d="M81.104 550C80.9973 550 80.9067 549.963 80.832 549.888C80.7573 549.813 80.72 549.723 80.72 549.616V548.8C80.72 548.512 80.8533 548.261 81.12 548.048L83.648 545.536C84.7467 544.672 85.5093 544 85.936 543.52C86.3733 543.029 86.592 542.549 86.592 542.08C86.592 541.579 86.4533 541.184 86.176 540.896C85.9093 540.608 85.504 540.464 84.96 540.464C84.4267 540.464 84.0053 540.624 83.696 540.944C83.3867 541.253 83.1947 541.659 83.12 542.16C83.088 542.288 83.0293 542.384 82.944 542.448C82.8587 542.501 82.7627 542.528 82.656 542.528H81.232C81.136 542.528 81.056 542.496 80.992 542.432C80.928 542.368 80.896 542.293 80.896 542.208C80.9173 541.579 81.088 540.992 81.408 540.448C81.728 539.893 82.192 539.451 82.8 539.12C83.408 538.779 84.1227 538.608 84.944 538.608C85.7973 538.608 86.5173 538.757 87.104 539.056C87.7013 539.344 88.1493 539.744 88.448 540.256C88.7467 540.768 88.896 541.349 88.896 542C88.896 542.715 88.6933 543.36 88.288 543.936C87.8933 544.512 87.2853 545.131 86.464 545.792L84.192 548.096H88.752C88.8693 548.096 88.96 548.133 89.024 548.208C89.0987 548.272 89.136 548.363 89.136 548.48V549.616C89.136 549.723 89.0987 549.813 89.024 549.888C88.96 549.963 88.8693 550 88.752 550H81.104ZM96.1169 550C96.0102 550 95.9195 549.963 95.8449 549.888C95.7702 549.813 95.7329 549.723 95.7329 549.616V547.568H90.6609C90.5542 547.568 90.4635 547.531 90.3889 547.456C90.3142 547.381 90.2769 547.291 90.2769 547.184V546.096C90.2769 545.925 90.3355 545.765 90.4529 545.616L95.1729 539.072C95.2262 538.987 95.3062 538.923 95.4129 538.88C95.5195 538.827 95.6369 538.8 95.7649 538.8H97.5089C97.6262 538.8 97.7169 538.837 97.7809 538.912C97.8555 538.976 97.8929 539.067 97.8929 539.184V545.68H99.3169C99.4342 545.68 99.5302 545.717 99.6049 545.792C99.6795 545.856 99.7169 545.947 99.7169 546.064V547.184C99.7169 547.291 99.6795 547.381 99.6049 547.456C99.5302 547.531 99.4395 547.568 99.3329 547.568H97.8929V549.616C97.8929 549.723 97.8555 549.813 97.7809 549.888C97.7169 549.963 97.6262 550 97.5089 550H96.1169ZM95.7809 545.744V541.12L92.5009 545.744H95.7809ZM105.539 550C105.421 550 105.325 549.968 105.251 549.904C105.176 549.829 105.139 549.733 105.139 549.616V539.2C105.139 539.083 105.176 538.987 105.251 538.912C105.325 538.837 105.421 538.8 105.539 538.8H106.803C107.027 538.8 107.187 538.901 107.283 539.104L110.371 544.864L113.491 539.104C113.597 538.901 113.757 538.8 113.971 538.8H115.219C115.336 538.8 115.432 538.837 115.507 538.912C115.581 538.987 115.619 539.083 115.619 539.2V549.616C115.619 549.733 115.581 549.829 115.507 549.904C115.432 549.968 115.336 550 115.219 550H113.875C113.768 550 113.677 549.963 113.603 549.888C113.528 549.813 113.491 549.723 113.491 549.616V542.688L111.251 546.96C111.112 547.195 110.931 547.312 110.707 547.312H110.051C109.827 547.312 109.645 547.195 109.507 546.96L107.267 542.688V549.616C107.267 549.723 107.229 549.813 107.155 549.888C107.091 549.963 107 550 106.883 550H105.539ZM121.595 550.16C120.347 550.16 119.382 549.84 118.699 549.2C118.017 548.549 117.649 547.664 117.595 546.544L117.579 545.84L117.595 545.136C117.649 544.027 118.022 543.147 118.715 542.496C119.409 541.845 120.369 541.52 121.595 541.52C122.822 541.52 123.782 541.845 124.475 542.496C125.169 543.147 125.542 544.027 125.595 545.136C125.606 545.264 125.611 545.499 125.611 545.84C125.611 546.181 125.606 546.416 125.595 546.544C125.542 547.664 125.174 548.549 124.491 549.2C123.809 549.84 122.843 550.16 121.595 550.16ZM121.595 548.576C122.161 548.576 122.598 548.4 122.907 548.048C123.217 547.685 123.387 547.157 123.419 546.464C123.43 546.357 123.435 546.149 123.435 545.84C123.435 545.531 123.43 545.323 123.419 545.216C123.387 544.523 123.217 544 122.907 543.648C122.598 543.285 122.161 543.104 121.595 543.104C121.03 543.104 120.593 543.285 120.283 543.648C119.974 544 119.803 544.523 119.771 545.216L119.755 545.84L119.771 546.464C119.803 547.157 119.974 547.685 120.283 548.048C120.593 548.4 121.03 548.576 121.595 548.576ZM130.472 550.16C129.395 550.16 128.568 549.813 127.992 549.12C127.416 548.427 127.107 547.504 127.064 546.352L127.048 545.824L127.064 545.312C127.096 544.192 127.4 543.28 127.976 542.576C128.563 541.872 129.395 541.52 130.472 541.52C131.507 541.52 132.328 541.872 132.936 542.576V539.024C132.936 538.907 132.973 538.816 133.048 538.752C133.123 538.677 133.213 538.64 133.32 538.64H134.68C134.797 538.64 134.888 538.677 134.952 538.752C135.027 538.816 135.064 538.907 135.064 539.024V549.616C135.064 549.723 135.027 549.813 134.952 549.888C134.888 549.963 134.797 550 134.68 550H133.416C133.309 550 133.219 549.963 133.144 549.888C133.069 549.813 133.032 549.723 133.032 549.616V549.024C132.424 549.781 131.571 550.16 130.472 550.16ZM131.064 548.448C131.683 548.448 132.141 548.251 132.44 547.856C132.739 547.461 132.904 546.976 132.936 546.4C132.947 546.272 132.952 546.064 132.952 545.776C132.952 545.499 132.947 545.296 132.936 545.168C132.915 544.635 132.744 544.181 132.424 543.808C132.115 543.424 131.661 543.232 131.064 543.232C129.912 543.232 129.299 543.941 129.224 545.36L129.208 545.84L129.224 546.32C129.299 547.739 129.912 548.448 131.064 548.448ZM140.285 550.16C139.303 550.16 138.53 549.84 137.965 549.2C137.399 548.549 137.117 547.669 137.117 546.56V542.064C137.117 541.957 137.154 541.867 137.229 541.792C137.303 541.717 137.394 541.68 137.501 541.68H138.909C139.026 541.68 139.117 541.717 139.181 541.792C139.255 541.856 139.293 541.947 139.293 542.064V546.464C139.293 547.787 139.874 548.448 141.037 548.448C141.591 548.448 142.029 548.272 142.349 547.92C142.679 547.568 142.845 547.083 142.845 546.464V542.064C142.845 541.957 142.882 541.867 142.957 541.792C143.031 541.717 143.122 541.68 143.229 541.68H144.637C144.754 541.68 144.845 541.717 144.909 541.792C144.983 541.856 145.021 541.947 145.021 542.064V549.616C145.021 549.723 144.983 549.813 144.909 549.888C144.845 549.963 144.754 550 144.637 550H143.341C143.234 550 143.143 549.963 143.069 549.888C142.994 549.813 142.957 549.723 142.957 549.616V548.96C142.359 549.76 141.469 550.16 140.285 550.16ZM147.534 550C147.427 550 147.337 549.963 147.262 549.888C147.187 549.813 147.15 549.723 147.15 549.616V539.024C147.15 538.907 147.187 538.816 147.262 538.752C147.337 538.677 147.427 538.64 147.534 538.64H148.862C148.979 538.64 149.07 538.677 149.134 538.752C149.209 538.816 149.246 538.907 149.246 539.024V549.616C149.246 549.723 149.209 549.813 149.134 549.888C149.07 549.963 148.979 550 148.862 550H147.534ZM154.953 550.16C153.769 550.16 152.825 549.819 152.121 549.136C151.427 548.443 151.059 547.472 151.017 546.224L151.001 545.824L151.017 545.424C151.07 544.208 151.443 543.253 152.137 542.56C152.841 541.867 153.779 541.52 154.953 541.52C156.211 541.52 157.182 541.904 157.865 542.672C158.558 543.44 158.905 544.464 158.905 545.744V546.08C158.905 546.187 158.867 546.277 158.793 546.352C158.718 546.427 158.622 546.464 158.505 546.464H153.193V546.592C153.214 547.179 153.374 547.675 153.673 548.08C153.982 548.475 154.403 548.672 154.937 548.672C155.566 548.672 156.073 548.427 156.457 547.936C156.553 547.819 156.627 547.744 156.681 547.712C156.745 547.68 156.835 547.664 156.953 547.664H158.329C158.425 547.664 158.505 547.696 158.569 547.76C158.643 547.813 158.681 547.883 158.681 547.968C158.681 548.224 158.526 548.528 158.217 548.88C157.918 549.221 157.486 549.52 156.921 549.776C156.355 550.032 155.699 550.16 154.953 550.16ZM156.729 545.12V545.072C156.729 544.443 156.569 543.936 156.249 543.552C155.939 543.168 155.507 542.976 154.953 542.976C154.398 542.976 153.966 543.168 153.657 543.552C153.347 543.936 153.193 544.443 153.193 545.072V545.12H156.729ZM163.755 550.16C162.955 550.16 162.283 550.043 161.739 549.808C161.195 549.563 160.79 549.28 160.523 548.96C160.267 548.629 160.139 548.347 160.139 548.112C160.139 548.005 160.176 547.92 160.251 547.856C160.326 547.792 160.411 547.76 160.507 547.76H161.771C161.867 547.76 161.947 547.797 162.011 547.872C162.054 547.904 162.166 548 162.347 548.16C162.528 548.331 162.742 548.464 162.987 548.56C163.232 548.656 163.504 548.704 163.803 548.704C164.23 548.704 164.582 548.619 164.859 548.448C165.136 548.277 165.275 548.043 165.275 547.744C165.275 547.52 165.211 547.339 165.083 547.2C164.966 547.061 164.747 546.939 164.427 546.832C164.107 546.715 163.632 546.592 163.003 546.464C162.096 546.272 161.424 545.979 160.987 545.584C160.56 545.189 160.347 544.667 160.347 544.016C160.347 543.589 160.475 543.189 160.731 542.816C160.987 542.432 161.366 542.123 161.867 541.888C162.379 541.643 162.987 541.52 163.691 541.52C164.406 541.52 165.024 541.637 165.547 541.872C166.07 542.096 166.464 542.368 166.731 542.688C167.008 542.997 167.147 543.275 167.147 543.52C167.147 543.616 167.11 543.701 167.035 543.776C166.971 543.84 166.891 543.872 166.795 543.872H165.611C165.526 543.872 165.435 543.835 165.339 543.76C165.264 543.707 165.147 543.605 164.987 543.456C164.827 543.307 164.64 543.189 164.427 543.104C164.214 543.019 163.963 542.976 163.675 542.976C163.28 542.976 162.971 543.061 162.747 543.232C162.534 543.403 162.427 543.627 162.427 543.904C162.427 544.107 162.48 544.272 162.587 544.4C162.694 544.528 162.902 544.651 163.211 544.768C163.52 544.885 163.984 545.003 164.603 545.12C165.627 545.323 166.358 545.637 166.795 546.064C167.243 546.491 167.467 547.013 167.467 547.632C167.467 548.379 167.142 548.987 166.491 549.456C165.84 549.925 164.928 550.16 163.755 550.16Z" fill="#1C3554"/>
<circle cx="48" cy="545" r="16" fill="#4586D6"/>
<path fill-rule="evenodd" clip-rule="evenodd" d="M45.993 552.421L39.286 545.58L40.714 544.179L46.007 549.579L55.293 540.293L56.707 541.707L45.993 552.421Z" fill="white"/>
<path d="M39.656 457.24C38.312 457.24 37.136 456.984 36.128 456.472C35.12 455.96 34.344 455.264 33.8 454.384C33.256 453.488 32.984 452.48 32.984 451.36C32.984 449.936 33.6 448.384 34.832 446.704L39.224 440.68C39.32 440.536 39.424 440.424 39.536 440.344C39.664 440.248 39.832 440.2 40.04 440.2H42.272C42.416 440.2 42.536 440.256 42.632 440.368C42.728 440.464 42.776 440.584 42.776 440.728C42.776 440.808 42.736 440.912 42.656 441.04L39.296 445.696C39.616 445.616 39.96 445.576 40.328 445.576C41.4 445.608 42.384 445.88 43.28 446.392C44.192 446.888 44.912 447.568 45.44 448.432C45.984 449.296 46.256 450.256 46.256 451.312C46.256 452.384 45.984 453.376 45.44 454.288C44.912 455.184 44.144 455.904 43.136 456.448C42.144 456.976 40.984 457.24 39.656 457.24ZM39.632 454.48C40.544 454.48 41.312 454.208 41.936 453.664C42.56 453.104 42.872 452.328 42.872 451.336C42.872 450.36 42.56 449.6 41.936 449.056C41.312 448.496 40.544 448.216 39.632 448.216C38.72 448.216 37.952 448.496 37.328 449.056C36.704 449.6 36.392 450.36 36.392 451.336C36.392 452.328 36.704 453.104 37.328 453.664C37.952 454.208 38.72 454.48 39.632 454.48ZM56.5269 457C56.3669 457 56.2309 456.944 56.1189 456.832C56.0069 456.72 55.9509 456.584 55.9509 456.424V453.352H48.3429C48.1829 453.352 48.0469 453.296 47.9349 453.184C47.8229 453.072 47.7669 452.936 47.7669 452.776V451.144C47.7669 450.888 47.8549 450.648 48.0309 450.424L55.1109 440.608C55.1909 440.48 55.3109 440.384 55.4709 440.32C55.6309 440.24 55.8069 440.2 55.9989 440.2H58.6149C58.7909 440.2 58.9269 440.256 59.0229 440.368C59.1349 440.464 59.1909 440.6 59.1909 440.776V450.52H61.3269C61.5029 450.52 61.6469 450.576 61.7589 450.688C61.8709 450.784 61.9269 450.92 61.9269 451.096V452.776C61.9269 452.936 61.8709 453.072 61.7589 453.184C61.6469 453.296 61.5109 453.352 61.3509 453.352H59.1909V456.424C59.1909 456.584 59.1349 456.72 59.0229 456.832C58.9269 456.944 58.7909 457 58.6149 457H56.5269ZM56.0229 450.616V443.68L51.1029 450.616H56.0229ZM70.6355 457C70.4755 457 70.3395 456.944 70.2275 456.832C70.1155 456.72 70.0595 456.584 70.0595 456.424V440.8C70.0595 440.624 70.1075 440.48 70.2035 440.368C70.3155 440.256 70.4595 440.2 70.6355 440.2H76.4915C81.1955 440.2 83.5955 442.376 83.6915 446.728C83.7235 447.656 83.7395 448.28 83.7395 448.6C83.7395 448.904 83.7235 449.52 83.6915 450.448C83.6275 452.688 83.0275 454.344 81.8915 455.416C80.7555 456.472 78.9955 457 76.6115 457H70.6355ZM76.4915 454.24C77.8355 454.24 78.8035 453.944 79.3955 453.352C79.9875 452.744 80.2995 451.752 80.3315 450.376C80.3635 449.416 80.3795 448.816 80.3795 448.576C80.3795 448.32 80.3635 447.728 80.3315 446.8C80.2995 445.488 79.9635 444.52 79.3235 443.896C78.6995 443.272 77.7155 442.96 76.3715 442.96H73.3955V454.24H76.4915ZM92.1665 457.24C90.2945 457.24 88.8465 456.76 87.8225 455.8C86.7985 454.824 86.2465 453.496 86.1665 451.816L86.1425 450.76L86.1665 449.704C86.2465 448.04 86.8065 446.72 87.8465 445.744C88.8865 444.768 90.3265 444.28 92.1665 444.28C94.0065 444.28 95.4465 444.768 96.4865 445.744C97.5265 446.72 98.0865 448.04 98.1665 449.704C98.1825 449.896 98.1905 450.248 98.1905 450.76C98.1905 451.272 98.1825 451.624 98.1665 451.816C98.0865 453.496 97.5345 454.824 96.5105 455.8C95.4865 456.76 94.0385 457.24 92.1665 457.24ZM92.1665 454.864C93.0145 454.864 93.6705 454.6 94.1345 454.072C94.5985 453.528 94.8545 452.736 94.9025 451.696C94.9185 451.536 94.9265 451.224 94.9265 450.76C94.9265 450.296 94.9185 449.984 94.9025 449.824C94.8545 448.784 94.5985 448 94.1345 447.472C93.6705 446.928 93.0145 446.656 92.1665 446.656C91.3185 446.656 90.6625 446.928 90.1985 447.472C89.7345 448 89.4785 448.784 89.4305 449.824L89.4065 450.76L89.4305 451.696C89.4785 452.736 89.7345 453.528 90.1985 454.072C90.6625 454.6 91.3185 454.864 92.1665 454.864ZM106.25 457.24C104.49 457.24 103.082 456.752 102.026 455.776C100.986 454.8 100.434 453.448 100.37 451.72L100.346 450.76L100.37 449.8C100.434 448.072 100.986 446.72 102.026 445.744C103.082 444.768 104.49 444.28 106.25 444.28C107.498 444.28 108.554 444.504 109.418 444.952C110.298 445.4 110.946 445.952 111.362 446.608C111.794 447.248 112.026 447.856 112.058 448.432C112.074 448.592 112.018 448.728 111.89 448.84C111.778 448.952 111.642 449.008 111.482 449.008H109.37C109.21 449.008 109.082 448.976 108.986 448.912C108.906 448.832 108.826 448.704 108.746 448.528C108.506 447.904 108.186 447.456 107.786 447.184C107.402 446.912 106.906 446.776 106.298 446.776C105.482 446.776 104.842 447.04 104.378 447.568C103.914 448.08 103.666 448.864 103.634 449.92L103.61 450.808L103.634 451.6C103.698 453.696 104.586 454.744 106.298 454.744C106.922 454.744 107.426 454.608 107.81 454.336C108.194 454.064 108.506 453.616 108.746 452.992C108.826 452.816 108.906 452.696 108.986 452.632C109.082 452.552 109.21 452.512 109.37 452.512H111.482C111.642 452.512 111.778 452.568 111.89 452.68C112.018 452.792 112.074 452.928 112.058 453.088C112.026 453.648 111.802 454.248 111.386 454.888C110.97 455.528 110.33 456.08 109.466 456.544C108.602 457.008 107.53 457.24 106.25 457.24ZM119.193 457.24C117.721 457.24 116.561 456.76 115.713 455.8C114.865 454.824 114.441 453.504 114.441 451.84V445.096C114.441 444.936 114.497 444.8 114.609 444.688C114.721 444.576 114.857 444.52 115.017 444.52H117.129C117.305 444.52 117.441 444.576 117.537 444.688C117.649 444.784 117.705 444.92 117.705 445.096V451.696C117.705 453.68 118.577 454.672 120.321 454.672C121.153 454.672 121.809 454.408 122.289 453.88C122.785 453.352 123.033 452.624 123.033 451.696V445.096C123.033 444.936 123.089 444.8 123.201 444.688C123.313 444.576 123.449 444.52 123.609 444.52H125.721C125.897 444.52 126.033 444.576 126.129 444.688C126.241 444.784 126.297 444.92 126.297 445.096V456.424C126.297 456.584 126.241 456.72 126.129 456.832C126.033 456.944 125.897 457 125.721 457H123.777C123.617 457 123.481 456.944 123.369 456.832C123.257 456.72 123.201 456.584 123.201 456.424V455.44C122.305 456.64 120.969 457.24 119.193 457.24ZM130.043 457C129.883 457 129.747 456.944 129.635 456.832C129.523 456.72 129.467 456.584 129.467 456.424V445.096C129.467 444.936 129.523 444.8 129.635 444.688C129.747 444.576 129.883 444.52 130.043 444.52H131.915C132.075 444.52 132.211 444.576 132.323 444.688C132.435 444.8 132.491 444.936 132.491 445.096V445.912C133.323 444.824 134.483 444.28 135.971 444.28C137.747 444.28 138.987 444.992 139.691 446.416C140.075 445.776 140.619 445.264 141.323 444.88C142.027 444.48 142.787 444.28 143.603 444.28C144.915 444.28 145.987 444.728 146.819 445.624C147.651 446.52 148.067 447.824 148.067 449.536V456.424C148.067 456.584 148.011 456.72 147.899 456.832C147.803 456.944 147.667 457 147.491 457H145.523C145.363 457 145.227 456.944 145.115 456.832C145.003 456.72 144.947 456.584 144.947 456.424V449.728C144.947 448.72 144.731 447.992 144.299 447.544C143.883 447.08 143.323 446.848 142.619 446.848C141.995 446.848 141.459 447.08 141.011 447.544C140.579 448.008 140.363 448.736 140.363 449.728V456.424C140.363 456.584 140.307 456.72 140.195 456.832C140.083 456.944 139.947 457 139.787 457H137.819C137.659 457 137.523 456.944 137.411 456.832C137.299 456.72 137.243 456.584 137.243 456.424V449.728C137.243 448.72 137.019 447.992 136.571 447.544C136.139 447.08 135.587 446.848 134.915 446.848C134.275 446.848 133.731 447.08 133.283 447.544C132.851 448.008 132.635 448.736 132.635 449.728V456.424C132.635 456.584 132.579 456.72 132.467 456.832C132.355 456.944 132.219 457 132.059 457H130.043ZM156.499 457.24C154.723 457.24 153.307 456.728 152.251 455.704C151.211 454.664 150.659 453.208 150.595 451.336L150.571 450.736L150.595 450.136C150.675 448.312 151.235 446.88 152.275 445.84C153.331 444.8 154.739 444.28 156.499 444.28C158.387 444.28 159.843 444.856 160.867 446.008C161.907 447.16 162.427 448.696 162.427 450.616V451.12C162.427 451.28 162.371 451.416 162.259 451.528C162.147 451.64 162.003 451.696 161.827 451.696H153.859V451.888C153.891 452.768 154.131 453.512 154.579 454.12C155.043 454.712 155.675 455.008 156.475 455.008C157.419 455.008 158.179 454.64 158.755 453.904C158.899 453.728 159.011 453.616 159.091 453.568C159.187 453.52 159.323 453.496 159.499 453.496H161.563C161.707 453.496 161.827 453.544 161.923 453.64C162.035 453.72 162.091 453.824 162.091 453.952C162.091 454.336 161.859 454.792 161.395 455.32C160.947 455.832 160.299 456.28 159.451 456.664C158.603 457.048 157.619 457.24 156.499 457.24ZM159.163 449.68V449.608C159.163 448.664 158.923 447.904 158.443 447.328C157.979 446.752 157.331 446.464 156.499 446.464C155.667 446.464 155.019 446.752 154.555 447.328C154.091 447.904 153.859 448.664 153.859 449.608V449.68H159.163ZM165.551 457C165.391 457 165.255 456.944 165.143 456.832C165.031 456.72 164.975 456.584 164.975 456.424V445.096C164.975 444.936 165.031 444.8 165.143 444.688C165.255 444.576 165.391 444.52 165.551 444.52H167.519C167.679 444.52 167.815 444.576 167.927 444.688C168.039 444.8 168.095 444.936 168.095 445.096V446.08C169.039 444.88 170.375 444.28 172.103 444.28C173.575 444.28 174.743 444.768 175.607 445.744C176.471 446.704 176.903 448.016 176.903 449.68V456.424C176.903 456.584 176.847 456.72 176.735 456.832C176.639 456.944 176.503 457 176.327 457H174.215C174.055 457 173.919 456.944 173.807 456.832C173.695 456.72 173.639 456.584 173.639 456.424V449.824C173.639 448.88 173.407 448.152 172.943 447.64C172.495 447.112 171.839 446.848 170.975 446.848C170.127 446.848 169.455 447.112 168.959 447.64C168.479 448.168 168.239 448.896 168.239 449.824V456.424C168.239 456.584 168.183 456.72 168.071 456.832C167.975 456.944 167.839 457 167.663 457H165.551ZM185.451 457C183.995 457 182.899 456.624 182.163 455.872C181.443 455.104 181.083 453.984 181.083 452.512V447.064H179.187C179.027 447.064 178.891 447.008 178.779 446.896C178.667 446.768 178.611 446.624 178.611 446.464V445.096C178.611 444.936 178.667 444.8 178.779 444.688C178.891 444.576 179.027 444.52 179.187 444.52H181.083V440.536C181.083 440.36 181.139 440.224 181.251 440.128C181.363 440.016 181.499 439.96 181.659 439.96H183.603C183.779 439.96 183.915 440.016 184.011 440.128C184.123 440.224 184.179 440.36 184.179 440.536V444.52H187.179C187.355 444.52 187.491 444.576 187.587 444.688C187.699 444.784 187.755 444.92 187.755 445.096V446.464C187.755 446.64 187.699 446.784 187.587 446.896C187.475 447.008 187.339 447.064 187.179 447.064H184.179V452.272C184.179 452.96 184.299 453.48 184.539 453.832C184.779 454.184 185.179 454.36 185.739 454.36H187.395C187.555 454.36 187.691 454.416 187.803 454.528C187.915 454.64 187.971 454.776 187.971 454.936V456.424C187.971 456.584 187.915 456.72 187.803 456.832C187.707 456.944 187.571 457 187.395 457H185.451ZM38.984 489.24C37.224 489.24 35.816 488.752 34.76 487.776C33.72 486.8 33.168 485.448 33.104 483.72L33.08 482.76L33.104 481.8C33.168 480.072 33.72 478.72 34.76 477.744C35.816 476.768 37.224 476.28 38.984 476.28C40.232 476.28 41.288 476.504 42.152 476.952C43.032 477.4 43.68 477.952 44.096 478.608C44.528 479.248 44.76 479.856 44.792 480.432C44.808 480.592 44.752 480.728 44.624 480.84C44.512 480.952 44.376 481.008 44.216 481.008H42.104C41.944 481.008 41.816 480.976 41.72 480.912C41.64 480.832 41.56 480.704 41.48 480.528C41.24 479.904 40.92 479.456 40.52 479.184C40.136 478.912 39.64 478.776 39.032 478.776C38.216 478.776 37.576 479.04 37.112 479.568C36.648 480.08 36.4 480.864 36.368 481.92L36.344 482.808L36.368 483.6C36.432 485.696 37.32 486.744 39.032 486.744C39.656 486.744 40.16 486.608 40.544 486.336C40.928 486.064 41.24 485.616 41.48 484.992C41.56 484.816 41.64 484.696 41.72 484.632C41.816 484.552 41.944 484.512 42.104 484.512H44.216C44.376 484.512 44.512 484.568 44.624 484.68C44.752 484.792 44.808 484.928 44.792 485.088C44.76 485.648 44.536 486.248 44.12 486.888C43.704 487.528 43.064 488.08 42.2 488.544C41.336 489.008 40.264 489.24 38.984 489.24ZM52.8149 489.24C50.9429 489.24 49.4949 488.76 48.4709 487.8C47.4469 486.824 46.8949 485.496 46.8149 483.816L46.7909 482.76L46.8149 481.704C46.8949 480.04 47.4549 478.72 48.4949 477.744C49.5349 476.768 50.9749 476.28 52.8149 476.28C54.6549 476.28 56.0949 476.768 57.1349 477.744C58.1749 478.72 58.7349 480.04 58.8149 481.704C58.8309 481.896 58.8389 482.248 58.8389 482.76C58.8389 483.272 58.8309 483.624 58.8149 483.816C58.7349 485.496 58.1829 486.824 57.1589 487.8C56.1349 488.76 54.6869 489.24 52.8149 489.24ZM52.8149 486.864C53.6629 486.864 54.3189 486.6 54.7829 486.072C55.2469 485.528 55.5029 484.736 55.5509 483.696C55.5669 483.536 55.5749 483.224 55.5749 482.76C55.5749 482.296 55.5669 481.984 55.5509 481.824C55.5029 480.784 55.2469 480 54.7829 479.472C54.3189 478.928 53.6629 478.656 52.8149 478.656C51.9669 478.656 51.3109 478.928 50.8469 479.472C50.3829 480 50.1269 480.784 50.0789 481.824L50.0549 482.76L50.0789 483.696C50.1269 484.736 50.3829 485.528 50.8469 486.072C51.3109 486.6 51.9669 486.864 52.8149 486.864ZM66.1301 489.24C64.6581 489.24 63.4981 488.76 62.6501 487.8C61.8021 486.824 61.3781 485.504 61.3781 483.84V477.096C61.3781 476.936 61.4341 476.8 61.5461 476.688C61.6581 476.576 61.7941 476.52 61.9541 476.52H64.0661C64.2421 476.52 64.3781 476.576 64.4741 476.688C64.5861 476.784 64.6421 476.92 64.6421 477.096V483.696C64.6421 485.68 65.5141 486.672 67.2581 486.672C68.0901 486.672 68.7461 486.408 69.2261 485.88C69.7221 485.352 69.9701 484.624 69.9701 483.696V477.096C69.9701 476.936 70.0261 476.8 70.1381 476.688C70.2501 476.576 70.3861 476.52 70.5461 476.52H72.6581C72.8341 476.52 72.9701 476.576 73.0661 476.688C73.1781 476.784 73.2341 476.92 73.2341 477.096V488.424C73.2341 488.584 73.1781 488.72 73.0661 488.832C72.9701 488.944 72.8341 489 72.6581 489H70.7141C70.5541 489 70.4181 488.944 70.3061 488.832C70.1941 488.72 70.1381 488.584 70.1381 488.424V487.44C69.2421 488.64 67.9061 489.24 66.1301 489.24ZM76.9803 489C76.8203 489 76.6843 488.944 76.5723 488.832C76.4603 488.72 76.4043 488.584 76.4043 488.424V477.12C76.4043 476.96 76.4603 476.824 76.5723 476.712C76.6843 476.584 76.8203 476.52 76.9803 476.52H78.9243C79.1003 476.52 79.2443 476.576 79.3563 476.688C79.4683 476.8 79.5243 476.944 79.5243 477.12V478.104C79.9083 477.592 80.3883 477.2 80.9643 476.928C81.5563 476.656 82.2283 476.52 82.9803 476.52H83.9643C84.1403 476.52 84.2763 476.576 84.3723 476.688C84.4843 476.784 84.5403 476.92 84.5403 477.096V478.824C84.5403 478.984 84.4843 479.12 84.3723 479.232C84.2763 479.344 84.1403 479.4 83.9643 479.4H82.0923C81.3403 479.4 80.7483 479.616 80.3163 480.048C79.8843 480.48 79.6683 481.072 79.6683 481.824V488.424C79.6683 488.584 79.6123 488.72 79.5003 488.832C79.3883 488.944 79.2443 489 79.0683 489H76.9803ZM91.1401 489.24C89.9401 489.24 88.9321 489.064 88.1161 488.712C87.3001 488.344 86.6921 487.92 86.2921 487.44C85.9081 486.944 85.7161 486.52 85.7161 486.168C85.7161 486.008 85.7721 485.88 85.8841 485.784C85.9961 485.688 86.1241 485.64 86.2681 485.64H88.1641C88.3081 485.64 88.4281 485.696 88.5241 485.808C88.5881 485.856 88.7561 486 89.0281 486.24C89.3001 486.496 89.6201 486.696 89.9881 486.84C90.3561 486.984 90.7641 487.056 91.2121 487.056C91.8521 487.056 92.3801 486.928 92.7961 486.672C93.2121 486.416 93.4201 486.064 93.4201 485.616C93.4201 485.28 93.3241 485.008 93.1321 484.8C92.9561 484.592 92.6281 484.408 92.1481 484.248C91.6681 484.072 90.9561 483.888 90.0121 483.696C88.6521 483.408 87.6441 482.968 86.9881 482.376C86.3481 481.784 86.0281 481 86.0281 480.024C86.0281 479.384 86.2201 478.784 86.6041 478.224C86.9881 477.648 87.5561 477.184 88.3081 476.832C89.0761 476.464 89.9881 476.28 91.0441 476.28C92.1161 476.28 93.0441 476.456 93.8281 476.808C94.6121 477.144 95.2041 477.552 95.6041 478.032C96.0201 478.496 96.2281 478.912 96.2281 479.28C96.2281 479.424 96.1721 479.552 96.0601 479.664C95.9641 479.76 95.8441 479.808 95.7001 479.808H93.9241C93.7961 479.808 93.6601 479.752 93.5161 479.64C93.4041 479.56 93.2281 479.408 92.9881 479.184C92.7481 478.96 92.4681 478.784 92.1481 478.656C91.8281 478.528 91.4521 478.464 91.0201 478.464C90.4281 478.464 89.9641 478.592 89.6281 478.848C89.3081 479.104 89.1481 479.44 89.1481 479.856C89.1481 480.16 89.2281 480.408 89.3881 480.6C89.5481 480.792 89.8601 480.976 90.3241 481.152C90.7881 481.328 91.4841 481.504 92.4121 481.68C93.9481 481.984 95.0441 482.456 95.7001 483.096C96.3721 483.736 96.7081 484.52 96.7081 485.448C96.7081 486.568 96.2201 487.48 95.2441 488.184C94.2681 488.888 92.9001 489.24 91.1401 489.24ZM104.562 489.24C102.786 489.24 101.37 488.728 100.314 487.704C99.2736 486.664 98.7216 485.208 98.6576 483.336L98.6336 482.736L98.6576 482.136C98.7376 480.312 99.2976 478.88 100.338 477.84C101.394 476.8 102.802 476.28 104.562 476.28C106.45 476.28 107.906 476.856 108.93 478.008C109.97 479.16 110.49 480.696 110.49 482.616V483.12C110.49 483.28 110.434 483.416 110.322 483.528C110.21 483.64 110.066 483.696 109.89 483.696H101.922V483.888C101.954 484.768 102.194 485.512 102.642 486.12C103.106 486.712 103.738 487.008 104.538 487.008C105.482 487.008 106.242 486.64 106.818 485.904C106.962 485.728 107.074 485.616 107.154 485.568C107.25 485.52 107.386 485.496 107.562 485.496H109.626C109.77 485.496 109.89 485.544 109.986 485.64C110.098 485.72 110.154 485.824 110.154 485.952C110.154 486.336 109.922 486.792 109.458 487.32C109.01 487.832 108.362 488.28 107.514 488.664C106.666 489.048 105.682 489.24 104.562 489.24ZM107.226 481.68V481.608C107.226 480.664 106.986 479.904 106.506 479.328C106.042 478.752 105.394 478.464 104.562 478.464C103.73 478.464 103.082 478.752 102.618 479.328C102.154 479.904 101.922 480.664 101.922 481.608V481.68H107.226ZM117.765 489.24C116.565 489.24 115.557 489.064 114.741 488.712C113.925 488.344 113.317 487.92 112.917 487.44C112.533 486.944 112.341 486.52 112.341 486.168C112.341 486.008 112.397 485.88 112.509 485.784C112.621 485.688 112.749 485.64 112.893 485.64H114.789C114.933 485.64 115.053 485.696 115.149 485.808C115.213 485.856 115.381 486 115.653 486.24C115.925 486.496 116.245 486.696 116.613 486.84C116.981 486.984 117.389 487.056 117.837 487.056C118.477 487.056 119.005 486.928 119.421 486.672C119.837 486.416 120.045 486.064 120.045 485.616C120.045 485.28 119.949 485.008 119.757 484.8C119.581 484.592 119.253 484.408 118.773 484.248C118.293 484.072 117.581 483.888 116.637 483.696C115.277 483.408 114.269 482.968 113.613 482.376C112.973 481.784 112.653 481 112.653 480.024C112.653 479.384 112.845 478.784 113.229 478.224C113.613 477.648 114.181 477.184 114.933 476.832C115.701 476.464 116.613 476.28 117.669 476.28C118.741 476.28 119.669 476.456 120.453 476.808C121.237 477.144 121.829 477.552 122.229 478.032C122.645 478.496 122.853 478.912 122.853 479.28C122.853 479.424 122.797 479.552 122.685 479.664C122.589 479.76 122.469 479.808 122.325 479.808H120.549C120.421 479.808 120.285 479.752 120.141 479.64C120.029 479.56 119.853 479.408 119.613 479.184C119.373 478.96 119.093 478.784 118.773 478.656C118.453 478.528 118.077 478.464 117.645 478.464C117.053 478.464 116.589 478.592 116.253 478.848C115.933 479.104 115.773 479.44 115.773 479.856C115.773 480.16 115.853 480.408 116.013 480.6C116.173 480.792 116.485 480.976 116.949 481.152C117.413 481.328 118.109 481.504 119.037 481.68C120.573 481.984 121.669 482.456 122.325 483.096C122.997 483.736 123.333 484.52 123.333 485.448C123.333 486.568 122.845 487.48 121.869 488.184C120.893 488.888 119.525 489.24 117.765 489.24Z" fill="#1C3554"/>
<line x1="24" y1="408.5" x2="416" y2="408.5" stroke="#1C3554"/>
<line x1="107" y1="360.017" x2="176" y2="360.017" stroke="#CCCCCC" stroke-width="1.96552"/>
<path d="M122.156 350.056C122.94 350.168 123.636 350.384 124.244 350.704C124.852 351.024 125.364 351.392 125.78 351.808C126.196 352.224 126.516 352.656 126.74 353.104C126.964 353.552 127.084 353.952 127.1 354.304C127.116 354.448 127.068 354.576 126.956 354.688C126.844 354.784 126.716 354.832 126.572 354.832H125.588C125.412 354.832 125.268 354.8 125.156 354.736C125.06 354.672 124.956 354.528 124.844 354.304C124.764 354.144 124.628 353.944 124.436 353.704C124.26 353.448 124.012 353.208 123.692 352.984C123.388 352.744 123.012 352.544 122.564 352.384C122.116 352.208 121.596 352.12 121.004 352.12C120.556 352.12 120.124 352.176 119.708 352.288C119.308 352.384 118.948 352.536 118.628 352.744C118.308 352.952 118.052 353.216 117.86 353.536C117.668 353.84 117.572 354.2 117.572 354.616C117.572 355.032 117.66 355.384 117.836 355.672C118.028 355.96 118.324 356.224 118.724 356.464C119.14 356.688 119.66 356.896 120.284 357.088C120.908 357.28 121.668 357.496 122.564 357.736C123.476 357.976 124.244 358.24 124.868 358.528C125.508 358.816 126.028 359.144 126.428 359.512C126.828 359.864 127.116 360.28 127.292 360.76C127.484 361.224 127.58 361.752 127.58 362.344C127.58 363 127.452 363.608 127.196 364.168C126.94 364.728 126.572 365.216 126.092 365.632C125.628 366.048 125.06 366.392 124.388 366.664C123.716 366.936 122.972 367.112 122.156 367.192V368.752C122.156 368.928 122.092 369.08 121.964 369.208C121.836 369.336 121.684 369.4 121.508 369.4H120.524C120.348 369.4 120.196 369.336 120.068 369.208C119.94 369.08 119.876 368.928 119.876 368.752V367.144C119.108 367.032 118.412 366.824 117.788 366.52C117.164 366.216 116.62 365.864 116.156 365.464C115.708 365.064 115.356 364.632 115.1 364.168C114.844 363.688 114.708 363.224 114.692 362.776C114.692 362.632 114.74 362.512 114.836 362.416C114.948 362.304 115.076 362.248 115.22 362.248H116.204C116.364 362.248 116.5 362.28 116.612 362.344C116.74 362.408 116.852 362.552 116.948 362.776C117.044 363 117.188 363.248 117.38 363.52C117.588 363.776 117.86 364.024 118.196 364.264C118.532 364.488 118.94 364.68 119.42 364.84C119.9 365 120.468 365.08 121.124 365.08C121.684 365.08 122.212 365.016 122.708 364.888C123.22 364.76 123.668 364.576 124.052 364.336C124.436 364.096 124.74 363.808 124.964 363.472C125.188 363.136 125.3 362.76 125.3 362.344C125.3 361.928 125.172 361.576 124.916 361.288C124.66 360.984 124.292 360.712 123.812 360.472C123.332 360.232 122.74 360.016 122.036 359.824C121.348 359.616 120.564 359.4 119.684 359.176C118.884 358.968 118.204 358.72 117.644 358.432C117.084 358.128 116.628 357.784 116.276 357.4C115.924 357.016 115.668 356.592 115.508 356.128C115.364 355.664 115.292 355.16 115.292 354.616C115.292 354.088 115.388 353.568 115.58 353.056C115.772 352.544 116.052 352.08 116.42 351.664C116.804 351.248 117.284 350.896 117.86 350.608C118.436 350.32 119.108 350.128 119.876 350.032V348.448C119.876 348.272 119.94 348.12 120.068 347.992C120.196 347.864 120.348 347.8 120.524 347.8H121.508C121.684 347.8 121.836 347.864 121.964 347.992C122.092 348.12 122.156 348.272 122.156 348.448V350.056ZM136.851 366.352C136.851 366.528 136.787 366.68 136.659 366.808C136.531 366.936 136.379 367 136.203 367H135.219C135.043 367 134.891 366.936 134.763 366.808C134.635 366.68 134.571 366.528 134.571 366.352V353.128L130.683 356.08C130.539 356.208 130.379 356.256 130.203 356.224C130.027 356.192 129.883 356.112 129.771 355.984L129.195 355.24C129.083 355.096 129.035 354.936 129.051 354.76C129.083 354.584 129.171 354.44 129.315 354.328L134.451 350.392C134.579 350.296 134.707 350.24 134.835 350.224C134.963 350.208 135.091 350.2 135.219 350.2H136.203C136.379 350.2 136.531 350.264 136.659 350.392C136.787 350.52 136.851 350.672 136.851 350.848V366.352ZM147.337 358.168C147.817 357.736 148.177 357.296 148.417 356.848C148.657 356.4 148.777 355.816 148.777 355.096C148.777 354.248 148.529 353.544 148.033 352.984C147.537 352.408 146.753 352.12 145.681 352.12C145.121 352.12 144.641 352.2 144.241 352.36C143.857 352.52 143.529 352.744 143.257 353.032C143.001 353.304 142.793 353.624 142.633 353.992C142.489 354.344 142.369 354.712 142.273 355.096C142.225 355.272 142.137 355.408 142.009 355.504C141.897 355.6 141.777 355.648 141.649 355.648H140.545C140.401 355.648 140.273 355.6 140.161 355.504C140.065 355.392 140.017 355.264 140.017 355.12C140.033 354.528 140.169 353.928 140.425 353.32C140.681 352.712 141.049 352.16 141.529 351.664C142.009 351.168 142.593 350.76 143.281 350.44C143.985 350.12 144.785 349.96 145.681 349.96C146.561 349.96 147.337 350.096 148.009 350.368C148.681 350.64 149.241 351.008 149.689 351.472C150.137 351.936 150.473 352.48 150.697 353.104C150.937 353.728 151.057 354.392 151.057 355.096C151.057 355.608 151.017 356.072 150.937 356.488C150.857 356.904 150.721 357.304 150.529 357.688C150.353 358.056 150.121 358.416 149.833 358.768C149.545 359.12 149.193 359.48 148.777 359.848L143.425 364.84H150.769C150.945 364.84 151.097 364.904 151.225 365.032C151.353 365.16 151.417 365.312 151.417 365.488V366.352C151.417 366.528 151.353 366.68 151.225 366.808C151.097 366.936 150.945 367 150.769 367H140.425C140.249 367 140.097 366.936 139.969 366.808C139.841 366.68 139.777 366.528 139.777 366.352V365.488C139.777 365.312 139.817 365.16 139.897 365.032C139.977 364.904 140.113 364.752 140.305 364.576L147.337 358.168ZM162.122 367C161.946 367 161.794 366.936 161.666 366.808C161.538 366.68 161.474 366.528 161.474 366.352V363.04H153.938C153.762 363.04 153.61 362.976 153.482 362.848C153.354 362.72 153.29 362.568 153.29 362.392V361.528C153.29 361.416 153.314 361.288 153.362 361.144C153.426 360.984 153.514 360.84 153.626 360.712L161.21 350.776C161.338 350.6 161.474 350.464 161.618 350.368C161.778 350.256 161.954 350.2 162.146 350.2H163.106C163.282 350.2 163.434 350.264 163.562 350.392C163.69 350.52 163.754 350.672 163.754 350.848V360.88H165.818C165.994 360.88 166.146 360.944 166.274 361.072C166.402 361.2 166.466 361.352 166.466 361.528V362.392C166.466 362.568 166.402 362.72 166.274 362.848C166.146 362.976 165.994 363.04 165.818 363.04H163.754V366.352C163.754 366.528 163.69 366.68 163.562 366.808C163.434 366.936 163.282 367 163.106 367H162.122ZM161.474 360.88V354.112L156.266 360.88H161.474Z" fill="#CCCCCC"/>
<path d="M41.312 375.2C41.0773 375.2 40.8853 375.115 40.736 374.944C40.5867 374.795 40.512 374.613 40.512 374.4V372.16C38.8693 371.968 37.4933 371.563 36.384 370.944C35.296 370.304 34.4747 369.547 33.92 368.672C33.3653 367.797 33.0667 366.869 33.024 365.888C33.024 365.717 33.088 365.568 33.216 365.44C33.3653 365.291 33.536 365.216 33.728 365.216H37.76C38.0587 365.216 38.2827 365.269 38.432 365.376C38.6027 365.483 38.752 365.621 38.88 365.792C39.0507 366.112 39.2853 366.421 39.584 366.72C39.904 367.019 40.3093 367.264 40.8 367.456C41.312 367.627 41.9413 367.712 42.688 367.712C43.9253 367.712 44.8533 367.52 45.472 367.136C46.112 366.752 46.432 366.229 46.432 365.568C46.432 365.077 46.2613 364.683 45.92 364.384C45.5787 364.085 45.024 363.819 44.256 363.584C43.5093 363.328 42.5067 363.072 41.248 362.816C39.6267 362.475 38.24 362.037 37.088 361.504C35.9573 360.949 35.0933 360.235 34.496 359.36C33.8987 358.464 33.6 357.355 33.6 356.032C33.6 354.325 34.208 352.875 35.424 351.68C36.6613 350.485 38.3573 349.739 40.512 349.44V347.2C40.512 346.965 40.5867 346.773 40.736 346.624C40.8853 346.475 41.0773 346.4 41.312 346.4H43.968C44.1813 346.4 44.3627 346.475 44.512 346.624C44.6827 346.773 44.768 346.965 44.768 347.2V349.504C46.24 349.76 47.4773 350.219 48.48 350.88C49.4827 351.541 50.24 352.288 50.752 353.12C51.2853 353.952 51.5627 354.752 51.584 355.52C51.584 355.691 51.52 355.851 51.392 356C51.264 356.128 51.104 356.192 50.912 356.192H46.688C46.4533 356.192 46.2507 356.149 46.08 356.064C45.9093 355.979 45.76 355.84 45.632 355.648C45.504 355.179 45.1627 354.773 44.608 354.432C44.0533 354.069 43.3493 353.888 42.496 353.888C41.5573 353.888 40.8213 354.059 40.288 354.4C39.776 354.72 39.52 355.221 39.52 355.904C39.52 356.331 39.6587 356.704 39.936 357.024C40.2347 357.344 40.7147 357.621 41.376 357.856C42.0587 358.091 42.9867 358.336 44.16 358.592C46.1013 358.955 47.6693 359.413 48.864 359.968C50.0587 360.501 50.9333 361.205 51.488 362.08C52.0427 362.933 52.32 364.011 52.32 365.312C52.32 366.571 52 367.68 51.36 368.64C50.7413 369.6 49.8667 370.379 48.736 370.976C47.6053 371.573 46.2827 371.968 44.768 372.16V374.4C44.768 374.613 44.6827 374.795 44.512 374.944C44.3627 375.115 44.1813 375.2 43.968 375.2H41.312ZM63.615 372.352C61.6097 372.352 59.935 372.043 58.591 371.424C57.247 370.784 56.223 369.963 55.519 368.96C54.8363 367.936 54.4737 366.837 54.431 365.664C54.431 365.472 54.495 365.312 54.623 365.184C54.751 365.056 54.911 364.992 55.103 364.992H59.391C59.6683 364.992 59.8817 365.045 60.031 365.152C60.2017 365.259 60.3297 365.408 60.415 365.6C60.607 366.091 60.863 366.496 61.183 366.816C61.503 367.136 61.8657 367.371 62.271 367.52C62.6763 367.669 63.135 367.744 63.647 367.744C64.2443 367.744 64.799 367.616 65.311 367.36C65.823 367.104 66.2283 366.731 66.527 366.24C66.847 365.728 67.007 365.12 67.007 364.416C67.007 363.776 66.8577 363.221 66.559 362.752C66.2817 362.283 65.887 361.909 65.375 361.632C64.8843 361.355 64.3083 361.216 63.647 361.216C63.135 361.216 62.719 361.28 62.399 361.408C62.079 361.515 61.8123 361.653 61.599 361.824C61.3857 361.995 61.1937 362.144 61.023 362.272C60.8523 362.379 60.6603 362.432 60.447 362.432H56.255C56.063 362.432 55.8923 362.368 55.743 362.24C55.615 362.091 55.551 361.92 55.551 361.728L56.703 350.56C56.7457 350.24 56.863 350.005 57.055 349.856C57.247 349.685 57.4817 349.6 57.759 349.6H70.591C70.8257 349.6 71.0177 349.675 71.167 349.824C71.3377 349.973 71.423 350.165 71.423 350.4V353.408C71.423 353.643 71.3377 353.835 71.167 353.984C71.0177 354.133 70.8257 354.208 70.591 354.208H61.311L60.895 358.336C61.3643 358.037 61.9083 357.781 62.527 357.568C63.167 357.355 64.0417 357.248 65.151 357.248C66.1537 357.248 67.1137 357.429 68.031 357.792C68.9697 358.133 69.8017 358.624 70.527 359.264C71.2737 359.904 71.8497 360.672 72.255 361.568C72.6817 362.443 72.895 363.435 72.895 364.544C72.895 366.059 72.5217 367.403 71.775 368.576C71.0497 369.749 69.9937 370.677 68.607 371.36C67.2203 372.021 65.5563 372.352 63.615 372.352ZM84.4625 372.32C82.8198 372.32 81.4012 372.128 80.2065 371.744C79.0332 371.339 78.0732 370.827 77.3265 370.208C76.5798 369.568 76.0252 368.896 75.6625 368.192C75.2998 367.467 75.1078 366.773 75.0865 366.112C75.0865 365.92 75.1505 365.76 75.2785 365.632C75.4278 365.504 75.5985 365.44 75.7905 365.44H79.9825C80.2172 365.44 80.4092 365.493 80.5585 365.6C80.7078 365.685 80.8465 365.835 80.9745 366.048C81.1452 366.453 81.3905 366.784 81.7105 367.04C82.0518 367.296 82.4572 367.477 82.9265 367.584C83.3958 367.669 83.9078 367.712 84.4625 367.712C85.5505 367.712 86.3932 367.467 86.9905 366.976C87.6092 366.464 87.9185 365.771 87.9185 364.896C87.9185 363.979 87.6305 363.328 87.0545 362.944C86.4785 362.539 85.6572 362.336 84.5905 362.336H81.0385C80.8038 362.336 80.6118 362.261 80.4625 362.112C80.3132 361.963 80.2385 361.771 80.2385 361.536V359.744C80.2385 359.488 80.2918 359.264 80.3985 359.072C80.5052 358.88 80.6225 358.741 80.7505 358.656L85.9985 354.208H77.1025C76.8892 354.208 76.6972 354.133 76.5265 353.984C76.3772 353.835 76.3025 353.643 76.3025 353.408V350.4C76.3025 350.165 76.3772 349.973 76.5265 349.824C76.6972 349.675 76.8892 349.6 77.1025 349.6H91.8225C92.0572 349.6 92.2492 349.675 92.3985 349.824C92.5692 349.973 92.6545 350.165 92.6545 350.4V353.12C92.6545 353.355 92.6012 353.568 92.4945 353.76C92.3878 353.931 92.2705 354.069 92.1425 354.176L87.2785 358.688L87.5025 358.752C88.7398 358.901 89.8278 359.221 90.7665 359.712C91.7265 360.203 92.4838 360.907 93.0385 361.824C93.5932 362.72 93.8705 363.861 93.8705 365.248C93.8705 366.699 93.4545 367.957 92.6225 369.024C91.8118 370.069 90.7025 370.88 89.2945 371.456C87.8865 372.032 86.2758 372.32 84.4625 372.32Z" fill="#1C3554"/>
<path opacity="0.5" d="M0 8.00001C0 3.58173 3.58172 0 8 0H432C436.418 0 440 3.58172 440 8V313H0V8.00001Z" fill="black"/>
<path fill-rule="evenodd" clip-rule="evenodd" d="M220 137.667C209.88 137.667 201.667 145.88 201.667 156C201.667 166.12 209.88 174.333 220 174.333C230.12 174.333 238.333 166.12 238.333 156C238.333 145.88 230.12 137.667 220 137.667ZM216.333 162.417V149.583C216.333 148.832 217.195 148.392 217.8 148.85L226.362 155.267C226.857 155.633 226.857 156.367 226.362 156.733L217.8 163.15C217.195 163.608 216.333 163.168 216.333 162.417Z" fill="white"/>
</svg>
