<svg width="376" height="414" viewBox="0 0 376 414" fill="none" xmlns="http://www.w3.org/2000/svg">
<rect x="38" width="338" height="377" fill="#CCCCCC"/>
<path d="M172.864 358.715C174.254 355.39 175.445 351.99 176.438 348.54L65.2988 237.4C61.8489 238.368 58.4488 239.56 55.123 240.974L172.864 358.715Z" fill="white"/>
<path d="M165.245 373.11C167.106 370.281 168.769 367.352 170.258 364.374L49.4394 243.555C46.4612 245.044 43.5325 246.707 40.7031 248.569L165.245 373.11Z" fill="white"/>
<path d="M155.54 385.42C157.799 383.013 159.884 380.531 161.82 377.95L35.8634 251.994C33.2822 253.93 30.8003 256.039 28.3928 258.273L155.54 385.42Z" fill="white"/>
<path d="M4.76514 352.957C9.05882 365.59 16.2315 377.453 26.308 387.53C36.3845 397.606 48.2479 404.779 60.8808 409.073L4.76514 352.957Z" fill="white"/>
<path d="M107.665 235.713C102.552 234.695 97.3898 234.124 92.2026 234L179.838 321.636C179.714 316.449 179.143 311.286 178.126 306.173L107.665 235.713Z" fill="white"/>
<path d="M178.052 341.888C178.871 337.867 179.392 333.822 179.665 329.752L84.0872 234.174C80.0169 234.447 75.9465 234.968 71.9507 235.787L178.052 341.888Z" fill="white"/>
<path d="M130.374 404.258C133.352 402.769 136.281 401.106 139.11 399.245L14.5934 274.728C12.732 277.557 11.0692 280.486 9.58008 283.464L130.374 404.258Z" fill="white"/>
<path d="M72.1736 412.101C77.2863 413.119 82.4486 413.689 87.6357 413.813L0 326.178C0.124095 331.365 0.694937 336.527 1.71251 341.64L72.1736 412.101Z" fill="white"/>
<path d="M175.048 294.856C170.754 282.223 163.581 270.36 153.505 260.284C143.428 250.207 131.565 243.034 118.932 238.741L175.048 294.856Z" fill="white"/>
<path d="M114.539 410.438C117.989 409.47 121.389 408.278 124.715 406.864L6.94878 289.098C5.55892 292.423 4.36776 295.824 3.375 299.273L114.539 410.438Z" fill="white"/>
<path d="M95.7516 413.664C99.8219 413.391 103.892 412.87 107.888 412.051L1.76222 305.925C0.943193 309.946 0.421934 313.991 0.148926 318.062L95.7516 413.664Z" fill="white"/>
<path d="M143.949 395.819C146.531 393.884 149.013 391.774 151.42 389.54L24.2973 262.417C22.0388 264.825 19.9539 267.307 18.0181 269.888L143.949 395.819Z" fill="white"/>
</svg>
