<svg width="69" height="32" viewBox="0 0 69 32" fill="none" xmlns="http://www.w3.org/2000/svg">
<line y1="15.0172" x2="69" y2="15.0172" stroke="#CCCCCC" stroke-width="1.96552"/>
<path d="M15.1559 5.056C15.9399 5.168 16.6359 5.384 17.2439 5.704C17.8519 6.024 18.3639 6.392 18.7799 6.808C19.1959 7.224 19.5159 7.656 19.7399 8.104C19.9639 8.552 20.0839 8.952 20.0999 9.304C20.1159 9.448 20.0679 9.576 19.9559 9.688C19.8439 9.784 19.7159 9.832 19.5719 9.832H18.5879C18.4119 9.832 18.2679 9.8 18.1559 9.736C18.0599 9.672 17.9559 9.528 17.8439 9.304C17.7639 9.144 17.6279 8.944 17.4359 8.704C17.2599 8.448 17.0119 8.208 16.6919 7.984C16.3879 7.744 16.0119 7.544 15.5639 7.384C15.1159 7.208 14.5959 7.12 14.0039 7.12C13.5559 7.12 13.1239 7.176 12.7079 7.288C12.3079 7.384 11.9479 7.536 11.6279 7.744C11.3079 7.952 11.0519 8.216 10.8599 8.536C10.6679 8.84 10.5719 9.2 10.5719 9.616C10.5719 10.032 10.6599 10.384 10.8359 10.672C11.0279 10.96 11.3239 11.224 11.7239 11.464C12.1399 11.688 12.6599 11.896 13.2839 12.088C13.9079 12.28 14.6679 12.496 15.5639 12.736C16.4759 12.976 17.2439 13.24 17.8679 13.528C18.5079 13.816 19.0279 14.144 19.4279 14.512C19.8279 14.864 20.1159 15.28 20.2919 15.76C20.4839 16.224 20.5799 16.752 20.5799 17.344C20.5799 18 20.4519 18.608 20.1959 19.168C19.9399 19.728 19.5719 20.216 19.0919 20.632C18.6279 21.048 18.0599 21.392 17.3879 21.664C16.7159 21.936 15.9719 22.112 15.1559 22.192V23.752C15.1559 23.928 15.0919 24.08 14.9639 24.208C14.8359 24.336 14.6839 24.4 14.5079 24.4H13.5239C13.3479 24.4 13.1959 24.336 13.0679 24.208C12.9399 24.08 12.8759 23.928 12.8759 23.752V22.144C12.1079 22.032 11.4119 21.824 10.7879 21.52C10.1639 21.216 9.61994 20.864 9.15594 20.464C8.70794 20.064 8.35594 19.632 8.09994 19.168C7.84394 18.688 7.70794 18.224 7.69194 17.776C7.69194 17.632 7.73994 17.512 7.83594 17.416C7.94794 17.304 8.07594 17.248 8.21994 17.248H9.20394C9.36394 17.248 9.49994 17.28 9.61194 17.344C9.73994 17.408 9.85194 17.552 9.94794 17.776C10.0439 18 10.1879 18.248 10.3799 18.52C10.5879 18.776 10.8599 19.024 11.1959 19.264C11.5319 19.488 11.9399 19.68 12.4199 19.84C12.8999 20 13.4679 20.08 14.1239 20.08C14.6839 20.08 15.2119 20.016 15.7079 19.888C16.2199 19.76 16.6679 19.576 17.0519 19.336C17.4359 19.096 17.7399 18.808 17.9639 18.472C18.1879 18.136 18.2999 17.76 18.2999 17.344C18.2999 16.928 18.1719 16.576 17.9159 16.288C17.6599 15.984 17.2919 15.712 16.8119 15.472C16.3319 15.232 15.7399 15.016 15.0359 14.824C14.3479 14.616 13.5639 14.4 12.6839 14.176C11.8839 13.968 11.2039 13.72 10.6439 13.432C10.0839 13.128 9.62794 12.784 9.27594 12.4C8.92394 12.016 8.66794 11.592 8.50794 11.128C8.36394 10.664 8.29194 10.16 8.29194 9.616C8.29194 9.088 8.38794 8.568 8.57994 8.056C8.77194 7.544 9.05194 7.08 9.41994 6.664C9.80394 6.248 10.2839 5.896 10.8599 5.608C11.4359 5.32 12.1079 5.128 12.8759 5.032V3.448C12.8759 3.272 12.9399 3.12 13.0679 2.992C13.1959 2.864 13.3479 2.8 13.5239 2.8H14.5079C14.6839 2.8 14.8359 2.864 14.9639 2.992C15.0919 3.12 15.1559 3.272 15.1559 3.448V5.056ZM29.8513 21.352C29.8513 21.528 29.7873 21.68 29.6593 21.808C29.5313 21.936 29.3793 22 29.2033 22H28.2193C28.0433 22 27.8913 21.936 27.7633 21.808C27.6353 21.68 27.5713 21.528 27.5713 21.352V8.128L23.6833 11.08C23.5393 11.208 23.3793 11.256 23.2033 11.224C23.0273 11.192 22.8833 11.112 22.7713 10.984L22.1953 10.24C22.0833 10.096 22.0353 9.936 22.0513 9.76C22.0833 9.584 22.1713 9.44 22.3153 9.328L27.4513 5.392C27.5793 5.296 27.7073 5.24 27.8353 5.224C27.9633 5.208 28.0913 5.2 28.2193 5.2H29.2033C29.3793 5.2 29.5313 5.264 29.6593 5.392C29.7873 5.52 29.8513 5.672 29.8513 5.848V21.352ZM40.3368 13.168C40.8168 12.736 41.1768 12.296 41.4168 11.848C41.6568 11.4 41.7768 10.816 41.7768 10.096C41.7768 9.248 41.5288 8.544 41.0328 7.984C40.5368 7.408 39.7528 7.12 38.6808 7.12C38.1208 7.12 37.6408 7.2 37.2408 7.36C36.8568 7.52 36.5288 7.744 36.2568 8.032C36.0008 8.304 35.7928 8.624 35.6328 8.992C35.4888 9.344 35.3688 9.712 35.2728 10.096C35.2248 10.272 35.1368 10.408 35.0088 10.504C34.8968 10.6 34.7768 10.648 34.6488 10.648H33.5448C33.4008 10.648 33.2728 10.6 33.1608 10.504C33.0648 10.392 33.0168 10.264 33.0168 10.12C33.0328 9.528 33.1688 8.928 33.4248 8.32C33.6808 7.712 34.0488 7.16 34.5288 6.664C35.0088 6.168 35.5928 5.76 36.2808 5.44C36.9848 5.12 37.7848 4.96 38.6808 4.96C39.5608 4.96 40.3368 5.096 41.0088 5.368C41.6808 5.64 42.2408 6.008 42.6888 6.472C43.1368 6.936 43.4728 7.48 43.6968 8.104C43.9368 8.728 44.0568 9.392 44.0568 10.096C44.0568 10.608 44.0168 11.072 43.9368 11.488C43.8568 11.904 43.7208 12.304 43.5288 12.688C43.3528 13.056 43.1208 13.416 42.8328 13.768C42.5448 14.12 42.1928 14.48 41.7768 14.848L36.4248 19.84H43.7688C43.9448 19.84 44.0968 19.904 44.2248 20.032C44.3528 20.16 44.4168 20.312 44.4168 20.488V21.352C44.4168 21.528 44.3528 21.68 44.2248 21.808C44.0968 21.936 43.9448 22 43.7688 22H33.4248C33.2488 22 33.0968 21.936 32.9688 21.808C32.8408 21.68 32.7768 21.528 32.7768 21.352V20.488C32.7768 20.312 32.8168 20.16 32.8968 20.032C32.9768 19.904 33.1128 19.752 33.3048 19.576L40.3368 13.168ZM55.1216 22C54.9456 22 54.7936 21.936 54.6656 21.808C54.5376 21.68 54.4736 21.528 54.4736 21.352V18.04H46.9376C46.7616 18.04 46.6096 17.976 46.4816 17.848C46.3536 17.72 46.2896 17.568 46.2896 17.392V16.528C46.2896 16.416 46.3136 16.288 46.3616 16.144C46.4256 15.984 46.5136 15.84 46.6256 15.712L54.2096 5.776C54.3376 5.6 54.4736 5.464 54.6176 5.368C54.7776 5.256 54.9536 5.2 55.1456 5.2H56.1056C56.2816 5.2 56.4336 5.264 56.5616 5.392C56.6896 5.52 56.7536 5.672 56.7536 5.848V15.88H58.8176C58.9936 15.88 59.1456 15.944 59.2736 16.072C59.4016 16.2 59.4656 16.352 59.4656 16.528V17.392C59.4656 17.568 59.4016 17.72 59.2736 17.848C59.1456 17.976 58.9936 18.04 58.8176 18.04H56.7536V21.352C56.7536 21.528 56.6896 21.68 56.5616 21.808C56.4336 21.936 56.2816 22 56.1056 22H55.1216ZM54.4736 15.88V9.112L49.2656 15.88H54.4736Z" fill="#CCCCCC"/>
</svg>
