<svg width="114" height="20" viewBox="0 0 114 20" fill="none" xmlns="http://www.w3.org/2000/svg">
<path fill-rule="evenodd" clip-rule="evenodd" d="M8 14.859L12.944 18L11.632 12.08L16 8.09686L10.248 7.58317L8 2L5.752 7.58317L0 8.09686L4.368 12.08L3.056 18L8 14.859Z" fill="#FAA307"/>
<path fill-rule="evenodd" clip-rule="evenodd" d="M32 14.859L36.944 18L35.632 12.08L40 8.09686L34.248 7.58317L32 2L29.752 7.58317L24 8.09686L28.368 12.08L27.056 18L32 14.859Z" fill="#FAA307"/>
<path fill-rule="evenodd" clip-rule="evenodd" d="M56 14.859L60.944 18L59.632 12.08L64 8.09686L58.248 7.58317L56 2L53.752 7.58317L48 8.09686L52.368 12.08L51.056 18L56 14.859Z" stroke="#FAA307"/>
<path fill-rule="evenodd" clip-rule="evenodd" d="M80 14.859L84.944 18L83.632 12.08L88 8.09686L82.248 7.58317L80 2L77.752 7.58317L72 8.09686L76.368 12.08L75.056 18L80 14.859Z" stroke="#FAA307"/>
<path fill-rule="evenodd" clip-rule="evenodd" d="M104 14.859L108.944 18L107.632 12.08L112 8.09686L106.248 7.58317L104 2L101.752 7.58317L96 8.09686L100.368 12.08L99.056 18L104 14.859Z" stroke="#FAA307"/>
</svg>
