<svg width="146" height="56" viewBox="0 0 146 56" fill="none" xmlns="http://www.w3.org/2000/svg">
<rect width="146" height="56" rx="8" fill="#FFF5F9"/>
<path d="M36.976 34.16C36.112 34.16 35.2747 34.0373 34.464 33.792C33.664 33.5467 33.0293 33.2213 32.56 32.816L33.28 31.2C33.7387 31.5627 34.2987 31.8613 34.96 32.096C35.632 32.32 36.304 32.432 36.976 32.432C37.808 32.432 38.4267 32.2987 38.832 32.032C39.248 31.7653 39.456 31.4133 39.456 30.976C39.456 30.656 39.3387 30.3947 39.104 30.192C38.88 29.9787 38.592 29.8133 38.24 29.696C37.888 29.5787 37.408 29.4453 36.8 29.296C35.9467 29.0933 35.2533 28.8907 34.72 28.688C34.1973 28.4853 33.744 28.1707 33.36 27.744C32.9867 27.3067 32.8 26.72 32.8 25.984C32.8 25.3653 32.9653 24.8053 33.296 24.304C33.6373 23.792 34.144 23.3867 34.816 23.088C35.4987 22.7893 36.3307 22.64 37.312 22.64C37.9947 22.64 38.6667 22.7253 39.328 22.896C39.9893 23.0667 40.56 23.312 41.04 23.632L40.384 25.248C39.8933 24.96 39.3813 24.7413 38.848 24.592C38.3147 24.4427 37.7973 24.368 37.296 24.368C36.4747 24.368 35.8613 24.5067 35.456 24.784C35.0613 25.0613 34.864 25.4293 34.864 25.888C34.864 26.208 34.976 26.4693 35.2 26.672C35.4347 26.8747 35.728 27.0347 36.08 27.152C36.432 27.2693 36.912 27.4027 37.52 27.552C38.352 27.744 39.0347 27.9467 39.568 28.16C40.1013 28.3627 40.5547 28.6773 40.928 29.104C41.312 29.5307 41.504 30.1067 41.504 30.832C41.504 31.4507 41.3333 32.0107 40.992 32.512C40.6613 33.0133 40.1547 33.4133 39.472 33.712C38.7893 34.0107 37.9573 34.16 36.976 34.16ZM48.2225 25.36C49.2998 25.36 50.1638 25.6747 50.8145 26.304C51.4652 26.9333 51.7905 27.8667 51.7905 29.104V34H49.7905V29.36C49.7905 28.6133 49.6145 28.0533 49.2625 27.68C48.9105 27.296 48.4092 27.104 47.7585 27.104C47.0225 27.104 46.4412 27.328 46.0145 27.776C45.5878 28.2133 45.3745 28.848 45.3745 29.68V34H43.3745V22.128H45.3745V26.448C45.7052 26.096 46.1105 25.8293 46.5905 25.648C47.0812 25.456 47.6252 25.36 48.2225 25.36ZM57.5916 25.36C58.8503 25.36 59.8103 25.664 60.4716 26.272C61.1436 26.8693 61.4796 27.776 61.4796 28.992V34H59.5916V32.96C59.3463 33.3333 58.9943 33.6213 58.5356 33.824C58.0876 34.016 57.5436 34.112 56.9036 34.112C56.2636 34.112 55.7036 34.0053 55.2236 33.792C54.7436 33.568 54.3703 33.264 54.1036 32.88C53.8476 32.4853 53.7196 32.0427 53.7196 31.552C53.7196 30.784 54.0023 30.1707 54.5676 29.712C55.1436 29.2427 56.045 29.008 57.2716 29.008H59.4796V28.88C59.4796 28.2827 59.2983 27.824 58.9356 27.504C58.5836 27.184 58.0556 27.024 57.3516 27.024C56.8716 27.024 56.397 27.0987 55.9276 27.248C55.469 27.3973 55.0796 27.6053 54.7596 27.872L53.9756 26.416C54.4236 26.0747 54.9623 25.8133 55.5916 25.632C56.221 25.4507 56.8876 25.36 57.5916 25.36ZM57.3196 32.656C57.821 32.656 58.2636 32.544 58.6476 32.32C59.0423 32.0853 59.3196 31.7547 59.4796 31.328V30.336H57.4156C56.2636 30.336 55.6876 30.7147 55.6876 31.472C55.6876 31.8347 55.8316 32.1227 56.1196 32.336C56.4076 32.5493 56.8076 32.656 57.3196 32.656ZM65.9504 26.704C66.5264 25.808 67.5397 25.36 68.9904 25.36V27.264C68.8197 27.232 68.665 27.216 68.5264 27.216C67.7477 27.216 67.1397 27.4453 66.7024 27.904C66.265 28.352 66.0464 29.0027 66.0464 29.856V34H64.0464V25.456H65.9504V26.704ZM78.6409 29.776C78.6409 29.9147 78.6302 30.112 78.6089 30.368H71.9049C72.0222 30.9973 72.3262 31.4987 72.8169 31.872C73.3182 32.2347 73.9369 32.416 74.6729 32.416C75.6115 32.416 76.3849 32.1067 76.9929 31.488L78.0649 32.72C77.6809 33.1787 77.1955 33.5253 76.6089 33.76C76.0222 33.9947 75.3609 34.112 74.6249 34.112C73.6862 34.112 72.8595 33.9253 72.1449 33.552C71.4302 33.1787 70.8755 32.6613 70.4809 32C70.0969 31.328 69.9049 30.5707 69.9049 29.728C69.9049 28.896 70.0915 28.1493 70.4649 27.488C70.8489 26.816 71.3769 26.2933 72.0489 25.92C72.7209 25.5467 73.4782 25.36 74.3209 25.36C75.1529 25.36 75.8942 25.5467 76.5449 25.92C77.2062 26.2827 77.7182 26.8 78.0809 27.472C78.4542 28.1333 78.6409 28.9013 78.6409 29.776ZM74.3209 26.96C73.6809 26.96 73.1369 27.152 72.6889 27.536C72.2515 27.9093 71.9849 28.4107 71.8889 29.04H76.7369C76.6515 28.4213 76.3902 27.92 75.9529 27.536C75.5155 27.152 74.9715 26.96 74.3209 26.96Z" fill="#F72585"/>
<path fill-rule="evenodd" clip-rule="evenodd" d="M108 22C107.448 22 107 21.5523 107 21C107 20.4477 107.448 20 108 20C108.552 20 109 20.4477 109 21C109 21.5523 108.552 22 108 22ZM96 29C95.4477 29 95 28.5523 95 28C95 27.4477 95.4477 27 96 27C96.5523 27 97 27.4477 97 28C97 28.5523 96.5523 29 96 29ZM108 36.02C107.448 36.02 107 35.5723 107 35.02C107 34.4677 107.448 34.02 108 34.02C108.552 34.02 109 34.4677 109 35.02C109 35.5723 108.552 36.02 108 36.02Z" fill="white"/>
<path fill-rule="evenodd" clip-rule="evenodd" d="M108 32.08C107.24 32.08 106.56 32.38 106.04 32.85L98.91 28.7C98.96 28.47 99 28.24 99 28C99 27.76 98.96 27.53 98.91 27.3L105.96 23.19C106.5 23.69 107.21 24 108 24C109.66 24 111 22.66 111 21C111 19.34 109.66 18 108 18C106.34 18 105 19.34 105 21C105 21.24 105.04 21.47 105.09 21.7L98.04 25.81C97.5 25.31 96.79 25 96 25C94.34 25 93 26.34 93 28C93 29.66 94.34 31 96 31C96.79 31 97.5 30.69 98.04 30.19L105.16 34.35C105.11 34.56 105.08 34.78 105.08 35C105.08 36.61 106.39 37.92 108 37.92C109.61 37.92 110.92 36.61 110.92 35C110.92 33.39 109.61 32.08 108 32.08ZM108 20C108.55 20 109 20.45 109 21C109 21.55 108.55 22 108 22C107.45 22 107 21.55 107 21C107 20.45 107.45 20 108 20ZM96 29C95.45 29 95 28.55 95 28C95 27.45 95.45 27 96 27C96.55 27 97 27.45 97 28C97 28.55 96.55 29 96 29ZM108 36.02C107.45 36.02 107 35.57 107 35.02C107 34.47 107.45 34.02 108 34.02C108.55 34.02 109 34.47 109 35.02C109 35.57 108.55 36.02 108 36.02Z" fill="#F72585"/>
</svg>
