<svg width="97" height="16" viewBox="0 0 97 16" fill="none" xmlns="http://www.w3.org/2000/svg">
<path fill-rule="evenodd" clip-rule="evenodd" d="M8.08165 12.8589L13.0425 16L11.726 10.08L16.1089 6.09684L10.3373 5.58316L8.08165 0L5.82601 5.58316L0.0544434 6.09684L4.4373 10.08L3.12084 16L8.08165 12.8589Z" fill="#FAA307"/>
<path fill-rule="evenodd" clip-rule="evenodd" d="M28.15 12.8589L33.1108 16L31.7944 10.08L36.1772 6.09684L30.4057 5.58316L28.15 0L25.8944 5.58316L20.1228 6.09684L24.5057 10.08L23.1892 16L28.15 12.8589Z" fill="#FAA307"/>
<path fill-rule="evenodd" clip-rule="evenodd" d="M48.2179 12.8589L53.1787 16L51.8622 10.08L56.2451 6.09684L50.4735 5.58316L48.2179 0L45.9622 5.58316L40.1907 6.09684L44.5735 10.08L43.2571 16L48.2179 12.8589Z" fill="#FAA307"/>
<path fill-rule="evenodd" clip-rule="evenodd" d="M68.286 12.8589L73.2468 16L71.9304 10.08L76.3132 6.09684L70.5416 5.58316L68.286 0L66.0304 5.58316L60.2588 6.09684L64.6416 10.08L63.3252 16L68.286 12.8589Z" fill="#FAA307"/>
<path fill-rule="evenodd" clip-rule="evenodd" d="M88.3539 12.8589L93.3147 16L91.9982 10.08L96.3811 6.09684L90.6095 5.58316L88.3539 0L86.0982 5.58316L80.3267 6.09684L84.7095 10.08L83.3931 16L88.3539 12.8589Z" fill="#FAA307"/>
</svg>
