<svg width="112" height="16" viewBox="0 0 112 16" fill="none" xmlns="http://www.w3.org/2000/svg">
<path fill-rule="evenodd" clip-rule="evenodd" d="M8 12.859L12.944 16L11.632 10.08L16 6.09686L10.248 5.58317L8 0L5.752 5.58317L0 6.09686L4.368 10.08L3.056 16L8 12.859Z" fill="#FAA307"/>
<path fill-rule="evenodd" clip-rule="evenodd" d="M32 12.859L36.944 16L35.632 10.08L40 6.09686L34.248 5.58317L32 0L29.752 5.58317L24 6.09686L28.368 10.08L27.056 16L32 12.859Z" fill="#FAA307"/>
<path fill-rule="evenodd" clip-rule="evenodd" d="M56 12.859L60.944 16L59.632 10.08L64 6.09686L58.248 5.58317L56 0L53.752 5.58317L48 6.09686L52.368 10.08L51.056 16L56 12.859Z" fill="#FAA307"/>
<path fill-rule="evenodd" clip-rule="evenodd" d="M80 12.859L84.944 16L83.632 10.08L88 6.09686L82.248 5.58317L80 0L77.752 5.58317L72 6.09686L76.368 10.08L75.056 16L80 12.859Z" fill="#FAA307"/>
<path fill-rule="evenodd" clip-rule="evenodd" d="M104 12.859L108.944 16L107.632 10.08L112 6.09686L106.248 5.58317L104 0L101.752 5.58317L96 6.09686L100.368 10.08L99.056 16L104 12.859Z" fill="#FAA307"/>
</svg>
